<?xml version="1.0" encoding="UTF-8" standalone="no"?>
<svg
   xmlns:dc="http://purl.org/dc/elements/1.1/"
   xmlns:cc="http://creativecommons.org/ns#"
   xmlns:rdf="http://www.w3.org/1999/02/22-rdf-syntax-ns#"
   xmlns:svg="http://www.w3.org/2000/svg"
   xmlns="http://www.w3.org/2000/svg"
   xmlns:xlink="http://www.w3.org/1999/xlink"
   xmlns:sodipodi="http://sodipodi.sourceforge.net/DTD/sodipodi-0.dtd"
   xmlns:inkscape="http://www.inkscape.org/namespaces/inkscape"
   viewBox="0 0 250 250"
   version="1.1"
   id="svg27"
   sodipodi:docname="icon_ups.svg"
   inkscape:version="1.0.2-2 (e86c870879, 2021-01-15)"
   width="250"
   height="250">
  <metadata
     id="metadata31">
    <rdf:RDF>
      <cc:Work
         rdf:about="">
        <dc:format>image/svg+xml</dc:format>
        <dc:type
           rdf:resource="http://purl.org/dc/dcmitype/StillImage" />
        <dc:title></dc:title>
      </cc:Work>
    </rdf:RDF>
  </metadata>
  <sodipodi:namedview
     pagecolor="#ffffff"
     bordercolor="#666666"
     borderopacity="1"
     objecttolerance="10"
     gridtolerance="10000"
     guidetolerance="10000"
     inkscape:pageopacity="0"
     inkscape:pageshadow="2"
     inkscape:window-width="1918"
     inkscape:window-height="1004"
     id="namedview29"
     showgrid="false"
     inkscape:zoom="1.2928839"
     inkscape:cx="248.00972"
     inkscape:cy="68.838774"
     inkscape:window-x="1910"
     inkscape:window-y="0"
     inkscape:window-maximized="0"
     inkscape:current-layer="g824"
     inkscape:snap-path-clip="true"
     inkscape:snap-path-mask="true"
     inkscape:snap-perpendicular="true"
     inkscape:snap-tangential="true"
     showborder="true"
     borderlayer="true"
     inkscape:pagecheckerboard="true"
     inkscape:document-rotation="0" />
  <defs
     id="defs13">
    <clipPath
       id="a"
       transform="translate(178.38 178.11)">
      <circle
         cx="489.29999"
         cy="489.29999"
         r="475.29999"
         style="fill:none"
         id="circle2" />
    </clipPath>
    <radialGradient
       id="b"
       cx="466.56"
       cy="509.06"
       r="269.37"
       gradientUnits="userSpaceOnUse">
      <stop
         offset="0"
         stop-color="#fff"
         id="stop5" />
      <stop
         offset="0.43"
         stop-color="#eaeaea"
         id="stop7" />
      <stop
         offset="1"
         stop-color="#c8c8c8"
         id="stop9" />
    </radialGradient>
    <radialGradient
       id="c"
       cx="557.79999"
       cy="414.69"
       r="215.24001"
       xlink:href="#b" />
  </defs>
  <g
     id="g824"
     transform="matrix(0.49999225,0,0,0.4999904,0,0.0048)">
    <ellipse
       style="fill:#d81e06;fill-opacity:1;fill-rule:nonzero;stroke:none;stroke-width:0;stroke-miterlimit:4;stroke-dasharray:none;stroke-opacity:1"
       id="path5119"
       cx="250.00388"
       cy="249.99519"
       rx="219.78214"
       ry="219.78499" />
    <path
       d="M 249.95733,499.99953 A 250.12766,250.05617 0 0 1 152.62102,19.669719 250.12478,250.05331 0 0 1 347.29365,480.35489 248.5025,248.43148 0 0 1 249.95733,499.99953 Z m 0,-485.673963 A 235.81799,235.7506 0 0 0 158.19669,467.17842 235.81475,235.74736 0 0 0 341.72309,32.846178 234.26948,234.20255 0 0 0 249.95733,14.325567 Z"
       style="fill:#d81e06;stroke-width:0.510986;fill-opacity:1"
       id="path21"
       inkscape:connector-curvature="0" />
    <ellipse
       style="fill:#ffffff;fill-opacity:1;fill-rule:nonzero;stroke:none;stroke-width:0;stroke-miterlimit:4;stroke-dasharray:none;stroke-opacity:1"
       id="path5119-2"
       cx="250.00388"
       cy="249.99519"
       rx="207.20285"
       ry="207.20554" />
    <g
       id="g852"
       transform="matrix(0.29852966,0,0,0.29853077,97.156694,97.147446)">
      <path
         d="M 522.75,486.15 H 502.8 V 543 H 520 q 20.25,0 28.45,-7.91 8.2,-7.91 8.19,-20.26 0,-12 -7.11,-20.34 -7.11,-8.34 -26.78,-8.34 z"
         p-id="55798"
         fill="#d81e06"
         id="path6" />
      <path
         d="M 907.61,90 H 116.39 a 52.74,52.74 0 0 0 -52.74,52.74 v 685.74 a 52.74,52.74 0 0 0 52.74,52.75 V 934 H 274.63 V 881.23 H 432.88 V 934 H 591.12 V 881.23 H 749.37 V 934 h 158.24 v -52.77 a 52.74,52.74 0 0 0 52.74,-52.75 V 142.76 A 52.74,52.74 0 0 0 907.61,90 Z M 169.14,228.12 h 158.24 v 52.75 H 169.14 Z m 217.23,358.17 a 142.4,142.4 0 0 1 -6.26,42.71 94.47,94.47 0 0 1 -19.63,35.12 q -13.37,15 -28.06,21.12 -20.42,8.52 -49,8.52 a 274.31,274.31 0 0 1 -36.1,-2.61 q -19.56,-2.61 -32.7,-10.35 -13.14,-7.74 -24,-22 a 83.81,83.81 0 0 1 -14.93,-29.39 q -6.48,-24.32 -6.49,-43.1 V 434.34 H 239 v 155.6 q 0,20.87 10.28,32.6 10.28,11.73 28.53,11.73 18.07,0 28.37,-11.56 10.3,-11.56 10.28,-32.77 v -155.6 h 69.88 z M 604.16,572.9 q -20.65,21.74 -63,21.73 H 502.8 v 94.58 H 432.45 V 434.34 h 116.43 q 38,0 57,20.34 19,20.34 18.94,57.89 -0.03,38.6 -20.66,60.33 z m 238.64,78.58 a 78.23,78.23 0 0 1 -33.71,31.38 q -21.65,10.71 -54.58,10.7 -57.82,0 -80.09,-25 -22.27,-25 -25.2,-63.63 l 66.64,-4.69 q 2.14,18.21 8.81,27.76 10.83,15.47 30.93,15.47 15,0 23.11,-7.92 8.11,-7.92 8.12,-18.34 0,-9.9 -7.74,-17.74 -7.74,-7.84 -35.86,-14.77 -46.08,-11.64 -65.71,-30.94 -19.8,-19.32 -19.79,-49.21 a 72.84,72.84 0 0 1 10.13,-37.11 Q 678,450 698.31,440 q 20.31,-10 55.75,-10 43.44,0 66.25,18.16 22.81,18.16 27.13,57.84 l -66,4.34 q -2.64,-17.21 -11,-25 -8.36,-7.79 -23.28,-7.82 -12.21,0 -18.39,5.82 a 18.75,18.75 0 0 0 -6.19,14.17 c 0,4.06 1.7,7.7 5.1,10.95 3.4,3.25 11.13,6.49 23.5,9.39 q 45.93,11.12 65.8,22.52 19.87,11.4 28.9,28.24 9,16.88 9.05,37.73 a 88.13,88.13 0 0 1 -12.13,45.14 z m 12.06,-370.61 h -52.74 v 52.74 h -52.75 v -52.74 h -52.75 v -52.75 h 52.75 v -52.75 h 52.75 v 52.75 h 52.74 z"
         p-id="55799"
         fill="#d81e06"
         id="path8-8" />
    </g>
  </g>
</svg>
