<?xml version="1.0" encoding="UTF-8" standalone="no"?>
<svg
   xmlns:dc="http://purl.org/dc/elements/1.1/"
   xmlns:cc="http://creativecommons.org/ns#"
   xmlns:rdf="http://www.w3.org/1999/02/22-rdf-syntax-ns#"
   xmlns:svg="http://www.w3.org/2000/svg"
   xmlns="http://www.w3.org/2000/svg"
   xmlns:xlink="http://www.w3.org/1999/xlink"
   xmlns:sodipodi="http://sodipodi.sourceforge.net/DTD/sodipodi-0.dtd"
   xmlns:inkscape="http://www.inkscape.org/namespaces/inkscape"
   viewBox="0 0 250 250"
   version="1.1"
   id="svg27"
   sodipodi:docname="icon_samba.svg"
   inkscape:version="1.0.2-2 (e86c870879, 2021-01-15)"
   width="250"
   height="250">
  <metadata
     id="metadata31">
    <rdf:RDF>
      <cc:Work
         rdf:about="">
        <dc:format>image/svg+xml</dc:format>
        <dc:type
           rdf:resource="http://purl.org/dc/dcmitype/StillImage" />
        <dc:title></dc:title>
      </cc:Work>
    </rdf:RDF>
  </metadata>
  <sodipodi:namedview
     pagecolor="#ffffff"
     bordercolor="#666666"
     borderopacity="1"
     objecttolerance="10"
     gridtolerance="10000"
     guidetolerance="10000"
     inkscape:pageopacity="0"
     inkscape:pageshadow="2"
     inkscape:window-width="1918"
     inkscape:window-height="1004"
     id="namedview29"
     showgrid="false"
     inkscape:zoom="1.8284139"
     inkscape:cx="171.88852"
     inkscape:cy="114.77946"
     inkscape:window-x="1910"
     inkscape:window-y="0"
     inkscape:window-maximized="0"
     inkscape:current-layer="g824"
     inkscape:snap-path-clip="true"
     inkscape:snap-path-mask="true"
     inkscape:snap-perpendicular="true"
     inkscape:snap-tangential="true"
     showborder="true"
     borderlayer="true"
     inkscape:pagecheckerboard="true"
     inkscape:document-rotation="0"
     showguides="true">
    <inkscape:grid
       type="xygrid"
       id="grid1255" />
  </sodipodi:namedview>
  <defs
     id="defs13">
    <clipPath
       id="a"
       transform="translate(178.38 178.11)">
      <circle
         cx="489.29999"
         cy="489.29999"
         r="475.29999"
         style="fill:none"
         id="circle2" />
    </clipPath>
    <radialGradient
       id="b"
       cx="466.56"
       cy="509.06"
       r="269.37"
       gradientUnits="userSpaceOnUse">
      <stop
         offset="0"
         stop-color="#fff"
         id="stop5" />
      <stop
         offset="0.43"
         stop-color="#eaeaea"
         id="stop7" />
      <stop
         offset="1"
         stop-color="#c8c8c8"
         id="stop9" />
    </radialGradient>
    <radialGradient
       id="c"
       cx="557.79999"
       cy="414.69"
       r="215.24001"
       xlink:href="#b" />
    <radialGradient
       id="a-2"
       cx="1244.322"
       cy="919.87097"
       r="0.92500001"
       gradientTransform="matrix(610,0,0,-1000.5,-756323.63,921038.75)"
       gradientUnits="userSpaceOnUse">
      <stop
         offset="0"
         stop-color="#f9be03"
         id="stop8" />
      <stop
         offset="1"
         stop-color="#cc7c19"
         id="stop10" />
    </radialGradient>
    <linearGradient
       x1="348.2829"
       y1="0"
       x2="782.05951"
       y2="786.48322"
       id="a-6"
       gradientUnits="userSpaceOnUse">
      <stop
         stop-color="#72B4F5"
         offset="0%"
         id="stop4" />
      <stop
         stop-color="#356EBF"
         offset="100%"
         id="stop6" />
    </linearGradient>
    <clipPath
       id="clip_1">
      <rect
         width="2048.0317"
         height="2048.0393"
         id="use3"
         x="0"
         y="-0.0096001839"
         style="clip-rule:evenodd;stroke-width:2.00003" />
    </clipPath>
    <clipPath
       id="clip_1-2">
      <rect
         width="2048.0317"
         height="2048.0393"
         id="use3-8"
         x="0"
         y="-0.0096001839"
         style="clip-rule:evenodd;stroke-width:2.00003" />
    </clipPath>
  </defs>
  <g
     id="g824"
     transform="matrix(0.49999225,0,0,0.4999904,0,0.0048)">
    <ellipse
       style="fill:#d01e31;fill-opacity:1;fill-rule:nonzero;stroke:none;stroke-width:0;stroke-miterlimit:4;stroke-dasharray:none;stroke-opacity:1"
       id="path5119"
       cx="250.00388"
       cy="249.99519"
       rx="219.78214"
       ry="219.78499" />
    <path
       d="M 249.95733,499.99953 A 250.12766,250.05617 0 0 1 152.62102,19.669719 250.12478,250.05331 0 0 1 347.29365,480.35489 248.5025,248.43148 0 0 1 249.95733,499.99953 Z m 0,-485.673963 A 235.81799,235.7506 0 0 0 158.19669,467.17842 235.81475,235.74736 0 0 0 341.72309,32.846178 234.26948,234.20255 0 0 0 249.95733,14.325567 Z"
       style="fill:#d01e31;stroke-width:0.510986;fill-opacity:1"
       id="path21"
       inkscape:connector-curvature="0" />
    <path
       fill="#aa0707"
       d="M 641.48102,613.91097"
       id="path2-8"
       style="stroke-width:1.05013;fill:#5f9ee4;fill-opacity:1" />
    <path
       fill="#aa0707"
       d="M 674.64315,680.23551"
       id="path4"
       style="stroke-width:1.05013" />
    <path
       fill="#aa0707"
       d="M 641.48102,613.91097"
       id="path6-3"
       style="stroke-width:1.05013;fill:#5f9ee4;fill-opacity:1" />
    <path
       fill="#aa0707"
       d="M 674.64315,680.23551"
       id="path8"
       style="stroke-width:1.05013" />
    <rect
       width="4096.127"
       height="4096.1572"
       id="use8"
       x="1609.8083"
       y="-507.92596"
       style="fill:#ffffff;fill-opacity:0;stroke:none;stroke-width:4.00013" />
    <ellipse
       style="fill:#ffffff;fill-opacity:1;fill-rule:nonzero;stroke:none;stroke-width:0;stroke-miterlimit:4;stroke-dasharray:none;stroke-opacity:1"
       id="path5119-3"
       cx="250.00388"
       cy="249.99519"
       rx="207.74966"
       ry="207.75237" />
    <g
       id="g126"
       transform="matrix(0.2538984,0,0,0.25389935,120.0079,119.99873)">
      <path
         d="M 921.6,819.2 H 102.4 C 44.373,819.2 0,774.827 0,716.8 V 170.667 C 0,112.64 44.373,68.267 102.4,68.267 H 256 c 44.373,0 81.92,27.306 95.573,71.68 l 3.414,20.48 c 10.24,27.306 34.133,44.373 64.853,44.373 H 921.6 c 58.027,0 102.4,44.373 102.4,102.4 v 409.6 c 0,58.027 -44.373,102.4 -102.4,102.4 z M 102.4,102.4 c -37.547,0 -68.267,30.72 -68.267,68.267 V 716.8 c 0,37.547 30.72,68.267 68.267,68.267 h 819.2 c 37.547,0 68.267,-30.72 68.267,-68.267 V 307.2 c 0,-37.547 -30.72,-68.267 -68.267,-68.267 H 423.253 c -44.373,0 -81.92,-27.306 -95.573,-71.68 l -6.827,-20.48 C 310.613,122.88 286.72,102.4 256,102.4 Z"
         p-id="73040"
         fill="#d81e06"
         id="path105" />
      <path
         d="m 972.8,256 c -10.24,0 -17.067,-6.827 -17.067,-17.067 V 102.4 c 0,-37.547 -30.72,-68.267 -68.266,-68.267 H 136.533 c -20.48,0 -68.266,3.414 -68.266,51.2 V 102.4 c 0,10.24 -6.827,17.067 -17.067,17.067 -10.24,0 -17.067,-6.827 -17.067,-17.067 V 85.333 C 34.133,34.133 75.093,0 136.533,0 h 750.934 c 58.026,0 102.4,44.373 102.4,102.4 V 238.933 C 989.867,249.173 983.04,256 972.8,256 Z M 563.2,1024 H 426.667 c -10.24,0 -17.067,-6.827 -17.067,-17.067 v -102.4 c 0,-10.24 6.827,-17.066 17.067,-17.066 h 17.066 V 870.4 c 0,-10.24 6.827,-17.067 17.067,-17.067 h 68.267 c 10.24,0 17.066,6.827 17.066,17.067 v 17.067 H 563.2 c 10.24,0 17.067,6.826 17.067,17.066 v 102.4 c 0,10.24 -6.827,17.067 -17.067,17.067 z M 443.733,989.867 h 102.4 V 921.6 H 529.067 C 518.827,921.6 512,914.773 512,904.533 v -17.066 h -34.133 v 17.066 c 0,10.24 -6.827,17.067 -17.067,17.067 h -17.067 z"
         p-id="73041"
         fill="#d81e06"
         id="path107" />
      <path
         d="m 494.933,887.467 c -10.24,0 -17.066,-6.827 -17.066,-17.067 v -68.267 c 0,-10.24 6.826,-17.066 17.066,-17.066 10.24,0 17.067,6.826 17.067,17.066 V 870.4 c 0,10.24 -6.827,17.067 -17.067,17.067 z m 512,102.4 H 563.2 c -10.24,0 -17.067,-6.827 -17.067,-17.067 0,-10.24 6.827,-17.067 17.067,-17.067 h 443.733 c 10.24,0 17.067,6.827 17.067,17.067 0,10.24 -6.827,17.067 -17.067,17.067 z"
         p-id="73042"
         fill="#d81e06"
         id="path109" />
      <path
         d="M 426.667,989.867 H 17.067 C 6.827,989.867 0,983.04 0,972.8 0,962.56 6.827,955.733 17.067,955.733 h 409.6 c 10.24,0 17.066,6.827 17.066,17.067 0,10.24 -6.826,17.067 -17.066,17.067 z"
         p-id="73043"
         fill="#d81e06"
         id="path111" />
      <path
         d="m 309.346,576.822 q -16.926,0 -34.398,-3.685 -17.472,-3.686 -28.119,-8.6 l 3.55,-27.573 q 13.65,6.552 30.848,11.466 17.2,4.914 34.125,4.914 19.11,0 29.62,-6.962 10.511,-6.961 10.511,-20.884 0,-10.374 -5.323,-17.335 -5.324,-6.962 -15.561,-11.74 -10.238,-4.777 -28.529,-10.237 -18.564,-5.46 -30.849,-11.739 -12.285,-6.279 -19.792,-17.199 -7.508,-10.92 -7.508,-27.573 0,-23.205 17.882,-37.401 17.881,-14.196 50.368,-14.196 17.472,0 33.17,3.822 15.697,3.822 27.436,9.282 l -2.73,27.573 q -15.288,-9.009 -29.484,-13.104 -14.196,-4.095 -29.484,-4.095 -17.745,0 -28.255,6.552 -10.51,6.552 -10.51,20.202 0,9.282 4.777,15.288 4.777,6.006 13.786,10.237 9.01,4.232 25.116,9.146 32.214,9.828 48.048,23.341 15.834,13.514 15.834,37.265 0,25.116 -18.837,39.175 -18.837,14.06 -55.692,14.06 z M 620.91,573 h -27.3 L 575.592,428.583 523.722,527.682 470.76,428.31 452.742,573 h -27.3 l 25.662,-191.1 h 22.113 l 50.232,94.731 49.686,-94.731 h 22.386 L 620.911,573 Z M 771.677,468.987 q 18.018,4.368 27.573,16.79 9.555,12.421 9.555,32.623 0,25.389 -16.243,39.994 Q 776.318,573 747.926,573 H 675.854 V 381.9 h 60.333 q 26.208,0 40.54,11.739 14.333,11.739 14.333,34.944 0,13.65 -4.914,24.297 -4.914,10.647 -14.469,16.107 z m -69.888,-63.882 v 56.238 h 31.122 q 15.288,0 23.342,-6.143 8.053,-6.142 8.053,-21.976 0,-15.834 -8.053,-21.977 -8.054,-6.142 -23.342,-6.142 H 701.79 Z m 43.953,144.417 q 16.107,0 25.39,-8.054 9.281,-8.053 9.281,-23.887 0,-32.76 -34.67,-32.76 h -43.954 v 64.701 z"
         p-id="73044"
         fill="#d81e06"
         id="path113" />
    </g>
  </g>
</svg>
