<?xml version="1.0" encoding="UTF-8" standalone="no"?>
<svg
   xmlns:dc="http://purl.org/dc/elements/1.1/"
   xmlns:cc="http://creativecommons.org/ns#"
   xmlns:rdf="http://www.w3.org/1999/02/22-rdf-syntax-ns#"
   xmlns:svg="http://www.w3.org/2000/svg"
   xmlns="http://www.w3.org/2000/svg"
   xmlns:xlink="http://www.w3.org/1999/xlink"
   xmlns:sodipodi="http://sodipodi.sourceforge.net/DTD/sodipodi-0.dtd"
   xmlns:inkscape="http://www.inkscape.org/namespaces/inkscape"
   viewBox="0 0 250 250"
   version="1.1"
   id="svg27"
   sodipodi:docname="icon_smb1.svg"
   inkscape:version="1.0.2-2 (e86c870879, 2021-01-15)"
   width="250"
   height="250">
  <metadata
     id="metadata31">
    <rdf:RDF>
      <cc:Work
         rdf:about="">
        <dc:format>image/svg+xml</dc:format>
        <dc:type
           rdf:resource="http://purl.org/dc/dcmitype/StillImage" />
        <dc:title></dc:title>
      </cc:Work>
    </rdf:RDF>
  </metadata>
  <sodipodi:namedview
     pagecolor="#ffffff"
     bordercolor="#666666"
     borderopacity="1"
     objecttolerance="10"
     gridtolerance="10000"
     guidetolerance="10000"
     inkscape:pageopacity="0"
     inkscape:pageshadow="2"
     inkscape:window-width="1918"
     inkscape:window-height="1004"
     id="namedview29"
     showgrid="false"
     inkscape:zoom="1.8284139"
     inkscape:cx="171.88852"
     inkscape:cy="114.77946"
     inkscape:window-x="1910"
     inkscape:window-y="0"
     inkscape:window-maximized="0"
     inkscape:current-layer="g824"
     inkscape:snap-path-clip="true"
     inkscape:snap-path-mask="true"
     inkscape:snap-perpendicular="true"
     inkscape:snap-tangential="true"
     showborder="true"
     borderlayer="true"
     inkscape:pagecheckerboard="true"
     inkscape:document-rotation="0"
     showguides="true">
    <inkscape:grid
       type="xygrid"
       id="grid1255" />
  </sodipodi:namedview>
  <defs
     id="defs13">
    <clipPath
       id="a"
       transform="translate(178.38 178.11)">
      <circle
         cx="489.29999"
         cy="489.29999"
         r="475.29999"
         style="fill:none"
         id="circle2" />
    </clipPath>
    <radialGradient
       id="b"
       cx="466.56"
       cy="509.06"
       r="269.37"
       gradientUnits="userSpaceOnUse">
      <stop
         offset="0"
         stop-color="#fff"
         id="stop5" />
      <stop
         offset="0.43"
         stop-color="#eaeaea"
         id="stop7" />
      <stop
         offset="1"
         stop-color="#c8c8c8"
         id="stop9" />
    </radialGradient>
    <radialGradient
       id="c"
       cx="557.79999"
       cy="414.69"
       r="215.24001"
       xlink:href="#b" />
    <radialGradient
       id="a-2"
       cx="1244.322"
       cy="919.87097"
       r="0.92500001"
       gradientTransform="matrix(610,0,0,-1000.5,-756323.63,921038.75)"
       gradientUnits="userSpaceOnUse">
      <stop
         offset="0"
         stop-color="#f9be03"
         id="stop8" />
      <stop
         offset="1"
         stop-color="#cc7c19"
         id="stop10" />
    </radialGradient>
    <linearGradient
       x1="348.2829"
       y1="0"
       x2="782.05951"
       y2="786.48322"
       id="a-6"
       gradientUnits="userSpaceOnUse">
      <stop
         stop-color="#72B4F5"
         offset="0%"
         id="stop4" />
      <stop
         stop-color="#356EBF"
         offset="100%"
         id="stop6" />
    </linearGradient>
    <clipPath
       id="clip_1">
      <rect
         width="2048.0317"
         height="2048.0393"
         id="use3"
         x="0"
         y="-0.0096001839"
         style="clip-rule:evenodd;stroke-width:2.00003" />
    </clipPath>
    <clipPath
       id="clip_1-2">
      <rect
         width="2048.0317"
         height="2048.0393"
         id="use3-8"
         x="0"
         y="-0.0096001839"
         style="clip-rule:evenodd;stroke-width:2.00003" />
    </clipPath>
    <linearGradient
       id="grad0"
       x1="452.10999"
       y1="556.82001"
       x2="451.76001"
       y2="528.82001"
       gradientUnits="userSpaceOnUse"
       gradientTransform="matrix(12.263007,0,0,9.7035264,-4805.203,-5117.763)">
      <stop
         offset="0"
         stop-color="#1c99f5"
         id="stop2" />
      <stop
         offset="1"
         stop-color="#20b9fa"
         id="stop4-1" />
    </linearGradient>
  </defs>
  <g
     id="g824"
     transform="matrix(0.49999225,0,0,0.4999904,0,0.0048)">
    <ellipse
       style="fill:#1ea7f7;fill-opacity:1;fill-rule:nonzero;stroke:none;stroke-width:0;stroke-miterlimit:4;stroke-dasharray:none;stroke-opacity:1"
       id="path5119"
       cx="250.00388"
       cy="249.99519"
       rx="219.78214"
       ry="219.78499" />
    <path
       d="M 249.95733,499.99953 A 250.12766,250.05617 0 0 1 152.62102,19.669719 250.12478,250.05331 0 0 1 347.29365,480.35489 248.5025,248.43148 0 0 1 249.95733,499.99953 Z m 0,-485.673963 A 235.81799,235.7506 0 0 0 158.19669,467.17842 235.81475,235.74736 0 0 0 341.72309,32.846178 234.26948,234.20255 0 0 0 249.95733,14.325567 Z"
       style="fill:#1ea7f7;stroke-width:0.510986;fill-opacity:1"
       id="path21"
       inkscape:connector-curvature="0" />
    <path
       fill="#aa0707"
       d="M 641.48102,613.91097"
       id="path2-8"
       style="stroke-width:1.05013;fill:#5f9ee4;fill-opacity:1" />
    <path
       fill="#aa0707"
       d="M 674.64315,680.23551"
       id="path4"
       style="stroke-width:1.05013" />
    <path
       fill="#aa0707"
       d="M 641.48102,613.91097"
       id="path6-3"
       style="stroke-width:1.05013;fill:#5f9ee4;fill-opacity:1" />
    <path
       fill="#aa0707"
       d="M 674.64315,680.23551"
       id="path8"
       style="stroke-width:1.05013" />
    <rect
       width="4096.127"
       height="4096.1572"
       id="use8"
       x="1609.8083"
       y="-507.92596"
       style="fill:#ffffff;fill-opacity:0;stroke:none;stroke-width:4.00013" />
    <g
       style="fill:#dceefd"
       id="g15"
       transform="matrix(12.891376,0,0,12.891424,-369.09248,-36.744222)">
      <path
         inkscape:connector-curvature="0"
         id="path11"
         transform="matrix(1.6923,0,0,1.6923,-630.1,-881.48)"
         d="m 397.37,530.94 c 0.141,0 0.278,0.02 0.407,0.061 0.488,-0.546 1.028,-1.044 1.613,-1.484 -0.025,-0.103 -0.038,-0.211 -0.038,-0.321 0,-0.153 0.026,-0.301 0.072,-0.439 -0.656,-0.469 -1.369,-0.864 -2.127,-1.169 -0.71,0.439 -1.33,1.011 -1.824,1.682 0.367,0.65 0.803,1.255 1.299,1.807 0.181,-0.088 0.384,-0.137 0.599,-0.137 m -1.383,1.383 c 0,-0.194 0.041,-0.379 0.112,-0.546 -0.444,-0.489 -0.846,-1.015 -1.198,-1.575 -0.442,0.878 -0.692,1.869 -0.692,2.919 0,1.215 0.335,2.351 0.915,3.324 0.208,-1.169 0.601,-2.274 1.145,-3.287 -0.177,-0.232 -0.282,-0.522 -0.282,-0.835 m 4.748,-4.51 c 0.365,0 0.696,0.142 0.944,0.374 0.721,-0.31 1.481,-0.549 2.271,-0.701 -0.955,-0.55 -2.061,-0.866 -3.241,-0.866 -0.805,0 -1.575,0.148 -2.286,0.415 0.565,0.279 1.103,0.604 1.609,0.971 0.206,-0.123 0.446,-0.194 0.703,-0.194 m 2.067,6.513 c 0.086,-0.179 0.208,-0.338 0.36,-0.463 -0.408,-1.255 -1.055,-2.405 -1.888,-3.393 -0.165,0.071 -0.348,0.109 -0.54,0.109 -0.3,0 -0.577,-0.097 -0.803,-0.258 -0.502,0.381 -0.966,0.808 -1.388,1.274 0.133,0.211 0.21,0.461 0.21,0.728 0,0.143 -0.022,0.283 -0.064,0.414 1.213,0.81 2.61,1.366 4.113,1.59 m 1.794,1.867 c 0.018,0.262 0.029,0.526 0.029,0.792 0,0.469 -0.03,0.931 -0.086,1.385 1.102,-0.805 1.942,-1.949 2.365,-3.278 -0.502,0.122 -1.016,0.208 -1.541,0.258 -0.122,0.379 -0.404,0.685 -0.767,0.842 m -2.117,-0.938 c -1.605,-0.266 -3.092,-0.879 -4.387,-1.755 -0.211,0.129 -0.457,0.204 -0.721,0.204 -0.098,0 -0.192,-10e-4 -0.284,-0.029 -0.62,1.174 -1.016,2.485 -1.13,3.875 0.619,0.664 1.373,1.199 2.222,1.558 1.054,-1.62 2.527,-2.96 4.301,-3.853 m 2.594,-6.954 c -1.042,0.101 -2.037,0.363 -2.962,0.755 0.004,0.047 0.007,0.093 0.007,0.139 0,0.218 -0.052,0.424 -0.142,0.607 0.926,1.087 1.644,2.353 2.098,3.738 0.563,0.011 1.044,0.355 1.251,0.844 0.626,-0.064 1.235,-0.184 1.821,-0.356 0.042,-0.297 0.065,-0.601 0.065,-0.909 -1e-4,-1.91 -0.825,-3.629 -2.137,-4.818 m -1.898,7.693 c -1.656,0.776 -3.041,1.97 -4.04,3.431 0.505,0.126 1.034,0.194 1.578,0.194 0.98,0 1.909,-0.218 2.743,-0.607 0.134,-0.656 0.205,-1.333 0.205,-2.027 0,-0.251 -0.011,-0.5 -0.03,-0.745 -0.167,-0.054 -0.32,-0.136 -0.452,-0.246" />
      <path
         inkscape:connector-curvature="0"
         id="path13"
         transform="matrix(0.04715,0,0,0.04715,-16.233,16.465)"
         d="m 1426.97,359.05 h 72.78 v 13.287 h -72.66 v 0.623 c 0,8.395 -6.796,15.19 -15.18,15.19 h -98.57 c -8.383,0 -15.186,-6.796 -15.186,-15.19 v -0.623 h -72.65 V 359.05 h 72.78 c 0.648,-7.792 7.105,-13.92 15.06,-13.92 h 30.25 v -30.358 c 0,-8.384 6.795,-15.191 15.179,-15.191 h 7.592 c 8.385,0 15.182,6.808 15.182,15.191 v 30.358 h 30.369 c 7.956,0 14.403,6.14 15.06,13.92" />
    </g>
  </g>
</svg>
