<?xml version="1.0" encoding="UTF-8" standalone="no"?>
<svg
   xmlns:dc="http://purl.org/dc/elements/1.1/"
   xmlns:cc="http://creativecommons.org/ns#"
   xmlns:rdf="http://www.w3.org/1999/02/22-rdf-syntax-ns#"
   xmlns:svg="http://www.w3.org/2000/svg"
   xmlns="http://www.w3.org/2000/svg"
   xmlns:xlink="http://www.w3.org/1999/xlink"
   xmlns:sodipodi="http://sodipodi.sourceforge.net/DTD/sodipodi-0.dtd"
   xmlns:inkscape="http://www.inkscape.org/namespaces/inkscape"
   viewBox="0 0 250 250"
   version="1.1"
   id="svg27"
   sodipodi:docname="icon_vmvare.svg"
   inkscape:version="1.0.2-2 (e86c870879, 2021-01-15)"
   width="250"
   height="250">
  <metadata
     id="metadata31">
    <rdf:RDF>
      <cc:Work
         rdf:about="">
        <dc:format>image/svg+xml</dc:format>
        <dc:type
           rdf:resource="http://purl.org/dc/dcmitype/StillImage" />
        <dc:title></dc:title>
      </cc:Work>
    </rdf:RDF>
  </metadata>
  <sodipodi:namedview
     pagecolor="#ffffff"
     bordercolor="#666666"
     borderopacity="1"
     objecttolerance="10"
     gridtolerance="10000"
     guidetolerance="10000"
     inkscape:pageopacity="0"
     inkscape:pageshadow="2"
     inkscape:window-width="1918"
     inkscape:window-height="1004"
     id="namedview29"
     showgrid="false"
     inkscape:zoom="1.8284139"
     inkscape:cx="218.64585"
     inkscape:cy="119.02378"
     inkscape:window-x="1910"
     inkscape:window-y="0"
     inkscape:window-maximized="0"
     inkscape:current-layer="g824"
     inkscape:snap-path-clip="true"
     inkscape:snap-path-mask="true"
     inkscape:snap-perpendicular="true"
     inkscape:snap-tangential="true"
     showborder="true"
     borderlayer="true"
     inkscape:pagecheckerboard="true"
     inkscape:document-rotation="0" />
  <defs
     id="defs13">
    <clipPath
       id="a"
       transform="translate(178.38 178.11)">
      <circle
         cx="489.29999"
         cy="489.29999"
         r="475.29999"
         style="fill:none"
         id="circle2" />
    </clipPath>
    <radialGradient
       id="b"
       cx="466.56"
       cy="509.06"
       r="269.37"
       gradientUnits="userSpaceOnUse">
      <stop
         offset="0"
         stop-color="#fff"
         id="stop5" />
      <stop
         offset="0.43"
         stop-color="#eaeaea"
         id="stop7" />
      <stop
         offset="1"
         stop-color="#c8c8c8"
         id="stop9" />
    </radialGradient>
    <radialGradient
       id="c"
       cx="557.79999"
       cy="414.69"
       r="215.24001"
       xlink:href="#b" />
  </defs>
  <g
     id="g824"
     transform="matrix(0.49999225,0,0,0.4999904,0,0.0048)">
    <ellipse
       style="fill:#ffffff;fill-opacity:1;fill-rule:nonzero;stroke:none;stroke-width:0;stroke-miterlimit:4;stroke-dasharray:none;stroke-opacity:1"
       id="path5119"
       cx="250.00388"
       cy="249.99519"
       rx="219.78214"
       ry="219.78499" />
    <path
       d="M 249.95733,499.99953 A 250.12766,250.05617 0 0 1 152.62102,19.669719 250.12478,250.05331 0 0 1 347.29365,480.35489 248.5025,248.43148 0 0 1 249.95733,499.99953 Z m 0,-485.673963 A 235.81799,235.7506 0 0 0 158.19669,467.17842 235.81475,235.74736 0 0 0 341.72309,32.846178 234.26948,234.20255 0 0 0 249.95733,14.325567 Z"
       style="fill:#1296db;stroke-width:0.510986;fill-opacity:1"
       id="path21"
       inkscape:connector-curvature="0" />
    <path
       d="m 250.02863,29.445299 c -121.85635,0 -220.598564,98.742621 -220.598564,220.549911 0,121.80728 98.742214,220.54989 220.598564,220.54989 121.85633,0 220.54906,-98.74261 220.54906,-220.54989 0,-121.80729 -98.74222,-220.549911 -220.54906,-220.549911 z m 153.8795,262.670181 c 0,10.69093 -6.18686,19.50104 -17.66967,19.50104 -11.4333,0 -17.42218,-8.76061 -17.42218,-19.50104 v -56.82031 c 0.29697,-4.85051 -1.48484,-9.60203 -4.9,-13.01718 -3.41513,-3.46466 -8.11715,-5.29598 -12.96764,-5.0485 -10.74038,0 -18.56057,7.12728 -18.56057,18.06568 v 56.82031 c 0,10.69093 -6.23636,19.50104 -17.66966,19.50104 -11.43332,0 -17.4222,-8.76061 -17.4222,-19.50104 v -56.82031 c 0.29697,-4.85051 -1.48484,-9.60203 -4.89998,-13.01718 -3.41516,-3.46466 -8.11716,-5.29598 -12.96766,-5.0485 -10.74038,0 -18.61006,7.12728 -18.61006,18.06568 v 56.82031 c 0,10.69093 -6.18686,19.50104 -17.62018,19.50104 -11.43331,0 -17.42218,-8.76061 -17.42218,-19.50104 v -69.44154 c 0,-1.38586 -0.54445,-2.72223 -1.48486,-3.71213 -0.98989,-0.9899 -2.27676,-1.53434 -3.66262,-1.53434 -2.07878,-0.14849 -3.95957,1.08889 -4.702,3.0192 l -33.01307,71.71831 c -5.88989,12.12628 -11.33432,19.40205 -23.75753,19.40205 -11.68079,0 -17.86764,-6.68183 -23.75753,-19.40205 L 97.881444,210.89412 c -2.02928,-4.00909 -2.27676,-8.71112 -0.74241,-12.9182 1.53433,-4.20709 4.800986,-7.62224 8.909056,-9.35456 4.05857,-1.93031 8.71109,-2.12829 12.91816,-0.54445 4.20706,1.58383 7.6222,4.75152 9.45351,8.85961 l 30.73631,72.21326 23.90602,-56.27586 c 8.11715,-18.46164 21.38177,-25.78691 38.11104,-25.78691 12.32421,0.44546 23.85651,6.23638 31.52822,15.88791 0,0 16.53127,-15.88791 35.38882,-15.88791 17.86765,0 28.45954,5.93941 36.13124,15.88791 9.94847,-9.9485 23.36158,-15.64044 37.46761,-15.88791 23.0646,0 42.21911,16.63033 42.21911,40.38795 z"
       fill="#1296db"
       p-id="17299"
       id="path6-0"
       style="stroke-width:0.49495" />
  </g>
</svg>
