<?xml version="1.0" encoding="UTF-8" standalone="no"?>
<svg
   xmlns:dc="http://purl.org/dc/elements/1.1/"
   xmlns:cc="http://creativecommons.org/ns#"
   xmlns:rdf="http://www.w3.org/1999/02/22-rdf-syntax-ns#"
   xmlns:svg="http://www.w3.org/2000/svg"
   xmlns="http://www.w3.org/2000/svg"
   xmlns:xlink="http://www.w3.org/1999/xlink"
   xmlns:sodipodi="http://sodipodi.sourceforge.net/DTD/sodipodi-0.dtd"
   xmlns:inkscape="http://www.inkscape.org/namespaces/inkscape"
   viewBox="0 0 250 250"
   version="1.1"
   id="svg27"
   sodipodi:docname="icon_esp.svg"
   inkscape:version="0.92.4 (5da689c313, 2019-01-14)"
   width="250"
   height="250">
  <metadata
     id="metadata31">
    <rdf:RDF>
      <cc:Work
         rdf:about="">
        <dc:format>image/svg+xml</dc:format>
        <dc:type
           rdf:resource="http://purl.org/dc/dcmitype/StillImage" />
        <dc:title></dc:title>
      </cc:Work>
    </rdf:RDF>
  </metadata>
  <sodipodi:namedview
     pagecolor="#ffffff"
     bordercolor="#666666"
     borderopacity="1"
     objecttolerance="10"
     gridtolerance="10000"
     guidetolerance="10000"
     inkscape:pageopacity="0"
     inkscape:pageshadow="2"
     inkscape:window-width="1858"
     inkscape:window-height="1057"
     id="namedview29"
     showgrid="false"
     inkscape:zoom="1.8284139"
     inkscape:cx="121.98461"
     inkscape:cy="129.84871"
     inkscape:window-x="-6"
     inkscape:window-y="-8"
     inkscape:window-maximized="1"
     inkscape:current-layer="g830"
     inkscape:snap-path-clip="true"
     inkscape:snap-path-mask="true"
     inkscape:snap-perpendicular="true"
     inkscape:snap-tangential="true"
     showborder="true"
     borderlayer="true"
     inkscape:pagecheckerboard="true" />
  <defs
     id="defs13">
    <clipPath
       id="a"
       transform="translate(178.38 178.11)">
      <circle
         cx="489.29999"
         cy="489.29999"
         r="475.29999"
         style="fill:none"
         id="circle2" />
    </clipPath>
    <radialGradient
       id="b"
       cx="466.56"
       cy="509.06"
       r="269.37"
       gradientUnits="userSpaceOnUse">
      <stop
         offset="0"
         stop-color="#fff"
         id="stop5" />
      <stop
         offset="0.43"
         stop-color="#eaeaea"
         id="stop7" />
      <stop
         offset="1"
         stop-color="#c8c8c8"
         id="stop9" />
    </radialGradient>
    <radialGradient
       id="c"
       cx="557.79999"
       cy="414.69"
       r="215.24001"
       xlink:href="#b" />
  </defs>
  <g
     id="g830"
     transform="translate(5.5283648e-6,-250)">
    <path
       inkscape:connector-curvature="0"
       id="path21"
       style="fill:#13227a;fill-opacity:1;stroke-width:0.25548783"
       d="m 124.97672,499.99977 a 125.06189,125.02496 0 0 1 -48.667401,-240.1589 125.06045,125.02353 0 0 1 97.334811,230.33682 124.24932,124.21263 0 0 1 -48.66741,9.82208 z m 0,-242.83091 A 117.90717,117.87235 0 0 0 79.097111,483.58962 117.90555,117.87073 0 0 0 170.85889,266.42893 117.13292,117.09835 0 0 0 124.97672,257.16886 Z" />
    <g
       id="g905"
       transform="matrix(1.8294986,0,0,1.8294986,-503.37596,-227.56204)">
      <path
         id="path8"
         p-id="16231"
         d="m 320.96708,324.3603 c -3.75,0 -5,3.75 -5,6.25 h 10 c 0,-3.75 -1.25,-6.25 -5,-6.25 z m 43.75,0 c -2.5,0 -5,2.5 -5,6.25 v 5 c 0,3.75 2.5,6.25 5,6.25 3.75,0 6.25,-3.75 6.25,-8.75 0,-5 -2.5,-8.75 -6.25,-8.75 z"
         style="fill:#13227a;stroke-width:0.1953125"
         inkscape:connector-curvature="0" />
      <path
         id="path10"
         p-id="16232"
         d="m 343.46708,269.3603 c -32.5,0 -60,27.5 -60,60 0,32.5 26.25,60 60,60 33.75,0 60,-26.25 60,-60 0,-32.5 -27.5,-60 -60,-60 z m -12.5,65 h -15 c 0,5 3.75,7.5 7.5,7.5 2.5,0 5,0 6.25,-1.25 l 1.25,3.75 c -2.5,0 -5,1.25 -8.75,1.25 -7.5,0 -11.25,-5 -11.25,-12.5 0,-7.5 3.75,-12.5 11.25,-12.5 6.25,0 8.75,5 8.75,11.25 z m 10,11.25 c -2.5,0 -5,-1.25 -6.25,-2.5 l 1.25,-3.75 c 1.25,1.25 3.75,1.25 5,1.25 2.5,0 3.75,-1.25 3.75,-2.5 0,-1.25 -1.25,-2.5 -3.75,-3.75 -5,-1.25 -6.25,-3.75 -6.25,-7.5 0,-3.75 3.75,-7.5 8.75,-7.5 2.5,0 3.75,1.25 6.25,1.25 l -2.5,5 c -1.25,-1.25 -2.5,-1.25 -3.75,-1.25 -2.5,0 -3.75,1.25 -3.75,2.5 0,1.25 1.25,2.5 3.75,3.75 3.75,1.25 6.25,3.75 6.25,7.5 0,3.75 -3.75,7.5 -8.75,7.5 z m 25,0 c -2.5,0 -5,-1.25 -6.25,-3.75 v 12.5 h -5 v -26.25 -7.5 h 5 v 3.75 c 1.25,-2.5 3.75,-3.75 7.5,-3.75 5,0 8.75,5 8.75,12.5 0,7.5 -5,12.5 -10,12.5 z"
         style="fill:#13227a;stroke-width:0.1953125"
         inkscape:connector-curvature="0" />
    </g>
  </g>
</svg>
