<?xml version="1.0" encoding="UTF-8" standalone="no"?>
<svg
   xmlns:dc="http://purl.org/dc/elements/1.1/"
   xmlns:cc="http://creativecommons.org/ns#"
   xmlns:rdf="http://www.w3.org/1999/02/22-rdf-syntax-ns#"
   xmlns:svg="http://www.w3.org/2000/svg"
   xmlns="http://www.w3.org/2000/svg"
   xmlns:xlink="http://www.w3.org/1999/xlink"
   xmlns:sodipodi="http://sodipodi.sourceforge.net/DTD/sodipodi-0.dtd"
   xmlns:inkscape="http://www.inkscape.org/namespaces/inkscape"
   viewBox="0 0 250 250"
   version="1.1"
   id="svg27"
   sodipodi:docname="icon_mosquitto.svg"
   inkscape:version="0.92.4 (5da689c313, 2019-01-14)"
   width="250"
   height="250">
  <metadata
     id="metadata31">
    <rdf:RDF>
      <cc:Work
         rdf:about="">
        <dc:format>image/svg+xml</dc:format>
        <dc:type
           rdf:resource="http://purl.org/dc/dcmitype/StillImage" />
        <dc:title></dc:title>
      </cc:Work>
    </rdf:RDF>
  </metadata>
  <sodipodi:namedview
     pagecolor="#ffffff"
     bordercolor="#666666"
     borderopacity="1"
     objecttolerance="10"
     gridtolerance="10000"
     guidetolerance="10000"
     inkscape:pageopacity="0"
     inkscape:pageshadow="2"
     inkscape:window-width="1920"
     inkscape:window-height="1026"
     id="namedview29"
     showgrid="false"
     inkscape:zoom="1.8284139"
     inkscape:cx="171.03264"
     inkscape:cy="111.37958"
     inkscape:window-x="-8"
     inkscape:window-y="1072"
     inkscape:window-maximized="1"
     inkscape:current-layer="svg27"
     inkscape:snap-path-clip="true"
     inkscape:snap-path-mask="true"
     inkscape:snap-perpendicular="true"
     inkscape:snap-tangential="true"
     showborder="true"
     borderlayer="true"
     inkscape:pagecheckerboard="true" />
  <defs
     id="defs13">
    <clipPath
       id="a"
       transform="translate(178.38 178.11)">
      <circle
         cx="489.29999"
         cy="489.29999"
         r="475.29999"
         style="fill:none"
         id="circle2" />
    </clipPath>
    <radialGradient
       id="b"
       cx="466.56"
       cy="509.06"
       r="269.37"
       gradientUnits="userSpaceOnUse">
      <stop
         offset="0"
         stop-color="#fff"
         id="stop5" />
      <stop
         offset="0.43"
         stop-color="#eaeaea"
         id="stop7" />
      <stop
         offset="1"
         stop-color="#c8c8c8"
         id="stop9" />
    </radialGradient>
    <radialGradient
       id="c"
       cx="557.79999"
       cy="414.69"
       r="215.24001"
       xlink:href="#b" />
    <radialGradient
       gradientTransform="matrix(0.20624254,0,0,0.19741436,289.26635,3.5409533)"
       id="c-0"
       cx="557.79999"
       cy="414.69"
       r="215.24001"
       xlink:href="#b-9" />
    <radialGradient
       id="b-9"
       cx="466.56"
       cy="509.06"
       r="269.37"
       gradientUnits="userSpaceOnUse">
      <stop
         offset="0"
         stop-color="#fff"
         id="stop5-7" />
      <stop
         offset="0.43"
         stop-color="#eaeaea"
         id="stop7-8" />
      <stop
         offset="1"
         stop-color="#c8c8c8"
         id="stop9-2" />
    </radialGradient>
    <radialGradient
       id="radialGradient853"
       cx="466.56"
       cy="509.06"
       r="269.37"
       gradientUnits="userSpaceOnUse">
      <stop
         offset="0"
         stop-color="#fff"
         id="stop847" />
      <stop
         offset="0.43"
         stop-color="#eaeaea"
         id="stop849" />
      <stop
         offset="1"
         stop-color="#c8c8c8"
         id="stop851" />
    </radialGradient>
  </defs>
  <ellipse
     style="opacity:1;fill:#3c5280;fill-opacity:1;fill-rule:nonzero;stroke:none;stroke-width:0;stroke-miterlimit:4;stroke-dasharray:none;stroke-opacity:1"
     id="path5119"
     cx="125.00389"
     cy="124.99835"
     rx="109.88937"
     ry="109.89038" />
  <path
     d="M 124.97673,249.99976 A 125.06189,125.02568 0 0 1 76.309325,9.83947 a 125.06045,125.02425 0 0 1 97.334805,230.33816 124.24932,124.21336 0 0 1 -48.6674,9.82213 z m 0,-242.8323147 A 117.90717,117.87304 0 0 0 79.097117,233.58952 117.90555,117.87142 0 0 0 170.85889,16.427573 117.13292,117.09903 0 0 0 124.97673,7.1674453 Z"
     style="fill:#3c5280;fill-opacity:1;stroke-width:0.25548857"
     id="path21"
     inkscape:connector-curvature="0" />
  <g
     id="g950"
     style="fill:#ffffff"
     transform="matrix(0.56070172,0,0,0.56070172,-107.44451,60.567984)">
    <path
       id="path6"
       p-id="48148"
       d="m 326.86866,186.97797 -10.87463,9.2279 C 271.0352,151.24704 269.6681,64.156782 322.65863,15.997702 l 33.15209,29.641137 c -18.4092,18.642224 -28.58475,40.158459 -28.07209,66.226501 0.27963,14.16809 4.66056,29.98292 12.42815,41.80519 l 10.03573,-8.6997 c -14.71182,-37.1291 -9.18129,-67.080943 16.79354,-89.405007 l 31.44322,27.870127 c -8.18704,7.410283 -14.43219,15.535187 -13.98167,27.15551 0.37284,10.40857 4.47413,19.38791 13.4224,23.83098 8.57542,4.27217 8.389,10.29982 7.86081,17.55476 -28.10316,0.41945 -42.44214,-33.83564 -28.27404,-68.277152 l -7.93848,-6.742272 c -15.95464,16.52944 -15.37984,42.970334 1.63119,70.498684 l -32.7171,29.3149 C 314.0832,154.758 296.63719,95.988382 334.1702,45.716514 l -9.32111,-8.74631 c -28.69349,30.63539 -42.00715,96.970636 2.01957,150.007766 z"
       style="fill:#ffffff;stroke-width:0.1953125"
       inkscape:connector-curvature="0" />
    <path
       id="path8"
       p-id="48149"
       d="m 315.99403,197.26227 -0.49713,-0.49713 c -22.18424,-22.18425 -34.44151,-54.94796 -33.61814,-89.91766 0.82336,-35.544512 15.53519,-68.883024 40.29827,-91.455651 l 0.51267,-0.48159 34.30169,30.666459 -0.5748,0.590338 C 337.18402,65.58602 328.0804,87.071184 328.562,111.81874 a 81.652943,81.652943 0 0 0 11.7446,40.64005 l 8.9638,-7.7676 c -14.58754,-37.28445 -8.80845,-67.438244 17.21299,-89.777844 l 0.51266,-0.450521 32.62389,28.895449 -0.63694,0.590336 c -7.03744,6.369428 -14.18363,14.509865 -13.73311,26.54964 0.27964,7.76759 2.76527,18.08295 12.98742,23.16296 9.32111,4.66056 8.77738,11.57372 8.29579,18.30045 v 0.71462 h -0.69908 a 31.070375,31.070375 0 0 1 -26.7516,-14.15256 c -9.52307,-13.98166 -10.45518,-34.87649 -2.47009,-54.668321 l -6.95976,-5.903371 c -15.22449,16.343018 -14.40112,42.069292 2.2526,69.022842 l 0.34177,0.55926 -33.85117,30.24701 -0.51266,-0.46605 c -13.25152,-11.9621 -23.06975,-33.1987 -25.60199,-55.38295 -2.17493,-18.95292 -0.29517,-47.506598 20.80162,-76.122413 l -8.20258,-7.767593 c -14.68076,16.032312 -24.20382,40.391486 -25.50878,65.558486 -1.103,21.05018 2.87401,52.50894 28.08762,82.88023 l 0.48159,0.59034 z m 6.7112,-180.208175 c -24.15722,22.292994 -38.46512,55.010097 -39.27295,89.871055 -0.7923,34.28616 11.09212,66.41293 32.62389,88.27094 l 9.69396,-8.26472 c -25.08933,-30.58879 -29.0508,-62.14075 -27.96334,-83.36182 1.35156,-25.741803 11.23194,-50.846666 26.40982,-67.127541 l 0.54373,-0.559268 10.34643,9.771633 -0.41945,0.543732 c -21.18999,28.429393 -23.06975,56.796644 -20.92589,75.594224 2.47009,21.5473 11.86888,42.13143 24.5922,53.93817 l 31.70732,-28.39832 C 353.13866,119.64847 352.67261,93.176512 368.84474,76.429581 l 0.49712,-0.528197 8.93273,7.596707 -0.21749,0.512662 c -8.01615,19.481127 -7.20832,40.065247 2.09725,53.720677 a 29.516855,29.516855 0 0 0 24.73202,13.48454 c 0.46606,-6.47817 0.5748,-12.08637 -7.47242,-16.07892 -8.51329,-4.22557 -13.43794,-12.94081 -13.85739,-24.51452 -0.45052,-12.288336 6.50924,-20.63073 13.60882,-27.171045 L 366.8873,56.60668 c -25.13593,21.935686 -30.54217,51.56129 -16.06338,88.10005 l 0.20196,0.51266 -11.13873,9.63182 -0.48159,-0.74569 c -7.53457,-11.46497 -12.19513,-27.23319 -12.42815,-42.20911 -0.48159,-24.949509 8.57542,-46.60556 27.73031,-66.195431 z"
       style="fill:#ffffff;stroke-width:0.1953125"
       inkscape:connector-curvature="0" />
    <path
       id="path10"
       p-id="48150"
       d="m 491.26201,177.17527 -33.41618,-29.93631 c 17.29066,-26.09911 18.1917,-49.63492 2.42348,-70.747239 l -8.4356,7.192791 c 14.47879,33.307438 1.75547,64.533168 -27.96334,68.603388 -1.103,-7.56564 -0.94765,-12.98742 7.48796,-18.03635 16.2032,-9.72503 20.28895,-33.94439 -0.86997,-50.504897 l 30.94609,-27.699238 c 24.74756,13.857387 32.77924,53.782815 17.41494,88.736985 l 9.42987,8.31133 C 510.21494,127.9598 504.18728,84.057356 473.53636,45.328135 l 32.74819,-29.345968 c 49.16887,43.18782 55.414,128.662423 7.09957,180.503343 l -11.44944,-9.7561 c 22.24639,-26.0059 31.2568,-55.92667 28.4294,-89.358398 a 110.73481,110.73481 0 0 0 -25.83502,-60.58723 l -10.03572,8.901662 c 17.91207,22.945473 25.07379,48.780488 21.56283,77.256486 a 98.166848,98.166848 0 0 1 -24.79416,54.23334 z"
       style="fill:#ffffff;stroke-width:0.1953125"
       inkscape:connector-curvature="0" />
    <path
       id="path12"
       p-id="48151"
       d="m 513.38412,197.57297 -12.61457,-10.75035 0.51265,-0.59034 c 21.59391,-25.24467 31.07038,-55.11884 28.24297,-88.799127 A 109.15022,109.15022 0 0 0 504.38926,37.902317 l -8.90168,7.90741 c 17.61691,22.836725 24.77863,48.811557 21.26767,77.240953 a 98.399875,98.399875 0 0 1 -24.85629,54.63725 l -0.5282,0.59034 -34.50365,-30.89949 0.37284,-0.55926 c 17.08871,-25.81949 18.06742,-48.454256 2.93615,-69.19373 l -7.47242,6.29175 c 7.76759,18.12956 7.76759,36.32127 0.13981,49.94563 a 38.247631,38.247631 0 0 1 -28.98865,19.20149 l -0.66802,0.17089 -0.10874,-0.76123 c -1.08747,-7.36368 -1.18068,-13.40686 7.76759,-18.82864 a 27.124437,27.124437 0 0 0 13.17384,-21.54731 c 0.63694,-10.22215 -4.38092,-20.055926 -14.10595,-27.683703 l -0.73016,-0.559268 32.03356,-28.69349 0.48159,0.279633 c 25.18254,14.074881 33.19869,54.000308 17.97422,89.203048 l 8.42006,7.41028 C 509.03427,127.27625 502.80467,83.700048 472.80621,45.871868 l -0.45052,-0.574803 33.85116,-30.324686 0.52821,0.450521 c 23.9242,21.019109 38.63601,52.943917 40.39148,87.58739 1.75549,35.2338 -10.34643,69.50442 -33.21422,94.05002 z m -10.4241,-10.87463 10.29982,8.76185 C 535.52176,171.2719 547.28189,137.65375 545.5575,103.1035 543.86416,69.128042 529.52517,37.85571 506.2224,17.06963 L 474.53062,45.467952 C 504.83976,84.135034 510.72759,128.5346 488.80746,153.655 l -0.51268,0.59033 -10.43963,-9.21236 0.21748,-0.51266 c 15.11575,-34.37937 7.64332,-73.45037 -16.60711,-87.463108 l -29.82756,26.704986 c 9.67843,7.860805 14.63415,17.927602 13.98167,28.413862 a 28.724561,28.724561 0 0 1 -13.98167,22.79012 c -7.93848,4.75376 -8.15597,9.67842 -7.20832,16.49836 a 36.663041,36.663041 0 0 0 27.12443,-18.42473 c 7.5035,-13.32919 7.33261,-31.22572 -0.43498,-49.106725 l -0.23303,-0.528195 9.50753,-8.093832 0.49713,0.668011 c 15.73715,21.05018 15.0536,44.958831 -2.03511,71.073481 l 32.34427,28.95759 a 96.815287,96.815287 0 0 0 24.01738,-53.20802 c 3.47989,-28.242967 -3.71291,-54.046912 -21.39195,-76.68168 l -0.45051,-0.574802 11.16981,-9.91145 0.51265,0.590338 a 110.84356,110.84356 0 0 1 26.02143,61.084356 c 2.85848,33.835638 -6.60244,63.896228 -28.11867,89.342858 z"
       style="fill:#ffffff;stroke-width:0.1953125"
       inkscape:connector-curvature="0" />
    <path
       id="path14"
       p-id="48152"
       d="m 413.94339,213.82278 c -1.95744,-26.50303 -4.00808,-52.99053 -5.8257,-79.50909 -0.32624,-4.7693 -0.88551,-8.49775 -5.2975,-11.94656 -7.93848,-6.21408 -7.76759,-17.46155 -0.79229,-24.654344 a 17.803325,17.803325 0 0 1 24.56113,-0.419449 c 7.16172,6.788873 7.76759,18.564553 0.17089,24.778623 -4.94019,4.02361 -5.70142,8.43561 -6.05873,13.98167 -1.66226,26.0059 -3.60416,51.98074 -5.43731,77.9711 z"
       style="fill:#ffffff;stroke-width:0.1953125"
       inkscape:connector-curvature="0" />
    <path
       id="path16"
       p-id="48153"
       d="m 415.9785,214.91024 -2.76527,-0.45053 -1.55352,-20.4909 c -1.4603,-19.54327 -2.98275,-39.73901 -4.34985,-59.62405 -0.32624,-4.78484 -0.85444,-8.17151 -4.98679,-11.40283 a 16.078919,16.078919 0 0 1 -6.21408,-11.72907 18.486873,18.486873 0 0 1 31.07037,-14.525396 18.890788,18.890788 0 0 1 5.87231,14.214696 15.612863,15.612863 0 0 1 -5.73249,11.7446 c -4.80037,3.89934 -5.43731,8.21812 -5.77909,13.43794 -1.22728,19.20149 -2.62544,38.71369 -3.977,57.5734 q -0.74569,10.20662 -1.46031,20.41323 z M 414.53372,93.316329 a 16.669256,16.669256 0 0 0 -11.94656,4.909119 16.964424,16.964424 0 0 0 -4.95572,12.878672 14.540935,14.540935 0 0 0 5.67034,10.61053 c 4.66056,3.6197 5.25089,7.64331 5.59267,12.52136 1.3671,19.86951 2.87401,40.08079 4.34985,59.62405 l 1.3671,18.39366 q 0.65248,-9.32111 1.33602,-18.64222 c 1.35157,-18.85972 2.74973,-38.37191 3.97701,-57.55787 0.35731,-5.42178 1.07193,-10.25322 6.35389,-14.55647 a 14.090415,14.090415 0 0 0 5.15769,-10.595 17.290663,17.290663 0 0 0 -5.39071,-13.018485 16.669256,16.669256 0 0 0 -11.51158,-4.567346 z"
       style="fill:#ffffff;stroke-width:0.1953125"
       inkscape:connector-curvature="0" />
  </g>
</svg>
