<?xml version="1.0" encoding="UTF-8" standalone="no"?>
<svg
   xmlns:dc="http://purl.org/dc/elements/1.1/"
   xmlns:cc="http://creativecommons.org/ns#"
   xmlns:rdf="http://www.w3.org/1999/02/22-rdf-syntax-ns#"
   xmlns:svg="http://www.w3.org/2000/svg"
   xmlns="http://www.w3.org/2000/svg"
   xmlns:xlink="http://www.w3.org/1999/xlink"
   xmlns:sodipodi="http://sodipodi.sourceforge.net/DTD/sodipodi-0.dtd"
   xmlns:inkscape="http://www.inkscape.org/namespaces/inkscape"
   viewBox="0 0 250 250"
   version="1.1"
   id="svg27"
   sodipodi:docname="icon_qbittorrent2.svg"
   inkscape:version="1.0.2-2 (e86c870879, 2021-01-15)"
   width="250"
   height="250">
  <metadata
     id="metadata31">
    <rdf:RDF>
      <cc:Work
         rdf:about="">
        <dc:format>image/svg+xml</dc:format>
        <dc:type
           rdf:resource="http://purl.org/dc/dcmitype/StillImage" />
        <dc:title></dc:title>
      </cc:Work>
    </rdf:RDF>
  </metadata>
  <sodipodi:namedview
     pagecolor="#ffffff"
     bordercolor="#666666"
     borderopacity="1"
     objecttolerance="10"
     gridtolerance="10000"
     guidetolerance="10000"
     inkscape:pageopacity="0"
     inkscape:pageshadow="2"
     inkscape:window-width="1918"
     inkscape:window-height="1004"
     id="namedview29"
     showgrid="false"
     inkscape:zoom="1.8284139"
     inkscape:cx="147.03189"
     inkscape:cy="121.30767"
     inkscape:window-x="1910"
     inkscape:window-y="0"
     inkscape:window-maximized="0"
     inkscape:current-layer="g824"
     inkscape:snap-path-clip="true"
     inkscape:snap-path-mask="true"
     inkscape:snap-perpendicular="true"
     inkscape:snap-tangential="true"
     showborder="true"
     borderlayer="true"
     inkscape:pagecheckerboard="true"
     inkscape:document-rotation="0" />
  <defs
     id="defs13">
    <clipPath
       id="a"
       transform="translate(178.38 178.11)">
      <circle
         cx="489.29999"
         cy="489.29999"
         r="475.29999"
         style="fill:none"
         id="circle2" />
    </clipPath>
    <radialGradient
       id="b"
       cx="466.56"
       cy="509.06"
       r="269.37"
       gradientUnits="userSpaceOnUse">
      <stop
         offset="0"
         stop-color="#fff"
         id="stop5" />
      <stop
         offset="0.43"
         stop-color="#eaeaea"
         id="stop7" />
      <stop
         offset="1"
         stop-color="#c8c8c8"
         id="stop9" />
    </radialGradient>
    <radialGradient
       id="c"
       cx="557.79999"
       cy="414.69"
       r="215.24001"
       xlink:href="#b" />
    <radialGradient
       id="a-2"
       cx="1244.322"
       cy="919.87097"
       r="0.92500001"
       gradientTransform="matrix(610,0,0,-1000.5,-756323.63,921038.75)"
       gradientUnits="userSpaceOnUse">
      <stop
         offset="0"
         stop-color="#f9be03"
         id="stop8" />
      <stop
         offset="1"
         stop-color="#cc7c19"
         id="stop10" />
    </radialGradient>
    <linearGradient
       x1="348.2829"
       y1="0"
       x2="782.05951"
       y2="786.48322"
       id="a-6"
       gradientUnits="userSpaceOnUse">
      <stop
         stop-color="#72B4F5"
         offset="0%"
         id="stop4" />
      <stop
         stop-color="#356EBF"
         offset="100%"
         id="stop6" />
    </linearGradient>
    <linearGradient
       inkscape:collect="always"
       xlink:href="#linearGradient4290"
       id="linearGradient3861"
       y1="44"
       y2="4"
       x2="0"
       gradientUnits="userSpaceOnUse" />
    <linearGradient
       inkscape:collect="always"
       id="linearGradient4290">
      <stop
         style="stop-color:#7cbaf8"
         id="stop4292" />
      <stop
         offset="1"
         style="stop-color:#f4fcff"
         id="stop4294" />
    </linearGradient>
    <linearGradient
       inkscape:collect="always"
       xlink:href="#linearGradient4143"
       id="linearGradient3935"
       y1="39"
       y2="9"
       gradientUnits="userSpaceOnUse"
       x2="0"
       gradientTransform="matrix(1.0285714,0,0,1.2,-5.314284,-2013.5244)" />
    <linearGradient
       inkscape:collect="always"
       id="linearGradient4143">
      <stop
         style="stop-color:#197cf1"
         id="stop4145" />
      <stop
         offset="1"
         style="stop-color:#20bcfa"
         id="stop4147" />
    </linearGradient>
    <linearGradient
       inkscape:collect="always"
       xlink:href="#linearGradient4299"
       id="linearGradient4244"
       y1="18.260004"
       x1="14.589796"
       y2="40.43988"
       x2="36.061501"
       gradientUnits="userSpaceOnUse" />
    <linearGradient
       inkscape:collect="always"
       id="linearGradient4299">
      <stop
         style="stop-color:#292c2f"
         id="stop4301" />
      <stop
         offset="1"
         style="stop-color:#292c2f;stop-opacity:0"
         id="stop4303" />
    </linearGradient>
    <linearGradient
       inkscape:collect="always"
       xlink:href="#linearGradient4299"
       id="linearGradient4236"
       y1="13.01367"
       x1="25.04492"
       y2="30.26088"
       x2="42.989807"
       gradientUnits="userSpaceOnUse" />
  </defs>
  <g
     id="g824"
     transform="matrix(0.49999225,0,0,0.4999904,0,0.0048)">
    <ellipse
       style="fill:#5f9ee4;fill-opacity:1;fill-rule:nonzero;stroke:none;stroke-width:0;stroke-miterlimit:4;stroke-dasharray:none;stroke-opacity:1"
       id="path5119"
       cx="250.00388"
       cy="249.99519"
       rx="219.78214"
       ry="219.78499" />
    <path
       d="M 249.95733,499.99953 A 250.12766,250.05617 0 0 1 152.62102,19.669719 250.12478,250.05331 0 0 1 347.29365,480.35489 248.5025,248.43148 0 0 1 249.95733,499.99953 Z m 0,-485.673963 A 235.81799,235.7506 0 0 0 158.19669,467.17842 235.81475,235.74736 0 0 0 341.72309,32.846178 234.26948,234.20255 0 0 0 249.95733,14.325567 Z"
       style="fill:#5f9ee4;stroke-width:0.510986;fill-opacity:1"
       id="path21"
       inkscape:connector-curvature="0" />
    <path
       fill="#aa0707"
       d="M 641.48102,613.91097"
       id="path2-8"
       style="stroke-width:1.05013;fill:#5f9ee4;fill-opacity:1" />
    <path
       fill="#aa0707"
       d="M 674.64315,680.23551"
       id="path4"
       style="stroke-width:1.05013" />
    <path
       fill="#aa0707"
       d="M 641.48102,613.91097"
       id="path6-3"
       style="stroke-width:1.05013;fill:#5f9ee4;fill-opacity:1" />
    <path
       fill="#aa0707"
       d="M 674.64315,680.23551"
       id="path8"
       style="stroke-width:1.05013" />
    <g
       id="g30"
       transform="matrix(11.079079,0,0,11.07912,-15.894016,-11143.353)">
      <path
         style="color:#000000;fill:url(#linearGradient3861);fill-rule:evenodd;stroke-width:2"
         id="path3085"
         d="M 44,24 A 20,20 0 0 1 24,44 20,20 0 0 1 4,24 20,20 0 0 1 24,4 20,20 0 0 1 44,24 Z"
         transform="translate(0,1004.3622)" />
      <path
         style="color:#000000;fill:url(#linearGradient3935);fill-rule:evenodd;stroke-width:2"
         id="path4159"
         d="M 24,6 C 14.058875,6 6,14.0589 6,24 6,33.9411 14.058875,42 24,42 33.941125,42 42,33.9411 42,24 42,14.0589 33.941125,6 24,6 Z m 1,7 h 2 v 6.080078 A 7,6 0 0 1 31,18 a 7,6 0 0 1 7,6 7,6 0 0 1 -7,6 7,6 0 0 1 -4,-1.085938 V 31 h -2 z m -4,4 h 2 V 35 H 21 V 28.919922 A 7,6 0 0 1 17,30 a 7,6 0 0 1 -7,-6 7,6 0 0 1 7,-6 7,6 0 0 1 4,1.085938 z m -4,3 a 5,4 0 0 0 -5,4 5,4 0 0 0 5,4 5,4 0 0 0 4,-1.609375 V 21.607422 A 5,4 0 0 0 17,20 Z m 14,0 a 5,4 0 0 0 -4,1.609375 v 4.783203 A 5,4 0 0 0 31,28 5,4 0 0 0 36,24 5,4 0 0 0 31,20 Z"
         transform="translate(0,1004.3622)" />
      <path
         style="opacity:0.2;fill:url(#linearGradient4244);stroke-width:2"
         id="rect4199"
         d="M 23.013672,17.060547 23,17.083984 V 35 H 21 V 28.919922 A 7,6 0 0 1 17,30 7,6 0 0 1 11.5625,27.771484 l -0.02148,0.02148 15.90625,15.904297 a 20,20 0 0 0 13.339843,-8.863282 l -5.86914,-5.86914 A 7,6 0 0 1 31,30 7,6 0 0 1 27,28.914062 V 31 H 25 V 19.046875 Z"
         transform="translate(0,1004.3622)" />
      <path
         style="opacity:0.2;fill:url(#linearGradient4236);stroke-width:2"
         id="rect4203"
         d="m 27,13.013672 v 6.066406 A 7,6 0 0 1 31,18 a 7,6 0 0 1 1.060547,0.07422 z m 8.773438,6.5625 -0.02344,0.02344 a 7,6 0 0 1 0.328125,0.28125 z m 0.751953,0.751953 A 7,6 0 0 1 38,24 7,6 0 0 1 31,30 7,6 0 0 1 27,28.914062 V 31 h -1.955078 l 9.800781,9.800781 a 20,20 0 0 0 8.830078,-13.322265 z"
         transform="translate(0,1004.3622)" />
    </g>
  </g>
</svg>
