<?xml version="1.0" encoding="UTF-8" standalone="no"?>
<svg
   xmlns:dc="http://purl.org/dc/elements/1.1/"
   xmlns:cc="http://creativecommons.org/ns#"
   xmlns:rdf="http://www.w3.org/1999/02/22-rdf-syntax-ns#"
   xmlns:svg="http://www.w3.org/2000/svg"
   xmlns="http://www.w3.org/2000/svg"
   xmlns:xlink="http://www.w3.org/1999/xlink"
   xmlns:sodipodi="http://sodipodi.sourceforge.net/DTD/sodipodi-0.dtd"
   xmlns:inkscape="http://www.inkscape.org/namespaces/inkscape"
   viewBox="0 0 250 250"
   version="1.1"
   id="svg27"
   sodipodi:docname="icon_homekit.svg"
   inkscape:version="0.92.4 (5da689c313, 2019-01-14)"
   width="250"
   height="250">
  <metadata
     id="metadata31">
    <rdf:RDF>
      <cc:Work
         rdf:about="">
        <dc:format>image/svg+xml</dc:format>
        <dc:type
           rdf:resource="http://purl.org/dc/dcmitype/StillImage" />
        <dc:title></dc:title>
      </cc:Work>
    </rdf:RDF>
  </metadata>
  <sodipodi:namedview
     pagecolor="#ffffff"
     bordercolor="#666666"
     borderopacity="1"
     objecttolerance="10"
     gridtolerance="10000"
     guidetolerance="10000"
     inkscape:pageopacity="0"
     inkscape:pageshadow="2"
     inkscape:window-width="1858"
     inkscape:window-height="1057"
     id="namedview29"
     showgrid="false"
     inkscape:zoom="0.91420695"
     inkscape:cx="145.08608"
     inkscape:cy="203.16598"
     inkscape:window-x="-6"
     inkscape:window-y="-8"
     inkscape:window-maximized="1"
     inkscape:current-layer="g830"
     inkscape:snap-path-clip="true"
     inkscape:snap-path-mask="true"
     inkscape:snap-perpendicular="true"
     inkscape:snap-tangential="true"
     showborder="true"
     borderlayer="true"
     inkscape:pagecheckerboard="true" />
  <defs
     id="defs13">
    <clipPath
       id="a"
       transform="translate(178.38 178.11)">
      <circle
         cx="489.29999"
         cy="489.29999"
         r="475.29999"
         style="fill:none"
         id="circle2" />
    </clipPath>
    <radialGradient
       id="b"
       cx="466.56"
       cy="509.06"
       r="269.37"
       gradientUnits="userSpaceOnUse">
      <stop
         offset="0"
         stop-color="#fff"
         id="stop5" />
      <stop
         offset="0.43"
         stop-color="#eaeaea"
         id="stop7" />
      <stop
         offset="1"
         stop-color="#c8c8c8"
         id="stop9" />
    </radialGradient>
    <radialGradient
       id="c"
       cx="557.79999"
       cy="414.69"
       r="215.24001"
       xlink:href="#b" />
    <linearGradient
       x1="133.42035"
       y1="326.78146"
       x2="133.42035"
       y2="83.10022"
       id="linearGradient-1"
       gradientTransform="scale(0.95927378,1.0424553)"
       gradientUnits="userSpaceOnUse">
      <stop
         stop-color="#FFF100"
         offset="0%"
         id="stop2" />
      <stop
         stop-color="#F05A28"
         offset="100%"
         id="stop4" />
    </linearGradient>
  </defs>
  <g
     id="g830"
     transform="translate(5.5283648e-6,-250)">
    <ellipse
       ry="109.88975"
       rx="109.88937"
       cy="375.00217"
       cx="124.99658"
       id="path5119"
       style="opacity:1;fill:#fcac2e;fill-opacity:1;fill-rule:nonzero;stroke:none;stroke-width:0;stroke-miterlimit:4;stroke-dasharray:none;stroke-opacity:1" />
    <path
       inkscape:connector-curvature="0"
       id="path21"
       style="fill:#fcac2e;fill-opacity:1;stroke-width:0.25548783"
       d="m 124.97672,499.99977 a 125.06189,125.02496 0 0 1 -48.667401,-240.1589 125.06045,125.02353 0 0 1 97.334811,230.33682 124.24932,124.21263 0 0 1 -48.66741,9.82208 z m 0,-242.83091 A 117.90717,117.87235 0 0 0 79.097111,483.58962 117.90555,117.87073 0 0 0 170.85889,266.42893 117.13292,117.09835 0 0 0 124.97672,257.16886 Z" />
    <g
       id="g1174"
       transform="matrix(1.2375293,0,0,1.2375293,-494.98165,-35.667129)">
      <path
         style="fill:#ff8502;stroke-width:0.1953125"
         inkscape:connector-curvature="0"
         id="path8"
         p-id="32413"
         d="m 552.69315,302.60983 v -23.05 c 0,-0.65 -0.525,-1.2 -1.175,-1.2 h -11.325 c -0.65,0 -1.175,0.525 -1.175,1.2 v 12 l -35.85,-28.975 c -1.425,-1.15 -3.425,-1.15 -4.85,0 l -62.625,50.425 c -0.725,0.575 -0.325,1.75 0.6,1.775 l 11.8,0.05 v 67.55 c 0,2.025 1.625,3.675 3.625,3.675 h 98.55 c 2,0 3.625,-1.65 3.625,-3.675 v -67.1 l 11.775,0.05 c 0.925,0 1.325,-1.175 0.6,-1.775 z" />
      <path
         style="fill:#fcac2e;stroke-width:0.1953125"
         inkscape:connector-curvature="0"
         id="path10"
         p-id="32414"
         d="m 499.64315,274.20983 -40.7,31.95 a 2.205,2.205 0 0 0 -0.825,1.725 v 65.275 c 0,1.2 0.975,2.175 2.175,2.175 h 81.425 c 1.2,0 2.175,-0.975 2.175,-2.175 v -65.3 c 0,-0.675 -0.3,-1.3 -0.825,-1.725 l -40.725,-31.925 c -0.8,-0.625 -1.9,-0.625 -2.7,0 z" />
      <path
         style="fill:#ffc047;stroke-width:0.1953125"
         inkscape:connector-curvature="0"
         id="path12"
         p-id="32415"
         d="m 499.94315,288.33483 -31.275,24.55 c -0.4,0.325 -0.65,0.8 -0.65,1.325 v 50.15 c 0,0.925 0.75,1.675 1.675,1.675 h 62.575 c 0.925,0 1.675,-0.75 1.675,-1.675 v -50.15 c 0,-0.525 -0.225,-1 -0.65,-1.325 l -31.275,-24.55 c -0.6,-0.475 -1.45,-0.475 -2.075,0 z" />
      <path
         style="fill:#ffd268;stroke-width:0.1953125"
         inkscape:connector-curvature="0"
         id="path14"
         p-id="32416"
         d="m 500.29315,303.98483 -21,16.475 c -0.275,0.225 -0.425,0.55 -0.425,0.875 v 33.675 c 0,0.625 0.5,1.125 1.125,1.125 h 42.025 c 0.625,0 1.125,-0.5 1.125,-1.125 v -33.65 c 0,-0.35 -0.15,-0.675 -0.425,-0.875 l -21,-16.475 c -0.45,-0.35 -1.025,-0.35 -1.425,-0.025 z" />
      <path
         style="fill:#fae580;stroke-width:0.1953125"
         inkscape:connector-curvature="0"
         id="path16"
         p-id="32417"
         d="m 500.64315,318.20983 -10.675,8.375 c -0.15,0.1 -0.225,0.275 -0.225,0.45 v 17.125 c 0,0.325 0.25,0.575 0.575,0.575 h 21.35 c 0.325,0 0.575,-0.25 0.575,-0.575 v -17.125 c 0,-0.175 -0.075,-0.35 -0.225,-0.45 l -10.675,-8.375 c -0.2,-0.15 -0.5,-0.15 -0.7,0 z" />
    </g>
  </g>
</svg>
