<?xml version="1.0" encoding="UTF-8" standalone="no"?>
<svg
   xmlns:dc="http://purl.org/dc/elements/1.1/"
   xmlns:cc="http://creativecommons.org/ns#"
   xmlns:rdf="http://www.w3.org/1999/02/22-rdf-syntax-ns#"
   xmlns:svg="http://www.w3.org/2000/svg"
   xmlns="http://www.w3.org/2000/svg"
   xmlns:xlink="http://www.w3.org/1999/xlink"
   xmlns:sodipodi="http://sodipodi.sourceforge.net/DTD/sodipodi-0.dtd"
   xmlns:inkscape="http://www.inkscape.org/namespaces/inkscape"
   viewBox="0 0 250 250"
   version="1.1"
   id="svg27"
   sodipodi:docname="icon_googlehome.svg"
   inkscape:version="0.92.4 (5da689c313, 2019-01-14)"
   width="250"
   height="250">
  <metadata
     id="metadata31">
    <rdf:RDF>
      <cc:Work
         rdf:about="">
        <dc:format>image/svg+xml</dc:format>
        <dc:type
           rdf:resource="http://purl.org/dc/dcmitype/StillImage" />
        <dc:title></dc:title>
      </cc:Work>
    </rdf:RDF>
  </metadata>
  <sodipodi:namedview
     pagecolor="#ffffff"
     bordercolor="#666666"
     borderopacity="1"
     objecttolerance="10"
     gridtolerance="10000"
     guidetolerance="10000"
     inkscape:pageopacity="0"
     inkscape:pageshadow="2"
     inkscape:window-width="1858"
     inkscape:window-height="1057"
     id="namedview29"
     showgrid="false"
     inkscape:zoom="1.2928839"
     inkscape:cx="166.86148"
     inkscape:cy="222.4465"
     inkscape:window-x="-6"
     inkscape:window-y="-8"
     inkscape:window-maximized="1"
     inkscape:current-layer="g830"
     inkscape:snap-path-clip="true"
     inkscape:snap-path-mask="true"
     inkscape:snap-perpendicular="true"
     inkscape:snap-tangential="true"
     showborder="true"
     borderlayer="true"
     inkscape:pagecheckerboard="true" />
  <defs
     id="defs13">
    <clipPath
       id="a"
       transform="translate(178.38 178.11)">
      <circle
         cx="489.29999"
         cy="489.29999"
         r="475.29999"
         style="fill:none"
         id="circle2" />
    </clipPath>
    <radialGradient
       id="b"
       cx="466.56"
       cy="509.06"
       r="269.37"
       gradientUnits="userSpaceOnUse">
      <stop
         offset="0"
         stop-color="#fff"
         id="stop5" />
      <stop
         offset="0.43"
         stop-color="#eaeaea"
         id="stop7" />
      <stop
         offset="1"
         stop-color="#c8c8c8"
         id="stop9" />
    </radialGradient>
    <radialGradient
       id="c"
       cx="557.79999"
       cy="414.69"
       r="215.24001"
       xlink:href="#b" />
  </defs>
  <g
     id="g830"
     transform="translate(5.5283648e-6,-250)">
    <ellipse
       ry="109.88975"
       rx="109.88937"
       cy="375.00217"
       cx="124.99658"
       id="path5119"
       style="opacity:1;fill:#364e59;fill-opacity:1;fill-rule:nonzero;stroke:none;stroke-width:0;stroke-miterlimit:4;stroke-dasharray:none;stroke-opacity:1" />
    <path
       inkscape:connector-curvature="0"
       id="path21"
       style="fill:#364e59;fill-opacity:1;stroke-width:0.25548783"
       d="m 124.97672,499.99977 a 125.06189,125.02496 0 0 1 -48.667401,-240.1589 125.06045,125.02353 0 0 1 97.334811,230.33682 124.24932,124.21263 0 0 1 -48.66741,9.82208 z m 0,-242.83091 A 117.90717,117.87235 0 0 0 79.097111,483.58962 117.90555,117.87073 0 0 0 170.85889,266.42893 117.13292,117.09835 0 0 0 124.97672,257.16886 Z" />
    <g
       id="g1017"
       transform="matrix(1.2948833,0,0,1.2948833,-427.85707,-122.74281)">
      <path
         id="path6"
         p-id="29648"
         d="m 367.72583,399.77065 25.86333,-26.60334 v 58.53 h -21.73 a 4.1333334,4.1333334 0 0 1 -4.13333,-4.13333 z"
         style="fill:#febb10;stroke-width:0.1953125"
         inkscape:connector-curvature="0" />
      <path
         id="path8"
         p-id="29649"
         d="m 367.72583,365.39065 55.36,-55.75 a 4.1333334,4.1333334 0 0 1 5.78667,-0.08 l 15.40666,14.69 -76.55333,77.13333 v -35.99 z"
         style="fill:#e85241;stroke-width:0.1953125"
         inkscape:connector-curvature="0" />
      <path
         id="path10"
         p-id="29650"
         d="m 485.65916,400.34065 -25.86666,-26.13 v 57.48666 h 21.73333 a 4.1333334,4.1333334 0 0 0 4.13333,-4.13333 z"
         style="fill:#4587f7;stroke-width:0.1953125"
         inkscape:connector-curvature="0" />
      <path
         id="path12"
         p-id="29651"
         d="m 393.58916,405.56731 h 66.20667 v 26.13 h -66.20667 z"
         style="fill:#3bad58;stroke-width:0.1953125"
         inkscape:connector-curvature="0" />
      <path
         id="path14"
         p-id="29652"
         d="m 486.17916,367.21731 -42.05666,-43.18 -18.19,18.66667 59.78666,58.30667 z"
         style="fill:#4587f7;stroke-width:0.1953125"
         inkscape:connector-curvature="0" />
    </g>
  </g>
</svg>
