<?xml version="1.0" encoding="UTF-8" standalone="no"?>
<svg
   xmlns:dc="http://purl.org/dc/elements/1.1/"
   xmlns:cc="http://creativecommons.org/ns#"
   xmlns:rdf="http://www.w3.org/1999/02/22-rdf-syntax-ns#"
   xmlns:svg="http://www.w3.org/2000/svg"
   xmlns="http://www.w3.org/2000/svg"
   xmlns:xlink="http://www.w3.org/1999/xlink"
   xmlns:sodipodi="http://sodipodi.sourceforge.net/DTD/sodipodi-0.dtd"
   xmlns:inkscape="http://www.inkscape.org/namespaces/inkscape"
   viewBox="0 0 250 250"
   version="1.1"
   id="svg27"
   sodipodi:docname="icon_reload.svg"
   inkscape:version="1.0.2-2 (e86c870879, 2021-01-15)"
   width="250"
   height="250">
  <metadata
     id="metadata31">
    <rdf:RDF>
      <cc:Work
         rdf:about="">
        <dc:format>image/svg+xml</dc:format>
        <dc:type
           rdf:resource="http://purl.org/dc/dcmitype/StillImage" />
        <dc:title />
      </cc:Work>
    </rdf:RDF>
  </metadata>
  <sodipodi:namedview
     pagecolor="#ffffff"
     bordercolor="#666666"
     borderopacity="1"
     objecttolerance="10"
     gridtolerance="10000"
     guidetolerance="10000"
     inkscape:pageopacity="0"
     inkscape:pageshadow="2"
     inkscape:window-width="1904"
     inkscape:window-height="1004"
     id="namedview29"
     showgrid="false"
     inkscape:zoom="1.2928839"
     inkscape:cx="170.32577"
     inkscape:cy="73.640865"
     inkscape:window-x="0"
     inkscape:window-y="0"
     inkscape:window-maximized="0"
     inkscape:current-layer="g841"
     inkscape:snap-path-clip="true"
     inkscape:snap-path-mask="true"
     inkscape:snap-perpendicular="true"
     inkscape:snap-tangential="true"
     showborder="true"
     borderlayer="true"
     inkscape:pagecheckerboard="true"
     inkscape:document-rotation="0" />
  <defs
     id="defs13">
    <clipPath
       id="a"
       transform="translate(178.38 178.11)">
      <circle
         cx="489.29999"
         cy="489.29999"
         r="475.29999"
         style="fill:none"
         id="circle2" />
    </clipPath>
    <radialGradient
       id="b"
       cx="466.56"
       cy="509.06"
       r="269.37"
       gradientUnits="userSpaceOnUse">
      <stop
         offset="0"
         stop-color="#fff"
         id="stop5" />
      <stop
         offset="0.43"
         stop-color="#eaeaea"
         id="stop7" />
      <stop
         offset="1"
         stop-color="#c8c8c8"
         id="stop9" />
    </radialGradient>
    <radialGradient
       id="c"
       cx="557.79999"
       cy="414.69"
       r="215.24001"
       xlink:href="#b" />
    <clipPath
       id="a-0">
      <circle
         id="svg_1"
         stroke-width="3.5906"
         fill="#989898"
         r="375"
         cy="384"
         cx="384" />
    </clipPath>
  </defs>
  <g
     id="g824"
     transform="matrix(0.49999225,0,0,0.4999904,0,0.0048)">
    <ellipse
       style="fill:#000000;fill-opacity:1;fill-rule:nonzero;stroke:none;stroke-width:0;stroke-miterlimit:4;stroke-dasharray:none;stroke-opacity:1"
       id="path5119"
       cx="250.00388"
       cy="249.99519"
       rx="219.78214"
       ry="219.78499" />
    <path
       d="M 249.95733,499.99953 A 250.12766,250.05617 0 0 1 152.62102,19.669719 250.12478,250.05331 0 0 1 347.29365,480.35489 248.5025,248.43148 0 0 1 249.95733,499.99953 Z m 0,-485.673963 A 235.81799,235.7506 0 0 0 158.19669,467.17842 235.81475,235.74736 0 0 0 341.72309,32.846178 234.26948,234.20255 0 0 0 249.95733,14.325567 Z"
       style="fill:#ff623e;stroke-width:0.510986;fill-opacity:1"
       id="path21"
       inkscape:connector-curvature="0" />
    <g
       id="g841"
       transform="matrix(0.25000388,0,0,0.2500048,604.88501,44.025593)">
      <g
         id="g858"
         transform="matrix(0.78132403,0,0,0.78132403,-310.41109,-135.41463)">
        <path
           d="m -1126.992,1195.912 a 34.308719,34.308719 0 0 1 -22.5294,-60.2118 412.47086,412.47086 0 0 0 142.4383,-311.809 c 0,-227.40963 -185.0383,-412.44799 -412.448,-412.44799 -22.3006,0 -44.7157,1.77262 -66.5589,5.31785 a 34.293469,34.293469 0 1 1 -10.9788,-67.70254 c 25.4457,-4.11705 51.5775,-6.23275 77.5377,-6.23275 265.2636,0 481.06545,215.80184 481.06545,481.06543 0,139.63648 -60.55487,272.1252 -166.11135,363.6723 a 34.120021,34.120021 0 0 1 -22.415,8.3485 z m -292.4819,108.9874 c -265.2636,0 -481.0654,-215.8019 -481.0654,-481.06539 0,-130.60185 51.4631,-252.79808 144.84,-344.05927 a 34.251538,34.251538 0 0 1 48.4896,0.57181 34.251538,34.251538 0 0 1 -0.5718,48.48966 c -79.9965,78.28106 -124.1404,183.0942 -124.1404,295.05499 0,227.4096 185.0384,412.4479 412.448,412.4479 30.1345,0 60.1546,-3.2593 89.2599,-9.6636 18.5267,-4.0599 36.8247,7.6051 40.8845,26.1318 4.0599,18.5267 -7.6051,36.8247 -26.1318,40.8846 a 486.95509,486.95509 0 0 1 -104.0126,11.2075 z"
           fill="#303135"
           p-id="8710"
           id="path6"
           style="fill:#ffffff;stroke-width:1.11682" />
        <path
           d="m -1696.9457,679.99471 c -18.9269,0 -34.3087,-15.38174 -34.3087,-34.30872 V 519.02964 h -135.0048 c -18.927,0 -34.3087,-15.38175 -34.3087,-34.30872 0,-18.92698 15.3817,-34.30872 34.3087,-34.30872 h 169.3135 c 18.927,0 34.3088,15.38174 34.3088,34.30872 v 160.96507 c 0,18.92698 -15.3246,34.30872 -34.3088,34.30872 z m 724.19992,517.31829 h -170.85742 c -18.927,0 -34.3087,-15.3818 -34.3087,-34.3088 V 995.86363 c 0,-18.927 15.3817,-34.30869 34.3087,-34.30869 18.927,0 34.3087,15.38169 34.3087,34.30869 v 132.83187 h 136.54872 c 18.92698,0 34.30872,15.3818 34.30872,34.3087 0,18.927 -15.38174,34.3088 -34.30872,34.3088 z"
           fill="#ff623e"
           p-id="8711"
           id="path8"
           style="stroke-width:1.11682" />
      </g>
      <text
         xml:space="preserve"
         style="font-style:normal;font-variant:normal;font-weight:bold;font-stretch:normal;font-size:320px;line-height:1.25;font-family:sans-serif;-inkscape-font-specification:'sans-serif, Bold';font-variant-ligatures:normal;font-variant-caps:normal;font-variant-numeric:normal;font-variant-east-asian:normal;fill:#ffffff;fill-opacity:1;stroke:none;stroke-width:7.99998"
         x="-1740.2837"
         y="1290.2688"
         id="text846"><tspan
           sodipodi:role="line"
           id="tspan844"
           x="-1740.2837"
           y="1290.2688"
           style="font-style:normal;font-variant:normal;font-weight:bold;font-stretch:normal;font-size:320px;font-family:sans-serif;-inkscape-font-specification:'sans-serif, Bold';font-variant-ligatures:normal;font-variant-caps:normal;font-variant-numeric:normal;font-variant-east-asian:normal;fill:#ffffff;stroke-width:7.99998">重载</tspan></text>
    </g>
  </g>
</svg>
