<?xml version="1.0" encoding="UTF-8" standalone="no"?>
<svg
   xmlns:dc="http://purl.org/dc/elements/1.1/"
   xmlns:cc="http://creativecommons.org/ns#"
   xmlns:rdf="http://www.w3.org/1999/02/22-rdf-syntax-ns#"
   xmlns:svg="http://www.w3.org/2000/svg"
   xmlns="http://www.w3.org/2000/svg"
   xmlns:xlink="http://www.w3.org/1999/xlink"
   xmlns:sodipodi="http://sodipodi.sourceforge.net/DTD/sodipodi-0.dtd"
   xmlns:inkscape="http://www.inkscape.org/namespaces/inkscape"
   viewBox="0 0 250 250"
   version="1.1"
   id="svg27"
   sodipodi:docname="icon_github.svg"
   inkscape:version="0.92.4 (5da689c313, 2019-01-14)"
   width="250"
   height="250">
  <metadata
     id="metadata31">
    <rdf:RDF>
      <cc:Work
         rdf:about="">
        <dc:format>image/svg+xml</dc:format>
        <dc:type
           rdf:resource="http://purl.org/dc/dcmitype/StillImage" />
        <dc:title></dc:title>
      </cc:Work>
    </rdf:RDF>
  </metadata>
  <sodipodi:namedview
     pagecolor="#ffffff"
     bordercolor="#666666"
     borderopacity="1"
     objecttolerance="10"
     gridtolerance="10000"
     guidetolerance="10000"
     inkscape:pageopacity="0"
     inkscape:pageshadow="2"
     inkscape:window-width="1858"
     inkscape:window-height="1057"
     id="namedview29"
     showgrid="false"
     inkscape:zoom="1.8284139"
     inkscape:cx="121.98461"
     inkscape:cy="129.84871"
     inkscape:window-x="-6"
     inkscape:window-y="-8"
     inkscape:window-maximized="1"
     inkscape:current-layer="g830"
     inkscape:snap-path-clip="true"
     inkscape:snap-path-mask="true"
     inkscape:snap-perpendicular="true"
     inkscape:snap-tangential="true"
     showborder="true"
     borderlayer="true"
     inkscape:pagecheckerboard="true" />
  <defs
     id="defs13">
    <clipPath
       id="a"
       transform="translate(178.38 178.11)">
      <circle
         cx="489.29999"
         cy="489.29999"
         r="475.29999"
         style="fill:none"
         id="circle2" />
    </clipPath>
    <radialGradient
       id="b"
       cx="466.56"
       cy="509.06"
       r="269.37"
       gradientUnits="userSpaceOnUse">
      <stop
         offset="0"
         stop-color="#fff"
         id="stop5" />
      <stop
         offset="0.43"
         stop-color="#eaeaea"
         id="stop7" />
      <stop
         offset="1"
         stop-color="#c8c8c8"
         id="stop9" />
    </radialGradient>
    <radialGradient
       id="c"
       cx="557.79999"
       cy="414.69"
       r="215.24001"
       xlink:href="#b" />
  </defs>
  <g
     id="g830"
     transform="translate(5.5283648e-6,-250)">
    <path
       inkscape:connector-curvature="0"
       id="path21"
       style="fill:#13227a;fill-opacity:1;stroke-width:0.25548783"
       d="m 124.97672,499.99977 a 125.06189,125.02496 0 0 1 -48.667401,-240.1589 125.06045,125.02353 0 0 1 97.334811,230.33682 124.24932,124.21263 0 0 1 -48.66741,9.82208 z m 0,-242.83091 A 117.90717,117.87235 0 0 0 79.097111,483.58962 117.90555,117.87073 0 0 0 170.85889,266.42893 117.13292,117.09835 0 0 0 124.97672,257.16886 Z" />
    <path
       d="m 235.19454,377.67587 a 107.0475,107.0475 0 0 1 -21.09466,64.77948 108.22817,108.22817 0 0 1 -54.23215,39.82797 6.6117575,6.6117575 0 0 1 -5.66722,-1.02325 5.5885093,5.5885093 0 0 1 -1.73165,-4.32913 v -30.22518 a 25.738627,25.738627 0 0 0 -7.47759,-20.38625 102.32482,102.32482 0 0 0 14.64032,-2.51876 53.681174,53.681174 0 0 0 13.45965,-5.66722 40.53637,40.53637 0 0 0 11.57058,-9.44537 45.259054,45.259054 0 0 0 7.87114,-15.11259 72.257064,72.257064 0 0 0 2.99103,-21.64563 41.480907,41.480907 0 0 0 -11.41315,-29.51678 38.096317,38.096317 0 0 0 -1.10196,-29.28064 18.812024,18.812024 0 0 0 -11.57058,1.57423 73.910003,73.910003 0 0 0 -13.22351,6.29691 l -5.43109,3.38459 a 102.32482,102.32482 0 0 0 -55.097964,0 c -1.57423,-1.10196 -3.542014,-2.28263 -6.060784,-3.85686 a 80.206915,80.206915 0 0 0 -12.27898,-5.82464 20.386252,20.386252 0 0 0 -12.35769,-1.96779 38.568585,38.568585 0 0 0 -1.02324,29.51678 42.740289,42.740289 0 0 0 -11.33444,29.6742 70.840259,70.840259 0 0 0 2.99103,21.48821 48.328799,48.328799 0 0 0 7.87114,15.11259 37.387914,37.387914 0 0 0 11.57057,9.60279 65.88144,65.88144 0 0 0 13.45965,5.66722 101.85255,101.85255 0 0 0 14.719038,2.51876 22.747594,22.747594 0 0 0 -7.084024,14.79775 24.400533,24.400533 0 0 1 -6.533054,2.04649 41.166061,41.166061 0 0 1 -7.87114,0.7084 17.001662,17.001662 0 0 1 -10.07506,-3.22716 26.919298,26.919298 0 0 1 -7.87114,-8.9731 23.61342,23.61342 0 0 0 -6.9266,-7.47759 19.835272,19.835272 0 0 0 -7.08403,-3.4633 h -2.83361 a 10.232482,10.232482 0 0 0 -4.1717,0.62969 q -1.18067,0.70841 -0.7084,1.65294 a 10.862173,10.862173 0 0 0 1.33809,1.96779 13.617072,13.617072 0 0 0 1.88908,1.81036 l 1.02324,0.62969 a 19.205581,19.205581 0 0 1 6.29692,5.43109 38.804719,38.804719 0 0 1 4.48655,7.24145 l 1.4168,3.30588 a 17.788776,17.788776 0 0 0 6.29691,8.89438 23.61342,23.61342 0 0 0 9.52408,4.093 48.250087,48.250087 0 0 0 9.91764,1.02324 44.786786,44.786786 0 0 0 7.87114,-0.55098 l 3.305884,-0.55097 v 20.62238 a 5.6672207,5.6672207 0 0 1 -1.88908,4.32913 6.8478917,6.8478917 0 0 1 -5.745934,1.02325 107.7559,107.7559 0 0 1 -53.91731,-40.06411 105.23714,105.23714 0 0 1 -21.09465,-64.54334 107.59848,107.59848 0 0 1 14.79774,-55.09798 109.094,109.094 0 0 1 40.30024,-40.30025 107.59848,107.59848 0 0 1 55.097978,-14.79773 107.59848,107.59848 0 0 1 55.09797,14.79773 109.094,109.094 0 0 1 40.30023,40.30025 107.44106,107.44106 0 0 1 14.79775,55.09798 z"
       p-id="26599"
       id="path6"
       inkscape:connector-curvature="0"
       style="fill:#13227a;stroke-width:0.24597313" />
  </g>
</svg>
