<?xml version="1.0" encoding="UTF-8" standalone="no"?>
<svg
   xmlns:dc="http://purl.org/dc/elements/1.1/"
   xmlns:cc="http://creativecommons.org/ns#"
   xmlns:rdf="http://www.w3.org/1999/02/22-rdf-syntax-ns#"
   xmlns:svg="http://www.w3.org/2000/svg"
   xmlns="http://www.w3.org/2000/svg"
   xmlns:xlink="http://www.w3.org/1999/xlink"
   xmlns:sodipodi="http://sodipodi.sourceforge.net/DTD/sodipodi-0.dtd"
   xmlns:inkscape="http://www.inkscape.org/namespaces/inkscape"
   viewBox="0 0 250 250"
   version="1.1"
   id="svg27"
   sodipodi:docname="icon_qbittorrent.svg"
   inkscape:version="1.0.2-2 (e86c870879, 2021-01-15)"
   width="250"
   height="250">
  <metadata
     id="metadata31">
    <rdf:RDF>
      <cc:Work
         rdf:about="">
        <dc:format>image/svg+xml</dc:format>
        <dc:type
           rdf:resource="http://purl.org/dc/dcmitype/StillImage" />
        <dc:title></dc:title>
      </cc:Work>
    </rdf:RDF>
  </metadata>
  <sodipodi:namedview
     pagecolor="#ffffff"
     bordercolor="#666666"
     borderopacity="1"
     objecttolerance="10"
     gridtolerance="10000"
     guidetolerance="10000"
     inkscape:pageopacity="0"
     inkscape:pageshadow="2"
     inkscape:window-width="1918"
     inkscape:window-height="1004"
     id="namedview29"
     showgrid="false"
     inkscape:zoom="1.8284139"
     inkscape:cx="112.38823"
     inkscape:cy="119.01454"
     inkscape:window-x="1910"
     inkscape:window-y="0"
     inkscape:window-maximized="0"
     inkscape:current-layer="g824"
     inkscape:snap-path-clip="true"
     inkscape:snap-path-mask="true"
     inkscape:snap-perpendicular="true"
     inkscape:snap-tangential="true"
     showborder="true"
     borderlayer="true"
     inkscape:pagecheckerboard="true"
     inkscape:document-rotation="0" />
  <defs
     id="defs13">
    <clipPath
       id="a"
       transform="translate(178.38 178.11)">
      <circle
         cx="489.29999"
         cy="489.29999"
         r="475.29999"
         style="fill:none"
         id="circle2" />
    </clipPath>
    <radialGradient
       id="b"
       cx="466.56"
       cy="509.06"
       r="269.37"
       gradientUnits="userSpaceOnUse">
      <stop
         offset="0"
         stop-color="#fff"
         id="stop5" />
      <stop
         offset="0.43"
         stop-color="#eaeaea"
         id="stop7" />
      <stop
         offset="1"
         stop-color="#c8c8c8"
         id="stop9" />
    </radialGradient>
    <radialGradient
       id="c"
       cx="557.79999"
       cy="414.69"
       r="215.24001"
       xlink:href="#b" />
    <radialGradient
       id="a-2"
       cx="1244.322"
       cy="919.87097"
       r="0.92500001"
       gradientTransform="matrix(610,0,0,-1000.5,-756323.63,921038.75)"
       gradientUnits="userSpaceOnUse">
      <stop
         offset="0"
         stop-color="#f9be03"
         id="stop8" />
      <stop
         offset="1"
         stop-color="#cc7c19"
         id="stop10" />
    </radialGradient>
    <linearGradient
       x1="348.2829"
       y1="0"
       x2="782.05951"
       y2="786.48322"
       id="a-6"
       gradientUnits="userSpaceOnUse">
      <stop
         stop-color="#72B4F5"
         offset="0%"
         id="stop4" />
      <stop
         stop-color="#356EBF"
         offset="100%"
         id="stop6" />
    </linearGradient>
  </defs>
  <g
     id="g824"
     transform="matrix(0.49999225,0,0,0.4999904,0,0.0048)">
    <ellipse
       style="fill:#5f9ee4;fill-opacity:1;fill-rule:nonzero;stroke:none;stroke-width:0;stroke-miterlimit:4;stroke-dasharray:none;stroke-opacity:1"
       id="path5119"
       cx="250.00388"
       cy="249.99519"
       rx="219.78214"
       ry="219.78499" />
    <path
       d="M 249.95733,499.99953 A 250.12766,250.05617 0 0 1 152.62102,19.669719 250.12478,250.05331 0 0 1 347.29365,480.35489 248.5025,248.43148 0 0 1 249.95733,499.99953 Z m 0,-485.673963 A 235.81799,235.7506 0 0 0 158.19669,467.17842 235.81475,235.74736 0 0 0 341.72309,32.846178 234.26948,234.20255 0 0 0 249.95733,14.325567 Z"
       style="fill:#5f9ee4;stroke-width:0.510986;fill-opacity:1"
       id="path21"
       inkscape:connector-curvature="0" />
    <path
       fill="#aa0707"
       d="M 641.48102,613.91097"
       id="path2-8"
       style="stroke-width:1.05013;fill:#5f9ee4;fill-opacity:1" />
    <path
       fill="#aa0707"
       d="M 674.64315,680.23551"
       id="path4"
       style="stroke-width:1.05013" />
    <path
       fill="#aa0707"
       d="M 641.48102,613.91097"
       id="path6-3"
       style="stroke-width:1.05013;fill:#5f9ee4;fill-opacity:1" />
    <path
       fill="#aa0707"
       d="M 674.64315,680.23551"
       id="path8"
       style="stroke-width:1.05013" />
    <g
       fill="none"
       fill-rule="evenodd"
       id="g17"
       transform="matrix(0.43001386,0,0,0.43001543,29.836784,29.8273)">
      <circle
         stroke="#daefff"
         stroke-width="32"
         fill="url(#a)"
         cx="512"
         cy="512"
         r="496"
         id="circle11"
         style="fill:url(#a-6)" />
      <path
         d="m 712.898,332.399 q 66.657,0 103.38,45.671 37.03,45.364 37.03,128.684 0,83.32 -37.34,129.61 -37.03,45.98 -103.07,45.98 -33.02,0 -60.484,-12.035 -27.156,-12.344 -45.672,-37.649 h -3.703 l -10.8,43.512 H 555.515 V 196 h 51.227 v 116.65 q 0,39.191 -2.469,70.359 h 2.47 q 35.796,-50.61 106.155,-50.61 z m -7.406,42.894 q -52.46,0 -75.605,30.242 -23.145,29.934 -23.145,101.219 0,71.285 23.762,102.145 23.761,30.55 76.222,30.55 47.215,0 70.36,-34.254 23.144,-34.562 23.144,-99.058 0,-66.04 -23.144,-98.442 -23.145,-32.402 -71.594,-32.402 z"
         fill="#ffffff"
         id="path13" />
      <path
         d="m 317.273,639.45 q 51.227,0 74.68,-27.466 23.453,-27.464 24.996,-92.578 v -11.418 q 0,-70.976 -24.07,-102.144 -24.07,-31.168 -76.223,-31.168 -45.055,0 -69.125,35.18 -23.762,34.87 -23.762,98.75 0,63.879 23.454,97.515 23.761,33.328 70.05,33.328 z m -7.715,42.894 q -65.421,0 -102.144,-45.98 -36.723,-45.981 -36.723,-128.376 0,-83.011 37.032,-129.609 37.03,-46.598 103.07,-46.598 69.433,0 106.773,52.461 h 2.778 l 7.406,-46.289 h 40.426 V 828 H 416.949 V 683.27 q 0,-30.86 3.395,-52.461 h -4.012 q -35.488,51.535 -106.774,51.535 z"
         fill="#c8e8ff"
         id="path15" />
    </g>
  </g>
</svg>
