<?xml version="1.0" encoding="UTF-8" standalone="no"?>
<svg
   xmlns:dc="http://purl.org/dc/elements/1.1/"
   xmlns:cc="http://creativecommons.org/ns#"
   xmlns:rdf="http://www.w3.org/1999/02/22-rdf-syntax-ns#"
   xmlns:svg="http://www.w3.org/2000/svg"
   xmlns="http://www.w3.org/2000/svg"
   xmlns:xlink="http://www.w3.org/1999/xlink"
   xmlns:sodipodi="http://sodipodi.sourceforge.net/DTD/sodipodi-0.dtd"
   xmlns:inkscape="http://www.inkscape.org/namespaces/inkscape"
   viewBox="0 0 250 250"
   version="1.1"
   id="svg27"
   sodipodi:docname="icon_phpmyadmin.svg"
   inkscape:version="1.0.2-2 (e86c870879, 2021-01-15)"
   width="250"
   height="250">
  <metadata
     id="metadata31">
    <rdf:RDF>
      <cc:Work
         rdf:about="">
        <dc:format>image/svg+xml</dc:format>
        <dc:type
           rdf:resource="http://purl.org/dc/dcmitype/StillImage" />
        <dc:title></dc:title>
      </cc:Work>
    </rdf:RDF>
  </metadata>
  <sodipodi:namedview
     pagecolor="#ffffff"
     bordercolor="#666666"
     borderopacity="1"
     objecttolerance="10"
     gridtolerance="10000"
     guidetolerance="10000"
     inkscape:pageopacity="0"
     inkscape:pageshadow="2"
     inkscape:window-width="1918"
     inkscape:window-height="1004"
     id="namedview29"
     showgrid="false"
     inkscape:zoom="1.8284139"
     inkscape:cx="182.78365"
     inkscape:cy="149.93049"
     inkscape:window-x="1910"
     inkscape:window-y="0"
     inkscape:window-maximized="0"
     inkscape:current-layer="g824"
     inkscape:snap-path-clip="true"
     inkscape:snap-path-mask="true"
     inkscape:snap-perpendicular="true"
     inkscape:snap-tangential="true"
     showborder="true"
     borderlayer="true"
     inkscape:pagecheckerboard="true"
     inkscape:document-rotation="0" />
  <defs
     id="defs13">
    <clipPath
       id="a"
       transform="translate(178.38 178.11)">
      <circle
         cx="489.29999"
         cy="489.29999"
         r="475.29999"
         style="fill:none"
         id="circle2" />
    </clipPath>
    <radialGradient
       id="b"
       cx="466.56"
       cy="509.06"
       r="269.37"
       gradientUnits="userSpaceOnUse">
      <stop
         offset="0"
         stop-color="#fff"
         id="stop5" />
      <stop
         offset="0.43"
         stop-color="#eaeaea"
         id="stop7" />
      <stop
         offset="1"
         stop-color="#c8c8c8"
         id="stop9" />
    </radialGradient>
    <radialGradient
       id="c"
       cx="557.79999"
       cy="414.69"
       r="215.24001"
       xlink:href="#b" />
  </defs>
  <g
     id="g824"
     transform="matrix(0.49999225,0,0,0.4999904,0,0.0048)">
    <ellipse
       style="fill:#6c78af;fill-opacity:1;fill-rule:nonzero;stroke:none;stroke-width:0;stroke-miterlimit:4;stroke-dasharray:none;stroke-opacity:1"
       id="path5119"
       cx="250.00388"
       cy="249.99519"
       rx="219.78214"
       ry="219.78499" />
    <path
       d="M 249.95733,499.99953 A 250.12766,250.05617 0 0 1 152.62102,19.669719 250.12478,250.05331 0 0 1 347.29365,480.35489 248.5025,248.43148 0 0 1 249.95733,499.99953 Z m 0,-485.673963 A 235.81799,235.7506 0 0 0 158.19669,467.17842 235.81475,235.74736 0 0 0 341.72309,32.846178 234.26948,234.20255 0 0 0 249.95733,14.325567 Z"
       style="fill:#6c78af;stroke-width:0.510986;fill-opacity:1"
       id="path21"
       inkscape:connector-curvature="0" />
    <g
       id="g938"
       transform="translate(-7.7738036,-7.2102831)">
      <path
         d="m 209.02445,105.91844 -49.80289,139.62529 39.84234,-2.49333 z m 59.76491,129.65054 7.47007,-162.06389 c 0,0 -20.22789,86.24336 -69.72545,164.55582 z m 17.43066,-2.49333 c 41.79849,-4.49196 42.33421,-4.98526 42.33421,-4.98526 L 278.74994,140.8237 c 0,0 12.11464,45.96272 7.47008,92.25195 z m 9.96199,-77.29194 c 1.28197,12.22921 3.36118,17.53814 9.96058,27.42526 6.5994,9.88994 28.93611,25.56939 52.29339,32.41334 C 348.79622,202.27506 283.72951,88.4651 283.72951,88.4651 c 0,0 14.83413,45.29981 12.4525,67.31861 z m -54.78531,89.75861 c -23.37422,2.0071 -84.66564,9.97192 -84.66564,9.97192 l 14.94019,24.93476 c 0,0 34.61819,-20.97567 74.70643,-17.45334 24.81171,1.68625 38.56032,4.7068 44.82472,7.47859 6.26302,2.77461 15.94798,4.38736 22.41027,-4.98526 6.46228,-9.37262 25.68094,-34.22398 59.76487,-37.3986 -59.41295,6.61073 -108.60665,15.442 -131.98084,17.45193 z M 223.96604,93.45035 c 5.23399,3.74142 7.17324,2.94564 9.96059,0 2.78871,-2.94422 6.84249,-3.23681 12.45105,0 0.56962,-4.07922 -3.37247,-7.47859 -7.47008,-7.47859 -5.81352,0 -5.60856,4.98526 -9.96058,4.98526 -6.55838,-5.29763 -14.08362,-5.52519 -14.94015,2.49333 0,0 4.72374,-3.74141 9.95917,0 z m -29.88175,194.47724 c 6.71249,-3.4347 7.47008,-4.98526 7.47008,-4.98526 v -4.98525 c 0,0 -5.01348,8.0892 -12.45105,9.97192 -7.43758,1.88555 -14.94016,0 -14.94016,0 v 2.49616 c 0,-0.003 12.2673,0.62475 19.92113,-2.49757 z m 7.47008,0 c -5.14918,3.15765 -8.77611,4.98808 -12.45105,4.98808 h -12.4511 v 2.49333 h 14.94016 c 0,0 10.33231,-1.25656 14.94015,-4.98525 4.6107,-3.73294 10.77193,-3.14211 19.92258,-2.49616 v -4.98526 h -14.94156 c 0,-0.002 -4.81137,1.82618 -9.95918,4.98526 z m 104.58822,-12.46526 c -6.39162,3.53646 -13.54935,9.39947 -22.41168,9.97192 -8.86232,0.57104 -14.94015,0 -14.94015,0 v 4.98808 h 7.47008 c 0,0 7.65809,0.26715 19.92257,-4.98808 11.87015,-5.08561 20.05684,-5.87432 24.90074,-4.98525 v -7.48142 c 0,0 -8.54998,-1.04454 -14.94156,2.49475 z m -14.9416,-2.49475 c 0,0 -32.25206,-8.7931 -39.8423,-7.47859 -7.59164,1.31451 -24.44139,1.85587 -29.88315,2.49334 -5.44321,0.63746 -23.0986,1.04878 -37.35324,12.46667 l 2.49051,2.49333 c 0,0 21.06888,-12.68858 34.86273,-12.46667 13.79384,0.22191 27.28804,-2.6997 44.82331,0 15.37832,2.36895 24.90214,4.98808 24.90214,4.98808 z M 239.09843,108.37219 c -5.54919,-5.25663 -11.91679,-5.48279 -12.64188,2.47497 0,0 3.99862,-3.71315 8.42837,0 4.42976,3.71314 6.06936,2.92019 8.42842,0 2.35906,-2.92162 5.7895,-3.21279 10.53586,0 0.48196,-4.04814 -2.8552,-7.42206 -6.32236,-7.42206 -4.91883,0 -4.74496,4.94709 -8.42841,4.94709 z"
         fill="#cccccc"
         p-id="61754"
         id="path6"
         style="stroke-width:0.390632" />
      <path
         d="m 91.594207,321.95599 h 7.33296 l -0.61911,2.93433 c 1.56331,-1.29189 3.029033,-2.21629 4.394453,-2.7732 1.36537,-0.5569 2.83113,-0.83535 4.3944,-0.83535 3.00216,0 5.41493,1.03183 7.23828,3.09547 1.82475,2.06506 2.73645,5.14356 2.73645,9.2341 0,5.15204 -1.57319,9.50407 -4.71812,13.05608 -2.69544,3.03327 -5.88701,4.55133 -9.57047,4.55133 -3.792283,0 -6.658773,-1.53502 -8.599433,-4.60504 l -3.1011,14.83703 h -7.73863 z m 4.66437,16.39608 c 0,2.22477 0.54274,3.95343 1.63112,5.18172 1.08833,1.22971 2.367533,1.84456 3.841743,1.84456 1.27634,0 2.50746,-0.46079 3.69334,-1.38519 1.18591,-0.92439 2.16968,-2.45799 2.95129,-4.60362 0.78165,-2.14562 1.17318,-4.13294 1.17318,-5.96336 0,-2.13715 -0.51309,-3.77393 -1.53643,-4.91458 -1.02474,-1.13925 -2.32796,-1.70887 -3.90959,-1.70887 -1.47424,0 -2.81844,0.52439 -4.03115,1.57459 -1.212763,1.04878 -2.152693,2.59369 -2.818453,4.62906 -0.6629,2.0382 -0.99505,3.82057 -0.99505,5.34569 z m 31.166543,12.19528 h -7.73719 l 8.27571,-39.46648 h 7.73864 l -2.9654,14.05115 c 1.7428,-1.36257 3.36966,-2.34492 4.87921,-2.94705 a 12.98112,12.981168 0 0 1 4.85379,-0.9032 c 2.31808,0 4.15272,0.66574 5.49973,1.99297 1.34702,1.32724 2.02265,3.06861 2.02265,5.22131 0,1.14913 -0.2516,2.92585 -0.75477,5.33014 l -3.50537,16.71834 h -7.73719 l 3.58591,-17.04203 c 0.37739,-1.8488 0.56536,-3.03327 0.56536,-3.55342 0,-0.95126 -0.2968,-1.71452 -0.88903,-2.28838 -0.59368,-0.57387 -1.40217,-0.8608 -2.42692,-0.8608 -1.2947,0 -2.53429,0.44807 -3.72017,1.34561 a 11.683573,11.683617 0 0 0 -3.53224,4.36192 c -0.44946,0.95126 -1.04311,3.18593 -1.77952,6.7026 z m 31.62455,-28.59136 h 7.33296 l -0.61911,2.93433 c 1.56331,-1.29189 3.02903,-2.21629 4.39445,-2.7732 1.36537,-0.5569 2.83113,-0.83535 4.3944,-0.83535 3.00216,0 5.41493,1.03183 7.23828,3.09547 1.82475,2.06506 2.73644,5.14356 2.73644,9.2341 0,5.15204 -1.57318,9.50407 -4.71812,13.05608 -2.69543,3.03327 -5.887,4.55133 -9.57046,4.55133 -3.79228,0 -6.65873,-1.53502 -8.59943,-4.60504 l -3.09969,14.83421 h -7.73864 z m 4.66296,16.39608 c 0,2.22477 0.54274,3.95343 1.63112,5.18172 1.08834,1.22971 2.36754,1.84456 3.84174,1.84456 1.27635,0 2.50746,-0.46079 3.69334,-1.38519 1.18591,-0.92439 2.16964,-2.45799 2.95129,-4.60362 0.78166,-2.14562 1.17319,-4.13294 1.17319,-5.96336 0,-2.13715 -0.5131,-3.77393 -1.53643,-4.91458 -1.02475,-1.13925 -2.32797,-1.70887 -3.9096,-1.70887 -1.47424,0 -2.81844,0.52439 -4.03115,1.57459 -1.21276,1.04878 -2.15269,2.59369 -2.81844,4.62906 -0.6615,2.0382 -0.99506,3.82057 -0.99506,5.34569 z"
         fill="#6c78af"
         p-id="61755"
         id="path8"
         style="fill:#ffffff;stroke-width:0.390632" />
      <path
         d="m 209.8151,350.54735 h -7.71035 l -1.42901,-32.97872 -6.28138,32.97872 h -7.33297 l 8.25032,-39.46648 h 11.59311 l 1.21272,27.64859 13.48009,-27.64859 H 233.325 l -8.27575,39.46648 h -7.41496 l 7.79094,-32.73702 z m 25.61313,-28.59136 h 7.71036 l 1.94206,14.24197 c 0.48481,3.66085 0.75482,6.22768 0.80853,7.69909 1.00634,-2.92585 2.39011,-6.01284 4.15268,-9.26237 l 6.84819,-12.6801 h 8.19517 l -17.68649,31.39 c -1.45584,2.60359 -2.60074,4.42411 -3.43751,5.46583 a 9.057384,9.0574176 0 0 1 -3.01915,2.4481 c -1.1774,0.59366 -2.59227,0.88907 -4.246,0.88907 -1.63534,0 -3.47709,-0.28693 -5.52657,-0.8608 l 0.67423,-5.76124 c 0.93427,0.26856 1.84311,0.40425 2.72371,0.40425 2.37316,0 4.32233,-1.7965 5.85025,-5.38526 z m 54.24534,19.86894 h -15.66384 l -4.74496,8.72242 h -8.3577 l 22.34944,-39.46648 h 9.03339 l 6.41564,39.46648 h -7.71039 z m -0.99787,-6.56833 -2.29121,-15.88299 -9.54362,15.88299 z m 41.38439,15.29075 h -7.333 l 0.64739,-3.09546 c -1.40217,1.34561 -2.78309,2.311 -4.14003,2.89475 -1.35689,0.58235 -2.88906,0.87493 -4.59651,0.87493 -2.96544,0 -5.36969,-1.01062 -7.21285,-3.03044 -1.84171,-2.01842 -2.76328,-5.00222 -2.76328,-8.95141 0,-4.57536 1.2947,-8.71254 3.88275,-12.41014 2.58801,-3.69618 6.01279,-5.54639 10.27293,-5.54639 3.846,0 6.73085,1.52653 8.65315,4.57676 l 3.1011,-14.77908 h 7.73723 z m -17.8759,-11.63132 c 0,2.04669 0.51591,3.64389 1.55053,4.79303 1.03466,1.14914 2.30535,1.723 3.8149,1.723 1.40073,0 2.70962,-0.47916 3.92233,-1.44031 1.21275,-0.96115 2.18378,-2.42831 2.91172,-4.4015 0.72791,-1.97318 1.09119,-3.86721 1.09119,-5.68067 0,-2.06365 -0.55833,-3.73435 -1.67213,-5.00787 -1.11381,-1.27353 -2.39863,-1.91241 -3.85588,-1.91241 -2.26578,0 -4.12444,1.25798 -5.58032,3.76969 -1.45585,2.51171 -2.18234,5.23261 -2.18234,8.15704 z m 30.89798,-16.96004 h 7.27929 l -0.72935,3.47286 c 2.84102,-2.7633 5.82341,-4.14708 8.95139,-4.14708 2.1555,0 3.81912,0.44948 4.98664,1.34702 1.16893,0.89755 1.91382,2.13574 2.2375,3.71456 0.98798,-1.43607 2.40851,-2.6375 4.26155,-3.60713 1.85159,-0.96963 3.77388,-1.45445 5.76829,-1.45445 2.28269,0 4.06225,0.61203 5.3386,1.83184 1.2749,1.21981 1.91378,2.83539 1.91378,4.84532 0,0.98801 -0.25157,2.69264 -0.75337,5.1153 l -3.66787,17.47171 h -7.73723 l 3.66646,-17.47171 c 0.44809,-2.18944 0.67423,-3.42763 0.67423,-3.71456 0,-0.79012 -0.23887,-1.41346 -0.7138,-1.87142 -0.47774,-0.45654 -1.19154,-0.68552 -2.14417,-0.68552 -1.92374,0 -3.63967,1.01345 -5.15063,3.04175 -1.09541,1.45303 -2.03113,4.02976 -2.80286,7.72595 l -2.72371,12.97692 h -7.73864 l 3.61416,-17.28372 c 0.41274,-1.99297 0.61911,-3.28487 0.61911,-3.87711 0,-0.75337 -0.25727,-1.37388 -0.76892,-1.85728 -0.51168,-0.4834 -1.21697,-0.72651 -2.11593,-0.72651 -0.84524,0 -1.71733,0.25159 -2.61629,0.75337 -0.89896,0.50178 -1.68342,1.19437 -2.35906,2.07354 -0.67423,0.87917 -1.25373,2.00993 -1.73713,3.39087 -0.21626,0.64595 -0.56677,2.10888 -1.05158,4.38737 l -2.74919,13.13806 h -7.73863 z m 49.33787,0 h 7.73723 l -5.98455,28.59136 h -7.73723 z m 2.26437,-10.87512 h 7.73864 l -1.45588,6.99943 h -7.73719 z m 13.18321,10.87512 h 7.33301 l -0.75478,3.71597 c 1.83323,-1.57882 3.5449,-2.70676 5.13645,-3.37957 a 12.749314,12.749362 0 0 1 5.02765,-1.01062 c 2.35481,0 4.21065,0.67422 5.56759,2.01983 1.3569,1.34561 2.03394,3.13222 2.03394,5.35699 0,1.00638 -0.2968,2.90889 -0.88904,5.70754 l -3.37111,16.17981 h -7.73723 l 3.39654,-16.23353 c 0.50177,-2.42266 0.75337,-3.86721 0.75337,-4.33365 0,-0.98659 -0.29117,-1.76258 -0.87493,-2.32796 -0.58517,-0.56397 -1.39792,-0.84807 -2.44102,-0.84807 -1.13216,0 -2.39015,0.47492 -3.77392,1.42617 a 9.9577515,9.9577885 0 0 0 -3.26365,3.76969 c -0.57528,1.11239 -1.22123,3.38381 -1.94065,6.81002 l -2.45375,11.73874 h -7.73723 z"
         fill="#fb9800"
         p-id="61756"
         id="path10"
         style="stroke-width:0.390632" />
    </g>
  </g>
</svg>
