<?xml version="1.0" encoding="UTF-8" standalone="no"?>
<svg
   xmlns:dc="http://purl.org/dc/elements/1.1/"
   xmlns:cc="http://creativecommons.org/ns#"
   xmlns:rdf="http://www.w3.org/1999/02/22-rdf-syntax-ns#"
   xmlns:svg="http://www.w3.org/2000/svg"
   xmlns="http://www.w3.org/2000/svg"
   xmlns:xlink="http://www.w3.org/1999/xlink"
   xmlns:sodipodi="http://sodipodi.sourceforge.net/DTD/sodipodi-0.dtd"
   xmlns:inkscape="http://www.inkscape.org/namespaces/inkscape"
   viewBox="0 0 250 250"
   version="1.1"
   id="svg27"
   sodipodi:docname="icon_aliddns.svg"
   inkscape:version="0.92.4 (5da689c313, 2019-01-14)"
   width="250"
   height="250">
  <metadata
     id="metadata31">
    <rdf:RDF>
      <cc:Work
         rdf:about="">
        <dc:format>image/svg+xml</dc:format>
        <dc:type
           rdf:resource="http://purl.org/dc/dcmitype/StillImage" />
        <dc:title></dc:title>
      </cc:Work>
    </rdf:RDF>
  </metadata>
  <sodipodi:namedview
     pagecolor="#ffffff"
     bordercolor="#666666"
     borderopacity="1"
     objecttolerance="10"
     gridtolerance="10000"
     guidetolerance="10000"
     inkscape:pageopacity="0"
     inkscape:pageshadow="2"
     inkscape:window-width="1920"
     inkscape:window-height="1026"
     id="namedview29"
     showgrid="false"
     inkscape:zoom="0.91420696"
     inkscape:cx="190.60998"
     inkscape:cy="266.88616"
     inkscape:window-x="-8"
     inkscape:window-y="1072"
     inkscape:window-maximized="1"
     inkscape:current-layer="g830"
     inkscape:snap-path-clip="true"
     inkscape:snap-path-mask="true"
     inkscape:snap-perpendicular="true"
     inkscape:snap-tangential="true"
     showborder="true"
     borderlayer="true"
     inkscape:pagecheckerboard="true" />
  <defs
     id="defs13">
    <clipPath
       id="a"
       transform="translate(178.38 178.11)">
      <circle
         cx="489.29999"
         cy="489.29999"
         r="475.29999"
         style="fill:none"
         id="circle2" />
    </clipPath>
    <radialGradient
       id="b"
       cx="466.56"
       cy="509.06"
       r="269.37"
       gradientUnits="userSpaceOnUse">
      <stop
         offset="0"
         stop-color="#fff"
         id="stop5" />
      <stop
         offset="0.43"
         stop-color="#eaeaea"
         id="stop7" />
      <stop
         offset="1"
         stop-color="#c8c8c8"
         id="stop9" />
    </radialGradient>
    <radialGradient
       id="c"
       cx="557.79999"
       cy="414.69"
       r="215.24001"
       xlink:href="#b" />
  </defs>
  <g
     id="g830"
     transform="translate(5.5283648e-6,-250)">
    <g
       id="g828"
       transform="matrix(0.49999225,0,0,0.4999904,-2.7642252e-6,250.0048)">
      <ellipse
         style="opacity:1;fill:#ffffff;fill-opacity:1;fill-rule:nonzero;stroke:none;stroke-width:0;stroke-miterlimit:4;stroke-dasharray:none;stroke-opacity:1"
         id="path5119"
         cx="250.00388"
         cy="249.99519"
         rx="219.78214"
         ry="219.78499" />
      <path
         d="M 249.95732,499.99953 A 250.12766,250.05617 0 0 1 152.62101,19.669719 250.12478,250.05331 0 0 1 347.29364,480.35489 248.5025,248.43148 0 0 1 249.95732,499.99953 Z m 0,-485.673963 A 235.81799,235.7506 0 0 0 158.19668,467.17842 235.81475,235.74736 0 0 0 341.72308,32.846178 234.26948,234.20255 0 0 0 249.95732,14.325567 Z"
         style="fill:#1296db;fill-opacity:1;stroke-width:0.51098603"
         id="path21"
         inkscape:connector-curvature="0" />
      <path
         id="path6"
         p-id="5598"
         d="M 250.00386,30.21926 A 219.77594,219.77594 0 1 0 469.77981,249.9952 219.77594,219.77594 0 0 0 250.00386,30.21926 Z m -85.71262,296.6975 A 45.493619,45.493619 0 0 1 118.1383,282.96157 v -65.93276 a 45.493619,45.493619 0 0 1 46.15294,-43.95518 h 63.73503 l -12.96679,20.21938 -45.27384,12.747 c -7.47238,2.19776 -14.06566,6.15374 -14.06566,13.84589 v 57.5813 c 0,7.47235 6.59328,11.86788 14.06566,13.84586 l 43.95519,10.98879 15.16454,23.73581 z m 41.75743,-65.93277 V 239.0064 h 87.91038 v 21.97759 z m 175.82076,21.97758 a 45.493619,45.493619 0 0 1 -46.15295,43.95519 h -63.73503 l 15.16454,-23.73579 43.9552,-10.98881 c 7.47237,-1.97798 13.84588,-6.37351 14.06566,-13.84585 V 220.765 c 0,-7.69215 -6.59329,-11.64813 -14.06566,-13.84588 l -45.93317,-13.62611 -13.18657,-20.21938 h 63.73503 a 45.493619,45.493619 0 0 1 46.15295,43.95518 z"
         style="fill:#1296db;fill-opacity:1;stroke-width:0.42924985"
         inkscape:connector-curvature="0" />
    </g>
  </g>
</svg>
