<?xml version="1.0" encoding="UTF-8" standalone="no"?>
<svg
   xmlns:dc="http://purl.org/dc/elements/1.1/"
   xmlns:cc="http://creativecommons.org/ns#"
   xmlns:rdf="http://www.w3.org/1999/02/22-rdf-syntax-ns#"
   xmlns:svg="http://www.w3.org/2000/svg"
   xmlns="http://www.w3.org/2000/svg"
   xmlns:xlink="http://www.w3.org/1999/xlink"
   xmlns:sodipodi="http://sodipodi.sourceforge.net/DTD/sodipodi-0.dtd"
   xmlns:inkscape="http://www.inkscape.org/namespaces/inkscape"
   viewBox="0 0 250 250"
   version="1.1"
   id="svg27"
   sodipodi:docname="icon_android.svg"
   inkscape:version="0.92.4 (5da689c313, 2019-01-14)"
   width="250"
   height="250">
  <metadata
     id="metadata31">
    <rdf:RDF>
      <cc:Work
         rdf:about="">
        <dc:format>image/svg+xml</dc:format>
        <dc:type
           rdf:resource="http://purl.org/dc/dcmitype/StillImage" />
        <dc:title></dc:title>
      </cc:Work>
    </rdf:RDF>
  </metadata>
  <sodipodi:namedview
     pagecolor="#ffffff"
     bordercolor="#666666"
     borderopacity="1"
     objecttolerance="10"
     gridtolerance="10000"
     guidetolerance="10000"
     inkscape:pageopacity="0"
     inkscape:pageshadow="2"
     inkscape:window-width="1920"
     inkscape:window-height="1026"
     id="namedview29"
     showgrid="false"
     inkscape:zoom="1.8284139"
     inkscape:cx="113.19101"
     inkscape:cy="135.68233"
     inkscape:window-x="-8"
     inkscape:window-y="1072"
     inkscape:window-maximized="1"
     inkscape:current-layer="g830"
     inkscape:snap-path-clip="true"
     inkscape:snap-path-mask="true"
     inkscape:snap-perpendicular="true"
     inkscape:snap-tangential="true"
     showborder="true"
     borderlayer="true"
     inkscape:pagecheckerboard="true" />
  <defs
     id="defs13">
    <clipPath
       id="a"
       transform="translate(178.38 178.11)">
      <circle
         cx="489.29999"
         cy="489.29999"
         r="475.29999"
         style="fill:none"
         id="circle2" />
    </clipPath>
    <radialGradient
       id="b"
       cx="466.56"
       cy="509.06"
       r="269.37"
       gradientUnits="userSpaceOnUse">
      <stop
         offset="0"
         stop-color="#fff"
         id="stop5" />
      <stop
         offset="0.43"
         stop-color="#eaeaea"
         id="stop7" />
      <stop
         offset="1"
         stop-color="#c8c8c8"
         id="stop9" />
    </radialGradient>
    <radialGradient
       id="c"
       cx="557.79999"
       cy="414.69"
       r="215.24001"
       xlink:href="#b" />
  </defs>
  <g
     id="g830"
     transform="translate(5.5283648e-6,-250)">
    <g
       id="g827"
       transform="matrix(0.49999225,0,0,0.4999904,-2.7642252e-6,250.0048)">
      <ellipse
         style="opacity:1;fill:#ffffff;fill-opacity:1;fill-rule:nonzero;stroke:none;stroke-width:0;stroke-miterlimit:4;stroke-dasharray:none;stroke-opacity:1"
         id="path5119"
         cx="250.00388"
         cy="249.99519"
         rx="219.78214"
         ry="219.78499" />
      <path
         d="M 249.95732,499.99953 A 250.12766,250.05617 0 0 1 152.62101,19.669719 250.12478,250.05331 0 0 1 347.29364,480.35489 248.5025,248.43148 0 0 1 249.95732,499.99953 Z m 0,-485.673963 A 235.81799,235.7506 0 0 0 158.19668,467.17842 235.81475,235.74736 0 0 0 341.72308,32.846178 234.26948,234.20255 0 0 0 249.95732,14.325567 Z"
         style="fill:#3ab448;fill-opacity:1;stroke-width:0.51098603"
         id="path21"
         inkscape:connector-curvature="0" />
      <path
         id="path6-2"
         p-id="10235"
         d="m 250.00387,29.672329 c -121.17758,0 -220.322869,99.145291 -220.322869,220.322861 0,121.17759 99.145289,220.32288 220.322869,220.32288 121.17758,0 220.32287,-99.14529 220.32287,-220.32288 0,-121.17757 -99.14529,-220.322861 -220.32287,-220.322861 z m -31.67141,122.554591 -9.63912,-15.14718 c -1.37702,-1.37702 0,-2.75405 1.377,-4.13107 1.37702,-1.37701 2.75404,0 4.13106,1.37702 l 8.26211,15.1472 c 8.26211,-4.13105 16.52422,-5.50807 26.16334,-5.50807 8.26211,0 17.90124,1.37702 24.78632,4.13105 l 9.63912,-15.1472 c 1.37702,-1.37701 2.75404,-1.37701 4.13106,-1.37701 1.37702,1.37701 1.37702,2.75403 1.37702,4.13106 l -8.26211,13.77017 c 17.90124,8.26211 30.29439,24.78632 33.04842,44.06457 H 188.03806 c 1.37702,-17.90122 13.77018,-33.04843 30.2944,-41.31054 z m -41.31054,126.68565 c 0,8.26211 -5.50807,13.77018 -12.39316,13.77018 -6.88509,0 -12.39317,-6.88509 -12.39317,-13.77018 v -57.83475 c 0,-6.8851 5.50808,-13.77017 12.39317,-13.77017 6.88509,0 12.39316,6.88507 12.39316,13.77017 z m 136.32476,27.54037 c 0,6.88507 -5.50806,13.77017 -13.77016,13.77017 h -6.8851 v 31.67141 c 0,8.26211 -6.88509,13.77018 -13.77018,13.77018 -8.2621,0 -13.77018,-6.88509 -13.77018,-13.77018 v -28.91738 -2.75403 H 236.2337 v 31.67141 c 0,8.26211 -5.50808,13.77018 -13.77019,13.77018 -8.26211,0 -13.77017,-6.88509 -13.77017,-13.77018 v -28.91738 -2.75403 h -9.63913 c -6.8851,0 -12.39316,-5.50808 -12.39316,-13.77017 v -96.39127 h 126.68563 z m 33.04843,-27.54037 c 0,8.26211 -5.50807,13.77018 -12.39315,13.77018 -6.88509,0 -12.39316,-6.88509 -12.39316,-13.77018 v -57.83475 c 0,-8.26211 5.50807,-13.77017 12.39316,-13.77017 6.88508,0 12.39315,6.88507 12.39315,13.77017 z"
         style="fill:#3ab448;stroke-width:0.43031809"
         inkscape:connector-curvature="0" />
      <path
         id="path8"
         p-id="10236"
         d="m 223.84053,163.94314 c -2.75404,0 -6.88509,2.75404 -6.88509,6.88509 0,4.13105 2.75404,6.88509 6.88509,6.88509 4.13105,0 6.88509,-2.75404 6.88509,-6.88509 0,-4.13105 -4.13105,-6.88509 -6.88509,-6.88509 z m 52.32668,0 c -2.75404,0 -6.88509,2.75404 -6.88509,6.88509 0,4.13105 2.75404,6.88509 6.88509,6.88509 4.13105,0 6.88509,-2.75404 6.88509,-6.88509 0,-4.13105 -4.13105,-6.88509 -6.88509,-6.88509 z"
         style="fill:#3ab448;stroke-width:0.43031809"
         inkscape:connector-curvature="0" />
    </g>
  </g>
</svg>
