<?xml version="1.0" encoding="UTF-8" standalone="no"?>
<svg
   xmlns:dc="http://purl.org/dc/elements/1.1/"
   xmlns:cc="http://creativecommons.org/ns#"
   xmlns:rdf="http://www.w3.org/1999/02/22-rdf-syntax-ns#"
   xmlns:svg="http://www.w3.org/2000/svg"
   xmlns="http://www.w3.org/2000/svg"
   xmlns:xlink="http://www.w3.org/1999/xlink"
   xmlns:sodipodi="http://sodipodi.sourceforge.net/DTD/sodipodi-0.dtd"
   xmlns:inkscape="http://www.inkscape.org/namespaces/inkscape"
   viewBox="0 0 250 250"
   version="1.1"
   id="svg27"
   sodipodi:docname="icon_adb.svg"
   inkscape:version="0.92.4 (5da689c313, 2019-01-14)"
   width="250"
   height="250">
  <metadata
     id="metadata31">
    <rdf:RDF>
      <cc:Work
         rdf:about="">
        <dc:format>image/svg+xml</dc:format>
        <dc:type
           rdf:resource="http://purl.org/dc/dcmitype/StillImage" />
        <dc:title></dc:title>
      </cc:Work>
    </rdf:RDF>
  </metadata>
  <sodipodi:namedview
     pagecolor="#ffffff"
     bordercolor="#666666"
     borderopacity="1"
     objecttolerance="10"
     gridtolerance="10000"
     guidetolerance="10000"
     inkscape:pageopacity="0"
     inkscape:pageshadow="2"
     inkscape:window-width="1920"
     inkscape:window-height="1026"
     id="namedview29"
     showgrid="false"
     inkscape:zoom="0.91420696"
     inkscape:cx="8.4849172"
     inkscape:cy="266.88616"
     inkscape:window-x="-8"
     inkscape:window-y="1072"
     inkscape:window-maximized="1"
     inkscape:current-layer="g830"
     inkscape:snap-path-clip="true"
     inkscape:snap-path-mask="true"
     inkscape:snap-perpendicular="true"
     inkscape:snap-tangential="true"
     showborder="true"
     borderlayer="true"
     inkscape:pagecheckerboard="true" />
  <defs
     id="defs13">
    <clipPath
       id="a"
       transform="translate(178.38 178.11)">
      <circle
         cx="489.29999"
         cy="489.29999"
         r="475.29999"
         style="fill:none"
         id="circle2" />
    </clipPath>
    <radialGradient
       id="b"
       cx="466.56"
       cy="509.06"
       r="269.37"
       gradientUnits="userSpaceOnUse">
      <stop
         offset="0"
         stop-color="#fff"
         id="stop5" />
      <stop
         offset="0.43"
         stop-color="#eaeaea"
         id="stop7" />
      <stop
         offset="1"
         stop-color="#c8c8c8"
         id="stop9" />
    </radialGradient>
    <radialGradient
       id="c"
       cx="557.79999"
       cy="414.69"
       r="215.24001"
       xlink:href="#b" />
  </defs>
  <g
     id="g830"
     transform="translate(5.5283648e-6,-250)">
    <g
       id="g828"
       transform="matrix(0.49999225,0,0,0.4999904,-2.7642252e-6,250.0048)">
      <ellipse
         style="opacity:1;fill:#1afa29;fill-opacity:1;fill-rule:nonzero;stroke:none;stroke-width:0;stroke-miterlimit:4;stroke-dasharray:none;stroke-opacity:1"
         id="path5119"
         cx="250.00388"
         cy="249.99519"
         rx="219.78214"
         ry="219.78499" />
      <path
         d="M 249.95732,499.99953 A 250.12766,250.05617 0 0 1 152.62101,19.669719 250.12478,250.05331 0 0 1 347.29364,480.35489 248.5025,248.43148 0 0 1 249.95732,499.99953 Z m 0,-485.673963 A 235.81799,235.7506 0 0 0 158.19668,467.17842 235.81475,235.74736 0 0 0 341.72308,32.846178 234.26948,234.20255 0 0 0 249.95732,14.325567 Z"
         style="fill:#1afa29;fill-opacity:1;stroke-width:0.51098603"
         id="path21"
         inkscape:connector-curvature="0" />
      <path
         id="path6"
         p-id="8876"
         d="m 134.1613,312.55019 c 0,64.0444 51.79818,115.84256 115.84256,115.84256 64.04439,0 115.84257,-51.79816 115.84257,-115.84256 V 246.35444 H 134.1613 Z M 318.18549,120.08603 352.93826,85.333263 339.36812,71.597649 301.30557,109.8257 c -15.556,-7.77801 -32.7669,-12.411717 -51.30171,-12.411717 -18.5348,0 -35.7457,4.633707 -51.13622,12.411717 l -38.22805,-38.228051 -13.57012,13.735614 34.75277,34.752767 c -28.79514,21.01715 -47.66094,54.77699 -47.66094,93.17053 v 16.54894 h 231.68513 v -16.54894 c 0,-38.39354 -18.86579,-72.15338 -47.66094,-93.17053 z m -117.82843,76.62159 c -9.10192,0 -16.54894,-7.44703 -16.54894,-16.54894 0,-9.10192 7.44702,-16.54894 16.54894,-16.54894 9.10191,0 16.54894,7.44702 16.54894,16.54894 0,9.10191 -7.44703,16.54894 -16.54894,16.54894 z m 99.29362,0 c -9.10192,0 -16.54894,-7.44703 -16.54894,-16.54894 0,-9.10192 7.44702,-16.54894 16.54894,-16.54894 9.10191,0 16.54893,7.44702 16.54893,16.54894 0,9.10191 -7.44702,16.54894 -16.54893,16.54894 z"
         style="fill:#ffffff;stroke-width:0.35554358"
         inkscape:connector-curvature="0" />
    </g>
  </g>
</svg>
