<?xml version="1.0" encoding="UTF-8" standalone="no"?>
<svg
   xmlns:dc="http://purl.org/dc/elements/1.1/"
   xmlns:cc="http://creativecommons.org/ns#"
   xmlns:rdf="http://www.w3.org/1999/02/22-rdf-syntax-ns#"
   xmlns:svg="http://www.w3.org/2000/svg"
   xmlns="http://www.w3.org/2000/svg"
   xmlns:xlink="http://www.w3.org/1999/xlink"
   xmlns:sodipodi="http://sodipodi.sourceforge.net/DTD/sodipodi-0.dtd"
   xmlns:inkscape="http://www.inkscape.org/namespaces/inkscape"
   viewBox="0 0 250 250"
   version="1.1"
   id="svg27"
   sodipodi:docname="icon_wireless.svg"
   inkscape:version="1.0.2-2 (e86c870879, 2021-01-15)"
   width="250"
   height="250">
  <metadata
     id="metadata31">
    <rdf:RDF>
      <cc:Work
         rdf:about="">
        <dc:format>image/svg+xml</dc:format>
        <dc:type
           rdf:resource="http://purl.org/dc/dcmitype/StillImage" />
        <dc:title></dc:title>
      </cc:Work>
    </rdf:RDF>
  </metadata>
  <sodipodi:namedview
     pagecolor="#ffffff"
     bordercolor="#666666"
     borderopacity="1"
     objecttolerance="10"
     gridtolerance="10000"
     guidetolerance="10000"
     inkscape:pageopacity="0"
     inkscape:pageshadow="2"
     inkscape:window-width="1918"
     inkscape:window-height="1004"
     id="namedview29"
     showgrid="false"
     inkscape:zoom="1.2928839"
     inkscape:cx="230.70047"
     inkscape:cy="105.27273"
     inkscape:window-x="1910"
     inkscape:window-y="0"
     inkscape:window-maximized="0"
     inkscape:current-layer="g824"
     inkscape:snap-path-clip="true"
     inkscape:snap-path-mask="true"
     inkscape:snap-perpendicular="true"
     inkscape:snap-tangential="true"
     showborder="true"
     borderlayer="true"
     inkscape:pagecheckerboard="true"
     inkscape:document-rotation="0" />
  <defs
     id="defs13">
    <clipPath
       id="a"
       transform="translate(178.38 178.11)">
      <circle
         cx="489.29999"
         cy="489.29999"
         r="475.29999"
         style="fill:none"
         id="circle2" />
    </clipPath>
    <radialGradient
       id="b"
       cx="466.56"
       cy="509.06"
       r="269.37"
       gradientUnits="userSpaceOnUse">
      <stop
         offset="0"
         stop-color="#fff"
         id="stop5" />
      <stop
         offset="0.43"
         stop-color="#eaeaea"
         id="stop7" />
      <stop
         offset="1"
         stop-color="#c8c8c8"
         id="stop9" />
    </radialGradient>
    <radialGradient
       id="c"
       cx="557.79999"
       cy="414.69"
       r="215.24001"
       xlink:href="#b" />
  </defs>
  <g
     id="g824"
     transform="matrix(0.49999225,0,0,0.4999904,0,0.0048)">
    <ellipse
       style="fill:#ffffff;fill-opacity:1;fill-rule:nonzero;stroke:none;stroke-width:0;stroke-miterlimit:4;stroke-dasharray:none;stroke-opacity:1"
       id="path5119"
       cx="250.00388"
       cy="249.99519"
       rx="219.78214"
       ry="219.78499" />
    <path
       d="M 249.95733,499.99953 A 250.12766,250.05617 0 0 1 152.62102,19.669719 250.12478,250.05331 0 0 1 347.29365,480.35489 248.5025,248.43148 0 0 1 249.95733,499.99953 Z m 0,-485.673963 A 235.81799,235.7506 0 0 0 158.19669,467.17842 235.81475,235.74736 0 0 0 341.72309,32.846178 234.26948,234.20255 0 0 0 249.95733,14.325567 Z"
       style="fill:#1296db;stroke-width:0.510986;fill-opacity:1"
       id="path21"
       inkscape:connector-curvature="0" />
    <g
       id="g844"
       transform="matrix(0.39591865,0,0,0.39592012,25.476884,27.053968)">
      <path
         d="m 567.16686,224.57594 c -187.17296,0 -340.30592,151.57996 -340.30592,336.84992 a 335.95992,335.95992 0 0 0 115.06397,252.42993 56.595986,56.595986 0 0 0 86.35298,-14.40299 56.373986,56.373986 0 0 0 -11.58,-70.74499 219.15194,219.15194 0 0 1 -76.13698,-167.25095 c 0,-123.50297 102.08798,-224.57595 226.89195,-224.57595 124.80396,0 226.57494,100.91498 226.57494,224.63995 a 219.05594,219.05594 0 0 1 -76.32898,167.24995 56.405986,56.405986 0 0 0 -11.547,70.74499 56.563986,56.563986 0 0 0 86.19498,14.43499 335.86491,335.86491 0 0 0 114.96797,-252.42993 c 0,-185.36596 -153.00596,-336.94492 -340.14791,-336.94492 z"
         p-id="80579"
         fill="#1296db"
         id="path6-5" />
      <path
         d="m 567.16686,449.15289 c -62.40099,0 -113.50997,50.50498 -113.50997,112.36697 a 112.68497,112.68497 0 0 0 67.44698,102.56497 v 303.50692 a 46.824988,46.824988 0 1 0 93.61797,0 V 663.22883 A 112.04997,112.04997 0 0 0 567.13586,449.15289 Z"
         p-id="80580"
         fill="#1296db"
         id="path8" />
      <path
         d="M 567.16686,0 C 255.22193,0 0,252.65194 0,561.51986 0,747.13981 90.572977,910.48777 231.26994,1013.0837 a 56.785015,56.785015 0 0 0 66.93898,-91.74593 C 185.74595,839.26679 113.41397,709.29182 113.41397,561.51986 c 0,-247.03694 204.20995,-449.11989 453.65789,-449.11989 249.44793,0 453.65784,202.08295 453.65784,449.11989 a 443.09389,443.09389 0 0 1 -184.25491,360.29291 56.278986,56.278986 0 0 0 -15.64,73.82298 56.309986,56.309986 0 0 0 81.78498,17.63895 C 1043.4757,910.55077 1134.2077,747.26581 1134.2077,561.51986 1134.3027,252.65194 879.07978,0 567.16786,0 Z"
         p-id="80581"
         fill="#1296db"
         id="path10" />
    </g>
  </g>
</svg>
