<?xml version="1.0" encoding="UTF-8" standalone="no"?>
<svg
   xmlns:dc="http://purl.org/dc/elements/1.1/"
   xmlns:cc="http://creativecommons.org/ns#"
   xmlns:rdf="http://www.w3.org/1999/02/22-rdf-syntax-ns#"
   xmlns:svg="http://www.w3.org/2000/svg"
   xmlns="http://www.w3.org/2000/svg"
   xmlns:xlink="http://www.w3.org/1999/xlink"
   xmlns:sodipodi="http://sodipodi.sourceforge.net/DTD/sodipodi-0.dtd"
   xmlns:inkscape="http://www.inkscape.org/namespaces/inkscape"
   viewBox="0 0 250 250"
   version="1.1"
   id="svg27"
   sodipodi:docname="icon_hacs.svg"
   inkscape:version="0.92.4 (5da689c313, 2019-01-14)"
   width="250"
   height="250">
  <metadata
     id="metadata31">
    <rdf:RDF>
      <cc:Work
         rdf:about="">
        <dc:format>image/svg+xml</dc:format>
        <dc:type
           rdf:resource="http://purl.org/dc/dcmitype/StillImage" />
        <dc:title></dc:title>
      </cc:Work>
    </rdf:RDF>
  </metadata>
  <sodipodi:namedview
     pagecolor="#ffffff"
     bordercolor="#666666"
     borderopacity="1"
     objecttolerance="10"
     gridtolerance="10000"
     guidetolerance="10000"
     inkscape:pageopacity="0"
     inkscape:pageshadow="2"
     inkscape:window-width="1858"
     inkscape:window-height="1057"
     id="namedview29"
     showgrid="false"
     inkscape:zoom="1.8284139"
     inkscape:cx="64.677746"
     inkscape:cy="144.79182"
     inkscape:window-x="-6"
     inkscape:window-y="-8"
     inkscape:window-maximized="1"
     inkscape:current-layer="g24"
     inkscape:snap-path-clip="true"
     inkscape:snap-path-mask="true"
     inkscape:snap-perpendicular="true"
     inkscape:snap-tangential="true"
     showborder="true"
     borderlayer="true"
     inkscape:pagecheckerboard="true" />
  <defs
     id="defs13">
    <clipPath
       id="a"
       transform="translate(178.38 178.11)">
      <circle
         cx="489.29999"
         cy="489.29999"
         r="475.29999"
         style="fill:none"
         id="circle2" />
    </clipPath>
    <radialGradient
       id="b"
       cx="466.56"
       cy="509.06"
       r="269.37"
       gradientUnits="userSpaceOnUse">
      <stop
         offset="0"
         stop-color="#fff"
         id="stop5" />
      <stop
         offset="0.43"
         stop-color="#eaeaea"
         id="stop7" />
      <stop
         offset="1"
         stop-color="#c8c8c8"
         id="stop9" />
    </radialGradient>
    <radialGradient
       id="c"
       cx="557.79999"
       cy="414.69"
       r="215.24001"
       xlink:href="#b" />
    <linearGradient
       x1="133.42035"
       y1="326.78146"
       x2="133.42035"
       y2="83.10022"
       id="linearGradient-1"
       gradientTransform="scale(0.95927378,1.0424553)"
       gradientUnits="userSpaceOnUse">
      <stop
         stop-color="#FFF100"
         offset="0%"
         id="stop2" />
      <stop
         stop-color="#F05A28"
         offset="100%"
         id="stop4" />
    </linearGradient>
  </defs>
  <g
     id="g830"
     transform="translate(5.5283648e-6,-250)">
    <ellipse
       ry="109.88975"
       rx="109.88937"
       cy="375.00217"
       cx="124.99658"
       id="path5119"
       style="opacity:1;fill:#41bdf5;fill-opacity:1;fill-rule:nonzero;stroke:none;stroke-width:0;stroke-miterlimit:4;stroke-dasharray:none;stroke-opacity:1" />
    <path
       inkscape:connector-curvature="0"
       id="path21"
       style="fill:#41bdf5;fill-opacity:1;stroke-width:0.25548783"
       d="m 124.97672,499.99977 a 125.06189,125.02496 0 0 1 -48.667401,-240.1589 125.06045,125.02353 0 0 1 97.334811,230.33682 124.24932,124.21263 0 0 1 -48.66741,9.82208 z m 0,-242.83091 A 117.90717,117.87235 0 0 0 79.097111,483.58962 117.90555,117.87073 0 0 0 170.85889,266.42893 117.13292,117.09835 0 0 0 124.97672,257.16886 Z" />
    <g
       id="g24"
       transform="translate(107.34067,113.09675)">
      <g
         id="g1096"
         transform="matrix(1.3637252,0,0,1.3637252,-327.88389,-80.344574)">
        <path
           style="fill:#ffffff;stroke-width:0.30844483"
           inkscape:connector-curvature="0"
           id="path6"
           d="m 289.49824,207.96977 h -72.23778 c -0.74027,0 -1.35716,-0.61689 -1.35716,-1.35716 v -8.42054 c 0,-0.74027 0.61689,-1.35716 1.35716,-1.35716 h 72.23778 c 0.74027,0 1.35716,0.61689 1.35716,1.35716 v 8.42054 c 0,0.74027 -0.61689,1.35716 -1.35716,1.35716 z"
           class="st1" />
        <g
           transform="matrix(0.30844484,0,0,0.30844484,176.26814,173.85577)"
           id="g12">
          <path
             style="fill:#ffffff"
             inkscape:connector-curvature="0"
             id="path8"
             d="m 128.5,329.7 c 0,2.9 2.3,5.2 5.2,5.2 h 87.8 57 14.5 c 2.9,0 5.2,-2.3 5.2,-5.2 v -74.4 c 0,-2.9 2.3,-5.2 5.2,-5.2 h 45.4 c 2.9,0 5.2,2.3 5.2,5.2 v 74.4 c 0,2.9 2.3,5.2 5.2,5.2 h 7 c 2.9,0 5.2,-2.3 5.2,-5.2 v -88.4 c 0,-2.9 -2.3,-5.2 -5.2,-5.2 H 133.7 c -2.9,0 -5.2,2.3 -5.2,5.2 z m 26,-76.1 h 88.6 c 2.4,0 4.4,2 4.4,4.4 v 55.1 c 0,2.4 -2,4.4 -4.4,4.4 h -88.6 c -2.4,0 -4.4,-2 -4.4,-4.4 V 258 c 0,-2.5 2,-4.4 4.4,-4.4 z"
             class="st1" />
          <path
             style="fill:#ffffff"
             inkscape:connector-curvature="0"
             id="path10"
             d="m 372.2,124.9 c -0.4,-2.2 -2.3,-3.8 -4.6,-3.8 h -89.1 -57 -89.1 c -2.3,0 -4.2,1.6 -4.6,3.8 l -13.2,71.3 c -0.1,0.3 -0.1,0.6 -0.1,0.9 V 221 c 0,2.6 2.1,4.7 4.7,4.7 h 9.3 243 9.3 c 2.6,0 4.7,-2.1 4.7,-4.7 v -24 c 0,-0.3 0,-0.6 -0.1,-0.9 z"
             class="st1" />
        </g>
        <g
           transform="matrix(0.30844484,0,0,0.30844484,176.26814,173.85577)"
           id="g22">
          <path
             style="fill:#ffffff"
             inkscape:connector-curvature="0"
             id="path14"
             d="m 183.9,357.9 v 67.4 h -15.1 v -25.8 h -25.2 v 25.8 h -15.1 v -67.4 h 15.1 v 26.6 h 25.2 v -26.6 z"
             class="st1" />
          <path
             style="fill:#ffffff"
             inkscape:connector-curvature="0"
             id="path16"
             d="m 192.5,425.4 26.6,-67.7 h 9.8 l 24.6,67.7 h -16.1 l -4,-11.4 H 213 l -4.3,11.4 z M 218.9,399 h 9.1 l -4.3,-12 z"
             class="st1" />
          <path
             style="fill:#ffffff"
             inkscape:connector-curvature="0"
             id="path18"
             d="m 254.3,391.8 c 0,-18.7 15.1,-33.8 33.8,-33.8 9.4,0 18.5,4 25,11.1 l -10.9,9.8 c -3.7,-4 -8.8,-6.3 -14.1,-6.3 -10.6,0 -19.1,8.5 -19.1,19.1 0,10.5 8.5,19.1 19.1,19.1 5.3,0 10.4,-2.2 14.1,-6.3 l 10.9,9.9 c -6.5,7.1 -15.5,11.1 -25,11.1 -18.7,0 -33.8,-15.2 -33.8,-33.7 z"
             class="st1" />
          <path
             style="fill:#ffffff"
             inkscape:connector-curvature="0"
             id="path20"
             d="m 371.4,407.3 c -0.5,5.8 -4.4,11.1 -10.3,14.4 -4.4,2.4 -9.5,3.6 -14.9,3.6 -1.2,0 -2.3,-0.1 -3.4,-0.2 -9.5,-0.9 -17.8,-5.4 -22,-11.9 l 12.3,-8.1 c 1.4,2.3 5.4,4.9 11.1,5.4 3.7,0.4 7.4,-0.3 10,-1.7 1.6,-0.8 2.7,-2 2.8,-3 0.1,-1.3 -0.4,-5.8 -11.5,-6.9 -15.9,-1.5 -25.8,-10.8 -24.6,-22.9 0.5,-6 4.4,-11.2 10.4,-14.6 5.2,-2.7 11.8,-4 18.3,-3.3 9.4,0.9 17.7,5.4 22,11.9 l -12.3,8 c -1.4,-2.2 -5.4,-4.7 -11.1,-5.2 -3.7,-0.4 -7.4,0.3 -10,1.6 -1.5,0.9 -2.6,2.1 -2.7,3 -0.4,4.6 7.3,6.6 11.4,6.9 v 0.1 c 16,1.5 25.7,10.5 24.5,22.9 z"
             class="st1" />
        </g>
      </g>
    </g>
  </g>
</svg>
