<?xml version="1.0" encoding="UTF-8" standalone="no"?>
<svg
   xmlns:dc="http://purl.org/dc/elements/1.1/"
   xmlns:cc="http://creativecommons.org/ns#"
   xmlns:rdf="http://www.w3.org/1999/02/22-rdf-syntax-ns#"
   xmlns:svg="http://www.w3.org/2000/svg"
   xmlns="http://www.w3.org/2000/svg"
   xmlns:xlink="http://www.w3.org/1999/xlink"
   xmlns:sodipodi="http://sodipodi.sourceforge.net/DTD/sodipodi-0.dtd"
   xmlns:inkscape="http://www.inkscape.org/namespaces/inkscape"
   viewBox="0 0 250 250"
   version="1.1"
   id="svg27"
   sodipodi:docname="icon_vmvare3.svg"
   inkscape:version="1.0.2-2 (e86c870879, 2021-01-15)"
   width="250"
   height="250">
  <metadata
     id="metadata31">
    <rdf:RDF>
      <cc:Work
         rdf:about="">
        <dc:format>image/svg+xml</dc:format>
        <dc:type
           rdf:resource="http://purl.org/dc/dcmitype/StillImage" />
        <dc:title></dc:title>
      </cc:Work>
    </rdf:RDF>
  </metadata>
  <sodipodi:namedview
     pagecolor="#ffffff"
     bordercolor="#666666"
     borderopacity="1"
     objecttolerance="10"
     gridtolerance="10000"
     guidetolerance="10000"
     inkscape:pageopacity="0"
     inkscape:pageshadow="2"
     inkscape:window-width="1918"
     inkscape:window-height="1004"
     id="namedview29"
     showgrid="false"
     inkscape:zoom="1.8284139"
     inkscape:cx="159.35524"
     inkscape:cy="101.93672"
     inkscape:window-x="1910"
     inkscape:window-y="0"
     inkscape:window-maximized="0"
     inkscape:current-layer="g824"
     inkscape:snap-path-clip="true"
     inkscape:snap-path-mask="true"
     inkscape:snap-perpendicular="true"
     inkscape:snap-tangential="true"
     showborder="true"
     borderlayer="true"
     inkscape:pagecheckerboard="true"
     inkscape:document-rotation="0" />
  <defs
     id="defs13">
    <clipPath
       id="a"
       transform="translate(178.38 178.11)">
      <circle
         cx="489.29999"
         cy="489.29999"
         r="475.29999"
         style="fill:none"
         id="circle2" />
    </clipPath>
    <radialGradient
       id="b"
       cx="466.56"
       cy="509.06"
       r="269.37"
       gradientUnits="userSpaceOnUse">
      <stop
         offset="0"
         stop-color="#fff"
         id="stop5" />
      <stop
         offset="0.43"
         stop-color="#eaeaea"
         id="stop7" />
      <stop
         offset="1"
         stop-color="#c8c8c8"
         id="stop9" />
    </radialGradient>
    <radialGradient
       id="c"
       cx="557.79999"
       cy="414.69"
       r="215.24001"
       xlink:href="#b" />
  </defs>
  <g
     id="g824"
     transform="matrix(0.49999225,0,0,0.4999904,0,0.0048)">
    <ellipse
       style="fill:#ffffff;fill-opacity:1;fill-rule:nonzero;stroke:none;stroke-width:0;stroke-miterlimit:4;stroke-dasharray:none;stroke-opacity:1"
       id="path5119"
       cx="250.00388"
       cy="249.99519"
       rx="219.78214"
       ry="219.78499" />
    <path
       d="M 249.95733,499.99953 A 250.12766,250.05617 0 0 1 152.62102,19.669719 250.12478,250.05331 0 0 1 347.29365,480.35489 248.5025,248.43148 0 0 1 249.95733,499.99953 Z m 0,-485.673963 A 235.81799,235.7506 0 0 0 158.19669,467.17842 235.81475,235.74736 0 0 0 341.72309,32.846178 234.26948,234.20255 0 0 0 249.95733,14.325567 Z"
       style="fill:#ff257c;stroke-width:0.510986;fill-opacity:1"
       id="path21"
       inkscape:connector-curvature="0" />
    <g
       id="g847"
       transform="matrix(0.42839846,0,0,0.42840005,30.663868,30.654375)">
      <path
         d="m 512,875.35616 c 80.54784,0 154.99264,-26.2144 215.2448,-70.57408 A 364.68736,364.68736 0 0 0 844.88192,657.89952 362.10688,362.10688 0 0 0 875.35616,512 c 0,-54.62016 -12.06272,-106.43456 -33.64864,-152.92416 A 364.89216,364.89216 0 0 0 697.81504,199.68 361.6768,361.6768 0 0 0 512,148.64384 c -58.12224,0 -113.0496,13.63968 -161.75104,37.888 A 364.78976,364.78976 0 0 0 231.936,280.49408 362.45504,362.45504 0 0 0 163.0208,410.4192 363.52,363.52 0 0 0 148.64384,512 c 0,80.4864 26.17344,154.8288 70.4512,215.06048 35.2256,47.9232 81.92,86.8352 136.06912,112.78336 A 361.92256,361.92256 0 0 0 512,875.35616 Z"
         fill="#ff257c"
         p-id="20578"
         id="path6" />
      <path
         d="M 512,957.93152 C 265.70752,957.93152 66.06848,758.29248 66.06848,512 66.06848,265.70752 265.70752,66.06848 512,66.06848 758.29248,66.06848 957.93152,265.70752 957.93152,512 957.93152,758.29248 758.29248,957.93152 512,957.93152 Z m 0,-33.03424 C 740.0448,924.89728 924.89728,740.0448 924.89728,512 924.89728,283.9552 740.0448,99.10272 512,99.10272 283.9552,99.10272 99.10272,283.9552 99.10272,512 99.10272,740.0448 283.9552,924.89728 512,924.89728 Z"
         fill="#ff257c"
         fill-opacity="0.5"
         p-id="20579"
         id="path8" />
      <path
         d="M 512,1024 C 229.23264,1024 0,794.76736 0,512 0,229.23264 229.23264,0 512,0 c 282.76736,0 512,229.23264 512,512 0,282.76736 -229.23264,512 -512,512 z m 0,-33.03424 C 776.51968,990.96576 990.96576,776.54016 990.96576,512 990.96576,247.48032 776.54016,33.03424 512,33.03424 247.48032,33.03424 33.03424,247.45984 33.03424,512 c 0,264.51968 214.4256,478.96576 478.96576,478.96576 z"
         fill="#ff257c"
         fill-opacity="0.2"
         p-id="20580"
         id="path10" />
      <path
         d="M 348.07808,408.8832 A 20.33664,20.33664 0 0 1 333.68064,403.27168 17.48992,17.48992 0 0 1 327.68,390.08256 v -43.2128 c 0,-5.3248 2.00704,-9.85088 6.00064,-13.59872 A 20.3776,20.3776 0 0 1 348.07808,327.68 H 608.8704 c 5.61152,0 10.40384,1.86368 14.41792,5.59104 a 17.92,17.92 0 0 1 6.00064,13.59872 v 43.2128 a 17.48992,17.48992 0 0 1 -6.00064,13.18912 20.33664,20.33664 0 0 1 -14.41792,5.61152 z m 0,105.59488 A 20.33664,20.33664 0 0 1 333.68064,508.88704 17.89952,17.89952 0 0 1 327.68,495.28832 v -43.2128 c 0,-5.05856 2.00704,-9.46176 6.00064,-13.18912 a 20.3776,20.3776 0 0 1 14.39744,-5.61152 H 608.8704 c 5.61152,0 10.40384,1.88416 14.41792,5.61152 a 17.5104,17.5104 0 0 1 6.00064,13.18912 v 43.2128 c 0,5.3248 -2.00704,9.85088 -6.00064,13.59872 a 20.33664,20.33664 0 0 1 -14.41792,5.59104 z m 139.20256,52.40832 a 105.92256,105.92256 0 0 0 -46.40768,25.3952 c -13.312,12.3904 -20.2752,28.0576 -20.7872,47.0016 -0.8192,19.18976 5.59104,40.40704 19.18976,63.5904 h -92.79488 c -9.07264,0 -15.07328,-5.85728 -18.00192,-17.59232 v -57.20064 -43.2128 -27.99616 c 0,-9.58464 6.00064,-15.58528 18.00192,-17.98144 l 158.80192,0.4096 c -7.20896,4.5056 -13.2096,13.7216 -18.00192,27.58656 z M 371.28192,346.86976 a 19.31264,19.31264 0 0 0 -14.19264,5.81632 19.31264,19.31264 0 0 0 -5.81632,14.19264 c 0,5.3248 1.9456,9.9328 5.81632,13.80352 3.85024,3.87072 8.6016,5.79584 14.19264,5.79584 a 18.8416,18.8416 0 0 0 13.80352,-5.79584 18.8416,18.8416 0 0 0 5.79584,-13.80352 19.33312,19.33312 0 0 0 -5.79584,-14.19264 18.86208,18.86208 0 0 0 -13.80352,-5.81632 z m 0,106.8032 a 19.31264,19.31264 0 0 0 -14.19264,5.81632 19.31264,19.31264 0 0 0 -5.81632,14.19264 c 0,5.3248 1.9456,9.9328 5.81632,13.80352 3.85024,3.87072 8.6016,5.79584 14.19264,5.79584 a 18.8416,18.8416 0 0 0 13.80352,-5.79584 19.31264,19.31264 0 0 0 5.79584,-14.21312 18.86208,18.86208 0 0 0 -5.79584,-13.78304 18.86208,18.86208 0 0 0 -13.80352,-5.81632 z M 698.4704,600.08448 c 25.86624,13.06624 38.8096,30.65856 38.8096,52.79744 0,22.40512 -13.06624,38.78912 -39.19872,49.19296 h -214.016 c -27.17696,-14.1312 -40.77568,-33.85344 -40.77568,-59.1872 0,-25.33376 8.72448,-40.93952 26.19392,-46.81728 17.44896,-5.85728 30.3104,-7.5776 38.6048,-5.18144 1.3312,-22.9376 10.24,-36.53632 26.78784,-40.81664 20.00896,-1.8432 34.67264,1.59744 44.01152,10.40384 27.4432,-24.7808 54.39488,-32.13312 80.7936,-21.99552 26.66496,9.87136 39.60832,30.39232 38.78912,61.60384 z"
         fill="#ffffff"
         p-id="20581"
         id="path12" />
    </g>
  </g>
</svg>
