<?xml version="1.0" encoding="UTF-8" standalone="no"?>
<svg
   xmlns:dc="http://purl.org/dc/elements/1.1/"
   xmlns:cc="http://creativecommons.org/ns#"
   xmlns:rdf="http://www.w3.org/1999/02/22-rdf-syntax-ns#"
   xmlns:svg="http://www.w3.org/2000/svg"
   xmlns="http://www.w3.org/2000/svg"
   xmlns:xlink="http://www.w3.org/1999/xlink"
   xmlns:sodipodi="http://sodipodi.sourceforge.net/DTD/sodipodi-0.dtd"
   xmlns:inkscape="http://www.inkscape.org/namespaces/inkscape"
   viewBox="0 0 250 250"
   version="1.1"
   id="svg27"
   sodipodi:docname="icon_mariadb.svg"
   inkscape:version="0.92.4 (5da689c313, 2019-01-14)"
   width="250"
   height="250">
  <metadata
     id="metadata31">
    <rdf:RDF>
      <cc:Work
         rdf:about="">
        <dc:format>image/svg+xml</dc:format>
        <dc:type
           rdf:resource="http://purl.org/dc/dcmitype/StillImage" />
        <dc:title></dc:title>
      </cc:Work>
    </rdf:RDF>
  </metadata>
  <sodipodi:namedview
     pagecolor="#ffffff"
     bordercolor="#666666"
     borderopacity="1"
     objecttolerance="10"
     gridtolerance="10000"
     guidetolerance="10000"
     inkscape:pageopacity="0"
     inkscape:pageshadow="2"
     inkscape:window-width="1920"
     inkscape:window-height="1026"
     id="namedview29"
     showgrid="false"
     inkscape:zoom="1.8284139"
     inkscape:cx="72.226433"
     inkscape:cy="147.62209"
     inkscape:window-x="-8"
     inkscape:window-y="1072"
     inkscape:window-maximized="1"
     inkscape:current-layer="svg27"
     inkscape:snap-path-clip="true"
     inkscape:snap-path-mask="true"
     inkscape:snap-perpendicular="true"
     inkscape:snap-tangential="true"
     showborder="true"
     borderlayer="true"
     inkscape:pagecheckerboard="true" />
  <defs
     id="defs13">
    <clipPath
       id="a"
       transform="translate(178.38 178.11)">
      <circle
         cx="489.29999"
         cy="489.29999"
         r="475.29999"
         style="fill:none"
         id="circle2" />
    </clipPath>
    <radialGradient
       id="b"
       cx="466.56"
       cy="509.06"
       r="269.37"
       gradientUnits="userSpaceOnUse">
      <stop
         offset="0"
         stop-color="#fff"
         id="stop5" />
      <stop
         offset="0.43"
         stop-color="#eaeaea"
         id="stop7" />
      <stop
         offset="1"
         stop-color="#c8c8c8"
         id="stop9" />
    </radialGradient>
    <radialGradient
       id="c"
       cx="557.79999"
       cy="414.69"
       r="215.24001"
       xlink:href="#b" />
  </defs>
  <ellipse
     style="opacity:1;fill:#ffffff;fill-opacity:1;fill-rule:nonzero;stroke:none;stroke-width:0;stroke-miterlimit:4;stroke-dasharray:none;stroke-opacity:1"
     id="path5119"
     cx="125.00389"
     cy="124.99835"
     rx="109.88937"
     ry="109.89038" />
  <path
     d="M 124.97673,249.99976 A 125.06189,125.02568 0 0 1 76.309325,9.83947 a 125.06045,125.02425 0 0 1 97.334805,230.33816 124.24932,124.21336 0 0 1 -48.6674,9.82213 z m 0,-242.8323147 A 117.90717,117.87304 0 0 0 79.097117,233.58952 117.90555,117.87142 0 0 0 170.85889,16.427573 117.13292,117.09903 0 0 0 124.97673,7.1674453 Z"
     style="fill:#c49a6c;fill-opacity:1;stroke-width:0.25548857"
     id="path21"
     inkscape:connector-curvature="0" />
  <path
     d="m 125.0039,235.36637 c -60.95062,0 -110.36803,-49.41716 -110.36803,-110.36803 0,-60.950851 49.41741,-110.368008 110.36803,-110.368008 60.95062,0 110.36802,49.417402 110.36802,110.368008 0,60.95062 -49.4174,110.36803 -110.36802,110.36803 z M 33.867621,158.28363 c 0.763253,1.09435 8.075017,-0.73579 8.590311,1.14047 0.505737,1.87625 -7.100334,5.89537 -6.337082,6.87028 0.772571,0.97491 9.289307,1.10368 13.998343,0 4.709035,-1.10368 14.872214,-5.50001 20.583634,-9.59294 5.720737,-4.09269 11.027481,-6.30913 21.144799,-6.62209 10.117074,-0.30338 32.760904,4.35979 34.931484,1.74775 2.17964,-2.61205 7.76255,-16.73915 8.11205,-13.69495 0.34019,3.04443 0,15.27664 -12.09461,31.73079 19.93073,0.36789 30.85716,-30.3144 31.41808,-29.6338 0.57025,0.68992 0.10109,8.37865 0.97492,7.88199 0.87362,-0.49666 9.51938,-5.73914 14.92741,-19.22218 5.41709,-13.49262 9.01337,-37.865554 11.94721,-41.59967 2.93407,-3.734117 5.65648,-5.840191 9.48232,-8.277599 3.8261,-2.455573 6.05209,-4.644537 6.87961,-6.346166 0.82801,-1.692309 2.61204,-5.269951 1.89465,-5.886295 -0.72646,-0.616343 -3.25586,0.0184 -4.27663,-0.616343 -1.0117,-0.643815 -0.99331,-2.501676 -1.3796,-2.933827 -0.24846,-0.275921 -1.28763,0.193266 -3.11803,1.434784 -8.8753,0 -15.51578,1.10368 -19.89371,3.311041 -6.57621,3.329435 -9.0779,7.22003 -13.25323,13.832789 -4.18492,6.612764 -11.86456,19.838516 -16.42644,23.931466 -4.54349,4.09294 -13.03276,9.28931 -19.97661,11.03679 -4.62639,1.14955 -12.87627,3.16389 -24.750159,6.02438 -10.972304,3.91807 -19.075273,8.77427 -24.299364,14.5686 -7.836123,8.69135 -7.284287,11.91973 -12.10369,14.4582 -6.502399,2.99832 -15.341159,0.22074 -21.898736,2.54754 -6.557827,2.32704 -5.840435,2.81438 -5.07693,3.90899 z M 199.65854,65.381226 c 1.62806,0 1.80268,-0.652888 1.80268,-2.069279 0,-1.407315 -0.60679,-2.694941 -2.22551,-2.694941 -1.62804,0 -3.40302,0.956522 -3.40302,2.363837 0,1.40707 2.19804,2.391307 3.82611,2.391307 z m -31.87772,74.866304 c -1.22335,-0.83708 -7.94649,8.09365 -8.25012,10.80698 -0.29432,2.72242 11.89226,4.38702 12.96823,3.75253 -5.32512,-10.82539 -3.48566,-13.72244 -4.71811,-14.55951 z m 14.65125,-70.203133 c 0.45985,0.947202 -0.3679,3.890349 -2.85119,5.104398 -2.48328,1.223366 -5.07692,0.230055 -5.63808,-0.919733 -0.56092,-1.168184 1.44411,-3.522457 3.1732,-4.184665 1.72909,-0.662208 4.8562,-0.956522 5.31607,0 z m 10.62304,-5.031065 a 0.39560803,0.39560803 0 0 1 0.45987,0.634739 20.997393,20.997393 0 0 0 -7.84546,11.009088 0.39560803,0.39560803 0 0 1 -0.73579,-0.239127 21.779289,21.779289 0 0 1 8.13045,-11.4047 z m 0.16554,1.168185 c 0.12852,-0.119684 0.30338,-0.08291 0.39537,0.07358 0.0919,0.156232 0.0735,0.376969 -0.0551,0.496656 a 17.804569,17.804569 0 0 0 -3.49499,4.304353 c -0.94744,1.637125 -1.69231,3.504062 -2.24415,5.610376 -0.046,0.183937 -0.21166,0.284988 -0.3679,0.229808 -0.14715,-0.06448 -0.23005,-0.266602 -0.18393,-0.450549 0.57023,-2.170567 1.35188,-4.102008 2.3268,-5.794317 0.98423,-1.692309 2.18921,-3.182279 3.62398,-4.469905 z m 0.8643,1.167939 c 0.0921,-0.101049 0.20236,-0.07358 0.27592,0.06451 0.0552,0.147157 0.0368,0.340179 -0.0458,0.441472 -0.94744,1.112755 -1.74749,2.391307 -2.39131,3.85356 -0.64381,1.462254 -1.15885,3.127095 -1.53607,5.003353 -0.0275,0.16555 -0.13784,0.257524 -0.23914,0.202334 -0.11038,-0.04584 -0.16555,-0.229809 -0.1285,-0.395359 0.38627,-1.931685 0.91972,-3.660539 1.58193,-5.17822 0.67128,-1.508364 1.49904,-2.841854 2.48302,-3.991643 z m 1.29696,-0.09197 c 0.0826,-0.110367 0.21142,-0.08265 0.27592,0.06426 0.0735,0.147158 0.0643,0.358819 -0.0183,0.469186 a 16.876987,16.876987 0 0 0 -2.1615,4.21238 26.764245,26.764245 0 0 0 -1.25991,5.398962 c -0.0184,0.183947 -0.12877,0.275921 -0.23006,0.229808 -0.11038,-0.05521 -0.18395,-0.239127 -0.14716,-0.413755 a 27.683977,27.683977 0 0 1 1.28763,-5.582908 c 0.58863,-1.646201 1.34281,-3.099625 2.25347,-4.377932 z"
     p-id="45852"
     id="path6"
     inkscape:connector-curvature="0"
     style="fill:#c49a6c;stroke-width:0.24526225" />
</svg>
