<?xml version="1.0" encoding="UTF-8" standalone="no"?>
<svg
   xmlns:dc="http://purl.org/dc/elements/1.1/"
   xmlns:cc="http://creativecommons.org/ns#"
   xmlns:rdf="http://www.w3.org/1999/02/22-rdf-syntax-ns#"
   xmlns:svg="http://www.w3.org/2000/svg"
   xmlns="http://www.w3.org/2000/svg"
   xmlns:xlink="http://www.w3.org/1999/xlink"
   xmlns:sodipodi="http://sodipodi.sourceforge.net/DTD/sodipodi-0.dtd"
   xmlns:inkscape="http://www.inkscape.org/namespaces/inkscape"
   viewBox="0 0 250 250"
   version="1.1"
   id="svg27"
   sodipodi:docname="icon_traccar.svg"
   inkscape:version="1.0.2-2 (e86c870879, 2021-01-15)"
   width="250"
   height="250">
  <metadata
     id="metadata31">
    <rdf:RDF>
      <cc:Work
         rdf:about="">
        <dc:format>image/svg+xml</dc:format>
        <dc:type
           rdf:resource="http://purl.org/dc/dcmitype/StillImage" />
        <dc:title></dc:title>
      </cc:Work>
    </rdf:RDF>
  </metadata>
  <sodipodi:namedview
     pagecolor="#ffffff"
     bordercolor="#666666"
     borderopacity="1"
     objecttolerance="10"
     gridtolerance="10000"
     guidetolerance="10000"
     inkscape:pageopacity="0"
     inkscape:pageshadow="2"
     inkscape:window-width="1918"
     inkscape:window-height="1004"
     id="namedview29"
     showgrid="false"
     inkscape:zoom="1.8284139"
     inkscape:cx="255.09171"
     inkscape:cy="79.338317"
     inkscape:window-x="1910"
     inkscape:window-y="0"
     inkscape:window-maximized="0"
     inkscape:current-layer="g824"
     inkscape:snap-path-clip="true"
     inkscape:snap-path-mask="true"
     inkscape:snap-perpendicular="true"
     inkscape:snap-tangential="true"
     showborder="true"
     borderlayer="true"
     inkscape:pagecheckerboard="true"
     inkscape:document-rotation="0" />
  <defs
     id="defs13">
    <clipPath
       id="a"
       transform="translate(178.38 178.11)">
      <circle
         cx="489.29999"
         cy="489.29999"
         r="475.29999"
         style="fill:none"
         id="circle2" />
    </clipPath>
    <radialGradient
       id="b"
       cx="466.56"
       cy="509.06"
       r="269.37"
       gradientUnits="userSpaceOnUse">
      <stop
         offset="0"
         stop-color="#fff"
         id="stop5" />
      <stop
         offset="0.43"
         stop-color="#eaeaea"
         id="stop7" />
      <stop
         offset="1"
         stop-color="#c8c8c8"
         id="stop9" />
    </radialGradient>
    <radialGradient
       id="c"
       cx="557.79999"
       cy="414.69"
       r="215.24001"
       xlink:href="#b" />
  </defs>
  <g
     id="g824"
     transform="matrix(0.49999225,0,0,0.4999904,0,0.0048)">
    <ellipse
       style="fill:#000000;fill-opacity:1;fill-rule:nonzero;stroke:none;stroke-width:0;stroke-miterlimit:4;stroke-dasharray:none;stroke-opacity:1"
       id="path5119"
       cx="250.00388"
       cy="249.99519"
       rx="219.78214"
       ry="219.78499" />
    <path
       d="M 249.95733,499.99953 A 250.12766,250.05617 0 0 1 152.62102,19.669719 250.12478,250.05331 0 0 1 347.29365,480.35489 248.5025,248.43148 0 0 1 249.95733,499.99953 Z m 0,-485.673963 A 235.81799,235.7506 0 0 0 158.19669,467.17842 235.81475,235.74736 0 0 0 341.72309,32.846178 234.26948,234.20255 0 0 0 249.95733,14.325567 Z"
       style="fill:#000000;stroke-width:0.510986;fill-opacity:1"
       id="path21"
       inkscape:connector-curvature="0" />
    <g
       transform="matrix(7.6591297,0,0,7.6591581,4.9117295,4.9036727)"
       id="g14">
      <circle
         transform="rotate(-30)"
         cx="11.713"
         cy="43.713001"
         r="27.722"
         fill="#ffffff"
         id="circle2-7" />
      <circle
         transform="rotate(-30)"
         cx="9.4577999"
         cy="43.713001"
         r="2.2550001"
         id="circle4" />
      <path
         d="m 36.965,24.251 -2.8161,3.5788 c 0.65721,0.51713 1.313,1.1467 1.7567,1.9151 0.44368,0.76847 0.66098,1.6512 0.78022,2.4789 l 4.5073,-0.6494 c -0.192,-1.408 -0.627,-2.779 -1.381,-4.085 -0.755,-1.306 -1.724,-2.369 -2.847,-3.239 z"
         id="path6" />
      <path
         d="m 42.405,17.042 -2.8161,3.5788 c 1.5919,1.2239 3.0623,2.7672 4.1287,4.6142 1.0664,1.847 1.6677,3.8921 1.9317,5.8827 l 4.5073,-0.6494 c -0.33647,-2.571 -1.156,-5.1028 -2.5332,-7.4883 -1.3772,-2.3855 -3.1601,-4.3611 -5.2185,-5.938 z"
         id="path8" />
      <path
         transform="rotate(-30)"
         d="m 2.6927,52.733 a 9.0201,9.0201 0 0 1 -7.8116,-4.5101 9.0201,9.0201 0 0 1 -1e-7,-9.0201 9.0201,9.0201 0 0 1 7.8116,-4.5101 l -10e-8,9.0201 z"
         id="path10" />
      <path
         d="M 17.639,7.1258 C 3.901,15.057 -0.806,32.6228 7.126,46.3608 c 7.931,13.738 25.497,18.445 39.235,10.513 13.738,-7.931 18.445,-25.497 10.513,-39.235 C 48.943,3.9008 31.377,-0.8062 17.639,7.1258 Z m 1.6895,2.9264 c 12.122,-6.9981 27.621,-2.845 34.62,9.276 6.998,12.122 2.845,27.621 -9.276,34.62 -12.122,6.998 -27.621,2.845 -34.62,-9.276 -6.9981,-12.122 -2.845,-27.621 9.276,-34.62 z"
         id="path12" />
    </g>
  </g>
</svg>
