<?xml version="1.0" encoding="UTF-8" standalone="no"?>
<svg
   xmlns:dc="http://purl.org/dc/elements/1.1/"
   xmlns:cc="http://creativecommons.org/ns#"
   xmlns:rdf="http://www.w3.org/1999/02/22-rdf-syntax-ns#"
   xmlns:svg="http://www.w3.org/2000/svg"
   xmlns="http://www.w3.org/2000/svg"
   xmlns:xlink="http://www.w3.org/1999/xlink"
   xmlns:sodipodi="http://sodipodi.sourceforge.net/DTD/sodipodi-0.dtd"
   xmlns:inkscape="http://www.inkscape.org/namespaces/inkscape"
   viewBox="0 0 250 250"
   version="1.1"
   id="svg27"
   sodipodi:docname="icon_logitech_media_server.svg"
   inkscape:version="0.92.4 (5da689c313, 2019-01-14)"
   width="250"
   height="250">
  <metadata
     id="metadata31">
    <rdf:RDF>
      <cc:Work
         rdf:about="">
        <dc:format>image/svg+xml</dc:format>
        <dc:type
           rdf:resource="http://purl.org/dc/dcmitype/StillImage" />
        <dc:title></dc:title>
      </cc:Work>
    </rdf:RDF>
  </metadata>
  <sodipodi:namedview
     pagecolor="#ffffff"
     bordercolor="#666666"
     borderopacity="1"
     objecttolerance="10"
     gridtolerance="10000"
     guidetolerance="10000"
     inkscape:pageopacity="0"
     inkscape:pageshadow="2"
     inkscape:window-width="1920"
     inkscape:window-height="1026"
     id="namedview29"
     showgrid="false"
     inkscape:zoom="1.2928839"
     inkscape:cx="144.09437"
     inkscape:cy="168.67116"
     inkscape:window-x="-8"
     inkscape:window-y="1072"
     inkscape:window-maximized="1"
     inkscape:current-layer="g830"
     inkscape:snap-path-clip="true"
     inkscape:snap-path-mask="true"
     inkscape:snap-perpendicular="true"
     inkscape:snap-tangential="true"
     showborder="true"
     borderlayer="true"
     inkscape:pagecheckerboard="true" />
  <defs
     id="defs13">
    <clipPath
       id="a"
       transform="translate(178.38 178.11)">
      <circle
         cx="489.29999"
         cy="489.29999"
         r="475.29999"
         style="fill:none"
         id="circle2" />
    </clipPath>
    <radialGradient
       id="b"
       cx="466.56"
       cy="509.06"
       r="269.37"
       gradientUnits="userSpaceOnUse">
      <stop
         offset="0"
         stop-color="#fff"
         id="stop5" />
      <stop
         offset="0.43"
         stop-color="#eaeaea"
         id="stop7" />
      <stop
         offset="1"
         stop-color="#c8c8c8"
         id="stop9" />
    </radialGradient>
    <radialGradient
       id="c"
       cx="557.79999"
       cy="414.69"
       r="215.24001"
       xlink:href="#b" />
    <linearGradient
       id="linear-gradient"
       x1="110.25"
       y1="213.3"
       x2="496.14001"
       y2="436.09"
       gradientUnits="userSpaceOnUse">
      <stop
         offset="0"
         stop-color="#aa5cc3"
         id="stop2" />
      <stop
         offset="1"
         stop-color="#00a4dc"
         id="stop4" />
    </linearGradient>
  </defs>
  <g
     id="g830"
     transform="translate(5.5283648e-6,-250)">
    <ellipse
       ry="109.88975"
       rx="109.88937"
       cy="375.00217"
       cx="124.99658"
       id="path5119"
       style="opacity:1;fill:#ffffff;fill-opacity:1;fill-rule:nonzero;stroke:none;stroke-width:0;stroke-miterlimit:4;stroke-dasharray:none;stroke-opacity:1" />
    <path
       inkscape:connector-curvature="0"
       id="path21"
       style="fill:#09a198;fill-opacity:1;stroke-width:0.25548783"
       d="m 124.97672,499.99977 a 125.06189,125.02496 0 0 1 -48.667401,-240.1589 125.06045,125.02353 0 0 1 97.334811,230.33682 124.24932,124.21263 0 0 1 -48.66741,9.82208 z m 0,-242.83091 A 117.90717,117.87235 0 0 0 79.097111,483.58962 117.90555,117.87073 0 0 0 170.85889,266.42893 117.13292,117.09835 0 0 0 124.97672,257.16886 Z" />
    <g
       transform="matrix(0.24911712,0,0,0.24911712,-10.315863,243.37267)"
       id="g859">
      <path
         style="fill:#09a198"
         inkscape:connector-curvature="0"
         id="path6"
         p-id="36846"
         d="M 338.048,349.248" />
      <path
         style="fill:#09a198"
         inkscape:connector-curvature="0"
         id="path8"
         p-id="36847"
         d="m 546.88,467.648 c 0.448,0.96 3.264,4.864 9.216,6.464 13.888,4.16 30.08,1.92 36.672,-11.008 1.152,-2.304 2.88,-5.632 2.24,-9.344 -1.472,-8.512 -6.784,-12.16 -8.768,-13.76 -2.944,-2.368 -7.808,-5.632 -13.76,-4.864 -8.448,1.28 -14.464,5.632 -18.624,10.816 -4.352,5.376 -11.2,13.952 -6.976,21.696 z" />
      <path
         style="fill:#09a198"
         inkscape:connector-curvature="0"
         id="path10"
         p-id="36848"
         d="m 557.504,496.128 c -5.888,-0.256 -13.312,-5.504 -14.144,-3.2 -2.176,4.672 7.488,18.432 20.544,14.08 3.008,-1.024 8,-3.904 9.216,-5.248 12.288,-10.56 -6.336,-4.48 -15.616,-5.632 z" />
      <path
         style="fill:#09a198"
         inkscape:connector-curvature="0"
         id="path12"
         p-id="36849"
         d="m 615.168,671.872 c -11.584,0 -20.096,8.448 -20.224,20.416 h 40 c 0,-0.64 0,-1.28 0,-1.6 0,-11.072 -8,-18.816 -19.776,-18.816 z" />
      <path
         style="fill:#09a198"
         inkscape:connector-curvature="0"
         id="path14"
         p-id="36850"
         d="m 802.048,666.496 h -1.152 v 2.624 h 1.152 c 0.768,0 1.216,-0.512 1.216,-1.28 0,-0.832 -0.448,-1.344 -1.216,-1.344 z" />
      <path
         style="fill:#09a198"
         inkscape:connector-curvature="0"
         id="path16-7"
         p-id="36851"
         d="m 543.168,86.208 c -244.224,0 -442.176,197.952 -442.176,442.176 0,244.224 197.952,442.176 442.176,442.176 244.224,0 442.176,-197.952 442.176,-442.176 0,-244.224 -198.016,-442.176 -442.176,-442.176 z m 60.736,277.824 c 11.52,-17.152 29.504,-34.56 40.128,-38.784 10.688,-4.288 21.184,-0.832 23.552,7.68 2.368,8.512 -15.616,25.856 -40.192,38.784 -24.448,12.928 -35.008,9.536 -23.488,-7.68 z m 24.32,169.408 c 13.248,3.648 31.04,14.912 41.664,27.456 11.776,13.824 16.64,29.056 7.488,30.528 -12.032,-1.216 -35.584,-19.2 -50.944,-38.016 -14.016,-17.152 -11.776,-24.384 1.792,-19.968 z m -289.92,205.824 c 0,0.96 -0.96,1.728 -1.856,1.728 h -51.136 c -0.96,0 -1.728,-0.768 -1.728,-1.728 V 638.016 c 0,-0.96 0.768,-1.728 1.728,-1.728 h 11.776 c 0.96,0 1.728,0.768 1.728,1.728 v 91.648 h 37.696 c 0.96,0 1.856,0.96 1.856,1.92 v 7.68 z m 35.072,4.992 c -23.552,0 -38.144,-15.872 -38.144,-41.28 0,-25.6 14.272,-41.28 37.696,-41.28 23.68,0 37.824,15.36 37.824,41.088 0,25.6 -14.272,41.472 -37.376,41.472 z m 114.88,-0.96 c 0,20.096 -13.056,30.784 -37.184,30.784 -8.96,0 -19.328,-1.728 -26.176,-4.544 -3.456,-1.408 -4.224,-2.176 -4.224,-4.416 v -6.592 c 0,-1.6 0.768,-2.688 2.048,-2.688 0.64,0 1.408,0.32 2.048,0.64 l 2.048,1.088 c 6.272,3.264 15.68,5.504 23.552,5.504 7.232,0 13.632,-1.6 17.92,-4.416 3.776,-2.688 5.504,-6.912 5.504,-14.592 v -7.552 c -1.088,0 -1.28,0.192 -2.688,0.768 -5.824,3.008 -11.136,4.224 -16.96,4.224 -22.464,0 -37.376,-15.68 -37.376,-39.232 0,-24 16,-40.64 39.104,-40.64 4.736,0 9.088,0.768 12.544,2.176 0.96,0.448 2.368,1.28 4.096,2.368 0.96,0.448 1.28,0.64 2.176,0.64 l 0.64,-0.128 V 665.6 c 0,-1.856 0.768,-2.688 2.368,-2.688 h 8.32 c 1.408,0 2.368,1.088 2.368,2.368 v 78.016 z m -12.544,-151.36 c -26.112,4.608 -55.744,-15.232 -74.368,-36.864 -14.208,-17.28 -30.784,-40.512 -35.456,-72.128 -8.192,-52.864 19.008,-98.048 46.528,-125.248 8.192,-8.128 16.64,-14.72 24.32,-19.712 10.496,-6.848 25.6,-14.208 44.864,-18.368 7.296,-1.6 15.808,-3.2 26.176,-1.856 6.08,0.768 13.312,3.52 14.72,8.896 1.088,4.224 -1.6,8.32 -2.624,10.112 -4.288,7.168 -9.792,14.976 -15.616,24.448 -5.312,8.768 -26.688,43.072 -29.248,74.048 -1.6,19.52 -2.624,30.08 5.056,49.984 3.904,13.952 38.272,55.296 21.44,86.4 -4.48,8.064 -13.76,17.92 -25.792,20.288 z m 42.24,147.264 c 0,1.28 -0.96,2.368 -2.368,2.368 h -9.856 c -1.28,0 -2.368,-1.088 -2.368,-2.368 v -73.92 c 0,-1.28 1.088,-2.368 2.368,-2.368 h 9.856 c 1.408,0 2.368,1.088 2.368,2.368 z m -7.36,-89.92 c -5.824,0 -8.768,-3.136 -8.768,-8.96 0,-5.312 3.328,-8.64 8.96,-8.64 5.824,0 8.768,3.136 8.768,8.768 0,5.824 -3.008,8.832 -8.96,8.832 z M 522.88,499.52 c -1.152,-2.048 -1.536,-4.416 -2.944,-6.144 -1.216,-1.536 -4.48,-2.944 -6.144,-3.904 -7.168,-4.096 -14.656,-8.896 -18.944,-16.512 -2.752,-4.928 -6.976,-20.48 -4.16,-27.328 3.456,-8.256 9.216,-12.992 16.256,-18.304 2.688,-2.048 7.424,-4.992 10.24,-6.784 4.416,-2.752 9.216,-5.312 14.336,-6.848 5.44,-1.664 8.384,-2.56 14.784,-3.648 12.992,-2.176 44.8,2.048 54.208,6.848 4.16,2.112 8.192,4.48 11.776,7.424 8.192,6.72 17.152,12.288 14.336,29.888 -2.944,18.24 -16.256,28.288 -27.84,38.976 -11.328,10.496 -22.976,19.968 -40.896,24.64 -7.744,2.048 -25.024,-1.344 -29.952,-9.024 -1.728,-3.072 -3.456,-6.464 -5.056,-9.28 z m 56.192,171.456 c 0,1.408 -1.088,2.368 -2.368,2.368 h -22.592 v 45.504 c 0,8.64 3.456,12.416 11.328,12.416 2.816,0 5.632,-0.64 8,-1.856 l 1.728,-0.96 c 0.768,-0.32 1.408,-0.448 1.856,-0.448 1.28,0 2.048,0.96 2.048,2.496 v 5.632 c 0,1.6 -0.32,2.176 -1.728,2.816 -3.904,2.048 -10.688,3.328 -16.32,3.328 -13.632,0 -21.504,-7.36 -21.504,-20.096 v -48.832 h -8.64 c -1.28,0 -2.368,-1.088 -2.368,-2.368 v -6.272 c 0,-1.28 1.088,-2.368 2.368,-2.368 h 8.64 V 643.84 c 0,-1.28 0.96,-2.368 2.368,-2.368 h 9.856 c 1.28,0 2.368,1.088 2.368,2.368 v 18.496 h 22.592 c 1.28,0 2.368,1.088 2.368,2.368 z m 70.464,29.952 c 0,1.28 -0.96,2.368 -2.368,2.368 H 594.88 v 0.96 c 0,16.192 10.176,27.008 25.6,27.008 5.504,0 12.736,-2.176 19.008,-5.824 l 1.28,-0.64 c 0.64,-0.448 1.6,-0.64 2.048,-0.64 1.28,0 2.176,1.088 2.176,2.496 v 6.144 c 0,2.496 -0.448,3.136 -3.456,4.416 -6.72,3.136 -15.552,5.056 -23.36,5.056 -23.232,0 -37.824,-15.36 -37.824,-39.68 0,-25.408 13.632,-41.408 35.456,-41.408 20.416,0 33.728,14.144 33.728,35.648 z m 67.392,-24.96 c 0,1.6 -0.768,2.688 -2.048,2.688 -0.768,0 -1.088,-0.128 -2.496,-0.96 -6.592,-3.584 -11.776,-4.992 -18.368,-4.992 -16.32,0 -25.6,10.496 -25.6,29.184 0,19.008 9.6,29.952 25.92,29.952 5.824,0 11.776,-1.6 17.408,-4.736 l 0.768,-0.32 c 0.96,-0.64 1.728,-0.96 2.368,-0.96 1.088,0 2.048,1.088 2.048,2.816 v 6.272 c 0,1.856 -0.448,2.688 -2.048,3.456 -5.312,2.688 -14.464,4.416 -22.592,4.416 -24.64,0 -39.232,-14.912 -39.232,-40.32 0,-25.28 15.68,-40.832 41.28,-40.832 6.72,0 13.504,1.28 19.776,3.904 2.176,0.768 2.816,1.6 2.816,3.008 z M 704,467.968 c -13.12,5.44 -31.552,5.248 -45.248,-0.896 -17.344,-6.528 -24.192,-15.296 -7.296,-18.624 22.016,-2.752 52.8,-1.152 62.976,2.88 9.088,3.968 3.584,11.328 -10.432,16.64 z M 787.776,739.2 c 0,1.28 -1.088,2.368 -2.368,2.368 H 775.36 c -1.28,0 -2.368,-1.088 -2.368,-2.368 v -50.048 c 0,-11.328 -5.824,-16.64 -18.176,-16.64 -3.904,0 -7.232,0.64 -10.688,1.856 -4.736,1.728 -6.464,3.904 -6.464,8.32 V 739.2 c 0,1.28 -0.96,2.368 -2.368,2.368 h -9.856 c -1.28,0 -2.368,-1.088 -2.368,-2.368 V 634.048 c 0,-1.28 1.088,-2.368 2.368,-2.368 h 9.856 c 1.408,0 2.368,1.088 2.368,2.368 v 32.64 l 0.448,0.128 c 0.96,0 1.728,-0.32 3.776,-1.28 6.592,-2.816 11.904,-3.904 17.92,-3.904 17.088,0 27.968,10.368 27.968,27.136 z m 14.336,-61.12 c -4.608,0 -8.384,-3.776 -8.384,-8.384 0,-4.608 3.712,-8.384 8.384,-8.384 4.672,0 8.384,3.712 8.384,8.384 -0.064,4.608 -3.84,8.384 -8.384,8.384 z" />
      <path
         style="fill:#09a198"
         inkscape:connector-curvature="0"
         id="path18"
         p-id="36852"
         d="m 372.928,672.512 c -15.04,0 -22.272,9.728 -22.272,30.592 0,11.584 1.728,18.048 6.272,23.552 3.456,4.224 9.28,6.592 16.192,6.592 14.912,0 22.272,-10.048 22.272,-30.464 0,-20.416 -7.424,-30.272 -22.464,-30.272 z" />
      <path
         style="fill:#09a198"
         inkscape:connector-curvature="0"
         id="path20"
         p-id="36853"
         d="m 802.112,662.464 c -4.032,0 -7.296,3.264 -7.296,7.296 0,4.032 3.264,7.296 7.296,7.296 4.032,0 7.296,-3.264 7.296,-7.296 -0.064,-4.096 -3.328,-7.296 -7.296,-7.296 z m 3.456,11.584 h -1.536 c -0.064,0 -0.064,-0.064 -0.128,-0.064 l -2.496,-3.712 c -0.064,-0.192 -0.128,-0.192 -0.32,-0.192 h -0.256 v 3.84 c 0,0.064 -0.064,0.192 -0.192,0.192 h -1.344 c -0.064,0 -0.192,-0.064 -0.192,-0.192 v -8.32 c 0,-0.064 0.064,-0.192 0.192,-0.192 h 2.816 c 1.792,0 2.688,0.768 2.688,2.24 0,1.28 -0.64,2.048 -1.792,2.24 l 0.064,0.064 c 0.064,0.064 0.192,0.32 0.448,0.576 0.064,0.128 0.192,0.32 0.448,0.576 0.128,0.256 0.256,0.448 0.32,0.512 l 1.408,2.048 c 0.128,0.192 0.128,0.192 0.128,0.256 0,0.064 -0.064,0.128 -0.256,0.128 z" />
      <path
         style="fill:#09a198"
         inkscape:connector-curvature="0"
         id="path22"
         p-id="36854"
         d="m 470.784,676.096 c -3.136,-2.176 -8,-3.456 -13.504,-3.456 -16,0 -25.28,10.688 -25.28,29.184 0,17.408 9.728,28.736 24.96,28.736 4.736,0 9.728,-1.28 13.184,-3.008 2.688,-1.408 3.456,-2.816 3.456,-5.952 v -39.872 c 0.064,-3.072 -0.448,-4.032 -2.816,-5.632 z" />
      <path
         style="fill:#09a198"
         inkscape:connector-curvature="0"
         id="path24"
         p-id="36855"
         d="m 536.128,446.848 c 4.608,-7.424 12.224,-9.408 17.152,-14.976 1.472,-2.368 -5.888,-1.024 -8.96,-0.576 -16.576,2.368 -24.704,15.104 -17.536,34.112 0.512,1.216 2.112,0.896 2.496,-0.576 0.512,-1.92 1.152,-3.648 1.536,-6.208 0.64,-4.48 3.2,-9.088 5.312,-11.776 z" />
    </g>
  </g>
</svg>
