<?xml version="1.0" encoding="UTF-8" standalone="no"?>
<svg
   xmlns:dc="http://purl.org/dc/elements/1.1/"
   xmlns:cc="http://creativecommons.org/ns#"
   xmlns:rdf="http://www.w3.org/1999/02/22-rdf-syntax-ns#"
   xmlns:svg="http://www.w3.org/2000/svg"
   xmlns="http://www.w3.org/2000/svg"
   xmlns:xlink="http://www.w3.org/1999/xlink"
   xmlns:sodipodi="http://sodipodi.sourceforge.net/DTD/sodipodi-0.dtd"
   xmlns:inkscape="http://www.inkscape.org/namespaces/inkscape"
   viewBox="0 0 250 250"
   version="1.1"
   id="svg27"
   sodipodi:docname="icon_nginx1.svg"
   inkscape:version="0.92.4 (5da689c313, 2019-01-14)"
   width="250"
   height="250">
  <metadata
     id="metadata31">
    <rdf:RDF>
      <cc:Work
         rdf:about="">
        <dc:format>image/svg+xml</dc:format>
        <dc:type
           rdf:resource="http://purl.org/dc/dcmitype/StillImage" />
        <dc:title></dc:title>
      </cc:Work>
    </rdf:RDF>
  </metadata>
  <sodipodi:namedview
     pagecolor="#ffffff"
     bordercolor="#666666"
     borderopacity="1"
     objecttolerance="10"
     gridtolerance="10000"
     guidetolerance="10000"
     inkscape:pageopacity="0"
     inkscape:pageshadow="2"
     inkscape:window-width="1920"
     inkscape:window-height="1026"
     id="namedview29"
     showgrid="false"
     inkscape:zoom="0.91420696"
     inkscape:cx="70.102683"
     inkscape:cy="176.70946"
     inkscape:window-x="-8"
     inkscape:window-y="1072"
     inkscape:window-maximized="1"
     inkscape:current-layer="svg27"
     inkscape:snap-path-clip="true"
     inkscape:snap-path-mask="true"
     inkscape:snap-perpendicular="true"
     inkscape:snap-tangential="true"
     showborder="true"
     borderlayer="true"
     inkscape:pagecheckerboard="true" />
  <defs
     id="defs13">
    <clipPath
       id="a"
       transform="translate(178.38 178.11)">
      <circle
         cx="489.29999"
         cy="489.29999"
         r="475.29999"
         style="fill:none"
         id="circle2" />
    </clipPath>
    <radialGradient
       id="b"
       cx="466.56"
       cy="509.06"
       r="269.37"
       gradientUnits="userSpaceOnUse">
      <stop
         offset="0"
         stop-color="#fff"
         id="stop5" />
      <stop
         offset="0.43"
         stop-color="#eaeaea"
         id="stop7" />
      <stop
         offset="1"
         stop-color="#c8c8c8"
         id="stop9" />
    </radialGradient>
    <radialGradient
       id="c"
       cx="557.79999"
       cy="414.69"
       r="215.24001"
       xlink:href="#b" />
    <radialGradient
       gradientTransform="matrix(0.20624254,0,0,0.19741436,289.26635,3.5409533)"
       id="c-0"
       cx="557.79999"
       cy="414.69"
       r="215.24001"
       xlink:href="#b-9" />
    <radialGradient
       id="b-9"
       cx="466.56"
       cy="509.06"
       r="269.37"
       gradientUnits="userSpaceOnUse">
      <stop
         offset="0"
         stop-color="#fff"
         id="stop5-7" />
      <stop
         offset="0.43"
         stop-color="#eaeaea"
         id="stop7-8" />
      <stop
         offset="1"
         stop-color="#c8c8c8"
         id="stop9-2" />
    </radialGradient>
    <radialGradient
       id="radialGradient853"
       cx="466.56"
       cy="509.06"
       r="269.37"
       gradientUnits="userSpaceOnUse">
      <stop
         offset="0"
         stop-color="#fff"
         id="stop847" />
      <stop
         offset="0.43"
         stop-color="#eaeaea"
         id="stop849" />
      <stop
         offset="1"
         stop-color="#c8c8c8"
         id="stop851" />
    </radialGradient>
  </defs>
  <ellipse
     style="opacity:1;fill:#009900;fill-opacity:1;fill-rule:nonzero;stroke:none;stroke-width:0;stroke-miterlimit:4;stroke-dasharray:none;stroke-opacity:1"
     id="path5119"
     cx="125.00389"
     cy="124.99835"
     rx="109.88937"
     ry="109.89038" />
  <path
     d="M 124.97673,249.99976 A 125.06189,125.02568 0 0 1 76.309325,9.83947 a 125.06045,125.02425 0 0 1 97.334805,230.33816 124.24932,124.21336 0 0 1 -48.6674,9.82213 z m 0,-242.8323147 A 117.90717,117.87304 0 0 0 79.097117,233.58952 117.90555,117.87142 0 0 0 170.85889,16.427573 117.13292,117.09903 0 0 0 124.97673,7.1674453 Z"
     style="fill:#009900;fill-opacity:1;stroke-width:0.25548857;opacity:1"
     id="path21"
     inkscape:connector-curvature="0" />
  <g
     id="g1028"
     transform="matrix(0.60995167,0,0,0.60995167,-161.63357,158.95948)">
    <g
       transform="matrix(0.49761167,0,0,0.49761167,234.5051,23.392162)"
       id="g1021">
      <path
         style="fill:#ffffff;stroke-width:0.37739664"
         inkscape:connector-curvature="0"
         class="st0"
         d="m 494.44662,83.538076 c -4.26458,0 -8.18951,-1.660545 -11.09546,-4.340061 -3.01917,2.679516 -6.83088,4.151363 -10.75581,4.151363 h -0.18869 c -4.22685,-0.07548 -8.37821,-1.886983 -11.39738,-5.019375 -3.05692,-3.094653 -4.7552,-7.283755 -4.71746,-11.472858 V 65.15886 l -4.45328,8.98204 -1.88698,3.811706 c -1.58507,3.245611 -4.90616,5.321293 -8.56691,5.321293 h -37.92836 c -3.43431,0 -6.60444,-1.886984 -8.30273,-4.830677 l -1.92472,-3.472049 -5.13259,-9.01978 v 1.13219 c 0,8.98204 -7.3215,16.303535 -16.30354,16.303535 -4.3778,0 -8.45368,-1.698285 -11.54834,-4.792938 L 336.12873,54.478535 v 12.605048 c 0,8.98204 -7.3215,16.303535 -16.30354,16.303535 -8.98204,0 -16.34127,-7.283756 -16.34127,-16.303535 V 15.002846 c 0,-6.6044407 3.96266,-12.529568 10.07649,-15.09586512 2.0002,-0.83027261 4.07588,-1.24540888 6.22704,-1.24540888 4.37781,0 8.45369,1.69828485 11.54834,4.7929373 L 355.48918,27.607894 V 15.002846 c 0,-8.9820396 7.32149,-16.3035344 16.30353,-16.3035344 8.98204,0 16.30354,7.3214948 16.30354,16.3035344 v 1.396368 l 5.05711,-9.1707383 1.84925,-3.4343094 c 1.66054,-3.05691281 4.86841,-5.0193753 8.3782,-5.0193753 h 39.51343 c 3.66075,0 6.9441,2.07568148 8.52916,5.3212926 l 1.88699,3.8494457 c 0.11322,0.1509587 0.15095,0.339657 0.22643,0.4906156 l 2.755,6.6044411 c 0,-4.151363 1.69828,-8.2649863 4.71746,-11.3218991 3.05691,-3.13239207 7.20827,-4.9438959 11.39738,-5.0193753 h 0.18869 c 3.96267,0 7.88759,1.54732626 10.94451,4.3400614 2.86821,-2.60403682 6.71766,-4.1891027 10.90676,-4.1891027 8.98204,0 16.30353,7.3214948 16.30353,16.3035347 V 27.796593 L 534.90354,3.6432076 c 3.05691,-3.05691277 7.20828,-4.7929373 11.54834,-4.7929373 2.15116,0 4.22684,0.41513629 6.22704,1.2454089 1.69829,0.67931395 3.24561,1.6605452 4.5665,2.8682145 2.98143,-2.67951618 6.79314,-4.1136234 10.83128,-4.1136234 4.34007,0 8.41595,1.6605452 11.54834,4.7551977 l 14.56751,14.492031 14.56751,-14.492031 c 3.09465,-3.05691283 7.20828,-4.7551977 11.54834,-4.7551977 4.3778,0 8.49142,1.69828487 11.54834,4.830677 6.378,6.3780027 6.34026,16.7564107 -0.0377,23.0966747 l -14.49203,14.416551 14.41655,14.378812 c 6.378,6.378003 6.41574,16.718671 0.0377,23.096675 -3.05692,3.094652 -7.20828,4.830677 -11.54834,4.830677 -4.3778,0 -8.45368,-1.698285 -11.54834,-4.792938 L 594.19255,64.253108 579.73826,78.63192 c -3.05691,3.056913 -7.17054,4.755198 -11.54834,4.755198 -3.92492,0 -7.77437,-1.471847 -10.7558,-4.038144 -2.86822,2.604036 -6.71766,4.226842 -10.9445,4.226842 -8.98204,0 -16.30354,-7.321495 -16.30354,-16.303535 V 54.629494 L 506.0327,78.782879 c -3.09466,3.056912 -7.17054,4.755197 -11.58608,4.755197 z m 68.38427,-34.192135 8.26499,-8.227247 -8.26499,-8.227247 z"
         id="path4" />
      <path
         style="fill:#009900;stroke-width:0.37739664"
         inkscape:connector-curvature="0"
         class="st1"
         d="m 371.83045,73.914462 c -1.77376,0 -3.50979,-0.679314 -4.83068,-2.000202 L 326.61833,31.49508 v 35.588503 c 0,3.773966 -3.05691,6.793139 -6.79314,6.793139 -3.73622,0 -6.79314,-3.056912 -6.79314,-6.793139 V 15.002846 c 0,-2.754995 1.66055,-5.2458128 4.22685,-6.3025234 2.56629,-1.0567106 5.47225,-0.4906156 7.43471,1.4718464 l 40.3437,40.381441 V 15.002846 c 0,-3.773966 3.05691,-6.793139 6.79314,-6.793139 3.77397,0 6.79314,3.056913 6.79314,6.793139 v 52.042997 c 0.0377,3.773967 -3.01917,6.868619 -6.79314,6.868619 m 31.62584,-65.6292757 -1.88698,3.5097887 -14.49203,26.342286 -1.88699,3.32109 1.88699,3.32109 14.49203,25.512013 1.96246,3.472049 h 37.9661 l 1.88698,-3.849445 10.83129,-21.851266 4.86841,-9.887792 h -10.98224 l -27.70091,0.113219 c -3.62301,-0.07548 -6.9441,3.245611 -6.9441,6.79314 0,3.623007 3.32109,6.868619 6.9441,6.793139 l 16.71867,-0.113219 -4.07588,8.264987 H 411.53258 L 400.85225,41.307392 411.60806,21.871465 h 22.87023 l 5.3213,10.944503 h 13.73723 l -8.64238,-20.756815 -1.88698,-3.849446 h -39.55117 m 69.13906,-0.03774 c -3.58526,0.03774 -6.79314,3.321091 -6.7554,6.906359 v 17.813121 h 13.66176 V 15.078326 c 0.0377,-3.623008 -3.28335,-6.981838 -6.90636,-6.9063587 m 21.88901,65.8557137 c -3.77397,0 -6.79314,-3.056913 -6.79314,-6.79314 V 15.153805 c 0,-3.773966 3.05691,-6.7931394 6.79314,-6.7931394 3.77397,0 6.79314,3.0569124 6.79314,6.7931394 v 35.588503 l 40.38144,-40.38144 c 1.96246,-1.9624627 4.86842,-2.5285577 7.43471,-1.4718471 2.5663,1.0567106 4.22685,3.5475281 4.22685,6.3025241 v 52.042996 c 0,3.773967 -3.05692,6.79314 -6.79314,6.79314 -3.77397,0 -6.79314,-3.056913 -6.79314,-6.79314 V 31.608299 l -40.41918,40.41918 c -1.28315,1.283148 -3.01918,2.000202 -4.83068,2.000202 M 603.92939,41.118694 625.13908,19.946742 c 2.67951,-2.679516 2.67951,-6.981837 0.0377,-9.661354 -2.67952,-2.6795157 -6.98184,-2.6795157 -9.66136,-0.03774 L 594.26803,31.45734 573.0206,10.247649 c -2.67952,-2.6795163 -6.98184,-2.6795163 -9.66135,0.03774 -2.67952,2.679517 -2.67952,6.981838 0,9.661354 l 21.20969,21.171952 -21.17195,21.096472 c -2.67952,2.679516 -2.67952,6.981838 -0.0377,9.661354 1.28314,1.283149 3.01917,2.037942 4.83067,2.000202 1.73603,0 3.47205,-0.679314 4.83068,-2.000202 l 21.20969,-21.134212 21.20969,21.134212 c 1.28315,1.283149 3.01918,2.000202 4.83068,2.000202 1.73602,0 3.50979,-0.679314 4.83068,-2.000202 2.67951,-2.679516 2.67951,-6.981838 -0.0377,-9.661354 z M 472.59535,73.838983 c -3.58526,-0.03774 -6.79314,-3.321091 -6.7554,-6.906359 V 38.363698 h 13.66176 v 28.568926 c 0.0377,3.623008 -3.28335,6.944098 -6.90636,6.906359"
         id="path6" />
    </g>
    <path
       id="path8"
       d="M 535.2432,7.983269 C 528.18588,7.9077896 521.5437,5.1527942 516.5998,0.17115853 L 431.11946,-85.271441 v 66.572768 c 0,14.6807288 -11.96347,26.681942 -26.68194,26.681942 -14.71847,0 -26.68194,-11.9634735 -26.68194,-26.681942 V -149.65531 c 0,-10.83128 6.45348,-20.49264 16.45449,-24.644 3.24561,-1.35863 6.67992,-2.03794 10.18971,-2.03794 7.1328,0 13.85046,2.79274 18.86983,7.81211 l 85.51808,85.4426 v -66.57277 c 0,-14.71847 11.96348,-26.68194 26.6442,-26.68194 14.68073,0 26.68195,11.96347 26.68195,26.68194 v 130.994376 c 0,14.6807295 -11.96348,26.6819426 -26.68195,26.6819426 h -0.18869 z"
       class="st0"
       inkscape:connector-curvature="0"
       style="fill:#ffffff;stroke-width:0.37739664" />
    <path
       id="path10"
       d="m 535.43189,-1.5271264 c -4.45328,0 -8.86882,-1.7360245 -12.15217,-5.0193753 L 421.64681,-108.21716 v 89.518487 c 0,9.5103949 -7.69889,17.1715466 -17.17155,17.1715466 -9.47265,0 -17.17155,-7.6988914 -17.17155,-17.1715466 V -149.65531 c 0,-6.98184 4.18911,-13.20888 10.60485,-15.8884 6.41574,-2.67951 13.81272,-1.20767 18.71887,3.73623 l 101.63292,101.670655 v -89.518485 c 0,-9.51039 7.69889,-17.17154 17.17154,-17.17154 9.5104,0 17.17155,7.69889 17.17155,17.17154 v 130.994376 c 0,9.4726559 -7.66115,17.1338076 -17.17155,17.1338076"
       class="st1"
       inkscape:connector-curvature="0"
       style="fill:#009900;stroke-width:0.37739664" />
  </g>
</svg>
