<?xml version="1.0" encoding="UTF-8" standalone="no"?>
<svg
   xmlns:dc="http://purl.org/dc/elements/1.1/"
   xmlns:cc="http://creativecommons.org/ns#"
   xmlns:rdf="http://www.w3.org/1999/02/22-rdf-syntax-ns#"
   xmlns:svg="http://www.w3.org/2000/svg"
   xmlns="http://www.w3.org/2000/svg"
   xmlns:xlink="http://www.w3.org/1999/xlink"
   xmlns:sodipodi="http://sodipodi.sourceforge.net/DTD/sodipodi-0.dtd"
   xmlns:inkscape="http://www.inkscape.org/namespaces/inkscape"
   viewBox="0 0 250 250"
   version="1.1"
   id="svg27"
   sodipodi:docname="icon_synology1.svg"
   inkscape:version="1.0.2-2 (e86c870879, 2021-01-15)"
   width="250"
   height="250">
  <metadata
     id="metadata31">
    <rdf:RDF>
      <cc:Work
         rdf:about="">
        <dc:format>image/svg+xml</dc:format>
        <dc:type
           rdf:resource="http://purl.org/dc/dcmitype/StillImage" />
        <dc:title></dc:title>
      </cc:Work>
    </rdf:RDF>
  </metadata>
  <sodipodi:namedview
     pagecolor="#ffffff"
     bordercolor="#666666"
     borderopacity="1"
     objecttolerance="10"
     gridtolerance="10000"
     guidetolerance="10000"
     inkscape:pageopacity="0"
     inkscape:pageshadow="2"
     inkscape:window-width="1918"
     inkscape:window-height="1004"
     id="namedview29"
     showgrid="false"
     inkscape:zoom="1.8284139"
     inkscape:cx="203.00067"
     inkscape:cy="83.948298"
     inkscape:window-x="1910"
     inkscape:window-y="0"
     inkscape:window-maximized="0"
     inkscape:current-layer="g824"
     inkscape:snap-path-clip="true"
     inkscape:snap-path-mask="true"
     inkscape:snap-perpendicular="true"
     inkscape:snap-tangential="true"
     showborder="true"
     borderlayer="true"
     inkscape:pagecheckerboard="true"
     inkscape:document-rotation="0"
     showguides="true">
    <inkscape:grid
       type="xygrid"
       id="grid1255" />
  </sodipodi:namedview>
  <defs
     id="defs13">
    <clipPath
       id="a"
       transform="translate(178.38 178.11)">
      <circle
         cx="489.29999"
         cy="489.29999"
         r="475.29999"
         style="fill:none"
         id="circle2" />
    </clipPath>
    <radialGradient
       id="b"
       cx="466.56"
       cy="509.06"
       r="269.37"
       gradientUnits="userSpaceOnUse">
      <stop
         offset="0"
         stop-color="#fff"
         id="stop5" />
      <stop
         offset="0.43"
         stop-color="#eaeaea"
         id="stop7" />
      <stop
         offset="1"
         stop-color="#c8c8c8"
         id="stop9" />
    </radialGradient>
    <radialGradient
       id="c"
       cx="557.79999"
       cy="414.69"
       r="215.24001"
       xlink:href="#b" />
    <radialGradient
       id="a-2"
       cx="1244.322"
       cy="919.87097"
       r="0.92500001"
       gradientTransform="matrix(610,0,0,-1000.5,-756323.63,921038.75)"
       gradientUnits="userSpaceOnUse">
      <stop
         offset="0"
         stop-color="#f9be03"
         id="stop8" />
      <stop
         offset="1"
         stop-color="#cc7c19"
         id="stop10" />
    </radialGradient>
    <linearGradient
       x1="348.2829"
       y1="0"
       x2="782.05951"
       y2="786.48322"
       id="a-6"
       gradientUnits="userSpaceOnUse">
      <stop
         stop-color="#72B4F5"
         offset="0%"
         id="stop4" />
      <stop
         stop-color="#356EBF"
         offset="100%"
         id="stop6" />
    </linearGradient>
    <clipPath
       id="clip_1">
      <rect
         width="2048.0317"
         height="2048.0393"
         id="use3"
         x="0"
         y="-0.0096001839"
         style="clip-rule:evenodd;stroke-width:2.00003" />
    </clipPath>
    <clipPath
       id="clip_1-2">
      <rect
         width="2048.0317"
         height="2048.0393"
         id="use3-8"
         x="0"
         y="-0.0096001839"
         style="clip-rule:evenodd;stroke-width:2.00003" />
    </clipPath>
    <linearGradient
       id="grad0"
       x1="452.10999"
       y1="556.82001"
       x2="451.76001"
       y2="528.82001"
       gradientUnits="userSpaceOnUse"
       gradientTransform="matrix(12.263007,0,0,9.7035264,-4805.203,-5117.763)">
      <stop
         offset="0"
         stop-color="#1c99f5"
         id="stop2" />
      <stop
         offset="1"
         stop-color="#20b9fa"
         id="stop4-1" />
    </linearGradient>
    <linearGradient
       id="grad0-2"
       x1="452.10999"
       y1="556.82001"
       x2="451.76001"
       y2="528.82001"
       gradientUnits="userSpaceOnUse"
       gradientTransform="matrix(0.63379417,0,0,0.50150961,-270.65185,-256.14161)">
      <stop
         offset="0"
         stop-color="#1c99f5"
         id="stop2-6" />
      <stop
         offset="1"
         stop-color="#20b9fa"
         id="stop4-6" />
    </linearGradient>
    <linearGradient
       id="grad0-2-8"
       x1="452.10999"
       y1="556.82001"
       x2="451.76001"
       y2="528.82001"
       gradientUnits="userSpaceOnUse"
       gradientTransform="matrix(0.63379417,0,0,0.50150961,-270.65185,-256.14161)">
      <stop
         offset="0"
         stop-color="#1c99f5"
         id="stop2-6-0" />
      <stop
         offset="1"
         stop-color="#20b9fa"
         id="stop4-6-1" />
    </linearGradient>
  </defs>
  <g
     id="g824"
     transform="matrix(0.49999225,0,0,0.4999904,0,0.0048)">
    <ellipse
       style="fill:#b6b5b6;fill-opacity:1;fill-rule:nonzero;stroke:none;stroke-width:0;stroke-miterlimit:4;stroke-dasharray:none;stroke-opacity:1"
       id="path5119"
       cx="250.00388"
       cy="249.99519"
       rx="219.78214"
       ry="219.78499" />
    <path
       d="M 249.95733,499.99953 A 250.12766,250.05617 0 0 1 152.62102,19.669719 250.12478,250.05331 0 0 1 347.29365,480.35489 248.5025,248.43148 0 0 1 249.95733,499.99953 Z m 0,-485.673963 A 235.81799,235.7506 0 0 0 158.19669,467.17842 235.81475,235.74736 0 0 0 341.72309,32.846178 234.26948,234.20255 0 0 0 249.95733,14.325567 Z"
       style="fill:#b6b5b6;stroke-width:0.510986;fill-opacity:1"
       id="path21"
       inkscape:connector-curvature="0" />
    <path
       fill="#aa0707"
       d="M 641.48102,613.91097"
       id="path2-8"
       style="stroke-width:1.05013;fill:#5f9ee4;fill-opacity:1" />
    <path
       fill="#aa0707"
       d="M 674.64315,680.23551"
       id="path4"
       style="stroke-width:1.05013" />
    <path
       fill="#aa0707"
       d="M 641.48102,613.91097"
       id="path6-3"
       style="stroke-width:1.05013;fill:#5f9ee4;fill-opacity:1" />
    <path
       fill="#aa0707"
       d="M 674.64315,680.23551"
       id="path8"
       style="stroke-width:1.05013" />
    <rect
       width="4096.127"
       height="4096.1572"
       id="use8"
       x="1609.8083"
       y="-507.92596"
       style="fill:#ffffff;fill-opacity:0;stroke:none;stroke-width:4.00013" />
    <path
       d="m 336.99433,248.93295 a 47.150291,47.150466 0 0 1 5.81265,-22.57203 l -0.11802,0.25081 a 39.493532,39.493679 0 0 1 15.85937,-16.34629 l 0.20654,-0.10327 a 46.928997,46.929171 0 0 1 22.46868,-5.63562 h 0.73764 -0.0442 q 19.85741,0 32.45639,12.84982 12.59897,12.84984 12.68749,32.50078 c 0,13.2039 -4.27834,24.12109 -12.79076,32.84009 -8.51243,8.719 -19.26729,13.07113 -32.20559,13.07113 -8.35015,0 -16.2282,-2.02116 -23.17682,-5.59138 l 0.2803,0.13278 a 37.398618,37.398757 0 0 1 -16.44949,-15.74141 l -0.10327,-0.19179 q -5.6061,-10.44509 -5.62086,-25.46362 z m 23.50139,1.22451 c 0,8.719 2.0359,15.38733 6.19621,19.90174 a 20.137717,20.137792 0 0 0 30.47951,0.0295 l 0.0148,-0.0295 c 4.05706,-4.52916 6.09296,-11.27126 6.09296,-20.01977 0,-8.7485 -2.0359,-15.23981 -6.09296,-19.79848 a 20.226235,20.22631 0 0 0 -30.47951,-0.0148 l -0.0148,0.0295 c -4.14556,4.5144 -6.19622,11.18275 -6.19622,19.84273 z m -23.63416,43.38845 h -22.95552 v -44.48017 c 0,-9.36814 -0.47209,-15.4021 -1.49005,-18.20516 a 12.923546,12.923594 0 0 0 -4.83895,-6.41753 l -0.0443,-0.0295 a 13.838226,13.838277 0 0 0 -7.68626,-2.30146 h -0.39833 0.0148 -0.17703 c -3.98329,0 -7.68627,1.23924 -10.72536,3.36367 l 0.059,-0.0443 a 16.449491,16.449552 0 0 0 -6.55029,8.4977 l -0.0295,0.11803 c -1.2245,3.65873 -1.78511,10.26807 -1.78511,20.04928 v 39.43466 h -22.85227 v -87.3818 h 21.22943 v 12.79082 c 7.64201,-9.67794 17.21664,-14.4579 28.79767,-14.4579 h 0.30981 c 4.94222,0 9.66316,0.98844 13.95625,2.78831 l -0.23605,-0.0885 c 3.85051,1.54907 7.0814,3.9538 9.55989,7.00766 l 0.0295,0.0443 c 2.08017,2.7293 3.64397,5.9602 4.48488,9.48615 l 0.0295,0.17704 c 0.84092,4.10132 1.31301,8.80752 1.31301,13.63173 l -0.0295,1.99166 v -0.10327 z M 167.60147,206.16412 h 24.4013 l 20.83111,62.02145 20.29999,-62.02145 h 23.76694 l -30.49426,83.98862 -5.6061,15.31357 a 61.342585,61.342814 0 0 1 -5.90116,11.90564 l 0.14753,-0.2508 a 24.150508,24.150598 0 0 1 -6.22574,6.53556 l -0.0737,0.0442 c -2.508,1.66709 -5.41432,2.99486 -8.52718,3.83578 l -0.20654,0.0443 c -3.42268,0.94419 -7.36171,1.47529 -11.41875,1.47529 h -0.36882 0.0148 a 60.929503,60.929729 0 0 1 -13.4399,-1.54906 l 0.41309,0.0737 -1.90313,-18.13139 c 2.92107,0.67864 6.28473,1.09172 9.72216,1.13598 h 0.0295 c 5.31106,0 9.26483,-1.56382 11.80234,-4.69144 a 33.489098,33.489222 0 0 0 5.82739,-11.90565 l 0.059,-0.23604 z m -94.610395,48.12416 23.486627,-2.19819 q 2.16868,11.83187 8.645208,17.42325 6.47652,5.59137 17.58546,5.53236 c 7.78953,0 13.67594,-1.66709 17.65923,-4.94224 3.98328,-3.27516 5.90116,-7.16994 5.90116,-11.53681 v -0.35408 a 11.079433,11.079474 0 0 0 -2.46374,-6.9929 l 0.0148,0.0148 c -1.66707,-1.94739 -4.55865,-3.71774 -8.70421,-5.11927 -2.84731,-1.09172 -9.30908,-2.81782 -19.35581,-5.38483 -13.01206,-3.18664 -22.070353,-7.16995 -27.292883,-11.86139 A 31.67449,31.674608 0 0 1 77.416958,204.80687 v -0.41309 c 0,-6.35852 1.947389,-12.2597 5.281542,-17.15768 l -0.07373,0.10327 a 32.83997,32.840092 0 0 1 14.797162,-12.18596 l 0.2213,-0.0737 c 6.520778,-2.71455 14.354578,-4.14558 23.634148,-4.14558 q 22.5572,0 33.99069,9.973 c 7.61251,6.7421 11.58104,15.59387 11.96461,26.68811 l -24.32754,0.81141 c -1.07696,-6.09297 -3.23088,-10.53362 -6.66831,-13.26292 -3.43743,-2.72929 -8.54194,-4.07181 -15.25451,-4.07181 -7.02238,0 -12.53996,1.44579 -16.49375,4.39638 a 8.7042147,8.7042471 0 0 0 -3.85051,7.22895 v 0.16228 -0.0148 0.0295 c 0,2.96535 1.40153,5.59137 3.57021,7.27321 l 0.0148,0.0148 c 3.02435,2.64078 10.4598,5.31107 22.23263,8.05512 11.77282,2.74405 20.47703,5.7094 26.09789,8.70425 5.51759,2.89158 10.00247,7.08142 13.17435,12.17119 l 0.0885,0.14753 c 3.15713,5.08977 4.80945,11.59582 4.80945,19.25261 0,7.21421 -2.15393,13.9268 -5.84215,19.54768 l 0.0885,-0.13277 c -3.89477,6.0192 -9.44186,10.68113 -15.99214,13.39568 l -0.23605,0.0885 c -7.00763,2.86207 -15.71185,4.39638 -26.14215,4.39638 -15.18074,0 -26.835538,-3.55546 -35.008653,-10.65164 -8.173105,-7.09617 -12.967799,-17.36423 -14.546359,-30.84844 z"
       p-id="74061"
       id="path6"
       style="opacity:0.5;fill:#000000;stroke-width:0.345772" />
  </g>
</svg>
