<?xml version="1.0" encoding="UTF-8" standalone="no"?>
<svg
   xmlns:dc="http://purl.org/dc/elements/1.1/"
   xmlns:cc="http://creativecommons.org/ns#"
   xmlns:rdf="http://www.w3.org/1999/02/22-rdf-syntax-ns#"
   xmlns:svg="http://www.w3.org/2000/svg"
   xmlns="http://www.w3.org/2000/svg"
   xmlns:xlink="http://www.w3.org/1999/xlink"
   xmlns:sodipodi="http://sodipodi.sourceforge.net/DTD/sodipodi-0.dtd"
   xmlns:inkscape="http://www.inkscape.org/namespaces/inkscape"
   viewBox="0 0 250 250"
   version="1.1"
   id="svg27"
   sodipodi:docname="icon_grafana2.svg"
   inkscape:version="0.92.4 (5da689c313, 2019-01-14)"
   width="250"
   height="250">
  <metadata
     id="metadata31">
    <rdf:RDF>
      <cc:Work
         rdf:about="">
        <dc:format>image/svg+xml</dc:format>
        <dc:type
           rdf:resource="http://purl.org/dc/dcmitype/StillImage" />
        <dc:title></dc:title>
      </cc:Work>
    </rdf:RDF>
  </metadata>
  <sodipodi:namedview
     pagecolor="#ffffff"
     bordercolor="#666666"
     borderopacity="1"
     objecttolerance="10"
     gridtolerance="10000"
     guidetolerance="10000"
     inkscape:pageopacity="0"
     inkscape:pageshadow="2"
     inkscape:window-width="1858"
     inkscape:window-height="1057"
     id="namedview29"
     showgrid="false"
     inkscape:zoom="1.2928839"
     inkscape:cx="166.86148"
     inkscape:cy="222.4465"
     inkscape:window-x="-6"
     inkscape:window-y="-8"
     inkscape:window-maximized="1"
     inkscape:current-layer="g830"
     inkscape:snap-path-clip="true"
     inkscape:snap-path-mask="true"
     inkscape:snap-perpendicular="true"
     inkscape:snap-tangential="true"
     showborder="true"
     borderlayer="true"
     inkscape:pagecheckerboard="true" />
  <defs
     id="defs13">
    <clipPath
       id="a"
       transform="translate(178.38 178.11)">
      <circle
         cx="489.29999"
         cy="489.29999"
         r="475.29999"
         style="fill:none"
         id="circle2" />
    </clipPath>
    <radialGradient
       id="b"
       cx="466.56"
       cy="509.06"
       r="269.37"
       gradientUnits="userSpaceOnUse">
      <stop
         offset="0"
         stop-color="#fff"
         id="stop5" />
      <stop
         offset="0.43"
         stop-color="#eaeaea"
         id="stop7" />
      <stop
         offset="1"
         stop-color="#c8c8c8"
         id="stop9" />
    </radialGradient>
    <radialGradient
       id="c"
       cx="557.79999"
       cy="414.69"
       r="215.24001"
       xlink:href="#b" />
    <linearGradient
       x1="133.42035"
       y1="326.78146"
       x2="133.42035"
       y2="83.10022"
       id="linearGradient-1"
       gradientTransform="scale(0.95927378,1.0424553)"
       gradientUnits="userSpaceOnUse">
      <stop
         stop-color="#FFF100"
         offset="0%"
         id="stop2" />
      <stop
         stop-color="#F05A28"
         offset="100%"
         id="stop4" />
    </linearGradient>
  </defs>
  <g
     id="g830"
     transform="translate(5.5283648e-6,-250)">
    <ellipse
       ry="109.88975"
       rx="109.88937"
       cy="375.00217"
       cx="124.99658"
       id="path5119"
       style="opacity:1;fill:#f46800;fill-opacity:1;fill-rule:nonzero;stroke:none;stroke-width:0;stroke-miterlimit:4;stroke-dasharray:none;stroke-opacity:1" />
    <path
       inkscape:connector-curvature="0"
       id="path21"
       style="fill:#f46800;fill-opacity:1;stroke-width:0.25548783"
       d="m 124.97672,499.99977 a 125.06189,125.02496 0 0 1 -48.667401,-240.1589 125.06045,125.02353 0 0 1 97.334811,230.33682 124.24932,124.21263 0 0 1 -48.66741,9.82208 z m 0,-242.83091 A 117.90717,117.87235 0 0 0 79.097111,483.58962 117.90555,117.87073 0 0 0 170.85889,266.42893 117.13292,117.09835 0 0 0 124.97672,257.16886 Z" />
    <path
       inkscape:connector-curvature="0"
       style="fill:#ffffff;stroke-width:0.17189707"
       d="m 205.65457,364.91758 c -0.31351,-2.9701 -0.77554,-6.40223 -1.71606,-10.14785 -0.94053,-3.74564 -2.50259,-7.81028 -4.53216,-12.18292 -2.18358,-4.21865 -4.84017,-8.75081 -8.43179,-12.96395 -1.40805,-1.71606 -2.97011,-3.27812 -4.53215,-4.99418 2.50258,-9.83984 -2.9701,-18.43114 -2.9701,-18.43114 -9.52634,-0.62151 -15.46105,2.97011 -17.64462,4.53217 -0.31352,-0.15401 -0.77553,-0.31353 -1.09455,-0.46752 a 193.5517,193.5517 0 0 0 -4.99417,-1.87557 c -1.71605,-0.46752 -3.43761,-1.09453 -5.15367,-1.40805 -1.71605,-0.46752 -3.59162,-0.77553 -5.46169,-1.09453 -0.31351,0 -0.62152,-0.15402 -0.94054,-0.15402 -4.06464,-13.11795 -15.92855,-18.73914 -15.92855,-18.73914 -13.59096,8.7508 -16.24205,20.46071 -16.24205,20.46071 0,0 0,0.31351 -0.15401,0.62152 -0.77553,0.15401 -1.40806,0.46751 -2.18358,0.62152 -0.94053,0.31351 -2.02956,0.62152 -2.9701,1.09454 -0.94054,0.47302 -2.02956,0.77552 -2.9701,1.24854 -2.02957,0.94054 -3.89964,1.87557 -5.93471,2.9701 -2.150565,1.21005 -3.938135,2.34858 -5.654195,3.56963 l 0.19251,-0.132 c -0.31351,-0.15401 -0.46752,-0.31351 -0.46752,-0.31351 -18.277131,-7.02375 -34.513693,1.40804 -34.513693,1.40804 -1.408049,19.52018 7.342756,31.7031 9.058809,33.88667 -0.467515,1.24855 -0.77552,2.33759 -1.248536,3.59164 a 73.867558,73.867558 0 0 0 -2.926103,13.19495 l -0.04401,0.39601 c -0.154012,0.62152 -0.154012,1.40804 -0.313514,2.02957 -16.869091,8.27779 -21.863265,25.45488 -21.863265,25.45488 14.058494,16.24206 30.608561,17.1826 30.608561,17.1826 2.244077,4.03163 4.620161,7.50775 7.282256,10.74187 l -0.099,-0.121 c 1.094535,1.40804 2.33758,2.65659 3.591627,4.06464 -5.153687,14.68 0.77552,27.01693 0.77552,27.01693 15.774553,0.62152 26.076413,-6.86974 28.265483,-8.5858 l 4.68616,1.40804 c 4.84018,1.24856 9.83985,2.02959 14.68002,2.18358 h 6.40221 c 7.34276,10.62088 20.46071,12.02892 20.46071,12.02892 9.21282,-9.83984 9.83984,-19.36617 9.83984,-21.55523 v -0.94054 c 1.87556,-1.40805 3.74563,-2.8106 5.6267,-4.37266 3.74563,-3.27811 6.86973,-7.18874 9.68034,-11.24239 0.3135,-0.31351 0.46751,-0.77552 0.77552,-1.09453 10.46686,0.62152 17.80412,-6.55624 17.80412,-6.55624 -1.71606,-10.93437 -7.96428,-16.24205 -9.21283,-17.18258 l -0.46201,-0.46203 c 0,-0.62151 0.15401,-1.24853 0.15401,-2.02956 0.154,-1.24855 0.154,-2.33758 0.154,-3.59163 v -4.53215 c 0,-0.31351 0,-0.62153 -0.154,-0.94053 l -0.31352,-1.87557 c -0.154,-1.24854 -0.46751,-2.33759 -0.62152,-3.59162 a 46.350104,46.350104 0 0 0 -5.42318,-13.32696 l 0.1155,0.20901 a 49.006697,49.006697 0 0 0 -8.85531,-10.57687 l -0.044,-0.0385 a 43.143494,43.143494 0 0 0 -10.96738,-7.07875 l -0.27501,-0.11 a 38.292327,38.292327 0 0 0 -12.15543,-3.42113 l -0.1815,-0.0166 c -2.02956,-0.31351 -4.21864,-0.31351 -6.2482,-0.31351 h -3.12412 c -1.09454,0.154 -2.18357,0.31351 -3.1241,0.46751 -4.21865,0.77553 -8.11829,2.33759 -11.5559,4.37265 -3.43762,2.03507 -6.40223,4.68616 -8.90481,7.65077 a 31.362086,31.362086 0 0 0 -5.55519,9.31182 l -0.0715,0.21451 a 33.754668,33.754668 0 0 0 -2.18357,10.14786 v 3.74562 c 0,0.46752 0,0.77553 0.154,1.24855 0.52252,5.04917 2.37609,9.58133 5.20318,13.34346 l -0.0496,-0.066 c 1.87557,2.50258 3.89964,4.37265 6.24823,5.93471 2.33757,1.56206 4.68616,2.65659 7.18875,3.43761 2.50258,0.78103 4.84015,1.09455 7.02373,0.94054 h 3.27262 c 0.31351,0 0.62153,-0.15401 0.77553,-0.15401 0.31351,0 0.46752,-0.15401 0.77553,-0.15401 0.46751,-0.15399 1.09453,-0.31351 1.56204,-0.46752 0.94054,-0.31351 1.87557,-0.77552 2.81061,-1.09453 0.94052,-0.46751 1.71606,-0.94053 2.33758,-1.40805 0.154,-0.154 0.46751,-0.31351 0.62152,-0.46751 a 1.7490606,1.7490606 0 0 0 0.31351,-2.50259 v 0.005 a 2.1890758,2.1890758 0 0 0 -2.35408,-0.46751 l 0.0164,-0.005 c -0.15401,0.154 -0.31352,0.154 -0.62153,0.31351 a 9.933344,9.933344 0 0 1 -1.95807,0.75902 l -0.0715,0.0166 c -0.77554,0.154 -1.56206,0.46751 -2.33758,0.62152 -0.46752,0 -0.77553,0.154 -1.24855,0.154 h -2.64559 c 0,0 -0.154,0 0,0 h -0.63252 c -0.15951,0 -0.46751,0 -0.62153,-0.154 -1.71605,-0.3135 -3.59162,-0.77553 -5.30768,-1.56206 -1.71606,-0.78652 -3.43762,-1.87556 -4.84016,-3.27811 -1.56206,-1.40805 -2.8106,-2.9701 -3.89964,-4.84017 -1.08903,-1.87006 -1.71607,-3.89963 -2.02957,-5.9347 -0.15401,-1.09454 -0.31351,-2.18358 -0.15401,-3.27811 v -0.94053 c 0,0.154 0,0 0,0 v -0.78654 c 0,-0.62152 0.15401,-1.09453 0.31351,-1.71606 a 22.897293,22.897293 0 0 1 6.71025,-12.64497 l 0.005,-0.005 c 0.94053,-0.94054 1.87557,-1.71606 2.9701,-2.33758 1.09454,-0.77554 2.18358,-1.40806 3.27812,-1.87557 1.09453,-0.46752 2.33759,-0.94053 3.59162,-1.24855 1.24855,-0.31351 2.50259,-0.62152 3.74564,-0.62152 0.62152,0 1.24853,-0.154 1.87556,-0.154 h 1.24854 c 0.15401,0 0,0 0,0 h 0.62152 a 29.684527,29.684527 0 0 1 12.02342,3.66863 l -0.14851,-0.077 c 4.99418,2.81059 9.21282,7.02373 11.70991,12.18292 1.24854,2.50259 2.18357,5.30769 2.65659,8.27779 0.15401,0.77552 0.15401,1.40804 0.31351,2.18358 v 4.06464 c 0,0.77551 -0.154,1.56204 -0.154,2.33758 -0.154,0.77552 -0.154,1.56205 -0.31351,2.33757 l -0.46752,2.33758 c -0.154,0.77554 -0.94054,2.9701 -1.40805,4.53216 -0.46752,1.56206 -2.65659,5.7807 -4.53216,8.27779 a 38.083319,38.083319 0 0 1 -14.44899,11.92991 l -0.23101,0.099 c -2.9701,1.24855 -5.93471,2.33759 -9.05881,2.81059 -1.40806,0.29702 -3.02512,0.46753 -4.68616,0.46753 h -2.33759 c 0.15401,0 0,0 0,0 h -0.15401 c -0.77552,0 -1.71605,0 -2.50259,-0.154 -3.43761,-0.31353 -6.71572,-0.94054 -9.99384,-1.87557 -3.27811,-0.93504 -6.40222,-2.18358 -9.37232,-3.74563 a 51.371778,51.371778 0 0 1 -15.38421,-12.71077 l -0.0715,-0.0935 c -2.029585,-2.65659 -3.899655,-5.46169 -5.461705,-8.4318 -1.56205,-2.9701 -2.656593,-6.0942 -3.591626,-9.21281 a 39.27136,39.27136 0 0 1 -1.56205,-9.60333 v -4.91718 c 0,-1.56204 0.154002,-3.27811 0.467516,-4.99417 0.154002,-1.71605 0.467517,-3.27812 0.775529,-4.99417 0.308005,-1.71606 0.77552,-3.27811 1.248537,-4.99417 0.473014,-1.71606 2.029574,-6.40222 3.437624,-9.37232 2.8106,-5.93471 6.402225,-11.2424 10.620865,-15.46104 1.09454,-1.09453 2.18358,-2.02957 3.43763,-2.9701 0.46751,-0.46752 1.56204,-1.40806 2.81059,-2.18358 1.24854,-0.77553 2.50258,-1.56205 3.89963,-2.18358 0.62154,-0.3135 1.24855,-0.62152 2.02958,-0.94054 0.31352,-0.15399 0.62152,-0.3135 1.09454,-0.46751 0.31352,-0.154 0.62151,-0.3135 1.09453,-0.46752 1.40806,-0.62151 2.81061,-1.09453 4.21866,-1.56205 0.3135,-0.154 0.77552,-0.154 1.09453,-0.31351 0.319,-0.15951 0.77552,-0.154 1.09454,-0.3135 0.31902,-0.15951 1.40804,-0.31352 2.18358,-0.62153 0.31351,-0.15401 0.77552,-0.15401 1.09453,-0.3135 0.31351,0 0.77553,-0.15402 1.09455,-0.15402 0.31899,0 0.77551,-0.154 1.09452,-0.154 l 1.24854,-0.31351 c 0.31352,0 0.77554,-0.15401 1.09455,-0.15401 0.46751,0 0.77552,-0.154 1.24854,-0.154 0.31351,0 0.94053,-0.15401 1.24853,-0.15401 0.308,0 0.46752,0 0.77553,-0.154 h 1.09454 c 0.46752,0 0.77553,0 1.24855,-0.15401 h 0.62151 c 0,0 0.154,0 0,0 h 5.7807 c 2.81059,0.15401 5.6267,0.46752 8.27779,0.94053 a 52.911831,52.911831 0 0 1 15.28503,5.13169 L 170.52398,329.97 c 4.64767,2.26608 8.65181,4.92267 12.25443,8.02478 l -0.0715,-0.0605 c 0.15401,0.154 0.46752,0.3135 0.62152,0.62152 0.15401,0.154 0.46752,0.31351 0.62153,0.62152 0.46751,0.31351 0.77552,0.77553 1.24854,1.09454 0.47302,0.31901 0.77552,0.77553 1.24854,1.09453 0.3135,0.46752 0.77553,0.77554 1.09453,1.24855 a 57.840002,57.840002 0 0 1 10.15886,14.19049 l 0.154,0.33001 c 0.15402,0.15401 0.15402,0.31352 0.31351,0.62153 0.15401,0.154 0.15401,0.31351 0.31352,0.62152 0.1595,0.308 0.31351,0.77552 0.62152,1.09453 0.154,0.31352 0.31351,0.77553 0.46751,1.09455 0.15401,0.319 0.31352,0.77551 0.46752,1.09453 0.62152,1.40805 1.09454,2.8106 1.56206,4.21864 0.77552,2.18358 1.24854,4.06464 1.71606,5.6267 a 1.5015519,1.5015519 0 0 0 1.40804,1.09453 c 0.77554,0 1.24855,-0.62151 1.24855,-1.40804 -0.15401,-1.87557 -0.15401,-3.89964 -0.31352,-6.24822 z"
       p-id="30361"
       id="path6" />
  </g>
</svg>
