<?xml version="1.0" encoding="UTF-8" standalone="no"?>
<svg
   xmlns:dc="http://purl.org/dc/elements/1.1/"
   xmlns:cc="http://creativecommons.org/ns#"
   xmlns:rdf="http://www.w3.org/1999/02/22-rdf-syntax-ns#"
   xmlns:svg="http://www.w3.org/2000/svg"
   xmlns="http://www.w3.org/2000/svg"
   xmlns:xlink="http://www.w3.org/1999/xlink"
   xmlns:sodipodi="http://sodipodi.sourceforge.net/DTD/sodipodi-0.dtd"
   xmlns:inkscape="http://www.inkscape.org/namespaces/inkscape"
   viewBox="0 0 250 250"
   version="1.1"
   id="svg27"
   sodipodi:docname="icons_radarr.svg"
   inkscape:version="1.0.2-2 (e86c870879, 2021-01-15)"
   width="250"
   height="250">
  <metadata
     id="metadata31">
    <rdf:RDF>
      <cc:Work
         rdf:about="">
        <dc:format>image/svg+xml</dc:format>
        <dc:type
           rdf:resource="http://purl.org/dc/dcmitype/StillImage" />
        <dc:title></dc:title>
      </cc:Work>
    </rdf:RDF>
  </metadata>
  <sodipodi:namedview
     pagecolor="#ffffff"
     bordercolor="#666666"
     borderopacity="1"
     objecttolerance="10"
     gridtolerance="10000"
     guidetolerance="10000"
     inkscape:pageopacity="0"
     inkscape:pageshadow="2"
     inkscape:window-width="1918"
     inkscape:window-height="1004"
     id="namedview29"
     showgrid="false"
     inkscape:zoom="1.8284139"
     inkscape:cx="226.64433"
     inkscape:cy="89.556363"
     inkscape:window-x="1910"
     inkscape:window-y="0"
     inkscape:window-maximized="0"
     inkscape:current-layer="g824"
     inkscape:snap-path-clip="true"
     inkscape:snap-path-mask="true"
     inkscape:snap-perpendicular="true"
     inkscape:snap-tangential="true"
     showborder="true"
     borderlayer="true"
     inkscape:pagecheckerboard="true"
     inkscape:document-rotation="0" />
  <defs
     id="defs13">
    <clipPath
       id="a"
       transform="translate(178.38 178.11)">
      <circle
         cx="489.29999"
         cy="489.29999"
         r="475.29999"
         style="fill:none"
         id="circle2" />
    </clipPath>
    <radialGradient
       id="b"
       cx="466.56"
       cy="509.06"
       r="269.37"
       gradientUnits="userSpaceOnUse">
      <stop
         offset="0"
         stop-color="#fff"
         id="stop5" />
      <stop
         offset="0.43"
         stop-color="#eaeaea"
         id="stop7" />
      <stop
         offset="1"
         stop-color="#c8c8c8"
         id="stop9" />
    </radialGradient>
    <radialGradient
       id="c"
       cx="557.79999"
       cy="414.69"
       r="215.24001"
       xlink:href="#b" />
    <clipPath
       id="a-0">
      <circle
         id="svg_1"
         stroke-width="3.5906"
         fill="#989898"
         r="375"
         cy="384"
         cx="384" />
    </clipPath>
  </defs>
  <g
     id="g824"
     transform="matrix(0.49999225,0,0,0.4999904,0,0.0048)">
    <ellipse
       style="fill:#000000;fill-opacity:1;fill-rule:nonzero;stroke:none;stroke-width:0;stroke-miterlimit:4;stroke-dasharray:none;stroke-opacity:1"
       id="path5119"
       cx="250.00388"
       cy="249.99519"
       rx="219.78214"
       ry="219.78499" />
    <path
       d="M 249.95733,499.99953 A 250.12766,250.05617 0 0 1 152.62102,19.669719 250.12478,250.05331 0 0 1 347.29365,480.35489 248.5025,248.43148 0 0 1 249.95733,499.99953 Z m 0,-485.673963 A 235.81799,235.7506 0 0 0 158.19669,467.17842 235.81475,235.74736 0 0 0 341.72309,32.846178 234.26948,234.20255 0 0 0 249.95733,14.325567 Z"
       style="fill:#ffc230;stroke-width:0.510986;fill-opacity:1"
       id="path21"
       inkscape:connector-curvature="0" />
    <g
       id="g24"
       transform="matrix(0.54770637,0,0,0.54770838,41.32777,37.757382)">
      <title
         id="title8">Layer 1</title>
      <g
         stroke="null"
         id="radarr-group-logo">
        <circle
           stroke="null"
           r="389.81021"
           cy="387.49997"
           cx="380.99997"
           id="radarr-black-circle"
           style="stroke-width:1.8453" />
        <path
           stroke-miterlimit="1"
           clip-path="url(#a-0)"
           d="m 686.07336,4.288132 19.87332,11.458057 19.67048,-11.458057 v -22.916113 l -19.67048,-11.458057 -19.87332,11.458057 z M 646.73239,-18.627981 627.0619,-30.086038 607.40606,-18.627981 V 4.288132 L 627.0619,15.746189 646.73239,4.288132 v -22.916113 l 19.67048,-11.458057 19.67049,11.458057 M 646.73239,4.288132 666.40287,15.746189 686.07336,4.288132 m -39.34097,45.628724 v 22.916113 l 19.67048,11.458057 19.67049,-11.458057 V 49.916856 L 666.40287,38.662302 646.73239,49.916856 627.0619,38.662302 607.40605,49.916856 m 78.66835,22.916113 19.87332,11.458057 19.67049,-11.458057 V 49.916856 L 705.94772,38.662302 686.0744,49.916856 m 19.87332,-34.170667 v 22.916113 m -39.5438,-22.916113 v 22.916113 m 59.21429,-57.290284 19.67048,-11.458057 19.67049,11.458057 19.67048,-11.458057 19.67049,11.458057 19.65584,-11.458057 19.67049,11.458057 V 4.288131 l 19.67048,11.458057 v 22.916113 l -19.67048,11.254554 v 22.916113 l 19.67048,11.458057 v 22.916115 l -19.67048,11.45805 v 22.91612 l 19.67048,11.45805 v 22.91612 l -19.67048,11.23987 v 22.91611 l 19.67048,11.45806 v 22.91611 l -19.67048,11.45806 v 22.91611 l 19.67048,11.45806 v 22.91611 l -19.67048,11.23987 v 22.91611 l 19.67048,11.45806 v 22.91611 l -19.67048,11.47274 v 22.91611 l 19.67048,11.45806 v 22.91611 l -19.67048,11.23987 v 22.91612 l 19.67048,11.45805 v 22.91612 l -19.67048,11.45805 v 22.91612 l 19.67048,11.45805 v 22.91612 l -19.67048,11.23986 v 22.91612 l 19.67048,11.45805 v 22.91612 l -19.67048,11.45805 v 22.91612 l 19.67048,11.45805 v 22.91612 l -19.67048,11.25455 v 22.91611 l 19.67048,11.45806 v 22.91611 l -19.67048,11.45806 -19.67049,-11.45806 -19.65584,11.45806 -19.67049,-11.45806 -19.67048,11.45806 -19.67049,-11.45806 -19.67048,11.45806 -19.67049,-11.45806 -19.87332,11.45806 -19.67048,-11.45806 -19.67049,11.45806 -19.67048,-11.45806 -19.65585,11.45806 -19.67048,-11.45806 -19.67049,11.45806 -19.67048,-11.45806 -19.67049,11.45806 -19.67048,-11.45806 -19.87332,11.45806 -19.67049,-11.45806 -19.67048,11.45806 -19.67049,-11.45806 -19.65584,11.45806 -19.67049,-11.45806 -19.67048,11.45806 -19.67049,-11.45806 -19.67048,11.45806 -19.67049,-11.45806 -19.65585,11.45806 -19.67048,-11.45806 -19.67049,11.45806 -19.67048,-11.45806 -19.87332,11.45806 -19.67048,-11.45806 -19.67049,11.45806 -19.67048,-11.45806 -19.67049,11.45806 L 115.26859,793.62896 95.5981,805.08702 75.942252,793.62896 56.271767,805.08702 36.601282,793.62896 16.727965,805.08702 -2.94252,793.62896 -22.613005,805.08702 -42.28349,793.62896 -61.953975,805.08702 -81.62446,793.62896 v -22.91611 l -19.67048,-11.45806 v -22.91611 l 19.67048,-11.25455 v -22.91612 l -19.67048,-11.45805 v -22.91612 l 19.67048,-11.45805 v -22.91612 l -19.67048,-11.45805 V 599.0455 l 19.67048,-11.23986 v -22.91612 l -19.67048,-11.45805 v -22.91612 l 19.67048,-11.45805 v -22.91612 l -19.67048,-11.45805 v -22.91612 l 19.67048,-11.23987 v -22.91611 l -19.67048,-11.45806 v -22.91611 l 19.67048,-11.47274 v -22.91611 l -19.67048,-11.45806 v -22.91611 l 19.67048,-11.23987 v -22.91611 l -19.67048,-11.45806 v -22.91611 l 19.67048,-11.45806 v -22.91611 l -19.67048,-11.45806 v -22.91611 l 19.67048,-11.23987 v -22.91611 l -19.67048,-11.45806 V 118.6652 l 19.67048,-11.45806 V 84.291025 L -101.29494,72.832968 V 49.916855 L -81.62446,38.662301 V 15.746188 L -101.29494,4.288131 v -22.916113 l 19.67048,-11.458057 19.670485,11.458057 19.670485,-11.458057 19.670485,11.458057 19.670485,-11.458057 19.670485,11.458057 19.873317,-11.458057 19.670485,11.458057 19.670485,-11.458057 19.655848,11.458057 19.67049,-11.458057 19.67048,11.458057 19.67049,-11.458057 19.67048,11.458057 19.67049,-11.458057 19.67048,11.458057 19.87332,-11.458057 19.67048,11.458057 19.67049,-11.458057 19.67048,11.458057 19.65585,-11.458057 19.67049,11.458057 19.67048,-11.458057 19.67049,11.458057 19.67048,-11.458057 19.67049,11.458057 19.65584,-11.458057 19.67049,11.458057 19.67048,-11.458057 19.67049,11.458057 19.87332,-11.458057 19.67048,11.458057 19.67049,-11.458057 19.67048,11.458057 19.67049,-11.458057 19.67048,11.458057 m -39.34097,0 V 4.288131 L 587.73661,15.746188 607.4071,4.288131 M 568.06613,49.916855 V 72.832968 L 587.73661,84.291025 607.4071,72.832968 V 49.916855 L 587.73661,38.662301 568.06613,49.916855 548.39564,38.662301 528.72516,49.916855 M 627.06399,15.746188 V 38.662301 M 587.73766,15.746188 v 22.916113 m 19.67049,80.002899 v 22.91611 l 19.65584,11.45806 19.67049,-11.45806 V 118.6652 l -19.67049,-11.45806 -19.65584,11.45806 -19.67049,-11.45806 -19.67048,11.45806 v 22.91611 l 19.67048,11.45806 19.67049,-11.45806 m 39.32633,-68.748342 -19.67049,11.458057 v 22.916115 m -19.65584,-34.374172 19.65584,11.458057 m -39.32633,0 v 22.916115 m 0,45.83223 v 22.91611 l 19.67049,11.23987 19.65584,-11.23987 v -22.91611 m 39.34097,-68.748345 v 22.916115 l 19.67049,11.45806 19.87332,-11.45806 V 84.291025 m -39.54381,22.916115 -19.67048,11.45806 m -19.67049,57.29028 19.67049,11.23987 19.67048,-11.23987 v -22.91611 l -19.67048,-11.45806 m 39.34097,-22.91611 v 22.91611 l 19.87332,11.45806 19.67048,-11.45806 V 118.6652 l -19.67048,-11.45806 m 0,45.83223 v 22.91611 l 19.67048,11.23987 19.67049,-11.23987 v -22.91611 l -19.67049,-11.45806 m -59.21428,11.45806 19.67048,-11.45806 M 528.72411,-18.63008 V 4.286033 L 548.3946,15.74409 568.06508,4.286033 M 449.83725,-18.63008 V 4.286033 L 469.50774,15.74409 489.17822,4.286033 V -18.63008 m 0,22.916113 19.87332,11.458057 19.67048,-11.458057 m -39.5438,45.628724 V 72.83087 L 509.05154,84.288927 528.72202,72.83087 V 49.914757 L 509.05154,38.660203 489.17822,49.914757 469.50774,38.660203 449.83725,49.914757 V 72.83087 L 469.50774,84.288927 489.17822,72.83087 M 469.50774,15.744089 V 38.660202 M 548.39251,15.744089 V 38.660202 M 509.05154,15.744089 V 38.660202 M 410.50987,-18.630082 V 4.286031 L 430.16572,15.744088 449.8362,4.286031 M 371.16786,-18.630082 V 4.286031 l 19.67048,11.458057 19.67048,-11.458057 m -19.67048,34.37417 -19.67048,11.254554 v 22.916113 l 19.67048,11.458057 19.67048,-11.458057 V 49.914755 Z M 449.8362,49.914755 430.16572,38.660201 410.50987,49.914755 M 390.83939,15.744088 v 22.916113 m 39.32633,-22.916113 v 22.916113 m 19.67048,34.170667 -19.67048,11.458057 v 22.916115 l 19.67048,11.45806 19.67049,-11.45806 V 84.288925 m -78.66835,0 v 22.916115 l 19.67048,11.45806 19.65585,-11.45806 m -39.32633,68.74834 19.67048,11.23987 19.65585,-11.23987 v -22.91611 l -19.65585,-11.45806 -19.67048,11.45806 v 22.91611 l -19.67048,11.23987 v 22.91611 l 19.67048,11.45806 19.67048,-11.45806 v -22.91611 m 19.65585,-34.15598 19.67049,-11.45806 V 118.6631 M 410.50882,72.830868 430.16467,84.288925 M 410.50882,141.57921 V 118.6631 m 98.54167,-34.374174 v 22.916114 l 19.67049,11.45806 19.67048,-11.45806 V 84.288926 L 528.72098,72.830869 m -78.88478,68.748341 19.67049,11.45806 19.67048,-11.45806 V 118.6631 l -19.67048,-11.45806 m 39.5438,0 -19.87332,11.45806 m 19.87332,57.29028 19.67049,11.23987 19.67048,-11.23987 v -22.91611 l -19.67048,-11.45806 -19.67049,11.45806 v 22.91611 l -19.87332,11.23987 v 22.91611 l -19.67048,11.45806 v 22.91611 l 19.67048,11.45806 19.87332,-11.45806 v -22.91611 l -19.87332,-11.45806 m -59.01145,-34.15598 19.67048,11.23987 19.67049,-11.23987 v -22.91611 m 19.67048,-11.45806 19.87332,11.45806 m 19.67048,-11.45806 V 118.6631 m 0,68.53015 v 22.91611 l 19.67049,11.45806 19.67048,-11.45806 v -22.91611 l -19.67048,-11.23987 m -59.21429,79.98821 v 22.91611 l 19.87332,11.45806 19.67048,-11.45806 v -22.91611 l -19.67048,-11.45806 m 19.67048,34.37417 19.67049,11.45806 19.67048,-11.45806 v -22.91611 l -19.67048,-11.45806 -19.67049,11.45806 m -19.67048,-34.37417 19.67048,-11.45806 m 19.67049,11.45806 v 22.91611 m -78.88477,-22.91611 -19.67049,-11.45806 -19.67048,11.45806 v 22.91611 l 19.67048,11.45806 19.67049,-11.45806 M 449.8362,210.10936 v -22.91611 m -58.99786,57.29028 -19.67049,11.45806 v 22.91611 l 19.67049,11.45806 19.67048,-11.45806 v -22.91611 z m 19.67048,34.37417 19.65585,11.45806 19.67049,-11.45806 v -22.91611 m -58.99787,-34.37417 v 22.91611 m 39.32633,0 -19.65584,11.45806 m 0,-45.83223 19.65584,11.45806 m 0,91.66445 -19.65584,11.23987 v 22.91611 l 19.65584,11.45806 19.67049,-11.45806 v -22.91611 z m 0,-22.91611 v 22.91611 m -39.32633,-22.91611 v 22.91611 l 19.67049,11.23987 m 0,22.91611 -19.67049,11.45806 v 22.91611 l 19.67049,11.47275 19.65584,-11.47275 v -22.91611 m 98.55631,-34.37417 v 22.91611 l 19.67048,11.45806 19.67049,-11.45806 v -22.91611 l -19.67049,-11.23987 z m 19.67048,-34.15598 v 22.91611 m -59.21428,-34.37417 -19.67049,11.45806 v 22.91611 l 19.67049,11.23987 19.87331,-11.23987 v -22.91611 m -59.21428,57.0721 19.67048,11.45805 19.67049,-11.45805 v -22.91612 m 39.5438,22.91612 -19.67049,11.45805 v 22.91612 l 19.67049,11.47274 19.67048,-11.47274 v -22.91612 m -118.22783,22.91612 19.67048,11.47274 19.67049,-11.47274 v -22.91612 m 19.67048,-11.45805 19.87332,11.45805 m 0,-45.61404 19.67049,11.23987 m -78.88478,-45.61404 19.67049,11.45806 m 0,22.91611 -19.67049,11.23987 M 705.94458,175.95653 686.07126,187.1964 v 22.91611 l 19.87332,11.45806 19.67048,-11.45806 V 187.1964 m -78.88581,0 v 22.91611 l 19.67048,11.45806 19.67049,-11.45806 m -39.34097,68.74834 19.67048,11.45806 19.67049,-11.45806 v -22.91611 l -19.67049,-11.45806 -19.67048,11.45806 v 22.91611 l -19.67049,11.45806 v 22.91611 m 59.01146,-34.37417 19.87331,11.45806 19.67049,-11.45806 v -22.91611 l -19.67049,-11.45806 -19.87331,11.45806 m 19.87331,-34.37417 v 22.91611 m -39.5438,-22.91611 v 22.91611 M 607.40187,187.1964 v 22.91611 l 19.65585,11.45806 19.67048,-11.45806 m -78.66835,0 19.67049,11.45806 19.67048,-11.45806 m -39.34097,68.74834 19.67049,11.45806 19.67048,-11.45806 v -22.91611 l -19.67048,-11.45806 -19.67049,11.45806 m 78.66835,0 -19.67049,-11.45806 -19.65584,11.45806 m 19.65584,-34.37417 v 22.91611 m -39.32633,-22.91611 v 22.91611 m 19.67049,79.98821 V 347.391 l 19.65584,11.45806 19.67049,-11.45806 v -22.91611 l -19.67049,-11.23987 -19.65584,11.23987 -19.67049,-11.23987 -19.67048,11.23987 m 19.67048,-34.15598 v 22.91611 m 19.67049,34.15598 -19.67049,11.45806 v 22.91611 l 19.67049,11.47274 19.65584,-11.47274 v -22.91611 m -58.99786,-11.45806 19.67049,11.45806 m 118.20692,-68.53015 v 22.91611 l 19.67048,11.23987 19.67049,-11.23987 v -22.91611 l -19.67049,-11.45806 m -19.67048,34.37417 -19.87332,11.23987 V 347.391 l 19.87332,11.45806 19.67048,-11.45806 v -22.91611 m -59.21428,-34.15598 v 22.91611 l 19.67048,11.23987 m -19.67048,-11.23987 -19.67049,11.23987 m 39.34097,22.91611 -19.67048,11.45806 v 22.91611 l 19.67048,11.47274 19.87332,-11.47274 v -22.91611 m -59.21429,-11.45806 19.67049,11.45806 m -58.99787,-79.98821 19.65585,11.45806 M 568.05358,118.6631 548.38309,107.20504 m 0,45.83223 19.67049,-11.45806 M 548.38309,84.288926 568.05358,72.830869 m 98.33883,103.122511 19.67049,11.23987 m -98.33884,-11.23987 -19.67048,11.23987 m -78.88477,0 -19.67049,-11.23987 M 823.94135,15.74199 804.2855,4.283933 784.61502,15.74199 V 38.658103 L 804.2855,49.912657 823.94135,38.658103 V 15.74199 L 843.61184,4.283933 m 0,45.628724 -19.67049,-11.254554 M 804.2855,-18.632181 V 4.283932 m -78.68298,0 L 745.273,15.741989 764.94349,4.283932 V -18.632181 M 725.60252,72.82877 745.273,84.286827 764.94349,72.82877 V 49.912657 L 745.273,38.658103 725.60252,49.912657 m 39.34097,0 19.67048,-11.254554 M 745.273,15.74199 v 22.916113 m 19.67049,-34.37417 19.67048,11.458057 m 0,68.544837 V 107.20294 L 804.28446,118.661 823.9403,107.20294 V 84.286827 L 804.28446,72.82877 784.61397,84.286827 764.94349,72.82877 m -19.67049,80.2064 19.67049,-11.45806 V 118.661 L 745.273,107.20294 725.60252,118.661 M 745.273,84.286827 v 22.916113 m 39.34097,45.83223 v 22.91611 l 19.67049,11.23987 19.65585,-11.23987 v -22.91611 l -19.65585,-11.45806 -19.67049,11.45806 -19.67048,-11.45806 M 804.28446,118.661 v 22.91611 M 764.94349,118.661 784.61397,107.20294 m 58.99787,11.45806 -19.67049,-11.45806 m 0,-22.916113 19.67049,-11.458057 m -19.67049,80.2064 19.67049,-11.45806 M 804.28446,49.912656 v 22.916113 m 0,114.360281 v 22.91611 l 19.65585,11.45806 19.67048,-11.45806 m -39.32738,0 -19.67048,11.45806 v 22.91611 l 19.67048,11.45806 19.65585,-11.45806 v -22.91611 m 19.67048,34.37417 -19.67048,-11.45806 m -98.33884,-34.37417 19.67049,11.45806 19.67048,-11.45806 v -22.91611 l -19.67048,-11.23987 m 0,114.36028 19.67048,-11.45806 v -22.91611 l -19.67048,-11.45806 -19.67049,11.45806 m 78.68299,0 v 22.91611 l 19.65585,11.45806 19.67048,-11.45806 m -78.66834,-22.91611 19.67048,-11.45806 m -39.34097,-22.91611 v 22.91611 m 19.67048,-34.37417 19.67049,11.45806 m -39.34097,91.66446 19.67048,11.23986 19.67049,-11.23986 v -22.91612 l -19.67049,-11.45805 m 0,45.61403 v 22.91612 l 19.67049,11.45805 19.67048,-11.45805 v -22.91612 l -19.67048,-11.23986 m -59.0125,34.15598 19.67048,11.45805 19.67049,-11.45805 m -19.67049,11.45805 v 22.91612 l 19.67049,11.47274 19.67048,-11.47274 v -22.91612 m 19.67049,-34.37417 19.65585,-11.23986 v -22.91612 m 19.67048,34.15598 -19.67048,-11.23986 m -19.65585,34.15598 19.65585,11.45805 19.67048,-11.45805 m -58.99786,34.37417 19.67048,11.47274 19.65585,-11.47274 v -22.91612 m -39.32633,-68.53015 19.67048,-11.45805 m 39.32738,-91.66446 -19.67048,-11.23987 m -58.99787,11.23987 19.67049,-11.23987 m 39.32633,251.65136 -19.65585,-11.45805 -19.67048,11.45805 v 22.91612 l 19.67048,11.23986 19.65585,-11.23986 v -22.91612 l 19.67048,-11.45805 m 0,45.61403 -19.67048,-11.23986 m -19.65585,-57.29029 v 22.91612 M 764.9393,393.22427 v 22.91612 l 19.67049,11.45805 m -59.01251,-11.45805 -19.67048,11.45805 v 22.91612 l 19.67048,11.23986 19.67049,-11.23986 V 427.59844 L 725.59728,416.14039 V 393.22427 L 705.9268,381.75153 m 59.0125,34.38886 -19.67048,11.45805 m 39.34097,22.91612 -19.67049,11.23986 v 22.91612 l 19.67049,11.45805 19.67048,-11.45805 v -22.91612 m -98.35347,-11.23986 -19.87332,11.23986 v 22.91612 l 19.87332,11.45805 19.67048,-11.45805 v -22.91612 m 19.67049,-11.23986 19.67048,11.23986 m 19.67049,57.29029 -19.67049,11.45806 v 22.91611 l 19.67049,11.45806 19.67048,-11.45806 v -22.91611 z m 0,-22.91611 v 22.91611 m -19.67049,-34.37417 -19.67048,11.45806 v 22.91611 l 19.67048,11.45806 m -19.67048,-11.45806 -19.67049,11.45806 v 22.91611 l 19.67049,11.45806 19.67048,-11.45806 m -19.67048,11.45806 v 22.91611 l 19.67048,11.23987 19.67049,-11.23987 v -22.91611 m 19.67048,-34.37417 19.65585,-11.45806 V 496.1286 l -19.65585,-11.45806 m 39.32738,45.83223 -19.67048,-11.45806 m -39.32633,68.74834 19.67048,11.23987 19.65585,-11.23987 v -22.91611 l -19.65585,-11.45806 m 19.65585,11.45806 19.67048,-11.45806 m -118.00827,-68.74834 19.67048,11.45806 m 78.66835,0 19.67049,-11.45806 m -39.32738,114.36028 v 22.91611 l 19.65585,11.45806 19.67048,-11.45806 m 0,45.83223 -19.67048,-11.45806 -19.65585,11.45806 v 22.91611 l 19.65585,11.45806 19.67048,-11.45806 M 823.93612,656.3211 v -22.91611 m -19.65585,-11.45806 -19.67049,11.45806 v 22.91611 l 19.67049,11.45806 m -59.0125,-79.98821 -19.67049,11.23987 v 22.91611 l 19.67049,11.45806 19.67048,-11.45806 v -22.91611 m -19.67048,103.12251 19.67048,-11.45806 v -22.91611 l -19.67048,-11.45806 -19.67049,11.45806 v 22.91611 l 19.67049,11.45806 v 22.91611 l 19.67048,11.25456 19.67049,-11.25456 m -19.67049,-34.37417 19.67049,11.45806 19.67048,-11.45806 m -19.67048,-34.37417 -19.67049,11.45806 m 0,-45.83223 19.67049,11.45806 m -39.34097,0 v 22.91611 m 39.34097,45.83223 v 22.91611 l 19.67048,11.25456 19.65585,-11.25456 v -22.91611 m -98.33883,-11.45806 -19.67049,11.45806 v 22.91611 l 19.67049,11.25456 19.67048,-11.25456 M 725.59624,736.324 v 22.91611 l 19.67048,11.45806 19.67049,-11.45806 V 736.324 m -19.67049,34.37417 v 22.91611 m 78.66835,0 v -22.91611 l -19.65585,-11.45806 -19.67048,11.45806 v 22.91611 m 19.67048,-57.29029 v 22.91612 m -19.67048,11.45805 -19.67049,-11.45805 m 78.66835,-22.91612 -19.67048,-11.25455 m 0,45.62872 19.67048,-11.45805 m 0,-160.21139 -19.67048,-11.23987 M 686.05243,393.22322 v 22.91612 l 19.87332,11.45805 m -39.5438,-45.84691 -19.67049,11.47274 v 22.91611 l 19.67049,11.45806 19.67048,-11.45806 m 0,45.61404 -19.67048,-11.23987 -19.67049,11.23987 v 22.91612 l 19.67049,11.45805 19.67048,-11.45805 M 666.38195,450.5135 v -22.91611 m -58.99786,-34.37417 v 22.91611 l 19.65584,11.45806 19.67049,-11.45806 m -58.99787,-34.38885 -19.67048,11.47274 v 22.91611 l 19.67048,11.45806 19.67049,-11.45806 m -39.34097,68.53015 19.67048,11.45806 19.67049,-11.45806 v -22.91611 l -19.67049,-11.23987 -19.67048,11.23987 v 22.91611 l -19.67049,11.45806 v 22.91611 m 59.01146,-57.29028 19.65585,-11.23987 v -22.91611 m -39.32634,0 v 22.91611 m 19.67049,79.98821 v 22.91611 l 19.65585,11.45806 19.67048,-11.45806 v -22.91611 l -19.67048,-11.45806 z m 39.32633,-45.83223 -19.67048,11.45806 v 22.91611 m -39.32634,-22.91611 v 22.91611 l 19.67049,11.45806 m -19.67049,-11.45806 -19.67048,11.45806 v 22.91611 l 19.67048,11.45806 19.67049,-11.45806 m -19.67049,11.45806 v 22.91611 l 19.67049,11.23987 19.65585,-11.23987 v -22.91611 m 78.88477,-68.74834 v 22.91611 l 19.67049,11.45806 m -19.67049,-11.45806 -19.87332,11.45806 v 22.91611 l 19.87332,11.45806 19.67049,-11.45806 m -78.88582,-22.91611 19.67048,-11.45806 v -22.91611 m 19.67049,57.29028 -19.67049,11.45806 v 22.91611 l 19.67049,11.23987 19.87331,-11.23987 v -22.91611 m -59.21428,-11.45806 19.67048,11.45806 m 19.67049,-34.37417 -19.67049,-11.45806 m -58.99786,-34.37417 19.65585,11.45806 m 0,-45.61404 19.67048,11.23987 m -137.68503,-80.00289 -19.87332,11.47274 v 22.91611 l 19.87332,11.45806 19.67048,-11.45806 v -22.91611 m -19.67048,34.37417 v 22.91611 l 19.67048,11.23987 19.67049,-11.23987 v -22.91611 l -19.67049,-11.45806 m -78.88477,-22.91611 v 22.91611 l 19.67049,11.45806 19.67048,-11.45806 m 19.87332,34.37417 -19.87332,11.23987 v 22.91611 l 19.87332,11.45806 19.67048,-11.45806 v -22.91611 m -39.5438,0 -19.67048,-11.23987 -19.67049,11.23987 v 22.91611 l 19.67049,11.45806 19.67048,-11.45806 M 469.47845,450.5135 v -22.91611 m -19.67049,-11.45806 -19.67048,11.45806 v 22.91611 l 19.67048,11.23987 m -58.99786,-80.00289 -19.67049,11.47274 v 22.91611 l 19.67049,11.45806 19.67048,-11.45806 v -22.91611 m 0,68.53015 -19.67048,-11.23987 -19.67049,11.23987 v 22.91611 l 19.67049,11.45806 19.67048,-11.45806 v -22.91611 l 19.65585,-11.23987 m 0,-22.91611 -19.65585,-11.45806 m -19.67048,11.45806 v 22.91611 m 39.32633,68.53015 -19.65585,11.45806 v 22.91611 l 19.65585,11.45806 19.67048,-11.45806 v -22.91611 z m 19.67048,-34.37417 -19.67048,11.45806 v 22.91611 M 390.8101,496.12754 v 22.91611 l 19.67048,11.45806 m 0,22.91611 -19.67048,11.45806 v 22.91611 l 19.67048,11.23987 19.65585,-11.23987 v -22.91611 m 137.89414,-34.37417 -19.67049,-11.45806 -19.67048,11.45806 v 22.91611 l 19.67048,11.45806 19.67049,-11.45806 m -98.55631,-57.29028 v 22.91611 l 19.67049,11.45806 19.87331,-11.45806 v -22.91611 m -39.5438,91.66445 19.67049,11.23987 19.87331,-11.23987 v -22.91611 l -19.87331,-11.45806 -19.67049,11.45806 v 22.91611 l -19.67048,11.23987 v 22.91611 l 19.67048,11.45806 19.67049,-11.45806 m 19.87331,-34.15598 19.67049,11.23987 19.67048,-11.23987 v -22.91611 m -39.34097,0 19.67049,-11.45806 m -39.5438,-22.91611 v 22.91611 m 39.5438,-22.91611 -19.67049,-11.45806 m 19.67049,-34.37417 19.67048,11.45806 m -78.88477,22.91611 -19.67048,11.45806 m 0,22.91611 19.67048,11.45806 m -58.99786,-80.2064 19.65584,11.45806 m 98.55631,125.82568 -19.67049,11.45806 v 22.91611 l 19.67049,11.45806 19.67048,-11.45806 v -22.91611 l -19.67048,-11.45806 v -22.91611 m -39.5438,0 v 22.91611 l 19.87331,11.45806 m 0,22.91611 -19.87331,11.45806 v 22.91611 l 19.87331,11.45806 19.67049,-11.45806 v -22.91611 m -39.5438,0 -19.67049,-11.45806 -19.67048,11.45806 v 22.91611 l 19.67048,11.45806 19.67049,-11.45806 m 19.87331,11.45806 v 22.91611 l 19.67049,11.25455 19.67048,-11.25455 V 702.15962 L 528.68855,690.70156 M 469.47426,656.32739 V 633.41128 M 410.4764,599.03711 v 22.91611 l 19.65585,11.45806 19.67048,-11.45806 m -58.99786,-34.15598 -19.67049,11.23987 v 22.91611 l 19.67049,11.45806 19.67048,-11.45806 m -19.67048,34.37417 -19.67049,11.45806 v 22.91611 l 19.67049,11.45806 19.67048,-11.45806 v -22.91611 z m 58.99786,34.37417 -19.67048,11.45806 v 22.91611 l 19.67048,11.25455 19.67049,-11.25455 v -22.91611 m -39.34098,-68.74834 v 22.91611 l 19.67049,11.45806 m -58.99786,-34.37417 v 22.91611 m 19.67048,11.45806 19.65585,-11.45806 m 0,45.83223 -19.65585,-11.45806 m -19.67048,11.45806 v 22.91611 l 19.67048,11.25455 19.65585,-11.25455 m 0,68.54484 v -22.91612 l -19.65585,-11.45805 -19.67048,11.45805 v 22.91612 m 78.66834,0 V 770.70445 L 449.80273,759.2464 430.13224,770.70445 M 410.4764,759.2464 v -22.91612 m 39.32633,22.91612 v -22.91612 m 19.67048,34.37417 19.67049,-11.45805 v -22.91612 l -19.67049,-11.25455 m 39.54381,0 -19.87332,11.25455 m 19.87332,57.29029 V 770.70445 L 489.1437,759.2464 M 587.7,793.62057 v -22.91612 l -19.67048,-11.45805 -19.67049,11.45805 v 22.91612 m -19.67048,-57.29029 v 22.91612 l 19.67048,11.45805 m -39.34097,0 19.67049,-11.45805 M 686.03988,599.03501 v 22.91611 l 19.87332,11.45806 19.67049,-11.45806 m -59.21429,-34.15598 -19.67049,11.23987 v 22.91611 l 19.67049,11.45806 19.67048,-11.45806 m -19.67048,80.2064 19.67048,-11.45806 v -22.91611 l -19.67048,-11.45806 -19.67049,11.45806 v 22.91611 l 19.67049,11.45806 v 22.91611 l 19.67048,11.25455 19.87332,-11.25455 m 19.67049,-57.29028 -19.67049,-11.45806 -19.87332,11.45806 m 0,22.91611 19.87332,11.45806 m 0,-45.83223 v -22.91611 m -39.5438,0 v 22.91611 m -58.99787,-57.29028 v 22.91611 l 19.65585,11.45806 19.67049,-11.45806 M 587.7,587.79514 568.02952,599.03501 v 22.91611 L 587.7,633.40918 607.37049,621.95112 m -39.34097,45.83223 v 22.91611 L 587.7,702.15752 607.37049,690.69946 V 667.78335 L 587.7,656.32529 568.02952,667.78335 548.35903,656.32529 m 98.33884,11.45806 -19.67049,-11.45806 -19.65585,11.45806 m 0,22.91611 19.65585,11.45806 19.67049,-11.45806 m -19.67049,-57.29029 v 22.91612 m -39.32633,-22.91612 v 22.91612 m 0,45.83222 v 22.91612 l 19.67048,11.25455 19.65585,-11.25455 v -22.91612 m -39.32633,22.91612 -19.67049,11.25455 v 22.91611 m 58.99787,34.37417 v -22.91611 l -19.65585,-11.45806 -19.67048,11.45806 m 19.67048,-11.45806 v -22.91611 m 19.65585,-11.25455 19.67048,11.25455 19.67049,-11.25455 m -19.67049,11.25455 v 22.91611 l 19.67049,11.45806 19.67048,-11.45806 v -22.91611 m -19.67048,34.37417 v 22.91611 m 39.5438,0 v -22.91611 l -19.87332,-11.45806 m -59.01145,11.45806 19.67048,-11.45806 M 568.03056,461.75232 548.36008,450.51245 m 0,-22.91612 19.67048,-11.45805 m -19.67048,286.01609 19.67048,-11.45806 m -19.67048,-57.29028 19.67048,-11.45806 m 0,-22.91611 -19.67048,-11.23987 m 98.33883,11.23987 -19.67048,-11.23987 M 449.80168,599.03186 430.1312,587.79199 m 137.89414,148.53619 -19.67049,-11.25455 m 157.54999,45.62872 19.67048,-11.45806 m 0,-160.21139 -19.67048,-11.23986 m 39.34097,-206.04152 -19.67049,11.47274 m -157.54998,0 -19.67049,-11.47274 m 98.33884,11.47274 -19.67049,-11.47274 m 216.56981,11.47274 -19.67049,-11.47274 M 489.14579,393.22426 469.47531,381.75152 M -22.652756,-18.645832 V 4.270281 L -2.982271,15.728338 16.688214,4.270281 v -22.916113 m 0,22.916113 19.873317,11.458057 19.670485,-11.458057 v -22.916113 m -118.227834,0 V 4.270281 l 19.670485,11.458057 19.670485,-11.458057 m -19.670485,34.37417 -19.670485,11.254554 v 22.916113 l 19.670485,11.458057 19.670485,-11.458057 V 49.899005 Z M -22.654848,72.815118 -2.984363,84.273175 16.686122,72.815118 V 49.899005 L -2.984363,38.644451 -22.654848,49.899005 M 16.686123,72.815118 36.55944,84.273175 56.229925,72.815118 V 49.899005 L 36.55944,38.644451 16.686123,49.899005 M -42.325333,15.728338 V 38.644451 M -2.984362,15.728338 V 38.644451 M 36.55944,15.728338 V 38.644451 M -81.668394,15.728338 -61.997909,4.270281 m 0,45.628724 -19.670485,-11.254554 m 0,114.381259 19.670485,-11.45806 v -22.91611 l -19.670485,-11.45806 m 0,-22.916109 19.670485,-11.458057 m 59.011456,34.374166 -19.670485,11.45806 v 22.91611 l 19.670485,11.45806 19.670485,-11.45806 V 118.65154 L -2.986453,107.19348 V 84.277371 m 19.670485,57.290289 19.873317,11.45805 19.670485,-11.45805 V 118.65154 L 36.557349,107.19349 16.684032,118.65154 M 36.557349,84.277372 V 107.19349 M -42.327424,84.277372 v 22.916118 l 19.670485,11.45805 m 0,22.91612 -19.670485,11.45805 v 22.91612 l 19.670485,11.23986 19.670485,-11.23986 v -22.91612 m 39.543802,0 v 22.91612 l 19.670485,11.23986 19.670485,-11.23986 V 153.02571 L 56.227833,141.56766 m -98.556304,-34.37417 -19.670485,11.45805 m 0,22.91612 19.670485,11.45805 m 59.011456,57.0721 -19.670485,11.45805 v 22.91612 l 19.670485,11.45805 19.873317,-11.45805 v -22.91612 z m 19.873317,-34.15598 -19.873317,11.23986 v 22.91612 m -59.011456,-34.15598 -19.670485,11.23986 v 22.91612 l 19.670485,11.45805 19.670485,-11.45805 v -22.91612 m 0,68.74834 -19.670485,-11.45805 -19.670485,11.45805 v 22.91612 l 19.670485,11.45805 19.670485,-11.45805 v -22.91612 l 19.670485,-11.45805 m 19.670485,11.45805 v 22.91612 L 36.556301,290.3042 56.226786,278.84615 V 255.93003 L 36.556301,244.47198 m -78.884773,-22.91612 v 22.91612 m 39.340971,-22.91612 -19.670485,-11.45805 m -59.012501,11.45805 19.670485,-11.45805 m 0,45.83222 -19.670485,-11.45805 m 0,114.36028 19.670485,-11.45806 v -22.91611 l -19.670485,-11.23987 m 98.353472,11.23987 V 347.3742 L 36.556302,358.83226 56.226787,347.3742 V 324.45809 L 36.556302,313.21822 Z m 19.873317,-34.15598 v 22.91611 M 16.682985,278.84405 -2.9875,290.30211 v 22.91611 l 19.670485,11.23987 m -59.011456,-34.15598 v 22.91611 l 19.670485,11.23987 19.670485,-11.23987 m -39.340971,45.61404 v 22.91611 l 19.670485,11.47274 19.670485,-11.47274 V 358.83226 L -22.657987,347.3742 Z m 78.884773,0 v 22.91611 l 19.670485,11.47274 19.670485,-11.47274 V 358.83226 L 56.226786,347.3742 M -2.987501,358.83226 16.682984,347.3742 m -39.340971,-22.91611 v 22.91611 m 0,-68.53015 19.670485,11.45806 m -39.340971,22.91611 -19.670485,11.23987 m 0,22.91611 19.670485,11.45806 m -39.340971,-68.53015 19.670485,-11.45806 M 16.684028,187.1796 -2.986457,175.93973 M -61.997913,187.1796 -81.668398,175.93973 M 331.79445,-18.646881 V 4.269232 L 351.46494,15.727289 371.13542,4.269232 M 292.46707,-18.646881 V 4.269232 l 19.65585,11.458057 19.67049,-11.458057 m -19.67049,34.37417 -19.65585,11.254554 v 22.916113 l 19.65585,11.458057 19.67049,-11.458057 V 49.897956 L 312.12292,38.643402 V 15.727289 M 371.13438,49.897956 351.46389,38.643402 331.79341,49.897956 M 351.46389,38.643402 V 15.727289 m -98.33883,-34.37417 V 4.269232 L 272.79554,15.727289 292.46603,4.269232 M 213.58126,-18.646881 V 4.269232 l 19.87331,11.458057 19.67049,-11.458057 m -39.5438,45.628724 v 22.916113 l 19.87331,11.458057 19.67049,-11.458057 V 49.897956 L 233.45457,38.643402 213.58126,49.897956 193.91077,38.643402 174.24029,49.897956 m 118.22783,0 -19.67049,-11.254554 -19.67048,11.254554 M 233.45666,15.727289 v 22.916113 m 39.34098,-22.916113 v 22.916113 m 19.67048,34.170667 -19.67048,11.458057 v 22.916114 l 19.67048,11.45806 19.65585,-11.45806 V 84.272126 M 253.1261,72.814069 272.79659,84.272126 m 0,22.916114 -19.67049,11.45806 v 22.91611 l 19.67049,11.45806 19.67048,-11.45806 V 118.6463 M 213.5823,72.814069 193.91182,84.272126 v 22.916114 l 19.67048,11.45806 19.87332,-11.45806 V 84.272126 m 19.67048,57.290284 -19.67048,11.45806 v 22.91611 l 19.67048,11.23987 19.67049,-11.23987 V 153.02047 M 213.5823,118.6463 v 22.91611 l 19.87332,11.45806 M 253.1261,118.6463 233.45562,107.18824 m 98.33883,-34.37417 19.67049,11.458057 19.67048,-11.458057 m -19.67048,34.37417 -19.67049,11.45806 v 22.91611 l 19.67049,11.45806 19.67048,-11.45806 V 118.6463 L 351.46494,107.18824 V 84.272127 m -39.34097,22.916113 19.67048,11.45806 m 0,22.91611 -19.67048,11.45806 v 22.91611 l 19.67048,11.23987 19.67049,-11.23987 v -22.91611 m -39.34097,0 -19.65585,-11.45806 M 174.24028,-18.648979 V 4.267134 L 193.91077,15.725191 213.58125,4.267134 M 134.89827,-18.648979 V 4.267134 l 19.67048,11.458057 19.67049,-11.458057 m -39.34097,45.628724 v 22.916113 l 19.67048,11.458057 19.67049,-11.458057 V 49.895858 L 154.56875,38.641304 134.89827,49.895858 115.22778,38.641304 95.557297,49.895858 M 193.91077,15.725191 V 38.641304 M 154.5698,15.725191 V 38.641304 M 95.558342,-18.64898 V 4.267133 L 115.22883,15.72519 134.89931,4.267133 m -78.668347,0 L 75.901448,15.72519 95.557296,4.267133 M 56.230963,72.81197 75.901448,84.270027 95.557296,72.81197 V 49.895857 L 75.901448,38.641303 56.230963,49.895857 M 115.22883,15.72519 V 38.641303 M 75.902494,15.72519 V 38.641303 M 95.558342,72.81197 115.22883,84.270027 134.89931,72.81197 m -19.67048,11.458057 v 22.916113 l 19.67048,11.45806 19.67049,-11.45806 V 84.270027 M 115.22883,107.18614 95.558341,118.6442 v 22.91611 l 19.670489,11.45806 19.67048,-11.45806 V 118.6442 m -78.668348,0 19.670485,-11.45806 V 84.270027 m 39.326333,68.748343 v 22.91611 l 19.67048,11.23987 19.67049,-11.23987 V 153.01837 L 134.89826,141.56031 M 95.557294,118.6442 75.901446,107.18614 m 0,45.83223 19.655848,-11.45806 m 78.682986,-68.74834 19.67049,11.458057 m 0,22.916113 -19.67049,11.45806 v 22.91611 l 19.67049,11.45806 19.67048,-11.45806 m -59.01146,34.37417 19.67049,11.23987 19.67048,-11.23987 v -22.91611 m -39.34097,-45.83223 19.67049,11.45806 m -19.67049,34.37417 19.67049,-11.45806 m 0,45.61404 v 22.91611 l 19.67048,11.45806 19.67049,-11.45806 v -22.91611 l -19.67049,-11.23987 m -59.01145,11.23987 v 22.91611 l 19.67048,11.45806 19.67049,-11.45806 m -39.34097,68.74834 19.67048,11.45806 19.67049,-11.45806 v -22.91611 l -19.67049,-11.45806 -19.67048,11.45806 v 22.91611 l -19.67049,11.45806 v 22.91611 m 59.01146,-34.37417 19.67048,11.45806 19.67049,-11.45806 v -22.91611 l -19.67049,-11.45806 -19.67048,11.45806 m 19.67048,-34.37417 v 22.91611 m -39.34097,-22.91611 v 22.91611 m -39.34097,-68.53015 -19.670484,11.23987 v 22.91611 l 19.670484,11.45806 19.67049,-11.45806 M 56.230957,187.17435 v 22.91611 L 75.901442,221.54852 95.55729,210.09046 M 56.230957,278.8388 75.901442,290.29686 95.55729,278.8388 V 255.92269 L 75.901442,244.46463 56.230957,255.92269 m 78.668353,0 -19.67049,-11.45806 -19.670484,11.45806 M 75.902488,221.54852 v 22.91611 m 39.326332,-22.91611 v 22.91611 m -19.670484,79.98821 v 22.91611 l 19.670484,11.45806 19.67049,-11.45806 V 324.45284 L 115.22882,313.21297 95.558336,324.45284 75.902488,313.21297 56.232003,324.45284 m 19.670485,-34.15598 v 22.91611 m 39.326332,45.61404 v 22.91611 l 19.67049,11.47274 19.67048,-11.47274 V 358.82701 L 134.89931,347.36895 M 75.901442,358.82701 95.55729,347.36895 m 98.35347,-57.07209 v 22.91611 l 19.67049,11.23987 19.87331,-11.23987 V 290.29686 L 213.58125,278.8388 m -19.67049,34.37417 -19.67048,11.23987 v 22.91611 l 19.67048,11.45806 19.67049,-11.45806 v -22.91611 m -39.34097,0 -19.67049,-11.23987 -19.67048,11.23987 m 19.67048,-34.15598 v 22.91611 m 39.34097,45.61404 v 22.91611 l 19.67049,11.47274 19.87331,-11.47274 v -22.91611 l -19.87331,-11.45806 m -59.01146,11.45806 19.67049,-11.45806 M 95.557289,278.8388 115.22777,290.29686 M 331.79758,187.17435 v 22.91611 l 19.67048,11.45806 19.67049,-11.45806 m -39.34097,0 -19.67049,11.45806 v 22.91611 l 19.67049,11.45806 19.67048,-11.45806 v -22.91611 m -39.34097,22.91611 -19.65585,11.45806 v 22.91611 l 19.65585,11.45806 19.67049,-11.45806 v -22.91611 m 39.34097,0 -19.67049,-11.45806 m -98.33883,-57.29028 v 22.91611 l 19.67048,11.45806 19.67049,-11.45806 v -22.91611 l -19.67049,-11.23987 m -59.21428,34.15598 19.87331,11.45806 19.67049,-11.45806 m -19.67049,80.2064 19.67049,-11.45806 v -22.91611 l -19.67049,-11.45806 -19.87331,11.45806 m 78.88477,0 -19.67049,-11.45806 -19.67048,11.45806 m -19.67049,-34.37417 v 22.91611 m 39.34097,-22.91611 v 22.91611 m 19.67049,34.37417 -19.67049,11.45806 v 22.91611 l 19.67049,11.23987 19.65585,-11.23987 v -22.91611 m -39.32634,22.91611 -19.67048,11.23987 v 22.91611 l 19.67048,11.45806 19.67049,-11.45806 v -22.91611 m -19.67049,34.37417 v 22.91611 l 19.67049,11.47274 19.65585,-11.47274 V 358.82701 L 292.4702,347.36895 m -39.34097,-22.91611 -19.67049,-11.23987 m 0,45.61404 19.67049,-11.45806 m 98.33883,-34.15598 -19.67048,11.23987 v 22.91611 l 19.67048,11.45806 19.67049,-11.45806 V 324.45284 L 351.46806,313.21297 V 290.29686 L 331.79758,278.8388 m 0,45.61404 -19.67049,-11.23987 m 0,45.61404 19.67049,-11.45806 m -19.67049,34.37417 19.67049,11.47274 19.67048,-11.47274 v -22.91611 m 0,-68.53015 19.67049,-11.45806 m -118.00828,0 19.67049,11.45806 m 39.32633,-68.74834 -19.65585,-11.45806 M 95.557288,187.17435 75.90144,175.93448 m 295.23502,11.23987 -19.67049,-11.23987 m -118.00827,0 -19.87332,11.23987 m 98.54167,-11.23987 -19.65585,11.23987 M 36.567788,221.54852 56.238273,210.09046 M 331.79653,393.21167 v 22.91611 l 19.67049,11.45806 19.67048,-11.45806 m -39.34097,0 -19.67048,11.45806 v 22.91611 l 19.67048,11.23987 19.67049,-11.23987 v -22.91611 m -39.34097,22.91611 -19.65585,11.23987 v 22.91611 l 19.65585,11.45806 19.67048,-11.45806 v -22.91611 m 39.34097,0 -19.67048,-11.23987 m -58.99787,-57.29028 v 22.91611 l 19.65585,11.45806 m -19.65585,-11.45806 -19.67048,11.45806 v 22.91611 l 19.67048,11.23987 m -19.67048,-34.15598 -19.67049,-11.45806 -19.67048,11.45806 v 22.91611 l 19.67048,11.23987 19.67049,-11.23987 M 253.12818,416.12778 V 393.21167 L 233.4577,381.73892 m -19.87332,11.47275 v 22.91611 l 19.87332,11.45806 m 0,22.91611 -19.87332,11.23987 v 22.91611 l 19.87332,11.45806 19.67048,-11.45806 v -22.91611 m 0,68.74834 v 22.91611 l 19.67049,11.45806 19.67048,-11.45806 V 530.49016 L 272.79867,519.0321 253.12818,530.49016 233.4577,519.0321 213.58438,530.49016 v 22.91611 l 19.87332,11.45806 19.67048,-11.45806 m 39.34097,-68.74834 -19.67048,11.45806 V 519.0321 M 233.4577,496.11599 v 22.91611 m -19.87332,34.37417 -19.67048,11.45806 v 22.91611 l 19.67048,11.23987 19.87332,-11.23987 v -22.91611 m 39.34097,0 v 22.91611 l 19.67048,11.23987 19.65585,-11.23987 v -22.91611 l -19.65585,-11.45806 m 58.99787,-34.37417 -19.67049,11.45806 v 22.91611 l 19.67049,11.45806 19.67048,-11.45806 V 530.49016 L 351.46702,519.0321 v -22.91611 l -19.67049,-11.45806 m -19.67048,11.45806 v 22.91611 l 19.67048,11.45806 m -19.67048,34.37417 19.67048,-11.45806 m -19.67048,34.37417 19.67048,11.23987 19.67049,-11.23987 v -22.91611 m -98.33884,-80.2064 19.67049,11.45806 m 39.32633,22.91611 -19.65585,11.45806 m 58.99787,-34.37417 19.67048,-11.45806 M 193.91076,381.73892 174.24027,393.21167 v 22.91611 l 19.67049,11.45806 19.67048,-11.45806 m -78.68298,-22.91611 v 22.91611 l 19.67048,11.45806 19.67049,-11.45806 m -39.34098,0 -19.67048,11.45806 v 22.91611 l 19.67048,11.23987 19.67049,-11.23987 v -22.91611 m -39.34097,22.91611 -19.670486,11.23987 v 22.91611 l 19.670486,11.45806 19.67048,-11.45806 v -22.91611 m 78.68299,0 -19.67048,-11.23987 -19.67049,11.23987 v 22.91611 l 19.67049,11.45806 19.67048,-11.45806 m -19.67048,-57.0721 v 22.91612 m -39.34098,0 19.67049,11.23987 m -59.01146,-80.0029 -19.670481,11.47274 v 22.91612 l 19.670481,11.45805 M 56.23095,416.12778 36.560465,427.58583 v 22.91612 L 56.23095,461.74181 75.901435,450.50195 V 427.58583 L 56.23095,416.12778 v -22.91612 m 0,68.53015 v 22.91612 l 19.670485,11.45805 19.655848,-11.45805 m 0,-22.91612 -19.655848,-11.23986 m 0,-22.91612 19.655848,-11.45805 m 0,114.36028 v 22.91611 l 19.670487,11.45806 19.67048,-11.45806 V 530.48806 L 115.22777,519.03 Z M 115.22777,496.11389 V 519.03 M 75.901435,496.11389 V 519.03 l 19.655848,11.45806 M 75.901435,519.03 56.23095,530.48806 v 22.91611 l 19.670485,11.45806 19.655848,-11.45806 m -39.326333,0 -19.670485,11.45806 v 22.91611 l 19.670485,11.23987 19.670485,-11.23987 v -22.91611 m 39.326335,0 v 22.91611 l 19.67048,11.23987 19.67049,-11.23987 v -22.91611 l -19.67049,-11.45806 m 59.01146,-57.29028 V 519.03 l 19.67048,11.45806 M 193.90971,519.03 174.23922,530.48806 v 22.91611 l 19.67049,11.45806 M 174.23922,530.48806 154.56874,519.03 134.89825,530.48806 m 39.34097,-45.83223 -19.67048,11.45806 V 519.03 m 0,45.83223 19.67048,-11.45806 m -39.34097,-68.74834 19.67049,11.45806 m -19.67049,102.90432 v 22.91611 l 19.67049,11.45806 19.67048,-11.45806 v -22.91611 l -19.67048,-11.23987 m 19.67048,34.15598 19.67049,11.45806 19.67048,-11.45806 v -22.91611 m -78.68298,91.66445 19.67048,11.45806 19.67049,-11.45806 v -22.91611 l -19.67049,-11.45806 -19.67048,11.45806 z m 39.34097,0 19.67048,11.45806 19.67049,-11.45806 v -22.91611 l -19.67049,-11.45806 -19.67048,11.45806 m 19.67048,-34.37417 v 22.91611 m -39.34097,-22.91611 v 22.91611 M 56.228857,599.01821 v 22.91611 L 75.899342,633.39238 95.55519,621.93432 V 599.01821 L 75.899342,587.77834 m 19.655848,34.15598 19.67048,11.45806 19.67049,-11.45806 m -78.668349,0 -19.670485,11.45806 v 22.91611 l 19.670485,11.45806 19.670485,-11.45806 v -22.91611 m -39.340971,22.91611 -19.873317,11.45806 v 22.91611 l 19.873317,11.45806 19.670485,-11.45806 v -22.91611 m -19.670485,34.37417 v 22.91611 L 56.22781,736.31138 75.898295,725.05683 V 702.14072 L 56.22781,690.68266 m 78.66835,-22.91611 -19.67049,-11.45806 -19.670481,11.45806 v 22.91611 l 19.670481,11.45806 19.67049,-11.45806 m -19.67049,-57.29028 v 22.91611 m -39.326329,45.83223 19.655848,-11.45806 m 0,-22.91611 -19.655848,-11.45806 m 19.655848,80.00289 v 22.91612 l 19.670481,11.45805 19.67049,-11.45805 V 736.31138 L 115.22567,725.05683 95.555189,736.31138 75.899341,725.05683 m -19.670485,11.25455 v 22.91612 l 19.670485,11.45805 19.655848,-11.45805 m -19.655848,11.45805 v 22.91612 m 39.326329,-22.91612 v 22.91612 m 39.34097,-91.46095 v 22.91611 l 19.67049,11.25455 19.67048,-11.25455 v -22.91611 m -59.01145,34.17066 19.67048,-11.25455 m -19.67048,34.17067 19.67048,11.45805 19.67049,-11.45805 v -22.91612 m -19.67049,34.37417 v 22.91612 m 39.34097,0 V 770.68555 L 174.23713,759.2275 m -59.01146,-57.08679 v 22.91612 M 331.79548,599.02135 v 22.91611 l 19.67048,11.45806 19.67049,-11.45806 M 292.4681,599.02135 v 22.91611 l 19.65585,11.45806 19.67048,-11.45806 m -19.67048,34.37417 -19.65585,11.45806 v 22.91611 l 19.65585,11.45806 19.67048,-11.45806 v -22.91611 l -19.67048,-11.45806 v -22.91611 m 59.01145,34.37417 -19.67048,-11.45806 -19.67049,11.45806 m 0,22.91611 19.67049,11.45806 19.67048,-11.45806 m -19.67048,-34.37417 v -22.91611 m -78.66835,-45.61404 -19.67049,11.23987 v 22.91611 l 19.67049,11.45806 19.67048,-11.45806 m -78.88477,0 19.87332,11.45806 19.67048,-11.45806 m -39.5438,68.74834 19.87332,11.45806 19.67048,-11.45806 v -22.91611 l -19.67048,-11.45806 -19.87332,11.45806 m 78.88477,22.91611 -19.67048,11.45806 v 22.91611 l 19.67048,11.25456 19.65585,-11.25456 v -22.91611 m -19.65585,-34.37417 -19.67048,-11.45806 -19.67049,11.45806 m 19.67049,34.37417 -19.67049,-11.45806 M 233.4556,656.31163 v -22.91611 m 39.34097,0 v 22.91611 m -39.34097,45.83223 v 22.91611 l 19.67048,11.25456 19.67049,-11.25456 m -78.88477,0 19.67048,11.25456 19.87332,-11.25456 m -19.87332,11.25456 v 22.91611 l 19.87332,11.45806 19.67048,-11.45806 V 736.31453 M 233.4556,770.6887 v 22.91611 m 78.66835,0 V 770.6887 L 292.4681,759.23064 272.79761,770.6887 v 22.91611 m 0,-22.91611 -19.67048,-11.45806 m 39.34097,-22.91611 v 22.91611 m 58.99786,-34.17067 -19.67048,11.25456 v 22.91611 l 19.67048,11.45806 19.67049,-11.45806 v -22.91611 l -19.67049,-11.25456 v -22.91611 m -39.34097,22.91611 19.67049,11.25456 m 0,22.91611 -19.67049,11.45806 m 39.34097,22.91611 V 770.6887 m -157.54998,0 19.67048,-11.45806 M 115.23299,587.78463 95.562508,599.0245 m 98.353472,-11.23987 -19.67049,11.23987 m 78.88478,0 -19.67049,-11.23987 M 371.14482,599.0245 351.47433,587.78463 M -22.64546,393.219 v 22.91611 L -2.974975,427.59317 16.69551,416.13511 V 393.219 L -2.974975,381.74626 m 19.670485,34.38885 19.873317,11.45806 M -42.315946,381.74626 -61.986431,393.219 v 22.91611 l 19.670485,11.45806 19.670485,-11.45806 m 0,45.61404 -19.670485,-11.23987 -19.670485,11.23987 v 22.91611 l 19.670485,11.45806 19.670485,-11.45806 z m 0,22.91611 19.670485,11.45806 19.670485,-11.45806 v -22.91611 l -19.670485,-11.23987 -19.670485,11.23987 m 59.214287,-11.23987 -19.873317,11.23987 m -59.011456,-34.15598 v 22.91611 m 39.340971,0 v -22.91611 m -78.682987,0 19.670485,-11.45806 m 0,45.61404 -19.670485,-11.23987 m 0,114.36028 19.670485,-11.45805 v -22.91612 l -19.670485,-11.45805 m 78.682987,-22.91612 v 22.91612 l 19.670485,11.45805 19.873317,-11.45805 V 496.12122 L 16.695509,484.66317 m -59.011456,11.45805 v 22.91612 l 19.670485,11.45805 19.670485,-11.45805 m -39.340971,68.74834 19.670485,11.23986 19.670485,-11.23986 v -22.91612 l -19.670485,-11.45805 -19.670485,11.45805 v 22.91612 l -19.670485,11.23986 m 59.011456,-34.15598 19.670485,-11.45805 v -22.91612 m 0,22.91612 19.873317,11.45805 m -59.214287,-34.37417 v 22.91612 m -59.012501,-57.29029 19.670485,-11.45805 m 19.670485,34.37417 -19.670485,11.45805 m 0,22.91612 19.670485,11.45805 m 19.670485,34.15598 v 22.91612 l 19.670485,11.45805 19.670485,-11.45805 V 599.02554 L -2.976023,587.78568 m 19.670485,34.15598 19.873317,11.45805 m -59.214287,-11.45805 -19.670485,11.45805 v 22.91612 l 19.670485,11.45805 19.670485,-11.45805 v -22.91612 m -39.340971,22.91612 -19.670485,11.45805 V 690.69 l 19.670485,11.45805 19.670485,-11.45805 v -22.91612 m 0,22.91612 19.670485,11.45805 L 16.694461,690.69 m 0,-22.91612 -19.670485,-11.45805 m -78.682987,-22.91612 19.670485,-11.45805 v -22.91612 l -19.670485,-11.23986 m 0,114.36028 19.670485,-11.45806 m 0,-22.91611 -19.670485,-11.45806 m 0,114.38126 19.670485,-11.45806 v -22.91611 l -19.670485,-11.25456 m 118.227834,0 -19.873317,11.25456 v 22.91611 l 19.873317,11.45806 19.670485,-11.45806 M 16.695506,736.32082 -2.974979,725.06626 -22.645464,736.32082 v 22.91611 l 19.670485,11.45806 19.670485,-11.45806 M -42.31595,702.15015 v 22.91611 l 19.670485,11.25456 m 0,22.91611 -19.670485,11.45806 v 22.91611 m 78.884773,0 V 770.69499 M -2.974979,793.6111 v -22.91611 m 0,-45.62873 v -22.91611 m -59.011456,-80.2064 19.670485,11.45806 m 0,91.66445 -19.670485,11.25456 m 0,22.91611 19.670485,11.45806 M 36.568823,587.78358 16.695506,599.02345 M 56.239308,530.49329 36.568823,519.03524 m 0,-22.91612 19.670485,-11.45805 M 95.565641,393.2148 75.909793,381.74206 M -61.984344,393.2148 -81.654829,381.74206 m 118.227834,0 -19.873317,11.47274 M 272.8112,381.74206 253.14072,393.2148 m -98.5563,-11.47274 19.67048,11.47274 m 196.89305,0 -19.67049,-11.47274 m 19.67049,-240.18596 19.67048,11.45806 m 0,-45.83223 -19.67048,11.45806 m 0,434.77257 19.67048,11.45805 m 0,-45.83222 -19.67048,11.45805 m 19.67048,194.56563 -19.67048,11.25455 m 0,22.91612 19.67048,11.45805 m -19.67048,-423.32814 19.67048,11.45805 m 0,-45.61403 -19.67048,11.23986"
           id="radarr-honeycomb"
           inkscape:connector-curvature="0"
           style="fill:none;stroke:#989898;stroke-width:2.0228;stroke-linecap:square;stroke-miterlimit:1" />
        <g
           stroke="null"
           transform="matrix(0.78375603,0,0,0.78635018,-21.372538,-15.310311)"
           id="radarr-group-details"
           style="fill-rule:evenodd">
          <g
             stroke="null"
             id="radarr-group-shapes-l-r"
             style="fill:#f0f0f0">
            <path
               stroke="null"
               d="m 813.95741,813.17668 c 76.922,-76.922 124.5,-183.19 124.5,-300.57 0,-117.38 -47.578,-223.65 -124.5,-300.57 l -300.57,300.57 z"
               id="radarr-shape-right"
               inkscape:connector-curvature="0" />
            <path
               stroke="null"
               d="m 212.81741,212.03668 c -76.922,76.922 -124.500004,183.19 -124.500004,300.57 0,117.38 47.578004,223.64 124.500004,300.57 l 300.57,-300.57 z"
               id="radarr-shape-left"
               inkscape:connector-curvature="0" />
          </g>
          <g
             stroke="null"
             id="radarr-group-shapes-t-b"
             style="fill:#f0f0f0">
            <path
               stroke="null"
               d="m 817.28001,922.81668 c -85.035,62.871 -190.22,100.05002 -304.09,100.05002 -113.7,0 -218.74,-37.05902 -303.7,-99.75802 l 196.29,-201.4 c 32.191,16.406 68.637,25.656 107.24,25.656 38.875,0 75.562,-9.3828 107.92,-26.004 z"
               id="radarr-shape-bottom"
               inkscape:connector-curvature="0" />
            <path
               stroke="null"
               d="m 817.28001,102.40668 c -85.035,-62.874997 -190.22,-100.049997 -304.09,-100.049997 -113.7,0 -218.74,37.059 -303.7,99.757997 l 196.29,201.4 c 32.191,-16.406 68.637,-25.656 107.24,-25.656 38.875,0 75.562,9.3828 107.92,26.004 z"
               id="radarr-shape-top"
               inkscape:connector-curvature="0" />
          </g>
          <path
             stroke="null"
             d="m 838.44001,787.15668 -34.102,36.566 -214.52,-200.04 34.102,-36.57 z m -82.996,-77.395 -11.031,11.832 -131.52,-122.65 11.031,-11.832 z m -23.066,24.738 -11.031,11.832 -131.53,-122.65 11.035,-11.832 z"
             id="radarr-stick-2"
             inkscape:connector-curvature="0"
             style="fill:#ffc230" />
          <path
             stroke="null"
             d="m 189.05001,237.28668 34.102,-36.57 214.52,200.04 -34.102,36.566 z m 82.996,77.391 11.031,-11.828 131.52,122.65 -11.031,11.828 z m 23.066,-24.734 11.031,-11.832 131.53,122.65 -11.035,11.832 z"
             id="radarr-stick-1"
             inkscape:connector-curvature="0"
             style="fill:#ffc230" />
          <path
             stroke="null"
             d="m 648.51001,512.61668 c 0,74.625 -60.492,135.12 -135.12,135.12 -74.621,0 -135.12,-60.492 -135.12,-135.12 0,-74.621 60.496,-135.12 135.12,-135.12 74.625,0 135.12,60.496 135.12,135.12 z"
             id="radarr-yellow-circle"
             inkscape:connector-curvature="0"
             style="fill:#ffc230" />
        </g>
        <path
           stroke="null"
           d="M 380.99997,-15.308512 A 401.48115,402.81001 0 0 0 -20.481181,387.5015 401.48115,402.81001 0 0 0 380.99997,790.31151 401.48115,402.81001 0 0 0 782.48112,387.5015 401.48115,402.81001 0 0 0 380.99997,-15.308512 Z m 0,15.734766 A 385.79829,387.07525 0 0 1 766.79826,387.5015 385.79829,387.07525 0 0 1 380.99997,774.57675 385.79829,387.07525 0 0 1 -4.798324,387.5015 385.79829,387.07525 0 0 1 380.99997,0.426254 Z"
           id="radarr-outer-ring"
           inkscape:connector-curvature="0"
           style="fill:#ffc230;stroke-width:1.0852" />
      </g>
    </g>
  </g>
</svg>
