<?xml version="1.0" encoding="UTF-8" standalone="no"?>
<svg
   xmlns:dc="http://purl.org/dc/elements/1.1/"
   xmlns:cc="http://creativecommons.org/ns#"
   xmlns:rdf="http://www.w3.org/1999/02/22-rdf-syntax-ns#"
   xmlns:svg="http://www.w3.org/2000/svg"
   xmlns="http://www.w3.org/2000/svg"
   xmlns:xlink="http://www.w3.org/1999/xlink"
   xmlns:sodipodi="http://sodipodi.sourceforge.net/DTD/sodipodi-0.dtd"
   xmlns:inkscape="http://www.inkscape.org/namespaces/inkscape"
   viewBox="0 0 250 250"
   version="1.1"
   id="svg27"
   sodipodi:docname="icon_windows.svg"
   inkscape:version="1.0.2-2 (e86c870879, 2021-01-15)"
   width="250"
   height="250">
  <metadata
     id="metadata31">
    <rdf:RDF>
      <cc:Work
         rdf:about="">
        <dc:format>image/svg+xml</dc:format>
        <dc:type
           rdf:resource="http://purl.org/dc/dcmitype/StillImage" />
        <dc:title></dc:title>
      </cc:Work>
    </rdf:RDF>
  </metadata>
  <sodipodi:namedview
     pagecolor="#ffffff"
     bordercolor="#666666"
     borderopacity="1"
     objecttolerance="10"
     gridtolerance="10000"
     guidetolerance="10000"
     inkscape:pageopacity="0"
     inkscape:pageshadow="2"
     inkscape:window-width="1918"
     inkscape:window-height="1004"
     id="namedview29"
     showgrid="false"
     inkscape:zoom="1.8284139"
     inkscape:cx="233.22783"
     inkscape:cy="84.617791"
     inkscape:window-x="1910"
     inkscape:window-y="0"
     inkscape:window-maximized="0"
     inkscape:current-layer="g824"
     inkscape:snap-path-clip="true"
     inkscape:snap-path-mask="true"
     inkscape:snap-perpendicular="true"
     inkscape:snap-tangential="true"
     showborder="true"
     borderlayer="true"
     inkscape:pagecheckerboard="true"
     inkscape:document-rotation="0" />
  <defs
     id="defs13">
    <clipPath
       id="a"
       transform="translate(178.38 178.11)">
      <circle
         cx="489.29999"
         cy="489.29999"
         r="475.29999"
         style="fill:none"
         id="circle2" />
    </clipPath>
    <radialGradient
       id="b"
       cx="466.56"
       cy="509.06"
       r="269.37"
       gradientUnits="userSpaceOnUse">
      <stop
         offset="0"
         stop-color="#fff"
         id="stop5" />
      <stop
         offset="0.43"
         stop-color="#eaeaea"
         id="stop7" />
      <stop
         offset="1"
         stop-color="#c8c8c8"
         id="stop9" />
    </radialGradient>
    <radialGradient
       id="c"
       cx="557.79999"
       cy="414.69"
       r="215.24001"
       xlink:href="#b" />
  </defs>
  <g
     id="g824"
     transform="matrix(0.49999225,0,0,0.4999904,0,0.0048)">
    <ellipse
       style="fill:#ffffff;fill-opacity:1;fill-rule:nonzero;stroke:none;stroke-width:0;stroke-miterlimit:4;stroke-dasharray:none;stroke-opacity:1"
       id="path5119"
       cx="250.00388"
       cy="249.99519"
       rx="219.78214"
       ry="219.78499" />
    <path
       d="M 249.95733,499.99953 A 250.12766,250.05617 0 0 1 152.62102,19.669719 250.12478,250.05331 0 0 1 347.29365,480.35489 248.5025,248.43148 0 0 1 249.95733,499.99953 Z m 0,-485.673963 A 235.81799,235.7506 0 0 0 158.19669,467.17842 235.81475,235.74736 0 0 0 341.72309,32.846178 234.26948,234.20255 0 0 0 249.95733,14.325567 Z"
       style="fill:#1296db;stroke-width:0.510986;fill-opacity:1"
       id="path21"
       inkscape:connector-curvature="0" />
    <path
       d="M 342.16346,243.10508 H 236.62742 v -78.4241 l 105.396,-15.29269 z m 0,106.65679 L 236.62742,334.5812 V 255.821 h 105.45202 l 0.084,93.96888 z M 223.99559,241.31253 h -79.82425 v -64.69988 l 79.93628,-10.86734 -0.14004,75.56722 z m 0,91.78421 -79.82425,-11.00737 v -66.32439 h 79.82425 v 77.30375 z M 408.43159,91.606527 A 223.6199,223.62073 0 0 0 250.01549,25.926333 223.6199,223.62073 0 0 0 91.599385,91.578517 a 223.95601,223.95684 0 0 0 0,316.833373 223.6199,223.62073 0 0 0 158.416105,65.65218 223.6199,223.62073 0 0 0 158.4161,-65.65218 224.01202,224.01285 0 0 0 0,-316.833373 z"
       p-id="90642"
       fill="#1296db"
       id="path6"
       style="stroke-width:0.437634" />
  </g>
</svg>
