<?xml version="1.0" encoding="UTF-8" standalone="no"?>
<svg
   xmlns:dc="http://purl.org/dc/elements/1.1/"
   xmlns:cc="http://creativecommons.org/ns#"
   xmlns:rdf="http://www.w3.org/1999/02/22-rdf-syntax-ns#"
   xmlns:svg="http://www.w3.org/2000/svg"
   xmlns="http://www.w3.org/2000/svg"
   xmlns:xlink="http://www.w3.org/1999/xlink"
   xmlns:sodipodi="http://sodipodi.sourceforge.net/DTD/sodipodi-0.dtd"
   xmlns:inkscape="http://www.inkscape.org/namespaces/inkscape"
   viewBox="0 0 250 250"
   version="1.1"
   id="svg27"
   sodipodi:docname="icon_backup.svg"
   inkscape:version="1.0.2-2 (e86c870879, 2021-01-15)"
   width="250"
   height="250">
  <metadata
     id="metadata31">
    <rdf:RDF>
      <cc:Work
         rdf:about="">
        <dc:format>image/svg+xml</dc:format>
        <dc:type
           rdf:resource="http://purl.org/dc/dcmitype/StillImage" />
        <dc:title />
      </cc:Work>
    </rdf:RDF>
  </metadata>
  <sodipodi:namedview
     pagecolor="#ffffff"
     bordercolor="#666666"
     borderopacity="1"
     objecttolerance="10"
     gridtolerance="10000"
     guidetolerance="10000"
     inkscape:pageopacity="0"
     inkscape:pageshadow="2"
     inkscape:window-width="1904"
     inkscape:window-height="1004"
     id="namedview29"
     showgrid="false"
     inkscape:zoom="1.2928839"
     inkscape:cx="170.32577"
     inkscape:cy="73.640865"
     inkscape:window-x="0"
     inkscape:window-y="0"
     inkscape:window-maximized="0"
     inkscape:current-layer="g824"
     inkscape:snap-path-clip="true"
     inkscape:snap-path-mask="true"
     inkscape:snap-perpendicular="true"
     inkscape:snap-tangential="true"
     showborder="true"
     borderlayer="true"
     inkscape:pagecheckerboard="true"
     inkscape:document-rotation="0" />
  <defs
     id="defs13">
    <clipPath
       id="a"
       transform="translate(178.38 178.11)">
      <circle
         cx="489.29999"
         cy="489.29999"
         r="475.29999"
         style="fill:none"
         id="circle2" />
    </clipPath>
    <radialGradient
       id="b"
       cx="466.56"
       cy="509.06"
       r="269.37"
       gradientUnits="userSpaceOnUse">
      <stop
         offset="0"
         stop-color="#fff"
         id="stop5" />
      <stop
         offset="0.43"
         stop-color="#eaeaea"
         id="stop7" />
      <stop
         offset="1"
         stop-color="#c8c8c8"
         id="stop9" />
    </radialGradient>
    <radialGradient
       id="c"
       cx="557.79999"
       cy="414.69"
       r="215.24001"
       xlink:href="#b" />
    <clipPath
       id="a-0">
      <circle
         id="svg_1"
         stroke-width="3.5906"
         fill="#989898"
         r="375"
         cy="384"
         cx="384" />
    </clipPath>
  </defs>
  <g
     id="g824"
     transform="matrix(0.49999225,0,0,0.4999904,0,0.0048)">
    <ellipse
       style="fill:#808080;fill-opacity:1;fill-rule:nonzero;stroke:none;stroke-width:0;stroke-miterlimit:4;stroke-dasharray:none;stroke-opacity:1"
       id="path5119"
       cx="250.00388"
       cy="249.99519"
       rx="219.78214"
       ry="219.78499" />
    <path
       d="M 249.95733,499.99953 A 250.12766,250.05617 0 0 1 152.62102,19.669719 250.12478,250.05331 0 0 1 347.29365,480.35489 248.5025,248.43148 0 0 1 249.95733,499.99953 Z m 0,-485.673963 A 235.81799,235.7506 0 0 0 158.19669,467.17842 235.81475,235.74736 0 0 0 341.72309,32.846178 234.26948,234.20255 0 0 0 249.95733,14.325567 Z"
       style="fill:#32dbb2;stroke-width:0.510986;fill-opacity:1"
       id="path21"
       inkscape:connector-curvature="0" />
    <g
       id="g841"
       transform="matrix(0.24906725,0,0,0.24906817,48.138378,105.56528)">
      <g
         id="g847"
         transform="translate(299.54293,-229.71131)">
        <path
           d="M 612.929,910.946 H 188.957 c -38.598,0 -70,-31.401 -70,-70 V 281.984 c 0,-38.598 31.402,-70 70,-70 h 423.972 c 38.598,0 70,31.402 70,70 v 31.491 c 0,11.046 -8.954,20 -20,20 -11.046,0 -20,-8.954 -20,-20 v -31.491 c 0,-16.542 -13.458,-30 -30,-30 H 188.957 c -16.542,0 -30,13.458 -30,30 v 558.962 c 0,16.542 13.458,30 30,30 h 423.972 c 16.542,0 30,-13.458 30,-30 V 656.969 c 0,-11.046 8.954,-20 20,-20 11.046,0 20,8.954 20,20 v 183.978 c 0,38.598 -31.403,69.999 -70,69.999 z"
           fill="#808080"
           p-id="7889"
           id="path6-7"
           style="fill:#ffffff" />
        <path
           d="m 832.929,810.946 h -170 v -40 h 170 c 16.542,0 30,-13.458 30,-30 V 181.984 c 0,-16.542 -13.458,-30 -30,-30 H 408.957 c -16.542,0 -30,13.458 -30,30 v 42.995 h -40 v -42.995 c 0,-38.598 31.402,-70 70,-70 h 423.972 c 38.598,0 70,31.402 70,70 v 558.962 c 0,38.599 -31.403,70 -70,70 z"
           fill="#808080"
           p-id="7890"
           id="path8-5"
           style="fill:#ffffff" />
        <path
           d="M 550.517,748.249 A 24.639,24.639 0 0 1 533.891,742.09 L 355.313,582.603 c -10.053,-9.166 -10.772,-24.742 -1.607,-34.798 a 24.393,24.393 0 0 1 2.224,-2.149 L 534.506,392.942 c 10.341,-8.842 25.889,-7.631 34.729,2.706 a 24.621,24.621 0 0 1 5.913,15.768 v 78.82 a 225.99,225.99 0 0 0 148.402,-78.82 l 57.884,-68.352 c 8.474,-10.642 23.969,-12.4 34.614,-3.925 a 24.636,24.636 0 0 1 8.491,25.478 l -16.011,67.119 C 782.99,543.094 688.9,625.52 575.147,636.176 v 87.44 c 10e-4,13.603 -11.028,24.633 -24.63,24.633 z"
           fill="#33deb4"
           opacity="0.4"
           p-id="7891"
           id="path10" />
        <path
           d="m 488.449,712.156 a 24.64,24.64 0 0 1 -16.626,-6.159 L 293.246,546.51 c -10.052,-9.167 -10.771,-24.742 -1.607,-34.799 a 24.106,24.106 0 0 1 2.223,-2.148 L 472.439,356.848 c 10.339,-8.842 25.887,-7.631 34.729,2.707 a 24.62,24.62 0 0 1 5.912,15.767 v 78.821 a 225.991,225.991 0 0 0 148.403,-78.821 l 57.884,-68.352 c 8.473,-10.642 23.969,-12.4 34.614,-3.925 a 24.636,24.636 0 0 1 8.491,25.478 L 746.46,395.642 C 720.923,507 626.834,589.425 513.08,600.08 v 87.441 c 0,13.605 -11.029,24.635 -24.631,24.635 z M 347.435,528.652 463.818,632.718 v -56.036 c 0,-13.603 11.029,-24.631 24.631,-24.631 88.672,0 165.646,-52.343 198.897,-131.778 a 275.251,275.251 0 0 1 -198.897,84.362 c -13.603,0 -24.631,-11.028 -24.631,-24.632 v -51.109 z"
           fill="#33deb4"
           p-id="7892"
           id="path12" />
      </g>
    </g>
    <text
       xml:space="preserve"
       style="font-style:normal;font-variant:normal;font-weight:bold;font-stretch:normal;font-size:80.0014px;line-height:1.25;font-family:sans-serif;-inkscape-font-specification:'sans-serif, Bold';font-variant-ligatures:normal;font-variant-caps:normal;font-variant-numeric:normal;font-variant-east-asian:normal;fill:#ffffff;fill-opacity:1;stroke:none;stroke-width:2.00003"
       x="170.04153"
       y="366.98953"
       id="text846"><tspan
         sodipodi:role="line"
         id="tspan844"
         x="170.04153"
         y="366.98953"
         style="font-style:normal;font-variant:normal;font-weight:bold;font-stretch:normal;font-size:80.0014px;font-family:sans-serif;-inkscape-font-specification:'sans-serif, Bold';font-variant-ligatures:normal;font-variant-caps:normal;font-variant-numeric:normal;font-variant-east-asian:normal;fill:#ffffff;stroke-width:2.00003">备份</tspan></text>
  </g>
</svg>
