<?xml version="1.0" encoding="UTF-8" standalone="no"?>
<svg
   xmlns:dc="http://purl.org/dc/elements/1.1/"
   xmlns:cc="http://creativecommons.org/ns#"
   xmlns:rdf="http://www.w3.org/1999/02/22-rdf-syntax-ns#"
   xmlns:svg="http://www.w3.org/2000/svg"
   xmlns="http://www.w3.org/2000/svg"
   xmlns:xlink="http://www.w3.org/1999/xlink"
   xmlns:sodipodi="http://sodipodi.sourceforge.net/DTD/sodipodi-0.dtd"
   xmlns:inkscape="http://www.inkscape.org/namespaces/inkscape"
   viewBox="0 0 250 250"
   version="1.1"
   id="svg27"
   sodipodi:docname="icon_esxi2.svg"
   inkscape:version="0.92.4 (5da689c313, 2019-01-14)"
   width="250"
   height="250">
  <metadata
     id="metadata31">
    <rdf:RDF>
      <cc:Work
         rdf:about="">
        <dc:format>image/svg+xml</dc:format>
        <dc:type
           rdf:resource="http://purl.org/dc/dcmitype/StillImage" />
        <dc:title></dc:title>
      </cc:Work>
    </rdf:RDF>
  </metadata>
  <sodipodi:namedview
     pagecolor="#ffffff"
     bordercolor="#666666"
     borderopacity="1"
     objecttolerance="10"
     gridtolerance="10000"
     guidetolerance="10000"
     inkscape:pageopacity="0"
     inkscape:pageshadow="2"
     inkscape:window-width="1858"
     inkscape:window-height="1057"
     id="namedview29"
     showgrid="false"
     inkscape:zoom="1.8284139"
     inkscape:cx="121.98461"
     inkscape:cy="129.84871"
     inkscape:window-x="-6"
     inkscape:window-y="-8"
     inkscape:window-maximized="1"
     inkscape:current-layer="g830"
     inkscape:snap-path-clip="true"
     inkscape:snap-path-mask="true"
     inkscape:snap-perpendicular="true"
     inkscape:snap-tangential="true"
     showborder="true"
     borderlayer="true"
     inkscape:pagecheckerboard="true" />
  <defs
     id="defs13">
    <clipPath
       id="a"
       transform="translate(178.38 178.11)">
      <circle
         cx="489.29999"
         cy="489.29999"
         r="475.29999"
         style="fill:none"
         id="circle2" />
    </clipPath>
    <radialGradient
       id="b"
       cx="466.56"
       cy="509.06"
       r="269.37"
       gradientUnits="userSpaceOnUse">
      <stop
         offset="0"
         stop-color="#fff"
         id="stop5" />
      <stop
         offset="0.43"
         stop-color="#eaeaea"
         id="stop7" />
      <stop
         offset="1"
         stop-color="#c8c8c8"
         id="stop9" />
    </radialGradient>
    <radialGradient
       id="c"
       cx="557.79999"
       cy="414.69"
       r="215.24001"
       xlink:href="#b" />
  </defs>
  <g
     id="g830"
     transform="translate(5.5283648e-6,-250)">
    <path
       inkscape:connector-curvature="0"
       id="path21"
       style="fill:#1296db;fill-opacity:1;stroke-width:0.25548783"
       d="m 124.97672,499.99977 a 125.06189,125.02496 0 0 1 -48.667401,-240.1589 125.06045,125.02353 0 0 1 97.334811,230.33682 124.24932,124.21263 0 0 1 -48.66741,9.82208 z m 0,-242.83091 A 117.90717,117.87235 0 0 0 79.097111,483.58962 117.90555,117.87073 0 0 0 170.85889,266.42893 117.13292,117.09835 0 0 0 124.97672,257.16886 Z" />
    <g
       id="g950"
       transform="matrix(1.2468963,0,0,1.2468963,-321.00209,-106.59931)">
      <path
         id="path6-9"
         p-id="21022"
         d="m 356.95464,387.00778 h -7.29688 v 7.26172 a 4.3652344,4.3652344 0 0 0 4.36328,4.36523 h 7.29688 v -7.26172 a 4.3652344,4.3652344 0 0 0 -4.36328,-4.36523 z"
         style="fill:#1296db;stroke-width:0.1953125"
         inkscape:connector-curvature="0" />
      <path
         id="path8"
         p-id="21023"
         d="m 344.41948,394.2695 v -7.26172 h -7.26172 a 4.3652344,4.3652344 0 0 0 -4.36523,4.36523 v 19.79688 a 4.3652344,4.3652344 0 0 0 4.36523,4.36719 h 19.79688 a 4.3652344,4.3652344 0 0 0 4.36328,-4.36524 v -7.29883 h -7.29688 a 9.5976563,9.5976563 0 0 1 -9.60156,-9.60351 z m 29.39844,-24.16016 h -19.79688 a 4.3652344,4.3652344 0 0 0 -4.36328,4.36328 v 7.29883 h 7.29688 a 9.6171875,9.6171875 0 0 1 9.60156,9.60156 v 7.26172 h 7.26172 a 4.3652344,4.3652344 0 0 0 4.36523,-4.36523 v -19.79688 a 4.3652344,4.3652344 0 0 0 -4.36523,-4.36328 z"
         style="fill:#1296db;stroke-width:0.1953125"
         inkscape:connector-curvature="0" />
      <path
         id="path10"
         p-id="21024"
         d="m 392.84331,368.15231 a 7.0625,7.0625 0 0 1 -5.79492,-4.67774 31.007812,31.007812 0 0 0 -29.36133,-20.8789 30.341797,30.341797 0 0 0 -10.0918,1.71094 c -9.11132,3.10742 -16.16601,10.08984 -19.27148,19.16796 a 7.0644531,7.0644531 0 0 1 -5.79297,4.67774 31.013672,31.013672 0 0 0 -27.24023,34.39258 c 1.85156,15.46875 15.05078,27.20117 30.6914,27.30468 h 63.44531 a 30.994141,30.994141 0 0 0 30.85938,-31.17968 c -0.0996,-15.57227 -11.90039,-28.70117 -27.44336,-30.51758 z m -9.42187,26.11719 a 9.5976563,9.5976563 0 0 1 -9.60352,9.60351 h -7.26172 v 7.29688 a 9.640625,9.640625 0 0 1 -9.60156,9.60156 h -19.79688 a 9.6191406,9.6191406 0 0 1 -9.60351,-9.60156 v -19.79688 a 9.5976563,9.5976563 0 0 1 9.60351,-9.60156 h 7.26172 v -7.29883 a 9.6191406,9.6191406 0 0 1 9.60156,-9.60156 h 19.79688 a 9.6191406,9.6191406 0 0 1 9.60352,9.60156 z"
         style="fill:#1296db;stroke-width:0.1953125"
         inkscape:connector-curvature="0" />
      <path
         id="path12"
         p-id="21025"
         d="m 357.68706,298.7402 c -48.32422,0 -87.5,39.17578 -87.5,87.5 0,48.32422 39.17578,87.5 87.5,87.5 48.32422,0 87.5,-39.17578 87.5,-87.5 0,-48.32422 -39.17578,-87.5 -87.5,-87.5 z m 31.74023,138.08594 h -63.47656 c -19.20508,-0.0977 -35.33789,-14.45313 -37.59961,-33.44336 -2.47851,-20.84375 12.46485,-39.69922 33.38086,-42.17774 a 38.048828,38.048828 0 0 1 35.95508,-25.59375 c 15.78125,0 30.55078,9.88282 35.96484,25.58594 19.09766,2.23438 33.48438,18.29492 33.62305,37.42969 0.13867,20.95703 -16.79492,38.0664 -37.84766,38.19922 z"
         style="fill:#1296db;stroke-width:0.1953125"
         inkscape:connector-curvature="0" />
    </g>
  </g>
</svg>
