<?xml version="1.0" encoding="UTF-8" standalone="no"?>
<svg
   xmlns:dc="http://purl.org/dc/elements/1.1/"
   xmlns:cc="http://creativecommons.org/ns#"
   xmlns:rdf="http://www.w3.org/1999/02/22-rdf-syntax-ns#"
   xmlns:svg="http://www.w3.org/2000/svg"
   xmlns="http://www.w3.org/2000/svg"
   xmlns:xlink="http://www.w3.org/1999/xlink"
   xmlns:sodipodi="http://sodipodi.sourceforge.net/DTD/sodipodi-0.dtd"
   xmlns:inkscape="http://www.inkscape.org/namespaces/inkscape"
   viewBox="0 0 250 250"
   version="1.1"
   id="svg27"
   sodipodi:docname="icon_openwrt.svg"
   inkscape:version="0.92.4 (5da689c313, 2019-01-14)"
   width="250"
   height="250">
  <metadata
     id="metadata31">
    <rdf:RDF>
      <cc:Work
         rdf:about="">
        <dc:format>image/svg+xml</dc:format>
        <dc:type
           rdf:resource="http://purl.org/dc/dcmitype/StillImage" />
        <dc:title></dc:title>
      </cc:Work>
    </rdf:RDF>
  </metadata>
  <sodipodi:namedview
     pagecolor="#ffffff"
     bordercolor="#666666"
     borderopacity="1"
     objecttolerance="10"
     gridtolerance="10000"
     guidetolerance="10000"
     inkscape:pageopacity="0"
     inkscape:pageshadow="2"
     inkscape:window-width="1920"
     inkscape:window-height="1026"
     id="namedview29"
     showgrid="false"
     inkscape:zoom="1.2928839"
     inkscape:cx="206.21743"
     inkscape:cy="109.2758"
     inkscape:window-x="-8"
     inkscape:window-y="1072"
     inkscape:window-maximized="1"
     inkscape:current-layer="svg27"
     inkscape:snap-path-clip="true"
     inkscape:snap-path-mask="true"
     inkscape:snap-perpendicular="true"
     inkscape:snap-tangential="true"
     showborder="true"
     borderlayer="true"
     inkscape:pagecheckerboard="true" />
  <defs
     id="defs13">
    <clipPath
       id="a"
       transform="translate(178.38 178.11)">
      <circle
         cx="489.29999"
         cy="489.29999"
         r="475.29999"
         style="fill:none"
         id="circle2" />
    </clipPath>
    <radialGradient
       id="b"
       cx="466.56"
       cy="509.06"
       r="269.37"
       gradientUnits="userSpaceOnUse">
      <stop
         offset="0"
         stop-color="#fff"
         id="stop5" />
      <stop
         offset="0.43"
         stop-color="#eaeaea"
         id="stop7" />
      <stop
         offset="1"
         stop-color="#c8c8c8"
         id="stop9" />
    </radialGradient>
    <radialGradient
       id="c"
       cx="557.79999"
       cy="414.69"
       r="215.24001"
       xlink:href="#b" />
  </defs>
  <ellipse
     style="opacity:1;fill:#364e59;fill-opacity:1;fill-rule:nonzero;stroke:none;stroke-width:0;stroke-miterlimit:4;stroke-dasharray:none;stroke-opacity:1"
     id="path5119"
     cx="125.00389"
     cy="124.99835"
     rx="109.88937"
     ry="109.89038" />
  <path
     d="M 124.97673,249.99976 A 125.06189,125.02568 0 0 1 76.309325,9.83947 a 125.06045,125.02425 0 0 1 97.334805,230.33816 124.24932,124.21336 0 0 1 -48.6674,9.82213 z m 0,-242.8323147 A 117.90717,117.87304 0 0 0 79.097117,233.58952 117.90555,117.87142 0 0 0 170.85889,16.427573 117.13292,117.09903 0 0 0 124.97673,7.1674453 Z"
     style="fill:#364e59;fill-opacity:1;stroke-width:0.25548857"
     id="path21"
     inkscape:connector-curvature="0" />
  <g
     id="g827"
     transform="matrix(0.00598022,0,0,0.00598022,-122.59622,-214.50956)">
    <g
       id="g954"
       transform="matrix(0.83538067,0,0,0.83538067,23686.892,53592.738)">
      <path
         style="fill:#ffffff;stroke-width:1.23291719"
         inkscape:connector-curvature="0"
         d="m 33177.835,12683.164 c 0,77.674 9.863,188.636 61.645,251.515 36.987,43.152 78.907,65.344 135.621,65.344 56.715,0 99.867,-19.726 135.621,-62.879 51.783,-61.646 60.413,-182.471 60.413,-258.912 0,-76.442 -8.63,-182.472 -61.645,-244.118 -35.755,-41.92 -75.209,-62.878 -130.69,-62.878 -57.947,0 -102.333,20.958 -139.32,65.344 -51.782,61.646 -61.645,168.91 -61.645,246.584 z m -1931.982,-8.631 c 0,-67.811 -8.63,-160.28 -54.248,-214.527 -33.289,-38.221 -70.276,-55.482 -120.826,-55.482 -41.919,0 -70.277,17.261 -96.167,49.317 -43.152,53.015 -49.317,170.143 -49.317,234.254 0,65.344 7.397,168.91 51.782,221.925 27.125,33.289 57.947,51.782 101.099,51.782 48.085,0 83.839,-18.493 114.662,-54.248 45.618,-54.248 53.015,-166.443 53.015,-233.021 z m -2187.195,-247.817 c -9.863,-27.124 -23.425,-53.015 -40.686,-70.275 -35.755,-35.755 -81.373,-45.619 -130.689,-45.619 -64.112,0 -110.963,23.425 -150.416,75.209 -8.63,12.328 -16.028,25.89 -23.425,41.918 h 345.216 z m -2248.841,0 c -9.863,-27.124 -23.425,-53.015 -40.687,-70.275 -35.754,-35.755 -81.372,-45.619 -130.689,-45.619 -64.111,0 -110.962,23.425 -150.416,75.209 -8.63,12.328 -16.027,25.89 -23.425,41.918 h 345.217 z m -11034.609,0 c -9.863,-27.124 -23.425,-53.015 -40.687,-70.275 -35.754,-35.755 -81.372,-45.619 -130.689,-45.619 -64.112,0 -110.962,23.425 -150.416,75.209 -8.63,12.328 -16.028,25.89 -23.425,41.918 h 345.217 z m -3446.003,0 c -9.864,-27.124 -23.427,-53.015 -40.687,-70.275 -35.755,-35.755 -81.372,-45.619 -130.689,-45.619 -64.112,0 -110.962,23.425 -150.416,75.209 -8.631,12.328 -16.028,25.89 -23.425,41.918 h 345.217 z m 23135.692,-578.238 c 29.589,-20.959 61.645,-39.453 93.7,-55.481 112.196,-54.248 236.721,-73.975 360.012,-73.975 125.758,0 258.913,19.727 367.41,85.071 56.714,34.522 104.798,76.442 145.484,125.757 61.646,-56.713 130.689,-108.496 203.432,-143.017 108.497,-50.55 229.322,-67.811 347.682,-67.811 186.17,0 360.012,53.016 490.702,189.87 140.552,149.182 177.539,364.943 177.539,562.209 v 1133.051 h -850.713 v -1039.349 c 0,-23.425 -2.466,-75.208 -18.493,-94.935 l -2.466,-4.93 c -17.261,-23.427 -35.754,-39.454 -65.345,-39.454 -38.22,0 -67.81,11.096 -92.468,40.686 -35.755,41.92 -40.687,133.155 -40.687,184.937 v 953.045 h -850.713 v -1006.06 c 0,-25.892 0,-86.304 -7.397,-110.962 -6.165,-18.494 -16.028,-33.289 -30.823,-44.386 -13.562,-11.096 -29.59,-14.795 -48.084,-14.795 -38.22,0 -67.81,12.33 -92.469,41.919 -36.988,43.153 -43.152,140.554 -43.152,194.801 v 940.716 h -850.712 v -1846.909 h 807.561 z m -3137.775,835.918 c 0,-268.775 90.002,-505.496 286.037,-694.132 207.129,-198.5 474.672,-271.242 758.244,-271.242 311.928,0 612.759,81.373 824.821,320.559 159.047,180.006 229.323,396.999 229.323,634.952 0,268.776 -87.538,506.729 -283.571,695.365 -208.364,200.966 -484.537,271.242 -768.108,271.242 -256.447,0 -506.728,-59.18 -707.694,-224.391 -228.09,-188.636 -339.052,-437.685 -339.052,-732.353 z m -1039.35,834.686 c -19.727,14.795 -40.686,27.123 -60.412,38.22 -109.73,57.947 -230.556,83.838 -353.847,83.838 -250.283,0 -458.646,-94.935 -601.665,-300.831 -140.552,-200.966 -196.033,-435.221 -196.033,-676.872 0,-247.816 51.782,-504.264 223.158,-692.9 152.881,-168.909 348.915,-251.515 577.005,-251.515 106.031,0 209.596,17.261 308.23,56.714 19.726,8.63 38.22,17.261 57.947,27.125 v -662.077 h 856.877 v 2463.368 h -810.027 v -85.07 z m -2571.865,-573.307 c 7.398,14.795 14.795,28.357 24.658,39.454 41.919,46.85 90.004,66.577 152.883,66.577 43.151,0 83.837,-9.864 120.825,-30.823 27.124,-14.796 57.947,-49.317 76.441,-73.976 l 1.233,-1.232 z m 909.893,0 355.08,32.056 -87.537,150.415 c -93.702,161.513 -218.226,304.532 -385.903,393.301 -183.705,97.4 -422.891,119.593 -627.554,119.593 -184.938,0 -393.302,-20.959 -560.978,-102.332 -150.416,-73.975 -267.543,-188.637 -355.08,-330.422 -98.634,-159.047 -139.321,-339.052 -139.321,-525.222 0,-268.776 83.839,-509.196 279.873,-696.599 205.898,-197.267 475.906,-266.31 755.779,-266.31 200.965,0 425.356,24.659 605.362,118.36 155.347,81.373 274.941,198.499 357.546,352.615 92.469,173.841 119.593,379.738 119.593,574.539 v 181.238 h -316.86 z m -3158.734,0 c 7.398,14.795 14.796,28.357 24.659,39.454 40.686,46.85 90.002,66.577 152.881,66.577 43.152,0 83.839,-9.864 120.826,-30.823 27.125,-14.796 57.947,-49.317 76.44,-73.976 l 1.234,-1.232 z m 909.892,0 355.082,32.056 -87.537,150.415 c -93.702,161.513 -218.228,304.532 -385.904,393.301 -183.704,97.4 -422.89,119.593 -627.555,119.593 -184.937,0 -393.3,-20.959 -560.977,-102.332 -150.416,-73.975 -267.544,-188.637 -355.081,-330.422 -98.632,-159.047 -138.086,-339.052 -138.086,-525.222 0,-268.776 83.838,-509.196 279.872,-696.599 205.897,-197.267 475.906,-266.31 755.779,-266.31 200.964,0 425.356,24.659 605.361,118.36 155.348,81.373 274.942,198.499 357.547,352.615 92.469,173.841 119.593,379.738 119.593,574.539 v 181.238 h -318.094 z m -2500.355,-1142.914 c 83.838,-60.414 182.472,-83.839 286.037,-83.839 124.524,0 246.583,41.919 356.313,98.634 l 91.236,48.084 -279.873,636.185 -101.099,-41.919 c -34.522,-14.795 -94.934,-36.988 -133.154,-36.988 -44.386,0 -73.976,16.028 -98.634,51.782 -70.277,104.798 -77.674,350.148 -77.674,470.975 v 657.144 h -853.179 v -1846.91 h 810.027 z m -1991.161,40.685 v 170.143 h 876.604 v 675.639 h -875.371 v 914.824 h -924.688 v -2464.601 h 1946.776 v 703.995 z m -2973.797,478.373 c -4.932,-8.63 -11.096,-17.262 -19.726,-23.426 -33.29,-22.193 -75.208,-29.59 -115.895,-29.59 -17.26,0 -65.344,2.466 -82.606,12.329 49.317,20.96 167.678,35.755 218.227,40.687 z m 82.605,713.859 c -2.465,-2.466 -7.397,-4.932 -9.862,-6.165 -45.619,-22.192 -184.938,-44.384 -236.721,-53.016 -23.425,-3.698 -46.851,-7.397 -71.509,-12.328 12.329,32.055 32.056,67.81 59.18,86.304 33.289,22.193 82.606,28.357 122.059,28.357 39.454,0 93.701,-4.932 125.758,-29.591 l 3.698,-2.465 c 1.233,-2.466 4.932,-6.165 7.397,-11.096 z m -639.883,-143.018 c -28.357,-8.631 -54.249,-17.262 -80.14,-27.125 -107.263,-40.687 -194.801,-109.729 -262.611,-199.733 -73.975,-97.4 -108.497,-208.362 -108.497,-329.188 0,-128.224 36.987,-245.351 118.359,-346.45 80.141,-99.866 187.404,-167.676 309.463,-209.596 147.95,-51.782 321.792,-64.112 478.373,-64.112 144.25,0 326.722,4.932 464.809,49.317 104.797,33.288 199.733,87.537 277.406,165.211 81.373,81.373 138.086,184.937 178.773,290.968 l 53.015,135.622 -438.917,41.918 c 23.425,7.398 45.617,16.029 67.81,24.659 113.428,46.85 212.061,117.127 282.337,218.226 66.578,94.934 101.1,202.198 101.1,318.093 0,120.826 -38.22,233.021 -103.565,334.12 -76.441,118.361 -191.103,198.5 -318.093,253.982 -165.211,70.275 -366.176,87.537 -544.95,87.537 -219.458,0 -511.66,-20.96 -700.297,-146.718 -154.114,-102.332 -249.048,-249.049 -289.735,-427.822 l -28.357,-123.292 z m -1515.255,-570.841 c -4.932,-8.63 -12.33,-17.262 -19.727,-23.426 -33.29,-22.193 -75.208,-29.59 -115.895,-29.59 -17.26,0 -65.344,2.466 -82.606,12.329 49.317,20.96 168.911,35.755 218.228,40.687 z m 82.605,713.859 c -2.466,-2.466 -7.398,-4.932 -9.863,-6.165 -45.619,-22.192 -184.938,-44.384 -236.721,-53.016 -23.425,-3.698 -46.851,-7.397 -71.509,-12.328 12.33,32.055 32.056,67.81 59.18,86.304 33.289,22.193 82.606,28.357 122.059,28.357 39.454,0 93.701,-4.932 125.758,-29.591 l 3.698,-2.465 c 2.466,-2.466 6.165,-6.165 7.398,-11.096 z m -639.884,-143.018 c -28.357,-8.631 -54.249,-17.262 -80.14,-27.125 -107.263,-40.687 -194.801,-109.729 -262.611,-199.733 -73.975,-97.4 -109.73,-208.362 -109.73,-329.188 0,-128.224 36.988,-245.351 118.36,-346.45 80.139,-99.866 187.403,-167.676 308.23,-209.596 147.949,-51.782 321.79,-64.112 478.371,-64.112 144.251,0 326.723,4.932 464.811,49.317 104.797,33.288 199.732,87.537 277.406,165.211 81.372,81.373 138.086,184.937 178.773,290.968 l 51.782,135.622 -438.919,41.918 c 23.426,7.398 46.852,16.029 67.81,24.659 113.429,46.85 212.063,117.127 282.339,218.226 66.578,94.934 101.1,202.198 101.1,318.093 0,120.826 -38.222,233.021 -102.333,334.12 -76.441,118.361 -191.102,198.5 -318.093,253.982 -165.211,70.275 -367.409,87.537 -544.949,87.537 -219.459,0 -512.893,-20.96 -700.297,-146.718 -154.114,-102.332 -249.05,-249.049 -289.735,-427.822 l -28.358,-123.292 z m -1849.377,53.015 c 7.398,14.795 14.795,28.357 24.659,39.454 40.686,46.85 90.003,66.577 152.882,66.577 43.152,0 83.839,-9.864 122.059,-30.823 27.124,-14.796 57.947,-49.317 76.44,-73.976 l 1.234,-1.232 z m 909.893,0 355.081,32.056 -87.538,150.415 c -93.701,161.513 -218.226,304.532 -385.902,393.301 -183.705,97.4 -421.658,119.593 -627.555,119.593 -184.937,0 -392.068,-20.959 -560.978,-102.332 -150.415,-73.975 -267.543,-188.637 -355.08,-330.422 -98.633,-159.047 -138.087,-339.052 -138.087,-525.222 0,-268.776 83.839,-509.196 279.873,-696.599 205.897,-197.267 475.906,-266.31 755.779,-266.31 200.964,0 425.355,24.659 605.361,118.36 155.348,81.373 274.941,198.499 357.547,352.615 92.469,173.841 118.359,379.738 118.359,574.539 v 181.238 h -316.86 z m -2896.122,-1806.224 h 850.713 v 2463.368 h -850.713 z m -1459.774,1806.224 c 7.397,14.795 14.795,28.357 24.659,39.454 41.918,46.85 90.002,66.577 152.881,66.577 43.153,0 83.838,-9.864 122.059,-30.823 27.124,-14.796 57.947,-49.317 76.441,-73.976 l 1.232,-1.232 z m 909.893,0 355.08,32.056 -87.537,150.415 c -93.702,161.513 -218.226,304.532 -385.903,393.301 -183.705,97.4 -421.658,119.593 -627.555,119.593 -184.938,0 -393.301,-20.959 -560.977,-102.332 -150.416,-73.975 -267.543,-188.637 -355.08,-330.422 -98.634,-159.047 -139.32,-339.052 -139.32,-525.222 0,-268.776 83.838,-509.196 279.873,-696.599 205.896,-197.267 475.905,-266.31 755.777,-266.31 200.966,0 425.357,24.659 605.363,118.36 155.348,81.373 274.94,198.499 357.546,352.615 92.468,173.841 118.36,379.738 118.36,574.539 v 181.238 h -315.627 z M 10395.99,11802.861 c 85.072,-60.414 182.471,-83.839 286.037,-83.839 124.525,0 246.584,41.919 356.313,98.634 l 92.469,48.084 -279.873,636.185 -101.099,-41.919 c -34.522,-14.795 -94.934,-36.988 -133.154,-36.988 -44.386,0 -73.976,16.028 -98.634,51.782 -70.277,104.798 -77.674,350.148 -77.674,470.975 v 657.144 h -853.1794 v -1846.91 h 810.0274 v 46.852 z m -4574.1236,209.596 242.8847,-872.906 h 826.0545 l 246.5835,877.838 167.6767,-876.605 h 890.1668 l -546.183,2463.368 h -858.1103 l -310.6951,-1108.392 -308.2293,1108.392 h -856.8775 l -551.114,-2463.368 h 893.865 z m 3432.4422,-256.448 v 1846.91 h -850.713 v -2463.368 h 850.713 z"
         id="path2" />
      <path
         inkscape:connector-curvature="0"
         d="m 34755.351,11825.665 h 584.403 v 236.721 c 83.839,-98.634 168.909,-170.142 255.213,-210.829 85.072,-41.919 188.637,-62.879 310.696,-62.879 130.689,0 233.022,23.425 309.462,69.044 76.441,45.617 138.086,114.661 186.171,204.664 98.633,-106.032 187.403,-178.774 268.775,-216.994 81.373,-38.22 181.239,-57.947 299.6,-57.947 175.074,0 311.928,51.782 409.328,155.348 98.633,103.565 147.95,265.077 147.95,485.769 v 1020.855 h -626.322 v -928.386 c 0,-73.976 -14.795,-129.456 -43.152,-163.978 -41.92,-56.714 -93.702,-83.839 -155.347,-83.839 -73.976,0 -133.156,27.125 -177.541,80.14 -44.385,53.016 -67.81,139.32 -67.81,256.447 v 840.849 h -627.555 v -895.098 c 0,-71.508 -3.699,-119.592 -12.329,-145.484 -13.562,-40.686 -35.755,-73.975 -69.044,-98.633 -32.055,-24.659 -71.508,-36.987 -115.894,-36.987 -71.508,0 -130.689,27.123 -177.54,81.372 -46.851,54.248 -69.044,143.019 -69.044,266.311 v 829.753 h -627.554 v -1626.219 z m -1703.892,816.191 c 0,145.486 29.59,253.982 88.77,323.025 59.181,69.044 131.923,104.798 221.926,104.798 90.003,0 163.978,-34.521 220.692,-102.333 57.947,-69.042 86.304,-178.772 86.304,-330.421 0,-141.785 -28.357,-246.583 -87.538,-315.627 -57.947,-69.043 -130.689,-103.564 -216.993,-103.564 -91.235,0 -166.444,34.521 -225.624,104.797 -57.947,70.277 -87.537,176.308 -87.537,319.325 z m -626.322,1.234 c 0,-249.05 83.839,-452.481 252.748,-613.993 167.678,-160.28 394.534,-241.652 680.571,-241.652 326.723,0 574.539,94.935 740.983,283.571 134.388,152.882 200.966,340.285 200.966,562.21 0,250.283 -82.605,454.947 -249.049,615.226 -166.445,159.046 -397,239.187 -691.667,239.187 -261.378,0 -474.673,-66.579 -636.185,-199.733 -199.733,-162.746 -298.367,-378.507 -298.367,-644.816 z m -1082.501,-11.097 c 0,-128.223 -27.124,-223.158 -81.373,-286.037 -54.247,-62.878 -123.291,-94.934 -205.896,-94.934 -72.742,0 -133.156,29.59 -182.473,91.236 -49.315,60.413 -73.974,161.512 -73.974,303.298 0,133.154 25.891,230.555 76.441,292.201 50.549,61.646 113.427,92.469 188.636,92.469 80.14,0 146.717,-30.823 199.733,-93.702 53.015,-60.413 78.906,-162.745 78.906,-304.531 z m 628.788,-1422.786 v 2241.443 h -586.869 v -240.418 c -81.372,102.332 -156.58,171.375 -224.391,208.363 -90.002,46.85 -191.101,70.276 -300.831,70.276 -221.925,0 -392.068,-83.838 -510.428,-252.748 -117.127,-168.91 -176.308,-373.574 -176.308,-613.992 0,-270.01 65.345,-475.907 194.801,-618.925 129.457,-143.019 294.668,-214.528 494.401,-214.528 97.4,0 186.17,16.028 265.077,48.084 80.14,33.289 150.415,81.372 212.062,146.717 v -774.272 z m -2790.092,1287.165 c -12.329,-120.825 -45.617,-208.363 -98.634,-260.145 -53.015,-51.783 -122.057,-78.907 -208.362,-78.907 -99.866,0 -180.006,39.454 -239.187,118.361 -38.22,49.317 -61.645,122.059 -72.742,219.459 h 618.925 z m 636.185,297.133 h -1257.575 c 11.097,99.867 38.22,173.841 82.606,223.158 60.413,70.277 139.319,104.799 237.952,104.799 61.646,0 120.826,-14.795 176.308,-45.619 34.522,-19.726 70.276,-53.015 109.729,-101.099 l 617.692,56.714 c -94.935,162.746 -208.363,279.873 -341.519,351.382 -133.154,70.277 -325.49,106.031 -574.538,106.031 -216.994,0 -387.137,-29.59 -511.661,-91.236 -123.292,-60.413 -226.858,-156.581 -308.23,-289.735 -81.372,-131.922 -122.059,-288.503 -122.059,-466.044 0,-253.98 81.374,-459.877 245.351,-617.691 163.978,-156.58 389.602,-235.487 678.104,-235.487 234.255,0 419.192,35.754 553.581,106.031 134.387,70.277 239.185,172.609 309.462,305.763 70.275,134.389 106.03,308.23 106.03,522.758 v 70.275 z m -2885.025,-297.133 c -12.33,-120.825 -45.619,-208.363 -98.634,-260.145 -53.015,-51.783 -122.059,-78.907 -208.363,-78.907 -99.867,0 -180.006,39.454 -239.186,118.361 -38.22,49.317 -61.645,122.059 -72.742,219.459 h 618.925 z m 636.185,297.133 h -1257.576 c 11.096,99.867 38.22,173.841 81.373,223.158 60.412,70.277 139.319,104.799 237.953,104.799 61.645,0 120.826,-14.795 176.306,-45.619 34.522,-19.726 70.277,-53.015 109.73,-101.099 l 617.692,56.714 c -94.935,162.746 -208.363,279.873 -341.518,351.382 -133.156,70.277 -325.49,106.031 -574.54,106.031 -216.993,0 -387.135,-29.59 -511.661,-91.236 -124.524,-60.413 -226.856,-156.581 -308.228,-289.735 -81.374,-131.922 -122.059,-288.503 -122.059,-466.044 0,-253.98 82.605,-459.877 245.35,-617.691 163.978,-156.58 389.602,-235.487 678.105,-235.487 234.254,0 419.192,35.754 553.579,106.031 135.621,70.277 239.186,172.609 309.463,305.763 70.276,134.389 106.031,308.23 106.031,522.758 z m -3405.318,-967.84 h 586.869 v 265.078 c 56.714,-115.894 114.661,-194.801 175.074,-237.953 60.413,-43.152 134.388,-64.112 223.158,-64.112 92.468,0 194.801,28.357 304.531,86.304 l -194.801,442.617 c -73.975,-30.823 -133.156,-45.618 -176.308,-45.618 -82.605,0 -145.484,33.29 -191.102,101.1 -64.111,94.934 -97.401,272.475 -97.401,533.853 v 546.183 h -630.02 z m -2103.357,-616.458 h 1723.619 v 482.071 h -1024.554 v 390.835 h 876.603 v 453.713 h -876.603 v 914.824 h -699.065 z m -3130.377,1791.429 621.391,-56.715 c 25.891,72.742 61.646,125.758 107.263,156.581 46.852,30.823 107.264,46.85 184.938,46.85 83.839,0 149.184,-17.26 196.034,-54.247 35.755,-25.892 54.249,-59.18 54.249,-98.634 0,-44.385 -23.426,-80.14 -70.277,-104.798 -33.289,-17.261 -123.291,-38.221 -268.776,-64.111 -216.993,-36.988 -368.642,-72.742 -453.713,-104.799 -85.072,-32.055 -155.348,-86.304 -213.295,-162.744 -57.948,-76.442 -86.305,-163.979 -86.305,-261.379 0,-107.264 30.824,-199.733 93.702,-276.174 62.879,-77.673 149.183,-135.62 258.913,-173.841 109.729,-38.22 256.447,-57.947 441.384,-57.947 194.801,0 337.82,14.795 430.289,44.385 92.469,29.59 170.142,75.208 231.788,138.087 61.646,62.878 113.429,146.717 154.114,252.748 l -591.8,56.714 c -14.795,-51.783 -40.686,-90.003 -76.44,-114.662 -49.317,-32.055 -108.497,-48.083 -177.541,-48.083 -70.276,0 -122.059,12.33 -154.114,38.22 -32.057,25.892 -48.084,55.482 -48.084,91.237 0,40.685 20.959,70.275 60.413,90.002 40.686,20.96 129.457,39.454 266.31,55.482 208.363,23.425 362.478,56.714 464.81,98.633 101.099,41.919 178.773,101.1 233.021,178.773 54.249,77.674 81.372,162.745 81.372,255.214 0,93.702 -28.357,184.937 -85.07,273.708 -56.714,88.77 -146.718,159.046 -268.777,212.061 -122.059,53.015 -289.735,78.907 -500.564,78.907 -298.366,0 -510.428,-41.919 -637.418,-126.991 -130.689,-86.304 -212.062,-207.129 -247.817,-362.477 z m -2072.534,0 621.391,-56.715 c 25.891,72.742 61.646,125.758 107.263,156.581 46.852,30.823 107.264,46.85 184.938,46.85 83.839,0 149.184,-17.26 194.801,-54.247 35.755,-25.892 54.248,-59.18 54.248,-98.634 0,-44.385 -23.425,-80.14 -70.275,-104.798 -33.29,-17.261 -123.292,-38.221 -268.776,-64.111 -216.995,-36.988 -367.41,-72.742 -453.714,-104.799 -85.071,-32.055 -155.348,-86.304 -213.295,-162.744 -57.947,-76.442 -86.304,-163.979 -86.304,-261.379 0,-107.264 30.822,-199.733 93.701,-276.174 62.88,-77.673 149.184,-135.62 258.913,-173.841 109.73,-38.22 256.448,-57.947 441.384,-57.947 194.801,0 337.82,14.795 430.289,44.385 92.469,29.59 170.142,75.208 231.788,138.087 61.646,62.878 113.429,146.717 154.115,252.748 l -593.033,56.714 c -14.795,-51.783 -40.687,-90.003 -76.442,-114.662 -49.316,-32.055 -108.496,-48.083 -177.539,-48.083 -70.277,0 -122.059,12.33 -154.114,38.22 -32.057,24.659 -48.085,55.482 -48.085,91.237 0,40.685 20.96,70.275 60.413,90.002 40.687,20.96 129.456,39.454 266.31,55.482 208.363,23.425 362.478,56.714 464.81,98.633 101.099,41.919 178.773,101.1 233.022,178.773 54.248,77.674 81.372,162.745 81.372,255.214 0,93.702 -28.357,184.937 -85.072,273.708 -56.714,88.77 -146.716,159.046 -268.775,212.061 -122.059,53.015 -289.736,78.907 -500.564,78.907 -298.367,0 -511.661,-41.919 -637.419,-126.991 -128.223,-86.304 -209.596,-207.129 -245.351,-362.477 z m -960.442,-504.264 c -12.329,-120.825 -45.618,-208.363 -98.633,-260.145 -53.016,-51.783 -122.059,-78.907 -208.363,-78.907 -99.867,0 -180.006,39.454 -239.186,118.361 -38.22,49.317 -61.646,122.059 -72.742,219.459 h 618.924 z m 637.419,297.133 h -1257.576 c 11.096,99.867 38.22,173.841 82.605,223.158 60.413,70.277 139.32,104.799 237.953,104.799 61.647,0 120.826,-14.795 176.307,-45.619 34.522,-19.726 70.277,-53.015 109.73,-101.099 l 617.691,56.714 c -94.934,162.746 -208.363,279.873 -341.517,351.382 -133.156,70.277 -325.49,106.031 -574.54,106.031 -216.994,0 -387.136,-29.59 -511.661,-91.236 -123.292,-60.413 -226.856,-156.581 -308.229,-289.735 -81.373,-131.922 -122.059,-288.503 -122.059,-466.044 0,-253.98 81.373,-459.877 245.351,-617.691 163.978,-156.58 389.602,-235.487 678.105,-235.487 234.253,0 419.191,35.754 553.579,106.031 135.621,70.277 239.186,172.609 310.695,305.763 70.276,134.389 106.031,308.23 106.031,522.758 v 70.275 z m -2989.825,-1584.298 h 627.555 v 2241.443 h -627.555 z m -1092.365,1287.165 c -12.329,-120.825 -45.618,-208.363 -98.633,-260.145 -53.016,-51.783 -122.059,-78.907 -209.596,-78.907 -99.866,0 -180.006,39.454 -239.185,118.361 -38.222,49.317 -61.647,122.059 -72.743,219.459 h 620.157 z m 636.186,297.133 h -1257.576 c 11.096,99.867 38.221,173.841 82.606,223.158 60.412,70.277 139.319,104.799 237.953,104.799 61.645,0 120.825,-14.795 176.307,-45.619 34.521,-19.726 70.276,-53.015 109.729,-101.099 l 617.692,56.714 c -94.934,162.746 -208.363,279.873 -341.518,351.382 -133.155,70.277 -325.49,106.031 -574.54,106.031 -216.993,0 -387.136,-29.59 -511.66,-91.236 -123.292,-60.413 -226.857,-156.581 -308.229,-289.735 -81.373,-131.922 -122.059,-288.503 -122.059,-466.044 0,-253.98 82.605,-459.877 245.351,-617.691 163.977,-156.58 389.601,-235.487 678.103,-235.487 234.255,0 419.193,35.754 553.58,106.031 135.621,70.277 239.186,172.609 309.463,305.763 70.276,134.389 106.031,308.23 106.031,522.758 v 70.275 z m -3405.3176,-967.84 h 586.8686 v 265.078 c 56.714,-115.894 114.661,-194.801 175.074,-237.953 60.413,-43.152 134.388,-64.112 223.158,-64.112 92.469,0 194.801,28.357 304.531,86.304 l -194.801,442.617 c -73.976,-30.823 -133.155,-45.618 -176.308,-45.618 -81.372,0 -145.484,33.29 -191.101,101.1 -64.112,94.934 -97.401,272.475 -97.401,533.853 v 546.183 h -630.0206 z m -1181.1351,0 h 627.555 v 1624.985 h -627.555 z m 0,-616.458 h 627.555 v 422.891 h -627.555 z m -3613.6795,0 h 662.0765 l 237.9531,1251.411 348.9156,-1251.411 h 657.1449 l 351.3813,1252.643 239.186,-1252.643 h 658.3771 l -496.865,2241.443 h -684.269 l -395.7664,-1411.69 -393.3006,1411.69 h -683.0362 z"
         id="path4"
         style="stroke-width:1.23291719" />
      <path
         style="fill:#ffffff"
         inkscape:connector-curvature="0"
         d="m 16757.441,3666 c -63,-42 -137,-53 -216,-53 -81,0 -144,17 -200,53 z m -5978,810 c 0,140 16,373 113,486 62,73 127,102 223,102 70,0 111,-28 155,-82 87,-106 100,-414 100,-541 0,-136 -14,-392 -107,-504 -48,-58 -92,-92 -168,-92 -90,0 -147,31 -204,99 -97,113 -112,393 -112,532 z M 3892.4406,3656 c 0,294 31,778 234,1015 156,182 357,244 594,244 231,0 444,-54 597,-234 201,-237 226,-815 226,-1106 0,-287 -34,-715 -235,-943 -160,-182 -365,-243 -605,-243 -233,0 -422,68 -576,245 -204,237 -235,727 -235,1022 z m -2685,-5 c 0,-951 245,-1867 937,-2553 691,-686 1607,-930 2564,-930 955,0 1895,229 2591,914 687,676 930,1581 930,2522 0,644 -94,1320 -400,1897 -273,516 -672,920 -1184,1205 -567,316 -1221,423 -1864,423 -627,0 -1284,-85 -1854,-361 -536,-259 -948,-666 -1250,-1174 -349,-588 -470,-1269 -470,-1943 z M 16389.441,5291 c 50,20 105,29 168,29 61,0 119,-9 174,-29 z m 2980,-1504 V 1896 h 2388 v 177 c 26,-15 52,-30 79,-43 326,-170 691,-233 1056,-233 526,0 1013,153 1380,537 394,412 503,996 503,1545 v 3149 h -2510 V 4247 c 0,-61 -7,-243 -43,-293 -23,-26 -73,-27 -104,-27 -69,0 -113,18 -156,71 -79,97 -91,432 -91,548 v 2482 h -2502 V 5606 l -60,104 c -260,447 -607,841 -1070,1087 -505,268 -1153,331 -1717,331 -510,0 -1075,-58 -1538,-284 -419,-205 -746,-526 -989,-921 -96,-156 -172,-318 -231,-486 -94,363 -256,704 -518,990 -429,469 -979,701 -1617,701 -287,0 -570,-46 -837,-152 V 8658 H 8274.4406 V 1896 h 2396.0004 v 124 c 301,-152 629,-223 967,-223 695,0 1277,270 1683,835 203,282 342,590 430,913 124,-374 332,-714 637,-1007 567,-544 1312,-741 2085,-741 554,0 1162,69 1660,328 433,225 769,556 997,986 111,211 188,440 240,676 z m 17717,-1809 v -82 h 608 v -624 l 2502,-1272 v 1896 h 907 v 2047 h -907 v 1099 c 0,19 0,45 1,72 101,-15 219,-52 299,-77 l 494,-157 217,2024 -369,81 c -405,89 -821,144 -1237,144 -361,0 -790,-34 -1112,-208 -283,-152 -491,-387 -619,-680 -153,-348 -175,-831 -175,-1207 V 3943 h -608 v -448 l -292,663 -384,-160 c -71,-30 -223,-89 -302,-89 -75,0 -113,20 -154,82 -166,246 -185,890 -185,1175 v 1861 h -2510 V 2254 l -1059,4774 h -2467 l -724,-2579 -719,2580 h -2464 l -1510,-6762 h 2625 l 356,1872 522,-1872 h 2377 l 529,1887 361,-1887 h 2615 l -361,1629 h 2317 v 30 c 195,-90 408,-129 627,-129 277,0 548,71 801,181 z"
         id="path6-6" />
      <path
         style="fill:#0e232e"
         inkscape:connector-curvature="0"
         d="M 39791.94,725.70606 V 2354.7061 h 907 v 1207 h -907 v 1519 c 0,182 18,303 53,363 54,91 150,137 286,137 122,0 293,-35 513,-105 l 122,1137 c -409,90 -791,134 -1146,134 -412,0 -716,-52 -911,-157 -194,-105 -338,-265 -433,-478 -93,-214 -140,-561 -140,-1039 v -1511 h -608 v -1207 h 608 v -787 z m -6090,1629.00004 h 1551 v 700 c 150,-305 304,-514 462,-629 160,-114 355,-171 588,-171 246,0 513,76 803,227 l -513,1167 c -195,-81 -351,-121 -465,-121 -216,0 -386,90 -505,267 -171,251 -257,721 -257,1409 v 1442 h -1665 v -4291 z m -8840,-1629.00004 h 1748 l 628,3304.00004 921,-3304.00004 h 1734 l 928,3310.00004 633,-3310.00004 h 1740 l -1314,5922.00004 h -1806 l -1046,-3728 -1039,3728 h -1803 z m -5052,1629.00004 h 1543 v 699 c 230,-287 462,-491 698,-613 236,-123 522,-185 860,-185 458,0 815,135 1074,407 258,270 387,689 387,1256 v 2729 h -1665 v -2362 c 0,-270 -50,-460 -150,-572 -100,-112 -240,-168 -420,-168 -198,0 -361,76 -484,226 -123,152 -186,422 -186,813 v 2062 h -1656 v -4292 z m -2439,1770 c -32,-320 -119,-548 -259,-686 -140,-138 -323,-207 -552,-207 -264,0 -474,105 -633,313 -100,130 -164,323 -191,580 z m 1682,786 h -3321 c 31,263 101,460 217,590 159,186 369,279 627,279 164,0 319,-40 465,-120 90,-51 187,-141 290,-269 l 1631,149 c -250,430 -551,740 -903,926 -352,188 -859,281 -1517,281 -573,0 -1022,-80 -1351,-241 -327,-160 -599,-415 -816,-764 -215,-350 -323,-761 -323,-1232 0,-671 216,-1216 649,-1630 431,-415 1029,-623 1791,-623 619,0 1106,94 1464,280 358,186 631,455 819,809 187,353 280,813 280,1380 v 185 z m -8676.999,-396 c 0,342 72,594 215,759 143,165 325,248 544,248 191.999,0 351.999,-78 482.999,-237 129,-158 194,-427 194,-806 0,-350 -68,-606 -202,-771 -136,-164 -300,-245 -494.999,-245 -211,0 -386,83 -527,248 -142,166 -212,433 -212,804 z m -1661.0003,3761 v -5921 h 1551.0003 v 633 c 214,-267 411,-448 590,-542 240,-127 507.999,-190 799.999,-190 577,0 1022,219 1339,659 315,440 473,984 473,1631 0,715 -172,1261 -516,1637 -344,377 -778,564 -1304,564 -255,0 -486.999,-43 -695.999,-128 -211,-87 -398,-214 -563,-383 v 2041 H 8714.9407 Z m -5227,-4581 c 0,597 112,1027 336,1287 225,260 530,392 916,392 395,0 703,-128 920,-383 218,-256 326,-714 326,-1377 0,-557 -114,-963 -340,-1220 -227,-258 -534,-386 -922,-386 -372,0 -671,131 -896,392 -227,260 -340,692 -340,1295 z m -1838.9999,-4 c 0,-966 271,-1719 812.9999,-2256 542,-539.00004 1297,-808.00004 2265,-808.00004 992,0 1756,265 2293,793.00004 537,529 805,1271 805,2223 0,692 -116,1259 -351,1701 -234,442 -574,787 -1017,1034 -444,247 -996,369 -1658,369 -671,0 -1228,-106 -1669,-318 -440,-214 -798,-550 -1070.9999,-1010 -273,-460 -410,-1036 -410,-1728 z"
         id="path8" />
    </g>
  </g>
</svg>
