<?xml version="1.0" encoding="UTF-8" standalone="no"?>
<svg
   xmlns:dc="http://purl.org/dc/elements/1.1/"
   xmlns:cc="http://creativecommons.org/ns#"
   xmlns:rdf="http://www.w3.org/1999/02/22-rdf-syntax-ns#"
   xmlns:svg="http://www.w3.org/2000/svg"
   xmlns="http://www.w3.org/2000/svg"
   xmlns:xlink="http://www.w3.org/1999/xlink"
   xmlns:sodipodi="http://sodipodi.sourceforge.net/DTD/sodipodi-0.dtd"
   xmlns:inkscape="http://www.inkscape.org/namespaces/inkscape"
   viewBox="0 0 250 250"
   version="1.1"
   id="svg27"
   sodipodi:docname="icon_synology2.svg"
   inkscape:version="1.0.2-2 (e86c870879, 2021-01-15)"
   width="250"
   height="250">
  <metadata
     id="metadata31">
    <rdf:RDF>
      <cc:Work
         rdf:about="">
        <dc:format>image/svg+xml</dc:format>
        <dc:type
           rdf:resource="http://purl.org/dc/dcmitype/StillImage" />
        <dc:title></dc:title>
      </cc:Work>
    </rdf:RDF>
  </metadata>
  <sodipodi:namedview
     pagecolor="#ffffff"
     bordercolor="#666666"
     borderopacity="1"
     objecttolerance="10"
     gridtolerance="10000"
     guidetolerance="10000"
     inkscape:pageopacity="0"
     inkscape:pageshadow="2"
     inkscape:window-width="1918"
     inkscape:window-height="1004"
     id="namedview29"
     showgrid="false"
     inkscape:zoom="1.2928839"
     inkscape:cx="228.56316"
     inkscape:cy="3.3729797"
     inkscape:window-x="1910"
     inkscape:window-y="0"
     inkscape:window-maximized="0"
     inkscape:current-layer="g824"
     inkscape:snap-path-clip="true"
     inkscape:snap-path-mask="true"
     inkscape:snap-perpendicular="true"
     inkscape:snap-tangential="true"
     showborder="true"
     borderlayer="true"
     inkscape:pagecheckerboard="true"
     inkscape:document-rotation="0" />
  <defs
     id="defs13">
    <clipPath
       id="a"
       transform="translate(178.38 178.11)">
      <circle
         cx="489.29999"
         cy="489.29999"
         r="475.29999"
         style="fill:none"
         id="circle2" />
    </clipPath>
    <radialGradient
       id="b"
       cx="466.56"
       cy="509.06"
       r="269.37"
       gradientUnits="userSpaceOnUse">
      <stop
         offset="0"
         stop-color="#fff"
         id="stop5" />
      <stop
         offset="0.43"
         stop-color="#eaeaea"
         id="stop7" />
      <stop
         offset="1"
         stop-color="#c8c8c8"
         id="stop9" />
    </radialGradient>
    <radialGradient
       id="c"
       cx="557.79999"
       cy="414.69"
       r="215.24001"
       xlink:href="#b" />
  </defs>
  <g
     id="g824"
     transform="matrix(0.49999225,0,0,0.4999904,0,0.0048)">
    <ellipse
       style="fill:#4a5158;fill-opacity:1;fill-rule:nonzero;stroke:none;stroke-width:0;stroke-miterlimit:4;stroke-dasharray:none;stroke-opacity:1"
       id="path5119"
       cx="250.00388"
       cy="249.99519"
       rx="219.78214"
       ry="219.78499" />
    <path
       d="M 249.95733,499.99953 A 250.12766,250.05617 0 0 1 152.62102,19.669719 250.12478,250.05331 0 0 1 347.29365,480.35489 248.5025,248.43148 0 0 1 249.95733,499.99953 Z m 0,-485.673963 A 235.81799,235.7506 0 0 0 158.19669,467.17842 235.81475,235.74736 0 0 0 341.72309,32.846178 234.26948,234.20255 0 0 0 249.95733,14.325567 Z"
       style="fill:#4a5158;stroke-width:0.510986;fill-opacity:1"
       id="path21"
       inkscape:connector-curvature="0" />
    <g
       fill="#4a5158"
       id="g10"
       transform="matrix(0.71948932,0,0,0.71949196,52.349371,198.99335)"
       style="fill:#ffffff">
      <path
         d="m 0,76.17 19.26,-1.8 q 1.78,9.7 7.09,14.28 5.31,4.58 14.42,4.53 c 6.39,0 11.21,-1.37 14.48,-4.05 3.27,-2.68 4.84,-5.88 4.84,-9.46 a 9.15,9.15 0 0 0 -2,-6 C 56.72,72.07 54.35,70.62 50.96,69.47 48.62,68.58 43.33,67.16 35.09,65.06 24.42,62.45 17,59.18 12.71,55.33 A 26,26 0 0 1 3.65,35.39 25,25 0 0 1 7.92,21.29 26.77,26.77 0 0 1 20.23,11.23 C 25.57,9 32,7.83 39.61,7.83 q 18.49,0 27.87,8.17 c 6.24,5.53 9.5,12.78 9.81,21.88 l -19.94,0.67 c -0.88,-5 -2.65,-8.63 -5.47,-10.87 -2.82,-2.24 -7,-3.34 -12.51,-3.34 -5.76,0 -10.28,1.18 -13.52,3.6 a 7.14,7.14 0 0 0 -3.16,6.06 7.52,7.52 0 0 0 2.95,6 c 2.48,2.16 8.58,4.35 18.23,6.6 9.65,2.25 16.79,4.68 21.4,7.14 a 27.66,27.66 0 0 1 10.87,10.1 c 2.59,4.17 3.94,9.51 3.94,15.78 a 29.19,29.19 0 0 1 -4.72,15.91 28.48,28.48 0 0 1 -13.3,11.05 c -5.74,2.35 -12.88,3.61 -21.43,3.61 -12.45,0 -22,-2.91 -28.7,-8.73 C 5.23,95.64 1.3,87.22 0,76.17 Z"
         id="path2"
         style="fill:#ffffff" />
      <path
         d="m 77.56,36.72 h 20 l 17.08,50.85 16.64,-50.85 h 19.49 l -25,68.86 -4.59,12.56 a 50.58,50.58 0 0 1 -4.72,9.56 19.75,19.75 0 0 1 -5.16,5.4 24.18,24.18 0 0 1 -7.16,3.18 36.79,36.79 0 0 1 -9.65,1.21 49.5,49.5 0 0 1 -10.69,-1.21 l -1.56,-14.87 a 38.76,38.76 0 0 0 8,0.93 c 4.35,0 7.59,-1.28 9.68,-3.85 a 27.63,27.63 0 0 0 4.82,-9.95 z m 138.76,71.63 H 197.5 V 71.89 c 0,-7.68 -0.39,-12.63 -1.22,-14.92 a 10.48,10.48 0 0 0 -4,-5.28 11.49,11.49 0 0 0 -6.61,-1.88 15.4,15.4 0 0 0 -8.89,2.72 13.43,13.43 0 0 0 -5.4,7.06 c -1,3 -1.46,8.42 -1.46,16.44 v 32.33 H 151.18 V 36.72 h 17.4 v 10.49 c 6.26,-7.93 14.12,-11.85 23.61,-11.85 a 29.68,29.68 0 0 1 11.5,2.21 19.14,19.14 0 0 1 7.86,5.78 21.23,21.23 0 0 1 3.71,7.92 58.31,58.31 0 0 1 1.06,12.73 z m 0.11,-36.57 a 38.84,38.84 0 0 1 4.66,-18.3 32.12,32.12 0 0 1 13.17,-13.48 39,39 0 0 1 19,-4.62 q 16.28,0 26.61,10.54 10.33,10.54 10.4,26.65 c 0,10.83 -3.51,19.77 -10.49,26.92 -6.98,7.15 -15.8,10.71 -26.4,10.71 a 41.76,41.76 0 0 1 -18.77,-4.47 30.41,30.41 0 0 1 -13.57,-13.07 q -4.59,-8.56 -4.61,-20.88 z m 19.27,1 c 0,7.15 1.67,12.61 5.08,16.32 a 16.52,16.52 0 0 0 25,0 c 3.33,-3.71 5,-9.24 5,-16.41 0,-7.17 -1.67,-12.49 -5,-16.23 a 16.6,16.6 0 0 0 -25,0 c -3.4,3.7 -5.08,9.17 -5.08,16.27 z"
         id="path4"
         style="fill:#ffffff" />
      <path
         d="m 313.42,0 v 92.47 c 0,4.41 0.33,7.33 0.94,8.73 a 6.7,6.7 0 0 0 2.93,3.27 c 1.33,0.74 3.8,1.12 7.36,1.12 v 2.77 h -34.17 v -2.77 c 3.2,0 5.38,-0.33 6.61,-1 a 6.8,6.8 0 0 0 2.71,-3.28 c 0.67,-1.51 1,-4.45 1,-8.8 V 29.37 c 0,-7.94 -0.16,-12.8 -0.5,-14.63 A 6.23,6.23 0 0 0 298.61,11 4.26,4.26 0 0 0 295.7,10 14.43,14.43 0 0 0 290.82,11.24 L 289.52,8.53 310,0 Z m 45.15,36.49 c 10.6,0 19.08,4 25.5,12 a 36.8,36.8 0 0 1 8.16,23.57 44,44 0 0 1 -4.49,18.94 32.05,32.05 0 0 1 -30,19.33 q -15.84,0 -25.12,-12.54 a 38.85,38.85 0 0 1 -7.86,-23.76 41.85,41.85 0 0 1 4.75,-19 33.1,33.1 0 0 1 12.6,-14.03 32.62,32.62 0 0 1 16.46,-4.51 z m -2.34,5.13 A 15.44,15.44 0 0 0 348.12,44 c -2.72,1.62 -4.93,4.37 -6.61,8.33 -1.68,3.96 -2.51,9.12 -2.51,15.4 0,10.14 2.05,18.79 6.06,26.19 4.01,7.4 9.36,11 15.95,11 a 14.89,14.89 0 0 0 12.18,-6.08 Q 378,92.76 378,77.94 c 0,-12.37 -2.67,-22 -8,-29.14 -3.6,-4.8 -8.19,-7.18 -13.76,-7.18 z"
         id="path6"
         style="fill:#ffffff" />
      <path
         d="M 407.52,82.78 A 23.77,23.77 0 0 1 402.11,44 q 7.79,-7.45 20,-7.47 a 30.13,30.13 0 0 1 17.22,4.82 H 454 a 19.57,19.57 0 0 1 3.83,0.2 2,2 0 0 1 0.74,0.65 4.92,4.92 0 0 1 0.46,2.43 6.71,6.71 0 0 1 -0.39,2.77 1.31,1.31 0 0 1 -0.81,0.59 17.09,17.09 0 0 1 -3.85,0.22 h -9.09 c 2.88,3.67 4.3,8.36 4.3,14.06 a 22.05,22.05 0 0 1 -7.46,16.67 c -5,4.62 -11.62,7 -19.94,7 A 35.11,35.11 0 0 1 411.21,84.3 20.16,20.16 0 0 0 407,89.32 8.39,8.39 0 0 0 405.81,93 a 3.55,3.55 0 0 0 1.28,2.58 c 0.81,0.79 2.47,1.39 4.9,1.71 a 97.77,97.77 0 0 0 10.62,0.62 c 10.42,0.33 17.19,0.72 20.24,1.25 a 19.27,19.27 0 0 1 11.31,5.22 14.13,14.13 0 0 1 4.21,10.38 c 0,5.65 -2.7,11 -8.06,16 q -11.77,11 -30.83,11 c -9.75,0 -18,-2.15 -24.72,-6.56 -3.8,-2.54 -5.67,-5.14 -5.67,-7.9 a 9.32,9.32 0 0 1 0.79,-3.63 42.19,42.19 0 0 1 5.21,-7.76 c 0.34,-0.48 2.9,-3.2 7.6,-8.18 a 24.06,24.06 0 0 1 -5.54,-4.31 6.32,6.32 0 0 1 -1.64,-4.24 12.53,12.53 0 0 1 2.12,-6.25 c 1.44,-2.42 4.74,-5.83 9.89,-10.15 z m -0.63,25.57 a 35,35 0 0 0 -5.25,7.2 12.37,12.37 0 0 0 -1.76,6 c 0,2.49 1.44,4.58 4.37,6.39 5.07,3.1 12.4,4.71 22,4.71 9.1,0 15.79,-1.61 20.15,-4.81 4.36,-3.2 6.5,-6.57 6.5,-10.19 a 5.74,5.74 0 0 0 -3.89,-5.56 c -2.65,-1.12 -7.86,-1.77 -15.71,-1.93 -11.47,-0.32 -20.3,-0.99 -26.41,-1.81 z m 13.9,-68 a 11.9,11.9 0 0 0 -9.38,4.54 c -2.51,3 -3.76,7.43 -3.76,13.6 q 0,11.93 5.13,18.52 a 12.2,12.2 0 0 0 10,5 11.89,11.89 0 0 0 9.44,-4.34 c 2.47,-2.87 3.69,-7.35 3.69,-13.46 0,-8 -1.71,-14.29 -5.18,-18.81 a 12.17,12.17 0 0 0 -9.94,-5.06 z m 40.42,-1.82 h 32.63 v 2.79 h -1.58 a 8,8 0 0 0 -5.16,1.48 4.76,4.76 0 0 0 -1.69,3.68 c 0,2 0.81,4.74 2.51,8.23 l 17,35.29 15.58,-38.56 a 16.29,16.29 0 0 0 1.3,-6.26 3.41,3.41 0 0 0 -0.54,-2 4,4 0 0 0 -1.91,-1.32 13.61,13.61 0 0 0 -4.55,-0.54 v -2.79 h 22.56 v 2.79 a 10.86,10.86 0 0 0 -4.36,1.22 12.74,12.74 0 0 0 -3.35,3.38 41,41 0 0 0 -2.61,5.85 l -28.27,69.54 c -2.76,6.78 -6.36,11.85 -10.83,15.31 -4.47,3.46 -8.76,5.14 -12.9,5.14 a 10.56,10.56 0 0 1 -7.43,-2.58 7.71,7.71 0 0 1 -2.9,-5.93 6.6,6.6 0 0 1 2.1,-5.08 8,8 0 0 1 5.8,-1.94 21.36,21.36 0 0 1 6.91,1.63 20.38,20.38 0 0 0 3.85,1.14 c 1.53,0 3.17,-0.83 5,-2.39 1.83,-1.56 3.61,-4.59 5.44,-9.06 l 4.93,-12.15 -25.1,-52.47 a 44.9,44.9 0 0 0 -3.64,-5.87 19.63,19.63 0 0 0 -3.13,-3.62 19.1,19.1 0 0 0 -5.65,-2.12 z m 76.02,-4.63 v -14 h 6.13 a 7.2,7.2 0 0 1 2.84,0.45 3,3 0 0 1 1.53,1.26 4.13,4.13 0 0 1 0.57,2.11 3.31,3.31 0 0 1 -1,2.5 4.59,4.59 0 0 1 -2.93,1.33 4.62,4.62 0 0 1 1.1,0.68 9.21,9.21 0 0 1 1.53,1.85 l 2.43,3.82 h -2.29 L 545.31,31 c -0.54,-0.79 -1,-1.47 -1.33,-1.91 a 6.22,6.22 0 0 0 -0.93,-1 3.17,3.17 0 0 0 -0.83,-0.32 4.17,4.17 0 0 0 -1,-0.09 h -2.1 v 6.22 z m 1.84,-7.77 H 543 a 4.47,4.47 0 0 0 2,-0.29 1.78,1.78 0 0 0 1,-0.84 2.2,2.2 0 0 0 0.38,-1.28 2,2 0 0 0 -0.72,-1.6 3.3,3.3 0 0 0 -2.23,-0.63 h -4.41 z"
         id="path8"
         style="fill:#ffffff" />
    </g>
  </g>
</svg>
