<?xml version="1.0" encoding="UTF-8" standalone="no"?>
<svg
   xmlns:dc="http://purl.org/dc/elements/1.1/"
   xmlns:cc="http://creativecommons.org/ns#"
   xmlns:rdf="http://www.w3.org/1999/02/22-rdf-syntax-ns#"
   xmlns:svg="http://www.w3.org/2000/svg"
   xmlns="http://www.w3.org/2000/svg"
   xmlns:xlink="http://www.w3.org/1999/xlink"
   xmlns:sodipodi="http://sodipodi.sourceforge.net/DTD/sodipodi-0.dtd"
   xmlns:inkscape="http://www.inkscape.org/namespaces/inkscape"
   viewBox="0 0 250 250"
   version="1.1"
   id="svg27"
   sodipodi:docname="icon_Influxdb3.svg"
   inkscape:version="0.92.4 (5da689c313, 2019-01-14)"
   width="250"
   height="250">
  <metadata
     id="metadata31">
    <rdf:RDF>
      <cc:Work
         rdf:about="">
        <dc:format>image/svg+xml</dc:format>
        <dc:type
           rdf:resource="http://purl.org/dc/dcmitype/StillImage" />
        <dc:title></dc:title>
      </cc:Work>
    </rdf:RDF>
  </metadata>
  <sodipodi:namedview
     pagecolor="#ffffff"
     bordercolor="#666666"
     borderopacity="1"
     objecttolerance="10"
     gridtolerance="10000"
     guidetolerance="10000"
     inkscape:pageopacity="0"
     inkscape:pageshadow="2"
     inkscape:window-width="1858"
     inkscape:window-height="1057"
     id="namedview29"
     showgrid="false"
     inkscape:zoom="1.2928839"
     inkscape:cx="-94.923849"
     inkscape:cy="203.0945"
     inkscape:window-x="-6"
     inkscape:window-y="-8"
     inkscape:window-maximized="1"
     inkscape:current-layer="g830"
     inkscape:snap-path-clip="true"
     inkscape:snap-path-mask="true"
     inkscape:snap-perpendicular="true"
     inkscape:snap-tangential="true"
     showborder="true"
     borderlayer="true"
     inkscape:pagecheckerboard="true" />
  <defs
     id="defs13">
    <clipPath
       id="a"
       transform="translate(178.38 178.11)">
      <circle
         cx="489.29999"
         cy="489.29999"
         r="475.29999"
         style="fill:none"
         id="circle2" />
    </clipPath>
    <radialGradient
       id="b"
       cx="466.56"
       cy="509.06"
       r="269.37"
       gradientUnits="userSpaceOnUse">
      <stop
         offset="0"
         stop-color="#fff"
         id="stop5" />
      <stop
         offset="0.43"
         stop-color="#eaeaea"
         id="stop7" />
      <stop
         offset="1"
         stop-color="#c8c8c8"
         id="stop9" />
    </radialGradient>
    <radialGradient
       id="c"
       cx="557.79999"
       cy="414.69"
       r="215.24001"
       xlink:href="#b" />
    <linearGradient
       x1="133.42035"
       y1="326.78146"
       x2="133.42035"
       y2="83.10022"
       id="linearGradient-1"
       gradientTransform="scale(0.95927378,1.0424553)"
       gradientUnits="userSpaceOnUse">
      <stop
         stop-color="#FFF100"
         offset="0%"
         id="stop2" />
      <stop
         stop-color="#F05A28"
         offset="100%"
         id="stop4" />
    </linearGradient>
  </defs>
  <g
     id="g830"
     transform="translate(5.5283648e-6,-250)">
    <ellipse
       ry="109.88975"
       rx="109.88937"
       cy="375.00217"
       cx="124.99658"
       id="path5119"
       style="opacity:1;fill:#3c96ff;fill-opacity:1;fill-rule:nonzero;stroke:none;stroke-width:0;stroke-miterlimit:4;stroke-dasharray:none;stroke-opacity:1" />
    <path
       inkscape:connector-curvature="0"
       id="path21"
       style="fill:#3c96ff;fill-opacity:1;stroke-width:0.25548783"
       d="m 124.97672,499.99977 a 125.06189,125.02496 0 0 1 -48.667401,-240.1589 125.06045,125.02353 0 0 1 97.334811,230.33682 124.24932,124.21263 0 0 1 -48.66741,9.82208 z m 0,-242.83091 A 117.90717,117.87235 0 0 0 79.097111,483.58962 117.90555,117.87073 0 0 0 170.85889,266.42893 117.13292,117.09835 0 0 0 124.97672,257.16886 Z" />
    <g
       transform="matrix(0.15716445,0,0,0.15716445,44.493807,294.47809)"
       id="g826"
       style="fill:#ffffff">
      <path
         style="fill:#ffffff"
         inkscape:connector-curvature="0"
         id="path6"
         p-id="34919"
         d="M 985.6,743.11111 952.17778,539.02222 c -2.84445,-15.64444 -14.22222,-29.15555 -29.15556,-34.84444 L 730.31111,431.64444 c -14.93333,-5.68889 -31.28889,-2.84444 -44.8,7.11112 l -160,130.84444 -0.71111,0.71111 c -12.8,11.37778 -18.48889,27.02222 -15.64444,42.66667 l 33.42222,204.08889 c 2.84444,15.64444 14.22222,29.15555 29.15555,34.84444 l 193.42223,73.24445 C 770.13333,927.28889 775.82222,928 780.8,928 c 9.95556,0 19.91111,-3.55556 29.15556,-9.95556 L 969.24444,787.2 l 0.71112,-0.71111 C 982.04445,774.4 987.73333,758.75556 985.6,743.11111 Z m -44.08889,2.84445 -121.6,6.4 v -1.42223 L 792.88889,615.11111 c 0,-1.42222 -0.71111,-2.13333 -1.42222,-2.84444 L 910.22222,553.24444 Z M 785.06667,615.11111 c 0,0 0.71111,0 0,0 0.71111,0 1.42222,0.71111 1.42222,1.42222 l 27.02222,135.82223 v 1.42222 c -0.71111,0.71111 -1.42222,0.71111 -1.42222,0.71111 L 670.57778,699.02222 c -0.71111,0 -0.71111,-0.71111 -0.71111,-1.42222 0,-0.71111 0,-2.13333 0.71111,-2.13333 z m -70.4,-142.93333 192.71111,72.53333 c 0.71111,0 1.42222,0.71111 1.42222,1.42222 v 0.71111 L 789.33333,605.86667 711.82222,472.88889 c 0.71111,-0.71111 1.42222,-0.71111 2.84445,-0.71111 z m -7.11111,4.26666 76.8,132.97778 c -1.42223,0 -2.13334,0.71111 -2.84445,0.71111 l -114.48889,80.35556 c -1.42222,0.71111 -2.13333,2.13333 -2.84444,3.55555 L 553.95556,603.02222 Z m -155.02223,132.26667 108.08889,89.6 -75.37778,109.51111 z m 36.97778,203.37778 75.37778,-110.22222 c 0.71111,1.42222 2.13333,2.13333 3.55555,2.84444 l 141.51112,55.46667 h 1.42222 L 777.24444,883.2 Z m 194.13333,69.68889 34.13334,-123.02222 123.02222,-6.4 -0.71111,0.71111 z m -417.42222,-422.4 c 181.33334,0 328.53333,-57.6 328.53334,-129.42222 V 226.13333 c 0,-71.11111 -147.2,-129.422219 -328.53334,-129.422219 C 184.88889,96.711111 38.4,154.31111 38.4,226.13333 v 103.11111 c 0,71.82223 146.48889,130.13334 327.82222,130.13334 z" />
      <path
         style="fill:#ffffff"
         inkscape:connector-curvature="0"
         id="path8"
         p-id="34920"
         d="m 366.22222,691.91111 c 32,0 63.28889,-2.13333 92.44445,-4.97778 l -16.35556,-118.04444 54.75556,-42.66667 c -39.82223,6.4 -83.91111,10.66667 -130.13334,10.66667 -182.04444,0 -328.53333,-57.6 -328.53333,-129.42222 v 155.02222 c 0,71.82222 146.48889,129.42222 327.82222,129.42222 z" />
      <path
         style="fill:#ffffff"
         inkscape:connector-curvature="0"
         id="path10"
         p-id="34921"
         d="m 470.75556,763.02222 c -32.71112,4.26667 -67.55556,6.4 -103.82223,6.4 -182.04444,0 -327.822219,-57.6 -327.822219,-129.42222 v 155.02222 c 0,71.11111 147.199999,129.42222 328.533329,129.42222 78.93334,0 150.75556,-10.66666 206.93334,-29.15555 l -90.31111,-34.84445 z" />
    </g>
  </g>
</svg>
