<?xml version="1.0" encoding="UTF-8" standalone="no"?>
<svg
   xmlns:dc="http://purl.org/dc/elements/1.1/"
   xmlns:cc="http://creativecommons.org/ns#"
   xmlns:rdf="http://www.w3.org/1999/02/22-rdf-syntax-ns#"
   xmlns:svg="http://www.w3.org/2000/svg"
   xmlns="http://www.w3.org/2000/svg"
   xmlns:xlink="http://www.w3.org/1999/xlink"
   xmlns:sodipodi="http://sodipodi.sourceforge.net/DTD/sodipodi-0.dtd"
   xmlns:inkscape="http://www.inkscape.org/namespaces/inkscape"
   viewBox="0 0 250 250"
   version="1.1"
   id="svg27"
   sodipodi:docname="icon_adguard.svg"
   inkscape:version="0.92.4 (5da689c313, 2019-01-14)"
   width="250"
   height="250">
  <metadata
     id="metadata31">
    <rdf:RDF>
      <cc:Work
         rdf:about="">
        <dc:format>image/svg+xml</dc:format>
        <dc:type
           rdf:resource="http://purl.org/dc/dcmitype/StillImage" />
        <dc:title></dc:title>
      </cc:Work>
    </rdf:RDF>
  </metadata>
  <sodipodi:namedview
     pagecolor="#ffffff"
     bordercolor="#666666"
     borderopacity="1"
     objecttolerance="10"
     gridtolerance="10000"
     guidetolerance="10000"
     inkscape:pageopacity="0"
     inkscape:pageshadow="2"
     inkscape:window-width="1920"
     inkscape:window-height="1026"
     id="namedview29"
     showgrid="false"
     inkscape:zoom="0.91420696"
     inkscape:cx="8.4849172"
     inkscape:cy="266.88616"
     inkscape:window-x="-8"
     inkscape:window-y="1072"
     inkscape:window-maximized="1"
     inkscape:current-layer="g830"
     inkscape:snap-path-clip="true"
     inkscape:snap-path-mask="true"
     inkscape:snap-perpendicular="true"
     inkscape:snap-tangential="true"
     showborder="true"
     borderlayer="true"
     inkscape:pagecheckerboard="true" />
  <defs
     id="defs13">
    <clipPath
       id="a"
       transform="translate(178.38 178.11)">
      <circle
         cx="489.29999"
         cy="489.29999"
         r="475.29999"
         style="fill:none"
         id="circle2" />
    </clipPath>
    <radialGradient
       id="b"
       cx="466.56"
       cy="509.06"
       r="269.37"
       gradientUnits="userSpaceOnUse">
      <stop
         offset="0"
         stop-color="#fff"
         id="stop5" />
      <stop
         offset="0.43"
         stop-color="#eaeaea"
         id="stop7" />
      <stop
         offset="1"
         stop-color="#c8c8c8"
         id="stop9" />
    </radialGradient>
    <radialGradient
       id="c"
       cx="557.79999"
       cy="414.69"
       r="215.24001"
       xlink:href="#b" />
  </defs>
  <g
     id="g830"
     transform="translate(5.5283648e-6,-250)">
    <g
       id="g828"
       transform="matrix(0.49999225,0,0,0.4999904,-2.7642252e-6,250.0048)">
      <ellipse
         style="opacity:1;fill:#66b574;fill-opacity:1;fill-rule:nonzero;stroke:none;stroke-width:0;stroke-miterlimit:4;stroke-dasharray:none;stroke-opacity:1"
         id="path5119"
         cx="250.00388"
         cy="249.99519"
         rx="219.78214"
         ry="219.78499" />
      <path
         d="M 249.95732,499.99953 A 250.12766,250.05617 0 0 1 152.62101,19.669719 250.12478,250.05331 0 0 1 347.29364,480.35489 248.5025,248.43148 0 0 1 249.95732,499.99953 Z m 0,-485.673963 A 235.81799,235.7506 0 0 0 158.19668,467.17842 235.81475,235.74736 0 0 0 341.72308,32.846178 234.26948,234.20255 0 0 0 249.95732,14.325567 Z"
         style="fill:#66b574;fill-opacity:1;stroke-width:0.51098603"
         id="path21"
         inkscape:connector-curvature="0" />
      <path
         style="fill:#ffffff;stroke-width:0.33524767"
         inkscape:connector-curvature="0"
         id="path6"
         p-id="9177"
         d="m 250.01998,78.348411 c -49.7883,0 -108.34132,11.84363 -158.33345,37.590649 l -7.7992,3.99079 v 8.80762 c 0,53.08178 1.01915,194.72257 158.78402,288.49535 l 7.3379,4.40917 7.33788,-4.40917 C 415.12271,323.46004 416.12041,181.81925 416.12041,128.72675 v -8.70035 l -7.69193,-4.0337 C 359.03713,90.149131 299.80826,78.348411 250.00925,78.348411 Z m 0,28.783019 c 42.60057,0 94.18043,10.9103 136.97413,31.4221 -0.11793,55.61356 -5.97546,165.11349 -136.97413,247.89016 -130.9987,-82.77667 -136.8776,-192.2766 -136.97415,-247.89016 43.42664,-20.58689 94.37356,-31.4221 136.97415,-31.4221 z m 72.01654,79.60121 c -3.72259,0.11792 -6.91951,2.47815 -8.7218,4.28044 l -76.95139,79.81576 -28.78302,-34.51173 c -13.65665,-15.82369 -32.35543,-3.59386 -36.67878,-0.71878 l 66.89934,77.67018 91.32681,-123.7037 a 9.9876982,9.9876982 0 0 0 -6.98388,-2.83217 h -0.11792 z" />
    </g>
  </g>
</svg>
