<?xml version="1.0" encoding="UTF-8" standalone="no"?>
<svg
   xmlns:dc="http://purl.org/dc/elements/1.1/"
   xmlns:cc="http://creativecommons.org/ns#"
   xmlns:rdf="http://www.w3.org/1999/02/22-rdf-syntax-ns#"
   xmlns:svg="http://www.w3.org/2000/svg"
   xmlns="http://www.w3.org/2000/svg"
   xmlns:xlink="http://www.w3.org/1999/xlink"
   xmlns:sodipodi="http://sodipodi.sourceforge.net/DTD/sodipodi-0.dtd"
   xmlns:inkscape="http://www.inkscape.org/namespaces/inkscape"
   viewBox="0 0 250 250"
   version="1.1"
   id="svg27"
   sodipodi:docname="icon_Influxdb.svg"
   inkscape:version="0.92.4 (5da689c313, 2019-01-14)"
   width="250"
   height="250">
  <metadata
     id="metadata31">
    <rdf:RDF>
      <cc:Work
         rdf:about="">
        <dc:format>image/svg+xml</dc:format>
        <dc:type
           rdf:resource="http://purl.org/dc/dcmitype/StillImage" />
        <dc:title></dc:title>
      </cc:Work>
    </rdf:RDF>
  </metadata>
  <sodipodi:namedview
     pagecolor="#ffffff"
     bordercolor="#666666"
     borderopacity="1"
     objecttolerance="10"
     gridtolerance="10000"
     guidetolerance="10000"
     inkscape:pageopacity="0"
     inkscape:pageshadow="2"
     inkscape:window-width="1858"
     inkscape:window-height="1057"
     id="namedview29"
     showgrid="false"
     inkscape:zoom="1.2928839"
     inkscape:cx="-94.923849"
     inkscape:cy="203.0945"
     inkscape:window-x="-6"
     inkscape:window-y="-8"
     inkscape:window-maximized="1"
     inkscape:current-layer="g830"
     inkscape:snap-path-clip="true"
     inkscape:snap-path-mask="true"
     inkscape:snap-perpendicular="true"
     inkscape:snap-tangential="true"
     showborder="true"
     borderlayer="true"
     inkscape:pagecheckerboard="true" />
  <defs
     id="defs13">
    <clipPath
       id="a"
       transform="translate(178.38 178.11)">
      <circle
         cx="489.29999"
         cy="489.29999"
         r="475.29999"
         style="fill:none"
         id="circle2" />
    </clipPath>
    <radialGradient
       id="b"
       cx="466.56"
       cy="509.06"
       r="269.37"
       gradientUnits="userSpaceOnUse">
      <stop
         offset="0"
         stop-color="#fff"
         id="stop5" />
      <stop
         offset="0.43"
         stop-color="#eaeaea"
         id="stop7" />
      <stop
         offset="1"
         stop-color="#c8c8c8"
         id="stop9" />
    </radialGradient>
    <radialGradient
       id="c"
       cx="557.79999"
       cy="414.69"
       r="215.24001"
       xlink:href="#b" />
    <linearGradient
       x1="133.42035"
       y1="326.78146"
       x2="133.42035"
       y2="83.10022"
       id="linearGradient-1"
       gradientTransform="scale(0.95927378,1.0424553)"
       gradientUnits="userSpaceOnUse">
      <stop
         stop-color="#FFF100"
         offset="0%"
         id="stop2" />
      <stop
         stop-color="#F05A28"
         offset="100%"
         id="stop4" />
    </linearGradient>
  </defs>
  <g
     id="g830"
     transform="translate(5.5283648e-6,-250)">
    <ellipse
       ry="109.88975"
       rx="109.88937"
       cy="375.00217"
       cx="124.99658"
       id="path5119"
       style="opacity:1;fill:#ffffff;fill-opacity:1;fill-rule:nonzero;stroke:none;stroke-width:0;stroke-miterlimit:4;stroke-dasharray:none;stroke-opacity:1" />
    <path
       inkscape:connector-curvature="0"
       id="path21"
       style="fill:#13227a;fill-opacity:1;stroke-width:0.25548783"
       d="m 124.97672,499.99977 a 125.06189,125.02496 0 0 1 -48.667401,-240.1589 125.06045,125.02353 0 0 1 97.334811,230.33682 124.24932,124.21263 0 0 1 -48.66741,9.82208 z m 0,-242.83091 A 117.90717,117.87235 0 0 0 79.097111,483.58962 117.90555,117.87073 0 0 0 170.85889,266.42893 117.13292,117.09835 0 0 0 124.97672,257.16886 Z" />
    <g
       id="g1189"
       transform="matrix(1.0966831,0,0,1.0966831,-390.83161,-40.183726)">
      <path
         id="path6"
         p-id="34374"
         d="m 478.13301,394.38329 c 0,0 4,4 6.18,6.6 2.18,2.6 3.84,0.64 3.84,0.64 0,0 12.58,-11.72 14.28,-13.2 a 2,2 0 0 0 0.42,-2.98 c 0,0 -5.12,-5.32 -6.82,-7.24 a 2.34,2.34 0 0 0 -3.68,-0.22 c 0,0 -12.78,11.5 -14.48,13.2 a 2.22,2.22 0 0 0 0.26,3.2 z m -1.58,2.4 4.86,20.36 3.78,-11.72 z m 34.06,14.2 -5.44,-22 -16.56,15.7 z m 7.56,-28.16 -20.14,-6.2 8.18,8.86 z"
         style="fill:#13227a;stroke-width:0.1953125"
         inkscape:connector-curvature="0" />
      <path
         id="path8"
         p-id="34375"
         d="m 470.35302,278.58329 a 100,100 0 1 0 99.99999,100 100,100 0 0 0 -99.99999,-100 z m -62,61.74 c 0,-9.08 20,-16.16 44.72,-16.16 24.71999,0 44.73999,7.3 44.73999,16.42 v 13.06 c 0,9.08 -20.14,16.38 -44.71999,16.38 -24.58,0 -44.74,-7.44 -44.74,-16.64 z m 0,23.02 c 0,9.3 20,16.6 44.5,16.6 a 105.06,105.06 0 0 0 25.01999,-2.88 l -11.73999,12 c 0,0 -2.22,1.78 -0.88,6.86 a 21.02,21.02 0 0 0 0.88,3.32 73.72,73.72 0 0 1 -13.06,0.44 c -24.72,-0.02 -44.72,-7.56 -44.72,-16.64 z m 44.72,65.76 c -24.72,0 -44.72,-7.3 -44.72,-16.38 v -19.7 c 0,9.08 20,16.6 44.72,16.38 3.76,0 12,-0.66 15.5,-0.88 l 2.87999,12.4 a 6.12,6.12 0 0 0 4.42,4.88 l 2.88,0.88 c -1.98,0.66 -7.96,2.2 -25.67999,2.42 z m 76.83999,-16 c 0,0 -17.04,16 -19.48,18.38 a 5.6,5.6 0 0 1 -5.76,1.1 c 0,0 -19.7,-6 -24,-7.3 a 5.5,5.5 0 0 1 -4,-4.42 l -6.2,-26.58 a 5.28,5.28 0 0 1 2,-5.32 c 0,0 16.38,-15.06 18.82,-17.28 a 5.48,5.48 0 0 1 5.54,-0.88 c 0,0 19.7,6.2 24.8,7.52 4.64,1.32 4.88,4.42 4.88,4.42 0,0 4.2,18.16 5.54,23.48 a 6.64,6.64 0 0 1 -2.14,6.94 z"
         style="fill:#13227a;stroke-width:0.1953125"
         inkscape:connector-curvature="0" />
      <path
         id="path10"
         p-id="34376"
         d="m 521.43301,387.30329 c -0.6,-2.4 -3.2,-1.2 -3.2,-1.2 0,0 -7.58,1.6 -8.98,1.8 a 1.52,1.52 0 0 0 -1.4,2.2 c 0,0 3.8,16 4.4,18.36 0.6,2.36 3,1.4 3,1.4 l 8,-1.8 c 3.2,-0.8 2.4,-2.2 2.4,-2.2 0,0 -3.62,-15.96 -4.22,-18.56 z m -12.34,37.82 7.54,-6.2 7.52,-7.74 -11.74,2.86 z m -1.36,-12.38 c -2.5,-0.84 -18.16,-5.42 -18.16,-5.42 0,0 -2,-1.26 -2.72,0.42 -0.72,1.68 -3.14,9.8 -3.14,9.8 0,0 -1.46,2 1.26,2.92 2.72,0.92 17.74,5.42 17.74,5.42 0,0 2.92,1.66 3.76,-0.62 0.84,-2.92 2.72,-10 2.72,-10 0,0 0.84,-1.9 -1.46,-2.52 z"
         style="fill:#13227a;stroke-width:0.1953125"
         inkscape:connector-curvature="0" />
    </g>
  </g>
</svg>
