<?xml version="1.0" encoding="UTF-8" standalone="no"?>
<svg
   xmlns:dc="http://purl.org/dc/elements/1.1/"
   xmlns:cc="http://creativecommons.org/ns#"
   xmlns:rdf="http://www.w3.org/1999/02/22-rdf-syntax-ns#"
   xmlns:svg="http://www.w3.org/2000/svg"
   xmlns="http://www.w3.org/2000/svg"
   xmlns:xlink="http://www.w3.org/1999/xlink"
   xmlns:sodipodi="http://sodipodi.sourceforge.net/DTD/sodipodi-0.dtd"
   xmlns:inkscape="http://www.inkscape.org/namespaces/inkscape"
   viewBox="0 0 250 250"
   version="1.1"
   id="svg27"
   sodipodi:docname="icon_OpenWrt_Logo.svg"
   inkscape:version="1.0.2-2 (e86c870879, 2021-01-15)"
   width="250"
   height="250">
  <metadata
     id="metadata31">
    <rdf:RDF>
      <cc:Work
         rdf:about="">
        <dc:format>image/svg+xml</dc:format>
        <dc:type
           rdf:resource="http://purl.org/dc/dcmitype/StillImage" />
        <dc:title />
      </cc:Work>
    </rdf:RDF>
  </metadata>
  <sodipodi:namedview
     pagecolor="#ffffff"
     bordercolor="#666666"
     borderopacity="1"
     objecttolerance="10"
     gridtolerance="10000"
     guidetolerance="10000"
     inkscape:pageopacity="0"
     inkscape:pageshadow="2"
     inkscape:window-width="3840"
     inkscape:window-height="2066"
     id="namedview29"
     showgrid="false"
     inkscape:zoom="1.2928839"
     inkscape:cx="59.274846"
     inkscape:cy="92.371968"
     inkscape:window-x="-11"
     inkscape:window-y="-11"
     inkscape:window-maximized="1"
     inkscape:current-layer="svg27"
     inkscape:snap-path-clip="true"
     inkscape:snap-path-mask="true"
     inkscape:snap-perpendicular="true"
     inkscape:snap-tangential="true"
     showborder="true"
     borderlayer="true"
     inkscape:pagecheckerboard="true"
     inkscape:document-rotation="0" />
  <defs
     id="defs13">
    <clipPath
       id="a"
       transform="translate(178.38 178.11)">
      <circle
         cx="489.29999"
         cy="489.29999"
         r="475.29999"
         style="fill:none"
         id="circle2" />
    </clipPath>
    <radialGradient
       id="b"
       cx="466.56"
       cy="509.06"
       r="269.37"
       gradientUnits="userSpaceOnUse">
      <stop
         offset="0"
         stop-color="#fff"
         id="stop5" />
      <stop
         offset="0.43"
         stop-color="#eaeaea"
         id="stop7" />
      <stop
         offset="1"
         stop-color="#c8c8c8"
         id="stop9" />
    </radialGradient>
    <radialGradient
       id="c"
       cx="557.79999"
       cy="414.69"
       r="215.24001"
       xlink:href="#b" />
  </defs>
  <ellipse
     style="opacity:1;fill:#364e59;fill-opacity:1;fill-rule:nonzero;stroke:none;stroke-width:0;stroke-miterlimit:4;stroke-dasharray:none;stroke-opacity:1"
     id="path5119"
     cx="125.00389"
     cy="124.99835"
     rx="109.88937"
     ry="109.89038" />
  <path
     d="M 124.97673,249.99976 A 125.06189,125.02568 0 0 1 76.309325,9.83947 a 125.06045,125.02425 0 0 1 97.334805,230.33816 124.24932,124.21336 0 0 1 -48.6674,9.82213 z m 0,-242.8323147 A 117.90717,117.87304 0 0 0 79.097117,233.58952 117.90555,117.87142 0 0 0 170.85889,16.427573 117.13292,117.09903 0 0 0 124.97673,7.1674453 Z"
     style="fill:#364e59;fill-opacity:1;stroke-width:0.25548857"
     id="path21"
     inkscape:connector-curvature="0" />
  <g
     id="g1133"
     transform="translate(0,6.4916028)">
    <g
       transform="matrix(0.66496386,0,0,0.66496386,45.758507,237.83631)"
       id="g1071">
      <g
         id="g168"
         transform="matrix(4.5937572,0,0,-4.5937572,119.17155,-217.11979)"
         style="fill:#43b0e8;fill-opacity:1">
        <path
           inkscape:connector-curvature="0"
           d="m 0,0 c -1.424,0 -2.583,-1.159 -2.583,-2.583 0,-1.424 1.159,-2.583 2.583,-2.583 1.424,0 2.583,1.159 2.583,2.583 C 2.583,-1.159 1.424,0 0,0"
           style="fill:#43b0e8;fill-opacity:1;fill-rule:nonzero;stroke:none"
           id="path170" />
      </g>
      <g
         id="g172"
         transform="matrix(4.5937572,0,0,-4.5937572,46.405059,-278.02016)"
         style="fill:#43b0e8;fill-opacity:1">
        <path
           inkscape:connector-curvature="0"
           d="m 0,0 2.685,-2.685 c 3.37,3.371 8.023,5.458 13.155,5.458 5.132,0 9.785,-2.087 13.156,-5.458 L 31.681,0 C 27.623,4.058 22.019,6.572 15.84,6.572 9.662,6.572 4.059,4.058 0,0"
           style="fill:#43b0e8;fill-opacity:1;fill-rule:nonzero;stroke:none"
           id="path174" />
      </g>
      <g
         id="g176"
         transform="matrix(4.5937572,0,0,-4.5937572,68.606689,-255.82036)"
         style="fill:#43b0e8;fill-opacity:1">
        <path
           inkscape:connector-curvature="0"
           d="m 0,0 2.685,-2.685 c 2.132,2.132 5.076,3.453 8.322,3.453 3.247,0 6.191,-1.321 8.323,-3.453 L 22.015,0 C 19.195,2.82 15.301,4.567 11.007,4.567 6.713,4.567 2.82,2.82 0,0"
           style="fill:#43b0e8;fill-opacity:1;fill-rule:nonzero;stroke:none"
           id="path178" />
      </g>
      <g
         id="g180"
         transform="matrix(4.5937572,0,0,-4.5937572,90.806019,-233.62011)"
         style="fill:#43b0e8;fill-opacity:1">
        <path
           inkscape:connector-curvature="0"
           d="m 0,0 2.685,-2.685 c 0.894,0.894 2.128,1.448 3.49,1.448 1.362,0 2.596,-0.554 3.49,-1.448 L 12.35,0 C 10.768,1.582 8.583,2.562 6.175,2.562 3.766,2.562 1.582,1.582 0,0"
           style="fill:#43b0e8;fill-opacity:1;fill-rule:nonzero;stroke:none"
           id="path182" />
      </g>
      <g
         id="g184"
         transform="matrix(4.5937572,0,0,-4.5937572,162.87059,-237.08702)"
         style="fill:#072342;fill-opacity:1">
        <path
           inkscape:connector-curvature="0"
           d="m 0,0 c 1.421,-1.946 2.263,-4.341 2.263,-6.93 0,-6.493 -5.283,-11.775 -11.776,-11.775 -6.493,0 -11.776,5.282 -11.776,11.775 0,2.589 0.842,4.984 2.264,6.93 l -2.708,2.708 c -2.098,-2.654 -3.354,-6.001 -3.354,-9.638 0,-8.587 6.986,-15.574 15.574,-15.574 8.588,0 15.575,6.987 15.575,15.574 0,3.637 -1.257,6.984 -3.354,9.638 z"
           style="fill:#072342;fill-opacity:1;fill-rule:nonzero;stroke:none"
           id="path186" />
      </g>
    </g>
    <g
       transform="matrix(0.31467611,0,0,0.31467611,-25.795814,231.03868)"
       id="g1096">
      <path
         inkscape:connector-curvature="0"
         d="m 287.52128,-220.83982 c 7.93341,7.89667 11.89782,17.52978 11.89782,28.90852 0,11.29604 -3.96441,20.87403 -11.89782,28.72936 -7.93342,7.85532 -17.62625,11.78298 -29.08308,11.78298 -11.45224,0 -21.14507,-3.92766 -29.07848,-11.78298 -7.92883,-7.85533 -11.89785,-17.43332 -11.89785,-28.72936 0,-11.37874 3.96902,-21.01185 11.89785,-28.90852 7.93341,-7.89207 17.62624,-11.83811 29.07848,-11.83811 11.45683,0 21.14966,3.94604 29.08308,11.83811 m -11.26389,47.24678 c 4.8418,-4.87397 7.25812,-10.98825 7.25812,-18.33826 0,-7.35461 -2.41632,-13.50565 -7.25812,-18.45773 -4.83264,-4.95666 -10.77237,-7.43269 -17.81919,-7.43269 -7.03765,0 -12.98196,2.47603 -17.81459,7.43269 -4.83723,4.95208 -7.25814,11.10312 -7.25814,18.45773 0,7.35001 2.42091,13.46429 7.25814,18.33826 4.83263,4.87858 10.77694,7.31328 17.81459,7.31328 7.04682,0 12.98655,-2.4347 17.81919,-7.31328"
         style="fill:#43b0e8;fill-opacity:1;fill-rule:nonzero;stroke:none;stroke-width:4.59376"
         id="path36" />
      <path
         inkscape:connector-curvature="0"
         d="m 366.56835,-204.06387 c 5.68708,5.84326 8.53062,13.1749 8.53062,21.99951 0,8.82001 -2.82517,16.13327 -8.47548,21.93978 -5.64574,5.80192 -12.30667,8.70517 -19.96444,8.70517 -7.58432,0 -13.96966,-2.09017 -19.15599,-6.27047 v 24.26422 h -15.32022 v -77.66206 h 15.32022 v 4.64429 c 5.10825,-4.25842 11.49359,-6.38533 19.15599,-6.38533 7.58423,0 14.22222,2.92164 19.9093,8.76489 m -10.91016,34.59559 c 3.05484,-3.13754 4.58456,-7.33624 4.58456,-12.59608 0,-5.26445 -1.52972,-9.48153 -4.58456,-12.65581 -3.05944,-3.17427 -6.95035,-4.75913 -11.67275,-4.75913 -4.3319,0 -8.16309,1.6262 -11.48898,4.87857 -3.33049,3.24779 -4.9934,7.42811 -4.9934,12.53637 0,5.10366 1.66291,9.26561 4.9934,12.47663 3.32589,3.21105 7.15708,4.81887 11.48898,4.81887 4.7224,0 8.61331,-1.56648 11.67275,-4.69942"
         style="fill:#43b0e8;fill-opacity:1;fill-rule:nonzero;stroke:none;stroke-width:4.59376"
         id="path40" />
      <path
         inkscape:connector-curvature="0"
         d="m 441.37862,-178.00303 h -44.11385 c 0.77632,4.10223 2.49439,7.36839 5.16797,9.80768 2.66897,2.43928 5.78353,3.66121 9.3437,3.66121 6.57826,0 11.37871,-2.55872 14.39223,-7.66698 l 13.69861,2.90326 c -2.47604,5.8846 -6.15106,10.33135 -11.02505,13.34946 -4.87855,3.02269 -10.56563,4.52944 -17.06579,4.52944 -8.35606,0 -15.39829,-2.86191 -21.12671,-8.59031 -5.72839,-5.72842 -8.59031,-13.07844 -8.59031,-22.05465 0,-8.98079 2.88031,-16.34918 8.64545,-22.11434 5.76974,-5.76976 12.86713,-8.65004 21.30127,-8.65004 7.89667,0 14.68622,2.76544 20.37791,8.29632 5.68705,5.53548 8.68681,12.63743 8.99457,21.30585 z m -38.25223,-18.692 c -2.74706,1.86047 -4.54323,4.4927 -5.39307,7.89667 h 27.97137 c -0.92788,-3.56017 -2.62761,-6.22913 -5.10365,-8.01151 -2.47604,-1.77778 -5.34252,-2.66898 -8.5949,-2.66898 -3.16972,0 -6.13267,0.92793 -8.87975,2.78382"
         style="fill:#43b0e8;fill-opacity:1;fill-rule:nonzero;stroke:none;stroke-width:4.59376"
         id="path44" />
      <path
         inkscape:connector-curvature="0"
         d="m 503.36263,-206.03736 c 4.25843,4.52486 6.38534,10.3865 6.38534,17.58491 v 35.29384 H 494.4232 v -32.04146 c 0,-4.10224 -1.06116,-7.39135 -3.19267,-9.86739 -2.12691,-2.47604 -4.97045,-3.71636 -8.53062,-3.71636 -9.59635,0 -14.39684,6.65636 -14.39684,19.96907 v 25.65614 H 452.9829 v -57.92729 h 15.32017 v 5.22311 c 4.64428,-4.64429 10.72185,-6.96873 18.22803,-6.96873 6.96416,0 12.57773,2.26472 16.83153,6.79416"
         style="fill:#43b0e8;fill-opacity:1;fill-rule:nonzero;stroke:none;stroke-width:4.59376"
         id="path48" />
      <path
         inkscape:connector-curvature="0"
         d="m 604.23463,-153.16046 h -16.94638 l -15.0905,-52.4699 -15.20989,52.4699 H 540.1563 l -22.63805,-77.7769 h 16.48241 l 14.86082,53.63211 15.6739,-53.63211 h 15.2053 l 15.67394,53.63211 14.8562,-53.63211 h 16.60183 z"
         style="fill:#43b0e8;fill-opacity:1;fill-rule:nonzero;stroke:none;stroke-width:4.59376"
         id="path52" />
      <path
         inkscape:connector-curvature="0"
         d="m 674.57429,-211.43455 -0.81308,14.74137 H 670.394 c -13.77672,0 -20.66273,8.28254 -20.66273,24.84303 v 18.68741 h -15.32475 v -57.92269 h 15.32475 v 10.56105 c 5.26443,-7.58429 12.19183,-11.37415 20.78214,-11.37415 1.77781,0 3.13296,0.15155 4.06088,0.46396"
         style="fill:#43b0e8;fill-opacity:1;fill-rule:nonzero;stroke:none;stroke-width:4.59376"
         id="path64" />
      <path
         inkscape:connector-curvature="0"
         d="m 727.50349,-155.71457 c -5.33788,2.8665 -10.368,4.29516 -15.09042,4.29516 -7.12038,0 -12.69257,-1.91559 -16.71669,-5.74679 -4.02412,-3.83118 -6.03618,-9.61474 -6.03618,-17.35522 v -24.02994 h -12.42157 v -12.53636 h 12.42157 v -17.52978 h 15.32473 v 17.52978 h 18.92174 v 12.53636 h -18.92174 v 22.86773 c 0,6.65635 2.8252,9.98683 8.4709,9.98683 2.94455,0 6.15565,-0.93249 9.6377,-2.78842 z"
         style="fill:#43b0e8;fill-opacity:1;fill-rule:nonzero;stroke:none;stroke-width:4.59376"
         id="path68" />
      <path
         inkscape:connector-curvature="0"
         d="m 363.33155,-125.23224 h -4.47893 l -2.83433,-10.47376 -2.85737,10.47376 h -4.45591 l -4.83265,-16.95096 h 4.27679 l 2.96299,10.67589 2.90786,-10.67589 h 3.97358 l 2.90785,10.67589 2.96299,-10.67589 h 4.29976 z"
         style="fill:#072342;fill-opacity:1;fill-rule:nonzero;stroke:none;stroke-width:4.59376"
         id="path72" />
      <path
         inkscape:connector-curvature="0"
         d="m 374.84992,-125.23407 h 4.17574 v -16.95097 h -4.17574 z"
         style="fill:#072342;fill-opacity:1;fill-rule:nonzero;stroke:none;stroke-width:4.59376"
         id="path74" />
      <path
         inkscape:connector-curvature="0"
         d="m 397.52249,-125.23224 -5.11289,-5.82028 h -1.21268 v 5.82028 h -4.17574 v -16.95096 h 8.57653 c 1.83752,0 3.31675,0.50992 4.42842,1.52972 1.11632,1.01985 1.6721,2.35659 1.6721,4.01034 0,1.38273 -0.39964,2.54955 -1.18978,3.50504 -0.79471,0.95097 -1.87886,1.58026 -3.26617,1.88344 l 5.31495,6.02242 z m -2.37959,-9.31155 c 0.7442,0 1.33676,-0.18828 1.78699,-0.5559 0.4456,-0.37215 0.67073,-0.86828 0.67073,-1.49296 0,-0.61098 -0.22522,-1.09785 -0.67073,-1.47 -0.45018,-0.36747 -1.04279,-0.55589 -1.78699,-0.55589 h -3.94603 v 4.07465 z"
         style="fill:#072342;fill-opacity:1;fill-rule:nonzero;stroke:none;stroke-width:4.59376"
         id="path86" />
      <path
         inkscape:connector-curvature="0"
         d="m 422.47387,-125.23224 h -13.20706 v -16.95096 h 13.12895 v 3.59231 h -8.95324 v 3.18807 h 8.22284 v 3.3902 h -8.22284 v 3.18806 h 9.03135 z"
         style="fill:#072342;fill-opacity:1;fill-rule:nonzero;stroke:none;stroke-width:4.59376"
         id="path90" />
      <path
         inkscape:connector-curvature="0"
         d="m 442.66806,-125.23224 h -12.52717 v -16.95096 h 4.18029 v 13.30811 h 8.34688 z"
         style="fill:#072342;fill-opacity:1;fill-rule:nonzero;stroke:none;stroke-width:4.59376"
         id="path94" />
      <path
         inkscape:connector-curvature="0"
         d="m 463.26826,-125.23224 h -13.20703 v -16.95096 h 13.12898 v 3.59231 h -8.95324 v 3.18807 h 8.22281 v 3.3902 h -8.22281 v 3.18806 h 9.03129 z"
         style="fill:#072342;fill-opacity:1;fill-rule:nonzero;stroke:none;stroke-width:4.59376"
         id="path98" />
      <path
         inkscape:connector-curvature="0"
         d="m 482.24881,-141.26308 c 1.24959,0.86829 2.03048,2.07179 2.35199,3.60611 l -4.09761,0.83612 c -0.15139,-0.75799 -0.50997,-1.34598 -1.0657,-1.75941 -0.55122,-0.41344 -1.18979,-0.62023 -1.89722,-0.62023 -0.67533,0 -1.22194,0.16539 -1.64458,0.49157 -0.42267,0.33076 -0.63386,0.73964 -0.63386,1.23107 0,0.73963 0.45937,1.21271 1.36893,1.41487 l 3.51423,0.78547 c 3.10536,0.68911 4.65804,2.33823 4.65804,4.9337 0,1.73644 -0.66604,3.087 -1.99826,4.0471 -1.33221,0.96009 -2.99514,1.44244 -4.98422,1.44244 -1.97529,0 -3.64748,-0.45016 -5.021,-1.35056 -1.37814,-0.905 -2.17286,-2.16367 -2.39333,-3.78525 l 4.29974,-0.83144 c 0.40889,1.66753 1.52054,2.5036 3.33966,2.5036 0.77634,0 1.39192,-0.16079 1.83748,-0.48232 0.44563,-0.32151 0.67078,-0.74419 0.67078,-1.26323 0,-0.4042 -0.1146,-0.72583 -0.34458,-0.96465 -0.22522,-0.23425 -0.6339,-0.41344 -1.22647,-0.52829 l -3.54182,-0.76255 c -3.03645,-0.68911 -4.55239,-2.32444 -4.55239,-4.90613 0,-1.63997 0.61552,-2.93541 1.84667,-3.9001 1.2312,-0.96009 2.84811,-1.43784 4.85557,-1.43784 1.86052,0 3.4086,0.4318 4.6581,1.30008"
         style="fill:#072342;fill-opacity:1;fill-rule:nonzero;stroke:none;stroke-width:4.59376"
         id="path110" />
      <path
         inkscape:connector-curvature="0"
         d="m 503.25285,-141.26308 c 1.2496,0.86829 2.03505,2.07179 2.35662,3.60611 l -4.10226,0.83612 c -0.15164,-0.75799 -0.50534,-1.34598 -1.06113,-1.75941 -0.55589,-0.41344 -1.1898,-0.62023 -1.89721,-0.62023 -0.67528,0 -1.22652,0.16539 -1.64459,0.49157 -0.42254,0.33076 -0.63384,0.73964 -0.63384,1.23107 0,0.73963 0.45484,1.21271 1.36431,1.41487 l 3.51884,0.78547 c 3.10076,0.68911 4.65344,2.33823 4.65344,4.9337 0,1.73644 -0.66152,3.087 -1.99827,4.0471 -1.33217,0.96009 -2.99513,1.44244 -4.98422,1.44244 -1.97072,0 -3.64745,-0.45016 -5.02099,-1.35056 -1.37352,-0.905 -2.17283,-2.16367 -2.39333,-3.78525 l 4.30436,-0.83144 c 0.40416,1.66753 1.51591,2.5036 3.33964,2.5036 0.77637,0 1.38728,-0.16079 1.83289,-0.48232 0.45016,-0.32151 0.67074,-0.74419 0.67074,-1.26323 0,-0.4042 -0.1146,-0.72583 -0.34,-0.96465 -0.2297,-0.23425 -0.63855,-0.41344 -1.22648,-0.52829 l -3.54179,-0.76255 c -3.04108,-0.68911 -4.55701,-2.32444 -4.55701,-4.90613 0,-1.63997 0.61554,-2.93541 1.84667,-3.9001 1.23119,-0.96009 2.85271,-1.43784 4.85562,-1.43784 1.86047,0 3.41315,0.4318 4.65806,1.30008"
         style="fill:#072342;fill-opacity:1;fill-rule:nonzero;stroke:none;stroke-width:4.59376"
         id="path114" />
      <path
         inkscape:connector-curvature="0"
         d="m 528.46013,-134.94852 h 7.94259 v 3.64286 h -7.94259 v 6.07295 h -4.17576 v -16.95098 h 13.106 v 3.66583 h -8.93024 z"
         style="fill:#072342;fill-opacity:1;fill-rule:nonzero;stroke:none;stroke-width:4.59376"
         id="path118" />
      <path
         inkscape:connector-curvature="0"
         d="m 554.98223,-125.23224 -5.11284,-5.82028 h -1.21273 v 5.82028 h -4.17569 v -16.95096 h 8.57652 c 1.83749,0 3.31211,0.50992 4.42838,1.52972 1.11634,1.01985 1.67213,2.35659 1.67213,4.01034 0,1.38273 -0.39962,2.54955 -1.19433,3.50504 -0.79019,0.95097 -1.87887,1.58026 -3.26158,1.88344 l 5.31496,6.02242 z m -2.38415,-9.31155 c 0.74874,0 1.3414,-0.18828 1.78698,-0.5559 0.4456,-0.37215 0.67063,-0.86828 0.67063,-1.49296 0,-0.61098 -0.22522,-1.09785 -0.67063,-1.47 -0.44558,-0.36747 -1.03821,-0.55589 -1.78698,-0.55589 h -3.94145 v 4.07465 z"
         style="fill:#072342;fill-opacity:1;fill-rule:nonzero;stroke:none;stroke-width:4.59376"
         id="path130" />
      <path
         inkscape:connector-curvature="0"
         d="M 579.93366,-125.23224 H 566.7266 v -16.95096 h 13.12897 v 3.59231 h -8.95325 v 3.18807 h 8.21825 v 3.3902 h -8.21825 v 3.18806 h 9.03134 z"
         style="fill:#072342;fill-opacity:1;fill-rule:nonzero;stroke:none;stroke-width:4.59376"
         id="path134" />
      <path
         inkscape:connector-curvature="0"
         d="m 600.81179,-125.23224 h -13.20706 v -16.95096 h 13.12898 v 3.59231 h -8.95781 v 3.18807 h 8.22738 v 3.3902 h -8.22738 v 3.18806 h 9.03589 z"
         style="fill:#072342;fill-opacity:1;fill-rule:nonzero;stroke:none;stroke-width:4.59376"
         id="path138" />
      <path
         inkscape:connector-curvature="0"
         d="m 615.18526,-142.1855 c 2.7838,0 5.02556,0.7809 6.72989,2.34281 1.70427,1.55728 2.55409,3.60609 2.55409,6.13266 0,2.53118 -0.84977,4.5754 -2.55409,6.13727 -1.70433,1.56188 -3.94609,2.33822 -6.72989,2.33822 h -6.7069 v -16.95096 z m -0.15139,13.33567 c 1.58484,0 2.85268,-0.4456 3.80819,-1.32759 0.95098,-0.88665 1.42865,-2.0626 1.42865,-3.53261 0,-1.4654 -0.47775,-2.64141 -1.42865,-3.52799 -0.95551,-0.88665 -2.22335,-1.3276 -3.80819,-1.3276 h -2.37959 v 9.71579 z"
         style="fill:#072342;fill-opacity:1;fill-rule:nonzero;stroke:none;stroke-width:4.59376"
         id="path150" />
      <path
         inkscape:connector-curvature="0"
         d="m 646.75403,-139.98463 c 1.74564,1.72265 2.61844,3.822 2.61844,6.30263 0,2.46225 -0.87285,4.54782 -2.61844,6.26129 -1.74564,1.71347 -3.88175,2.56791 -6.4129,2.56791 -2.53115,0 -4.66726,-0.85448 -6.41288,-2.56791 -1.74562,-1.71347 -2.61841,-3.79904 -2.61841,-6.26129 0,-2.48063 0.87279,-4.57998 2.61841,-6.30263 1.74562,-1.71807 3.88173,-2.5817 6.41288,-2.5817 2.53115,0 4.66726,0.8636 6.4129,2.5817 m -2.94462,9.88117 c 0.92796,-0.95098 1.39192,-2.14528 1.39192,-3.57854 0,-1.45164 -0.46393,-2.65978 -1.39192,-3.61989 -0.93248,-0.96009 -2.08557,-1.44243 -3.46828,-1.44243 -1.38269,0 -2.54033,0.48232 -3.46368,1.44243 -0.93249,0.96009 -1.39652,2.16825 -1.39652,3.61989 0,1.43326 0.46395,2.62763 1.39652,3.57854 0.92338,0.95553 2.08099,1.43325 3.46368,1.43325 1.38271,0 2.53577,-0.47776 3.46828,-1.43325"
         style="fill:#072342;fill-opacity:1;fill-rule:nonzero;stroke:none;stroke-width:4.59376"
         id="path154" />
      <path
         inkscape:connector-curvature="0"
         d="m 676.35107,-125.23224 h -4.0471 v -8.45251 l -4.42837,8.45251 h -2.58168 l -4.45136,-8.50305 v 8.50305 h -4.05167 v -16.95096 h 4.09757 l 5.6963,10.50132 5.69166,-10.50132 h 4.07465 z"
         style="fill:#072342;fill-opacity:1;fill-rule:nonzero;stroke:none;stroke-width:4.59376"
         id="path158" />
      <path
         inkscape:connector-curvature="0"
         d="m 740.98208,-232.65725 c 0,1.11166 -0.20658,2.14528 -0.62479,3.10538 -0.41797,0.96009 -0.98765,1.80076 -1.70887,2.52197 -0.72573,0.72583 -1.57105,1.2954 -2.54487,1.70888 -0.97399,0.41799 -2.01212,0.62933 -3.12839,0.62933 -1.11169,0 -2.1453,-0.21135 -3.1054,-0.62933 -0.9601,-0.41344 -1.80073,-0.98301 -2.52195,-1.70888 -0.72585,-0.72127 -1.29541,-1.56188 -1.70893,-2.52197 -0.41797,-0.96009 -0.62936,-1.9937 -0.62936,-3.10538 0,-1.11166 0.21133,-2.15448 0.62936,-3.12836 0.41345,-0.97389 0.98302,-1.81912 1.70893,-2.54494 0.72128,-0.72127 1.56185,-1.29084 2.52195,-1.70887 0.9601,-0.418 1.99371,-0.62478 3.1054,-0.62478 1.11615,0 2.1544,0.20678 3.12839,0.62478 0.97388,0.41799 1.81914,0.98769 2.54487,1.70887 0.72128,0.72583 1.29084,1.57107 1.70887,2.54494 0.41803,0.97389 0.62479,2.01667 0.62479,3.12836 m -1.29078,0 c 0,-0.91881 -0.17452,-1.78698 -0.52373,-2.60926 -0.34909,-0.81763 -0.82691,-1.53432 -1.43786,-2.14528 -0.61101,-0.61098 -1.32766,-1.0933 -2.14994,-1.43784 -0.81765,-0.34911 -1.68583,-0.52373 -2.60467,-0.52373 -0.91883,0 -1.78701,0.17449 -2.6046,0.52373 -0.81765,0.34455 -1.53893,0.82687 -2.14531,1.43784 -0.61552,0.61098 -1.09322,1.3276 -1.44243,2.14528 -0.34909,0.82232 -0.51903,1.6905 -0.51903,2.60926 0,0.91412 0.17,1.78697 0.51903,2.60466 0.34909,0.82232 0.82685,1.53431 1.44243,2.14988 0.60644,0.61098 1.3276,1.08874 2.14531,1.43784 0.81777,0.34911 1.68583,0.51904 2.6046,0.51904 0.91884,0 1.78702,-0.16991 2.60467,-0.51904 0.82234,-0.34911 1.53893,-0.82688 2.14994,-1.43784 0.61095,-0.61554 1.08877,-1.3276 1.43786,-2.14988 0.34909,-0.81763 0.52373,-1.6905 0.52373,-2.60466 m -5.17258,3.29373 v -1.87885 c 0,-0.35836 -0.0781,-0.61553 -0.22973,-0.76711 -0.1516,-0.15611 -0.45016,-0.2297 -0.89574,-0.2297 h -1.62627 v 2.87569 h -1.50217 v -7.29948 h 3.71178 c 0.69367,0 1.24495,0.20209 1.64457,0.60642 0.40425,0.40419 0.60638,0.90957 0.60638,1.52054 0,0.39053 -0.0925,0.73039 -0.27095,1.02442 -0.17921,0.28934 -0.45009,0.50537 -0.81302,0.64314 0.33526,0.1146 0.56505,0.27098 0.68904,0.48232 0.12386,0.20676 0.18823,0.51905 0.18823,0.93717 v 2.08557 z m -2.75174,-6.04539 v 1.95693 h 1.91569 c 0.39047,0 0.6752,-0.0873 0.85446,-0.27098 0.18372,-0.17916 0.2757,-0.40888 0.2757,-0.68442 0,-0.30783 -0.082,-0.55121 -0.25266,-0.73039 -0.16561,-0.17916 -0.44564,-0.27098 -0.83611,-0.27098 z"
         style="fill:#43b0e8;fill-opacity:1;fill-rule:nonzero;stroke:none;stroke-width:4.59376"
         id="path190" />
    </g>
  </g>
</svg>
