<?xml version="1.0" encoding="UTF-8" standalone="no"?>
<svg
   xmlns:dc="http://purl.org/dc/elements/1.1/"
   xmlns:cc="http://creativecommons.org/ns#"
   xmlns:rdf="http://www.w3.org/1999/02/22-rdf-syntax-ns#"
   xmlns:svg="http://www.w3.org/2000/svg"
   xmlns="http://www.w3.org/2000/svg"
   xmlns:xlink="http://www.w3.org/1999/xlink"
   xmlns:sodipodi="http://sodipodi.sourceforge.net/DTD/sodipodi-0.dtd"
   xmlns:inkscape="http://www.inkscape.org/namespaces/inkscape"
   viewBox="0 0 250 250"
   version="1.1"
   id="svg27"
   sodipodi:docname="icon_docker2.svg"
   inkscape:version="0.92.4 (5da689c313, 2019-01-14)"
   width="250"
   height="250">
  <metadata
     id="metadata31">
    <rdf:RDF>
      <cc:Work
         rdf:about="">
        <dc:format>image/svg+xml</dc:format>
        <dc:type
           rdf:resource="http://purl.org/dc/dcmitype/StillImage" />
        <dc:title></dc:title>
      </cc:Work>
    </rdf:RDF>
  </metadata>
  <sodipodi:namedview
     pagecolor="#ffffff"
     bordercolor="#666666"
     borderopacity="1"
     objecttolerance="10"
     gridtolerance="10000"
     guidetolerance="10000"
     inkscape:pageopacity="0"
     inkscape:pageshadow="2"
     inkscape:window-width="1150"
     inkscape:window-height="789"
     id="namedview29"
     showgrid="false"
     inkscape:zoom="1.8284139"
     inkscape:cx="121.98461"
     inkscape:cy="129.84871"
     inkscape:window-x="710"
     inkscape:window-y="141"
     inkscape:window-maximized="0"
     inkscape:current-layer="g830"
     inkscape:snap-path-clip="true"
     inkscape:snap-path-mask="true"
     inkscape:snap-perpendicular="true"
     inkscape:snap-tangential="true"
     showborder="true"
     borderlayer="true"
     inkscape:pagecheckerboard="true" />
  <defs
     id="defs13">
    <clipPath
       id="a"
       transform="translate(178.38 178.11)">
      <circle
         cx="489.29999"
         cy="489.29999"
         r="475.29999"
         style="fill:none"
         id="circle2" />
    </clipPath>
    <radialGradient
       id="b"
       cx="466.56"
       cy="509.06"
       r="269.37"
       gradientUnits="userSpaceOnUse">
      <stop
         offset="0"
         stop-color="#fff"
         id="stop5" />
      <stop
         offset="0.43"
         stop-color="#eaeaea"
         id="stop7" />
      <stop
         offset="1"
         stop-color="#c8c8c8"
         id="stop9" />
    </radialGradient>
    <radialGradient
       id="c"
       cx="557.79999"
       cy="414.69"
       r="215.24001"
       xlink:href="#b" />
  </defs>
  <g
     id="g830"
     transform="translate(5.5283648e-6,-250)">
    <ellipse
       ry="109.88975"
       rx="109.88937"
       cy="375.00217"
       cx="124.99658"
       id="path5119"
       style="opacity:1;fill:#ffffff;fill-opacity:1;fill-rule:nonzero;stroke:none;stroke-width:0;stroke-miterlimit:4;stroke-dasharray:none;stroke-opacity:1" />
    <path
       inkscape:connector-curvature="0"
       id="path21"
       style="fill:#13227a;fill-opacity:1;stroke-width:0.25548783"
       d="m 124.97672,499.99977 a 125.06189,125.02496 0 0 1 -48.667401,-240.1589 125.06045,125.02353 0 0 1 97.334811,230.33682 124.24932,124.21263 0 0 1 -48.66741,9.82208 z m 0,-242.83091 A 117.90717,117.87235 0 0 0 79.097111,483.58962 117.90555,117.87073 0 0 0 170.85889,266.42893 117.13292,117.09835 0 0 0 124.97672,257.16886 Z" />
    <path
       d="m 124.99658,264.33719 a 110.66498,110.66498 0 1 1 0,221.32996 110.66498,110.66498 0 0 1 0,-221.32996 z m 52.5382,78.41997 -1.77064,2.14414 a 23.267312,23.267312 0 0 0 -4.37127,15.93575 c 0.31817,3.87328 1.63231,7.59439 3.80411,10.81751 -1.7153,0.88532 -3.9286,1.70147 -5.57475,2.58679 a 36.740774,36.740774 0 0 1 -11.68898,1.77064 H 46.631949 l -0.44266,2.53146 c -0.829988,8.39671 0.511825,16.87641 3.914774,24.59529 l 1.715307,3.04329 v 0.44266 c 10.374842,17.26374 28.897393,25.28695 49.13525,25.28695 38.7604,0 70.63192,-16.75191 85.75152,-52.98086 9.86302,0.42882 19.85053,-2.15797 24.52613,-11.57833 l 1.27265,-2.15796 -2.08881,-1.32798 a 26.49043,26.49043 0 0 0 -19.78136,-2.14414 l -0.13833,-0.44266 a 25.729608,25.729608 0 0 0 -10.8175,-16.75191 z m -98.118331,48.55426 c 4.744762,0 8.687201,3.63811 9.074529,8.35521 a 9.0468622,9.0468622 0 0 1 -9.033029,8.65953 l -0.06917,-0.0553 a 9.0468622,9.0468622 0 0 1 -9.046862,-8.6042 9.1021947,9.1021947 0 0 1 9.074528,-8.35521 z m 55.553811,-36.86527 h -16.87641 v 16.76575 h 16.87641 z m 20.61136,0 h -16.73808 v 16.76575 h 16.73808 z m -62.401214,-0.0553 -0.06916,0.0553 H 76.359329 v 16.76575 h 16.821077 z m 21.054004,0 -0.0692,0.0553 H 97.468675 v 16.76575 h 16.765735 z m -41.734522,0 -0.193664,0.0553 H 55.678811 V 371.2119 H 72.499888 Z M 134.95643,333.323 h -16.87641 v 16.77958 h 16.87641 z m -20.74968,0 H 97.468675 v 16.77958 h 16.738075 z m -21.040177,0 H 76.414662 v 16.77958 H 93.180406 V 333.323 Z m 41.789857,-21.53817 h -16.87641 v 16.82108 h 16.87641 V 311.771 Z"
       p-id="1377"
       id="path6"
       inkscape:connector-curvature="0"
       style="fill:#13227a;stroke-width:0.21614254;fill-opacity:1" />
  </g>
</svg>
