<?xml version="1.0" encoding="UTF-8" standalone="no"?>
<svg
   xmlns:dc="http://purl.org/dc/elements/1.1/"
   xmlns:cc="http://creativecommons.org/ns#"
   xmlns:rdf="http://www.w3.org/1999/02/22-rdf-syntax-ns#"
   xmlns:svg="http://www.w3.org/2000/svg"
   xmlns="http://www.w3.org/2000/svg"
   xmlns:xlink="http://www.w3.org/1999/xlink"
   xmlns:sodipodi="http://sodipodi.sourceforge.net/DTD/sodipodi-0.dtd"
   xmlns:inkscape="http://www.inkscape.org/namespaces/inkscape"
   viewBox="0 0 250 250"
   version="1.1"
   id="svg27"
   sodipodi:docname="icon_cloud9.svg"
   inkscape:version="0.92.4 (5da689c313, 2019-01-14)"
   width="250"
   height="250">
  <metadata
     id="metadata31">
    <rdf:RDF>
      <cc:Work
         rdf:about="">
        <dc:format>image/svg+xml</dc:format>
        <dc:type
           rdf:resource="http://purl.org/dc/dcmitype/StillImage" />
        <dc:title />
      </cc:Work>
    </rdf:RDF>
  </metadata>
  <sodipodi:namedview
     pagecolor="#ffffff"
     bordercolor="#666666"
     borderopacity="1"
     objecttolerance="10"
     gridtolerance="10000"
     guidetolerance="10000"
     inkscape:pageopacity="0"
     inkscape:pageshadow="2"
     inkscape:window-width="1920"
     inkscape:window-height="1026"
     id="namedview29"
     showgrid="false"
     inkscape:zoom="1.8284139"
     inkscape:cx="-26.332714"
     inkscape:cy="129.84871"
     inkscape:window-x="-8"
     inkscape:window-y="1072"
     inkscape:window-maximized="1"
     inkscape:current-layer="g830"
     inkscape:snap-path-clip="true"
     inkscape:snap-path-mask="true"
     inkscape:snap-perpendicular="true"
     inkscape:snap-tangential="true"
     showborder="true"
     borderlayer="true"
     inkscape:pagecheckerboard="true" />
  <defs
     id="defs13">
    <clipPath
       id="a"
       transform="translate(178.38 178.11)">
      <circle
         cx="489.29999"
         cy="489.29999"
         r="475.29999"
         style="fill:none"
         id="circle2" />
    </clipPath>
    <radialGradient
       id="b"
       cx="466.56"
       cy="509.06"
       r="269.37"
       gradientUnits="userSpaceOnUse">
      <stop
         offset="0"
         stop-color="#fff"
         id="stop5" />
      <stop
         offset="0.43"
         stop-color="#eaeaea"
         id="stop7" />
      <stop
         offset="1"
         stop-color="#c8c8c8"
         id="stop9" />
    </radialGradient>
    <radialGradient
       id="c"
       cx="557.79999"
       cy="414.69"
       r="215.24001"
       xlink:href="#b" />
  </defs>
  <g
     id="g830"
     transform="translate(5.5283648e-6,-250)">
    <ellipse
       ry="109.88975"
       rx="109.88937"
       cy="375.00217"
       cx="124.99658"
       id="path5119"
       style="opacity:1;fill:#1296db;fill-opacity:1;fill-rule:nonzero;stroke:none;stroke-width:0;stroke-miterlimit:4;stroke-dasharray:none;stroke-opacity:1" />
    <path
       inkscape:connector-curvature="0"
       id="path21"
       style="fill:#1296db;fill-opacity:1;stroke-width:0.25548783"
       d="m 124.97672,499.99977 a 125.06189,125.02496 0 0 1 -48.667401,-240.1589 125.06045,125.02353 0 0 1 97.334811,230.33682 124.24932,124.21263 0 0 1 -48.66741,9.82208 z m 0,-242.83091 A 117.90717,117.87235 0 0 0 79.097111,483.58962 117.90555,117.87073 0 0 0 170.85889,266.42893 117.13292,117.09835 0 0 0 124.97672,257.16886 Z" />
    <path
       inkscape:connector-curvature="0"
       style="fill:#ffffff;fill-opacity:1;stroke-width:0.22281843"
       d="m 206.15065,382.20773 c -2.2888,-10.26035 -10.54556,-19.59377 -20.5706,-22.85939 a 44.421085,44.421085 0 0 0 -10.76659,-2.13193 26.110756,26.110756 0 0 0 -6.15336,0.27095 c -2.71659,0.47059 -3.10162,0.13547 -3.72195,-2.41714 a 40.107319,40.107319 0 0 0 -3.85744,-11.11597 40.478089,40.478089 0 0 0 -10.13199,-12.12132 c -7.58652,-6.03214 -17.34063,-9.1409 -27.03056,-8.3138 a 39.515514,39.515514 0 0 0 -18.07503,6.01788 c -3.10163,1.96794 -5.7398,4.47063 -8.278149,7.09454 -0.4492,0.47059 -0.86275,0.96971 -1.2763,1.46882 -2.60252,3.13729 -4.27812,6.8022 -5.882408,10.49564 -0.434941,1.07666 -0.663108,2.21035 -1.012487,3.31554 -0.221036,0.57041 -0.249557,1.19074 -0.598936,1.70411 -9.953745,-2.82355 -21.547434,-0.97683 -30.153574,4.75584 -2.25314,1.49734 -4.584712,3.31554 -6.417171,5.31912 -5.960839,6.49561 -9.447502,15.60086 -9.176555,24.42803 0.221037,7.23001 2.402875,14.80941 6.7309,20.67042 1.240653,1.68273 2.716602,3.30128 4.306635,4.66315 7.472439,6.38865 17.975209,10.42434 27.543924,12.23541 2.745123,0.5205 5.533028,0.8271 8.328062,0.84849 19.058999,0.13547 38.125129,0.0641 57.184119,0.0428 6.84499,-0.007 13.68996,0.16399 20.52069,-0.49199 8.94126,-0.86275 17.21228,-5.1979 24.86297,-9.64001 4.3209,-2.50983 8.34233,-5.26921 10.56694,-9.88957 3.58649,-7.42966 4.85566,-16.28536 3.05886,-24.34247 z m -63.65834,9.83253 c -1.86811,3.72908 -4.19968,7.20149 -6.64533,10.56694 -2.18898,3.01607 -4.39933,6.9662 -7.4154,9.22647 -0.85563,0.64171 -1.80394,1.12657 -2.85209,1.34047 -2.8592,0.57754 -5.82536,-0.80571 -8.09276,-2.43853 -1.14083,-0.81997 -1.6756,-1.92514 -2.31731,-3.11589 -0.34938,-0.64171 -0.91267,-1.29056 -0.62746,-2.06062 0.24243,-0.67024 0.93406,-1.09092 1.41891,-1.56151 0.41355,-0.3993 0.86989,-0.77006 1.24065,-1.19788 0.90554,-1.04813 1.99646,-1.85384 2.83069,-2.98042 0.83423,-1.14083 1.5116,-2.38148 2.23175,-3.59361 1.07666,-1.82533 2.05349,-4.1569 2.11767,-6.31022 0.0855,-2.89486 -3.1159,-2.42427 -5.0054,-2.37435 -7.97868,0.19251 -13.75413,-5.93232 -16.32813,-12.99121 -2.41,-6.60255 -2.62391,-14.29603 -0.24956,-20.93424 0.55616,-1.44029 1.18361,-2.83781 2.08202,-4.09985 1.15509,-1.78969 2.47417,-3.42962 4.21394,-4.68454 a 19.465419,19.465419 0 0 1 5.28347,-3.27989 c 3.51518,-1.54725 8.28528,-2.18896 12.0928,-2.25314 a 23.62232,23.62232 0 0 1 11.15162,2.55261 22.075069,22.075069 0 0 1 11.75055,15.32278 c 0.71302,3.49379 1.17648,7.65069 0.81997,11.20866 -0.37077,3.72908 -0.91979,7.42965 -2.06775,11.00901 z m -94.617621,11.58656 z m 158.290221,-12.78443 0.0214,-0.0428 v 0.0499 z m -74.36789,-23.94318 a 31.408487,31.408487 0 0 0 -0.20677,-1.87524 27.779221,27.779221 0 0 0 -1.41178,-6.08918 c -0.73441,-1.94655 -1.85385,-3.96439 -3.93586,-4.71306 -1.76829,-0.63459 -3.6364,0.38503 -4.55619,1.88237 -1.02676,1.68273 -1.16936,3.93587 -1.16223,5.86101 0.007,1.45456 0.14261,3.05886 0.53477,4.4635 0.61319,2.1961 1.35474,4.88418 3.12302,6.43857 2.41714,2.11766 6.19614,1.91802 7.24427,-1.49734 0.43495,-1.42604 0.47772,-2.96617 0.36365,-4.47063 z"
       p-id="12849"
       id="path6" />
  </g>
</svg>
