<?xml version="1.0" encoding="UTF-8" standalone="no"?>
<svg
   xmlns:dc="http://purl.org/dc/elements/1.1/"
   xmlns:cc="http://creativecommons.org/ns#"
   xmlns:rdf="http://www.w3.org/1999/02/22-rdf-syntax-ns#"
   xmlns:svg="http://www.w3.org/2000/svg"
   xmlns="http://www.w3.org/2000/svg"
   xmlns:xlink="http://www.w3.org/1999/xlink"
   xmlns:sodipodi="http://sodipodi.sourceforge.net/DTD/sodipodi-0.dtd"
   xmlns:inkscape="http://www.inkscape.org/namespaces/inkscape"
   viewBox="0 0 250 250"
   version="1.1"
   id="svg27"
   sodipodi:docname="icon_wifi.svg"
   inkscape:version="1.0.2-2 (e86c870879, 2021-01-15)"
   width="250"
   height="250">
  <metadata
     id="metadata31">
    <rdf:RDF>
      <cc:Work
         rdf:about="">
        <dc:format>image/svg+xml</dc:format>
        <dc:type
           rdf:resource="http://purl.org/dc/dcmitype/StillImage" />
        <dc:title></dc:title>
      </cc:Work>
    </rdf:RDF>
  </metadata>
  <sodipodi:namedview
     pagecolor="#ffffff"
     bordercolor="#666666"
     borderopacity="1"
     objecttolerance="10"
     gridtolerance="10000"
     guidetolerance="10000"
     inkscape:pageopacity="0"
     inkscape:pageshadow="2"
     inkscape:window-width="1918"
     inkscape:window-height="1004"
     id="namedview29"
     showgrid="false"
     inkscape:zoom="2.5857678"
     inkscape:cx="175.09145"
     inkscape:cy="103.16747"
     inkscape:window-x="1910"
     inkscape:window-y="0"
     inkscape:window-maximized="0"
     inkscape:current-layer="g824"
     inkscape:snap-path-clip="true"
     inkscape:snap-path-mask="true"
     inkscape:snap-perpendicular="true"
     inkscape:snap-tangential="true"
     showborder="true"
     borderlayer="true"
     inkscape:pagecheckerboard="true"
     inkscape:document-rotation="0" />
  <defs
     id="defs13">
    <clipPath
       id="a"
       transform="translate(178.38 178.11)">
      <circle
         cx="489.29999"
         cy="489.29999"
         r="475.29999"
         style="fill:none"
         id="circle2" />
    </clipPath>
    <radialGradient
       id="b"
       cx="466.56"
       cy="509.06"
       r="269.37"
       gradientUnits="userSpaceOnUse">
      <stop
         offset="0"
         stop-color="#fff"
         id="stop5" />
      <stop
         offset="0.43"
         stop-color="#eaeaea"
         id="stop7" />
      <stop
         offset="1"
         stop-color="#c8c8c8"
         id="stop9" />
    </radialGradient>
    <radialGradient
       id="c"
       cx="557.79999"
       cy="414.69"
       r="215.24001"
       xlink:href="#b" />
  </defs>
  <g
     id="g824"
     transform="matrix(0.49999225,0,0,0.4999904,0,0.0048)">
    <ellipse
       style="fill:#ffffff;fill-opacity:1;fill-rule:nonzero;stroke:none;stroke-width:0;stroke-miterlimit:4;stroke-dasharray:none;stroke-opacity:1"
       id="path5119"
       cx="250.00388"
       cy="249.99519"
       rx="219.78214"
       ry="219.78499" />
    <path
       d="M 249.95733,499.99953 A 250.12766,250.05617 0 0 1 152.62102,19.669719 250.12478,250.05331 0 0 1 347.29365,480.35489 248.5025,248.43148 0 0 1 249.95733,499.99953 Z m 0,-485.673963 A 235.81799,235.7506 0 0 0 158.19669,467.17842 235.81475,235.74736 0 0 0 341.72309,32.846178 234.26948,234.20255 0 0 0 249.95733,14.325567 Z"
       style="fill:#13227a;stroke-width:0.510986;fill-opacity:1"
       id="path21"
       inkscape:connector-curvature="0" />
    <path
       d="m 250.00388,27.955627 c 122.62881,0 222.03874,99.410283 222.03874,222.039583 0,122.62927 -99.40993,222.03956 -222.03874,222.03956 -122.62883,0 -222.038743,-99.41029 -222.038743,-222.03956 0,-122.6293 99.409913,-222.03957 222.038743,-222.039583 z m 0,301.339423 a 23.789866,23.789955 0 1 0 0,47.57991 23.789866,23.789955 0 0 0 0,-47.57991 z m 59.71256,-46.02563 c -36.16059,-22.04536 -80.88554,-21.22064 -112.92256,2.01421 -7.29556,5.31309 -8.45334,15.81239 -2.55344,23.45689 5.89988,7.64451 16.60532,9.53185 23.9326,4.21876 21.29986,-15.46348 51.16406,-16.01857 75.22355,-1.3481 8.24715,5.0276 18.58781,2.75963 23.09203,-5.07519 4.50421,-7.81897 1.47497,-18.23896 -6.77218,-23.26657 z m 52.0998,-42.3937 C 293.14282,193.9302 204.39077,194.46944 143.10808,242.7472 l -1.42738,1.2688 c -5.74129,5.80474 -6.02678,15.46346 -0.34893,22.42598 6.10607,7.50178 16.81151,9.07191 23.88502,3.4892 50.10146,-39.47546 122.75571,-39.91954 178.89979,-1.53842 7.96167,5.45584 18.39749,3.71124 23.28235,-3.88568 4.88485,-7.59693 2.37898,-18.17553 -5.58269,-23.63136 z m 42.4094,-44.18589 c -95.0643,-74.76389 -226.55882,-73.11446 -308.729013,3.80641 l -1.316364,1.39568 c -5.233778,6.28054 -4.694537,15.93927 1.52254,22.426 6.692887,6.97837 17.445907,7.66035 24.027777,1.50669 70.418,-65.91405 183.13437,-67.32558 264.59088,-3.26716 7.61275,5.97921 18.23889,5.04348 23.72642,-2.09351 5.50338,-7.13699 3.80637,-17.79489 -3.80638,-23.77411 z"
       fill="#13227a"
       p-id="83960"
       id="path8"
       style="stroke-width:0.495623" />
  </g>
</svg>
