<?xml version="1.0" encoding="UTF-8" standalone="no"?>
<svg
   xmlns:dc="http://purl.org/dc/elements/1.1/"
   xmlns:cc="http://creativecommons.org/ns#"
   xmlns:rdf="http://www.w3.org/1999/02/22-rdf-syntax-ns#"
   xmlns:svg="http://www.w3.org/2000/svg"
   xmlns="http://www.w3.org/2000/svg"
   xmlns:xlink="http://www.w3.org/1999/xlink"
   xmlns:sodipodi="http://sodipodi.sourceforge.net/DTD/sodipodi-0.dtd"
   xmlns:inkscape="http://www.inkscape.org/namespaces/inkscape"
   viewBox="0 0 250 250"
   version="1.1"
   id="svg27"
   sodipodi:docname="icon_jelly.svg"
   inkscape:version="0.92.4 (5da689c313, 2019-01-14)"
   width="250"
   height="250">
  <metadata
     id="metadata31">
    <rdf:RDF>
      <cc:Work
         rdf:about="">
        <dc:format>image/svg+xml</dc:format>
        <dc:type
           rdf:resource="http://purl.org/dc/dcmitype/StillImage" />
        <dc:title></dc:title>
      </cc:Work>
    </rdf:RDF>
  </metadata>
  <sodipodi:namedview
     pagecolor="#ffffff"
     bordercolor="#666666"
     borderopacity="1"
     objecttolerance="10"
     gridtolerance="10000"
     guidetolerance="10000"
     inkscape:pageopacity="0"
     inkscape:pageshadow="2"
     inkscape:window-width="1920"
     inkscape:window-height="1026"
     id="namedview29"
     showgrid="false"
     inkscape:zoom="1.8284139"
     inkscape:cx="212.1161"
     inkscape:cy="185.39908"
     inkscape:window-x="-8"
     inkscape:window-y="1072"
     inkscape:window-maximized="1"
     inkscape:current-layer="g830"
     inkscape:snap-path-clip="true"
     inkscape:snap-path-mask="true"
     inkscape:snap-perpendicular="true"
     inkscape:snap-tangential="true"
     showborder="true"
     borderlayer="true"
     inkscape:pagecheckerboard="true" />
  <defs
     id="defs13">
    <clipPath
       id="a"
       transform="translate(178.38 178.11)">
      <circle
         cx="489.29999"
         cy="489.29999"
         r="475.29999"
         style="fill:none"
         id="circle2" />
    </clipPath>
    <radialGradient
       id="b"
       cx="466.56"
       cy="509.06"
       r="269.37"
       gradientUnits="userSpaceOnUse">
      <stop
         offset="0"
         stop-color="#fff"
         id="stop5" />
      <stop
         offset="0.43"
         stop-color="#eaeaea"
         id="stop7" />
      <stop
         offset="1"
         stop-color="#c8c8c8"
         id="stop9" />
    </radialGradient>
    <radialGradient
       id="c"
       cx="557.79999"
       cy="414.69"
       r="215.24001"
       xlink:href="#b" />
    <linearGradient
       inkscape:collect="always"
       xlink:href="#linear-gradient"
       id="linearGradient841"
       gradientUnits="userSpaceOnUse"
       x1="110.25"
       y1="213.3"
       x2="496.14001"
       y2="436.09" />
    <linearGradient
       id="linear-gradient"
       x1="110.25"
       y1="213.3"
       x2="496.14001"
       y2="436.09"
       gradientUnits="userSpaceOnUse">
      <stop
         offset="0"
         stop-color="#aa5cc3"
         id="stop2" />
      <stop
         offset="1"
         stop-color="#00a4dc"
         id="stop4" />
    </linearGradient>
    <linearGradient
       inkscape:collect="always"
       xlink:href="#linear-gradient"
       id="linearGradient848"
       gradientUnits="userSpaceOnUse"
       x1="110.25"
       y1="213.3"
       x2="496.14001"
       y2="436.09" />
  </defs>
  <g
     id="g830"
     transform="translate(5.5283648e-6,-250)">
    <ellipse
       ry="109.88975"
       rx="109.88937"
       cy="375.00217"
       cx="124.99658"
       id="path5119"
       style="opacity:0.6;fill:#637acd;fill-opacity:1;fill-rule:nonzero;stroke:none;stroke-width:0;stroke-miterlimit:4;stroke-dasharray:none;stroke-opacity:1" />
    <path
       inkscape:connector-curvature="0"
       id="path21"
       style="fill:#6778cd;fill-opacity:1;stroke-width:0.25548783"
       d="m 124.97672,499.99977 a 125.06189,125.02496 0 0 1 -48.667401,-240.1589 125.06045,125.02353 0 0 1 97.334811,230.33682 124.24932,124.21263 0 0 1 -48.66741,9.82208 z m 0,-242.83091 A 117.90717,117.87235 0 0 0 79.097111,483.58962 117.90555,117.87073 0 0 0 170.85889,266.42893 117.13292,117.09835 0 0 0 124.97672,257.16886 Z" />
    <g
       transform="matrix(0.33249569,0,0,0.33249569,38.085521,289.88446)"
       id="banner-light-icon">
      <path
         inkscape:connector-curvature="0"
         style="fill:url(#linearGradient848)"
         d="m 261.42,201.62 c -20.44,0 -86.24,119.29 -76.2,139.43 10.04,20.14 142.48,19.92 152.4,0 9.92,-19.92 -55.76,-139.42 -76.2,-139.43 z"
         id="inner-shape" />
      <path
         inkscape:connector-curvature="0"
         style="fill:url(#linearGradient841)"
         d="M 261.42,23.3 C 199.83,23.3 1.57,382.73 31.8,443.43 c 30.23,60.7 429.34,60 459.24,0 C 520.94,383.43 323,23.3 261.42,23.3 Z M 411.9,390.76 c -19.59,39.33 -281.08,39.77 -300.9,0 -19.82,-39.77 110.1,-275.28 150.45,-275.28 40.35,0 170.04,235.94 150.45,275.28 z"
         id="outer-shape" />
    </g>
  </g>
</svg>
