<?xml version="1.0" encoding="UTF-8" standalone="no"?>
<svg
   xmlns:dc="http://purl.org/dc/elements/1.1/"
   xmlns:cc="http://creativecommons.org/ns#"
   xmlns:rdf="http://www.w3.org/1999/02/22-rdf-syntax-ns#"
   xmlns:svg="http://www.w3.org/2000/svg"
   xmlns="http://www.w3.org/2000/svg"
   xmlns:xlink="http://www.w3.org/1999/xlink"
   xmlns:sodipodi="http://sodipodi.sourceforge.net/DTD/sodipodi-0.dtd"
   xmlns:inkscape="http://www.inkscape.org/namespaces/inkscape"
   viewBox="0 0 250 250"
   version="1.1"
   id="svg27"
   sodipodi:docname="icon_debian_2.svg"
   inkscape:version="0.92.4 (5da689c313, 2019-01-14)"
   width="250"
   height="250">
  <metadata
     id="metadata31">
    <rdf:RDF>
      <cc:Work
         rdf:about="">
        <dc:format>image/svg+xml</dc:format>
        <dc:type
           rdf:resource="http://purl.org/dc/dcmitype/StillImage" />
        <dc:title></dc:title>
      </cc:Work>
    </rdf:RDF>
  </metadata>
  <sodipodi:namedview
     pagecolor="#ffffff"
     bordercolor="#666666"
     borderopacity="1"
     objecttolerance="10"
     gridtolerance="10000"
     guidetolerance="10000"
     inkscape:pageopacity="0"
     inkscape:pageshadow="2"
     inkscape:window-width="1858"
     inkscape:window-height="1057"
     id="namedview29"
     showgrid="false"
     inkscape:zoom="1.8284139"
     inkscape:cx="64.729818"
     inkscape:cy="129.84871"
     inkscape:window-x="-6"
     inkscape:window-y="-8"
     inkscape:window-maximized="1"
     inkscape:current-layer="g830"
     inkscape:snap-path-clip="true"
     inkscape:snap-path-mask="true"
     inkscape:snap-perpendicular="true"
     inkscape:snap-tangential="true"
     showborder="true"
     borderlayer="true"
     inkscape:pagecheckerboard="true" />
  <defs
     id="defs13">
    <clipPath
       id="a"
       transform="translate(178.38 178.11)">
      <circle
         cx="489.29999"
         cy="489.29999"
         r="475.29999"
         style="fill:none"
         id="circle2" />
    </clipPath>
    <radialGradient
       id="b"
       cx="466.56"
       cy="509.06"
       r="269.37"
       gradientUnits="userSpaceOnUse">
      <stop
         offset="0"
         stop-color="#fff"
         id="stop5" />
      <stop
         offset="0.43"
         stop-color="#eaeaea"
         id="stop7" />
      <stop
         offset="1"
         stop-color="#c8c8c8"
         id="stop9" />
    </radialGradient>
    <radialGradient
       id="c"
       cx="557.79999"
       cy="414.69"
       r="215.24001"
       xlink:href="#b" />
  </defs>
  <g
     id="g830"
     transform="translate(5.5283648e-6,-250)">
    <ellipse
       ry="109.88975"
       rx="109.88937"
       cy="375.00217"
       cx="124.99658"
       id="path5119"
       style="opacity:1;fill:#ffffff;fill-opacity:1;fill-rule:nonzero;stroke:none;stroke-width:0;stroke-miterlimit:4;stroke-dasharray:none;stroke-opacity:1" />
    <path
       inkscape:connector-curvature="0"
       id="path21"
       style="fill:#49bdcf;fill-opacity:1;stroke-width:0.25548783"
       d="m 124.97672,499.99977 a 125.06189,125.02496 0 0 1 -48.667401,-240.1589 125.06045,125.02353 0 0 1 97.334811,230.33682 124.24932,124.21263 0 0 1 -48.66741,9.82208 z m 0,-242.83091 A 117.90717,117.87235 0 0 0 79.097111,483.58962 117.90555,117.87073 0 0 0 170.85889,266.42893 117.13292,117.09835 0 0 0 124.97672,257.16886 Z" />
    <path
       inkscape:connector-curvature="0"
       style="fill:#49bdcf;stroke-width:0.21669249;fill-opacity:1"
       d="m 133.71873,485.51998 c -6.76273,-1.92165 -7.87136,-1.33037 -15.33624,-3.56612 -5.50626,-2.36513 -7.09532,-5.54324 -11.031,-8.68439 l 1.57058,2.36511 c -7.87137,-2.36511 -4.73021,-3.14117 -11.030996,-5.52475 l 1.57058,-2.36511 c -2.365105,0 -6.30079,-3.93568 -7.889845,-6.30079 H 89.22518 c -2.365104,-3.93568 -3.935685,-7.09532 -3.935685,-9.46041 l -0.794533,1.57057 c -0.776049,-1.57057 -11.825527,-14.96669 -6.300788,-11.82552 -0.794522,-0.79454 -2.365104,-1.57058 -3.935685,-4.73021 l 0.776049,-1.57057 c -2.365103,-3.15964 -4.730206,-7.88987 -4.730206,-9.47892 1.570581,2.36512 2.365103,2.36512 3.141162,2.36511 -7.076846,-17.35027 -7.076846,-0.77606 -12.601586,-17.35027 h 0.794532 c -0.794532,-1.57058 -1.589053,-2.36511 -2.365103,-3.93568 l 0.77605,-4.73022 c -4.730218,-5.52473 -1.570582,-24.44557 -0.77605,-34.70053 0.77605,-3.93568 3.935673,-8.68437 7.095311,-15.7612 h -1.589056 c 3.159637,-5.54323 18.939321,-22.87502 26.034642,-22.09896 3.141151,-3.93568 -0.794522,0 -1.589054,-0.77606 7.889842,-7.88985 10.254944,-5.52472 14.98515,-7.09532 5.54322,-3.15963 -4.730206,1.5706 -2.3651,-1.58905 9.46042,-2.3651 7.09531,-5.50626 18.93932,-7.09532 1.5706,0.79453 -3.15964,0.79453 -3.95414,2.36511 7.88983,-3.93569 25.2401,-3.14116 36.27109,2.36511 12.62007,6.31926 27.60523,23.65106 28.39976,41.01979 h 0.79453 c 0,6.30079 0.77604,14.19064 -1.58906,21.28596 l 2.3651,-3.14116 c 0,4.71174 -1.57057,7.87138 -3.14116,11.82553 l -3.15963,1.57058 c -2.36511,4.73021 0,2.36511 -1.58905,6.30079 -3.14116,3.15964 -10.23648,9.46042 -12.60158,10.25495 -1.58905,0 0.77605,-1.57057 1.57057,-2.36511 -4.73021,3.14116 -3.93568,4.73021 -11.04948,7.09532 v -0.79453 c -17.33177,8.68437 -41.79585,-7.87136 -41.79585,-30.74637 0,1.57058 -0.77606,0.79453 -0.77606,1.57058 -0.79452,-11.82552 5.52475,-22.85654 15.76122,-27.58674 10.25496,-5.54323 22.08048,-3.95416 29.97032,3.14114 -3.93567,-5.50624 -11.82552,-11.03098 -21.28594,-10.25494 -9.46043,0 -18.14478,6.31927 -21.30442,12.62005 -4.73023,3.15964 -5.50627,11.82554 -7.87138,13.41459 -3.15964,20.50991 5.50626,29.17579 18.92085,40.22528 2.36511,1.57058 0.79452,1.57058 0.79452,3.14115 a 34.922264,34.922264 0 0 1 -11.82552,-9.46042 c 1.57058,2.3651 3.93567,5.52474 6.28231,7.09531 -3.91721,-1.57057 -10.23648,-10.25494 -11.82552,-11.03099 7.11379,13.3961 29.9888,22.85652 41.81432,18.12632 -5.52474,0 -12.62005,0 -18.93932,-2.3651 -2.3651,-1.5706 -6.30079,-3.93569 -5.50627,-4.73023 15.76121,6.31928 33.11148,4.73023 46.52607,-6.30078 3.93569,-3.15964 7.09532,-7.09533 8.68437,-7.88984 -1.58905,2.36509 0,1.57056 -0.79453,3.14115 3.14116,-5.50627 -1.58905,-2.34664 3.93569,-10.23647 l 1.57057,2.3651 c -0.77605,-4.73021 5.54322,-10.25494 5.54322,-18.14478 1.5521,-2.36512 1.5521,2.36509 0,7.88984 2.34663,-5.52475 0.77605,-7.09532 0.77605,-11.82554 0.77605,1.57058 1.57058,3.14116 1.57058,4.73022 -0.79453,-3.9357 2.36511,-7.88984 3.14115,-11.04948 -0.77604,0 -2.34662,2.3651 -2.34662,-3.93569 0,-3.14115 0.77604,-1.57057 0.77604,-2.36511 -0.77604,0 -2.3651,-2.3651 -3.14115,-7.09531 0.77605,-0.79453 1.57058,2.36511 2.36511,2.36511 -0.79453,-3.14116 -1.58906,-6.31928 -1.58906,-8.68438 -2.3651,-5.50626 -0.77605,0.79453 -3.14114,-2.3651 -3.15965,-8.68438 2.36509,-2.36512 2.36509,-6.30079 3.93569,6.30079 6.30079,15.77969 7.88984,19.71537 a 95.343324,95.343324 0 0 0 -3.95415,-14.19064 c 1.57058,0.77606 -2.36511,-9.46042 1.57058,-3.15962 -3.93569,-14.9667 -17.3318,-28.38128 -29.1758,-34.70055 2.36511,2.3651 3.95416,3.95418 3.95416,4.73022 -6.31926,-3.93569 -4.73021,-3.93569 -5.52474,-5.52475 -4.73022,-2.3651 -5.52473,0 -8.68437,0 -9.46043,-4.73021 -11.03101,-4.73021 -19.69689,-7.09531 v 1.58906 c -6.31928,-2.36511 -7.1138,0.77604 -13.41459,0 -0.79452,0 2.36511,-0.79453 3.93569,-1.58906 -5.50627,0.79453 -5.50627,-0.77605 -11.03102,0 l 4.73024,-2.3651 c -4.73024,0 -11.82556,3.15963 -9.46044,0.79451 -7.88985,3.14117 -22.080476,8.68438 -29.19427,15.7797 v -1.58905 c -3.935685,3.95416 -15.761211,12.62007 -16.555745,18.14479 h -0.776047 c -3.159638,3.14116 -3.954158,7.09532 -5.52474,10.25496 -2.365103,3.93568 -3.935685,1.57058 -3.141153,2.3651 -4.74869,9.46042 -7.113793,17.35026 -9.478907,24.44558 1.570582,2.36511 0,13.39611 0.794532,22.08049 -2.365103,43.36642 30.746375,85.95682 66.24144,95.41722 4.80412,1.36733 11.4375,1.55211 17.2394,2.08794 a 110.86434,110.86434 0 1 1 1.25646,-0.0924 z"
       p-id="2112"
       id="path6" />
  </g>
</svg>
