<?xml version="1.0" encoding="UTF-8" standalone="no"?>
<svg
   xmlns:dc="http://purl.org/dc/elements/1.1/"
   xmlns:cc="http://creativecommons.org/ns#"
   xmlns:rdf="http://www.w3.org/1999/02/22-rdf-syntax-ns#"
   xmlns:svg="http://www.w3.org/2000/svg"
   xmlns="http://www.w3.org/2000/svg"
   xmlns:xlink="http://www.w3.org/1999/xlink"
   xmlns:sodipodi="http://sodipodi.sourceforge.net/DTD/sodipodi-0.dtd"
   xmlns:inkscape="http://www.inkscape.org/namespaces/inkscape"
   viewBox="0 0 1335 1335"
   version="1.1"
   id="svg27"
   sodipodi:docname="qqgroup2.svg"
   inkscape:version="1.0.1 (3bc2e813f5, 2020-09-07)">
  <metadata
     id="metadata31">
    <rdf:RDF>
      <cc:Work
         rdf:about="">
        <dc:format>image/svg+xml</dc:format>
        <dc:type
           rdf:resource="http://purl.org/dc/dcmitype/StillImage" />
        <dc:title />
      </cc:Work>
    </rdf:RDF>
  </metadata>
  <sodipodi:namedview
     pagecolor="#ffffff"
     bordercolor="#666666"
     borderopacity="1"
     objecttolerance="10"
     gridtolerance="10000"
     guidetolerance="10000"
     inkscape:pageopacity="0"
     inkscape:pageshadow="2"
     inkscape:window-width="1920"
     inkscape:window-height="1027"
     id="namedview29"
     showgrid="false"
     inkscape:zoom="0.32322097"
     inkscape:cx="524.46274"
     inkscape:cy="612.90152"
     inkscape:window-x="-8"
     inkscape:window-y="-8"
     inkscape:window-maximized="1"
     inkscape:current-layer="g894"
     inkscape:snap-path-clip="true"
     inkscape:snap-path-mask="true"
     inkscape:snap-perpendicular="true"
     inkscape:snap-tangential="true"
     showborder="true"
     borderlayer="true"
     inkscape:pagecheckerboard="true"
     inkscape:document-rotation="0"
     inkscape:snap-text-baseline="true" />
  <defs
     id="defs13">
    <clipPath
       id="a"
       transform="translate(178.38 178.11)">
      <circle
         cx="489.3"
         cy="489.3"
         r="475.3"
         style="fill:none"
         id="circle2" />
    </clipPath>
    <radialGradient
       id="b"
       cx="466.56"
       cy="509.06"
       r="269.37"
       gradientUnits="userSpaceOnUse">
      <stop
         offset="0"
         stop-color="#fff"
         id="stop5" />
      <stop
         offset="0.43"
         stop-color="#eaeaea"
         id="stop7" />
      <stop
         offset="1"
         stop-color="#c8c8c8"
         id="stop9" />
    </radialGradient>
    <radialGradient
       id="c"
       cx="557.8"
       cy="414.69"
       r="215.24"
       xlink:href="#b" />
  </defs>
  <g
     id="g894"
     transform="matrix(1.3646592,0,0,1.364176,-239.27295,-231.15391)">
    <path
       d="m 666.82467,1148.0576 a 487.03565,489.43 0 0 1 -189.52825,-940.13985 487.03008,489.4244 0 0 1 379.05649,901.68985 483.87121,486.25 0 0 1 -189.52824,38.45 z m 0,-950.59985 a 459.17263,461.43 0 0 0 -178.67162,886.35985 459.16629,461.42363 0 0 0 357.35319,-850.10985 456.15745,458.4 0 0 0 -178.68157,-36.25 z"
       style="opacity:0.5;fill:#364e59;stroke-width:0.997551"
       id="path21"
       inkscape:connector-curvature="0" />
    <ellipse
       style="fill:#0e232e;fill-opacity:1;fill-rule:nonzero;stroke:none;stroke-width:0;stroke-miterlimit:4;stroke-dasharray:none;stroke-opacity:1"
       id="path828"
       cx="666.86133"
       cy="658.75214"
       rx="416.89282"
       ry="418.94235" />
    <text
       xml:space="preserve"
       style="font-style:normal;font-variant:normal;font-weight:normal;font-stretch:condensed;font-size:39.902px;line-height:1.25;font-family:'Agency FB';-inkscape-font-specification:'Agency FB, Condensed';font-variant-ligatures:normal;font-variant-caps:normal;font-variant-numeric:normal;text-align:start;letter-spacing:0px;word-spacing:0px;writing-mode:lr-tb;text-anchor:start;fill:#000000;fill-opacity:1;stroke:none;stroke-width:0.997551"
       x="665.18634"
       y="669.04321"
       id="text859"
       transform="scale(0.99755094,1.0024551)"><tspan
         sodipodi:role="line"
         id="tspan857"
         x="665.18634"
         y="669.04321"
         style="stroke-width:0.997551">·</tspan></text>
    <path
       style="fill:#41bdf5;stroke-width:0.27056"
       inkscape:connector-curvature="0"
       id="path6"
       p-id="21476"
       d="m 663.79024,378.03203 a 8.1012416,8.1410687 0 0 0 -5.73472,2.43885 L 527.5634,513.46192 a 6.4602654,6.4920252 0 0 0 -1.86555,4.57392 v 0.008 c 0,3.61922 2.91923,6.55278 6.52069,6.55278 h 24.22603 v 93.44006 c 0,3.01167 2.42684,5.45051 5.42386,5.45051 h 91.51469 v -42.6231 l -35.13422,-35.35 a 27.913873,28.051102 0 0 1 -38.79607,-25.82923 27.896601,28.033745 0 1 1 53.57348,10.9618 l 20.35681,20.45682 v -62.20363 a 27.931147,28.068461 0 0 1 10.45893,-54.07996 27.913873,28.051102 0 0 1 27.88802,28.06846 27.913873,28.051102 0 0 1 -17.42884,26.0115 v 62.20366 l 20.33084,-20.45682 a 27.473401,27.608465 0 0 1 -2.20249,-10.9184 v -0.0433 a 27.900969,28.038135 0 1 1 55.80193,0 27.913873,28.051102 0 0 1 -38.97754,25.7598 l 0.18138,0.0694 -35.13412,35.35029 v 42.62345 h 91.52323 a 5.4152224,5.4418446 0 0 0 5.41532,-5.44185 v -93.44877 h 24.31228 a 6.520722,6.552779 0 0 0 4.65525,-11.14405 l -28.96753,-29.76959 v -46.91963 a 5.4411328,5.4678823 0 0 0 -5.42387,-5.46789 h -22.62825 a 5.4411328,5.4678823 0 0 0 -5.42382,5.46789 v 12.76699 l -68.12642,-69.09487 a 8.1185155,8.1584275 0 0 0 -5.76933,-2.42149 h -0.0774 z m 0.043,73.61678 a 11.167282,11.222182 0 0 0 0,22.44436 h 0.0138 c 6.1579,0 11.14988,-5.01657 11.14988,-11.20482 v -0.008 c 0,-6.19692 -4.99198,-11.23084 -11.15858,-11.23084 z m -56.50139,56.82259 h -0.0138 c -6.15804,0 -11.15004,5.01656 -11.15004,11.20481 v 0.008 a 11.167277,11.222177 0 1 0 22.31727,0 v -0.008 c 0,-6.18825 -4.99205,-11.20481 -11.1499,-11.20481 z m 112.99414,0 a 11.175913,11.230856 0 1 0 11.15863,11.21349 v -0.008 c 0,-6.18826 -4.99204,-11.20482 -11.14994,-11.20482 z" />
    <rect
       y="673.63922"
       x="362.08328"
       height="1.1914573"
       width="605.20209"
       id="rect845"
       style="fill:#41bdf5;fill-opacity:1;fill-rule:nonzero;stroke:none;stroke-width:0;stroke-miterlimit:4;stroke-dasharray:none;stroke-opacity:1" />
    <text
       id="text865"
       y="741.84796"
       x="450.92139"
       style="font-style:normal;font-variant:normal;font-weight:normal;font-stretch:condensed;font-size:58.6331px;line-height:1.15;font-family:'Agency FB';-inkscape-font-specification:'Agency FB, Condensed';font-variant-ligatures:normal;font-variant-caps:normal;font-variant-numeric:normal;text-align:start;letter-spacing:0px;word-spacing:0px;writing-mode:lr-tb;text-anchor:start;fill:#41bdf5;fill-opacity:1;stroke:none;stroke-width:1.55844"
       xml:space="preserve"
       transform="scale(0.99755092,1.0024551)"><tspan
         style="font-style:normal;font-variant:normal;font-weight:normal;font-stretch:normal;font-size:58.6331px;font-family:'Blackadder ITC';-inkscape-font-specification:'Blackadder ITC, Normal';font-variant-ligatures:normal;font-variant-caps:normal;font-variant-numeric:normal;font-feature-settings:normal;text-align:start;writing-mode:lr-tb;text-anchor:start;fill:#41bdf5;fill-opacity:1;stroke-width:1.55844"
         y="741.84796"
         x="450.92139"
         id="tspan863"
         sodipodi:role="line">Love home Love family </tspan></text>
    <path
       d="m 701.73603,786.15467 c 6.7844,0 13.5688,0.97023 20.0298,3.12414 39.7363,12.92705 54.0583,56.55588 42.1051,94.69078 a 137.06461,137.11316 0 0 1 -32.4128,51.81599 414.12293,414.26961 0 0 1 -68.1662,53.43189 l -2.6922,1.61589 -2.8,-1.72355 a 410.22463,410.36994 0 0 1 -68.5974,-53.43189 139.27221,139.32154 0 0 1 -32.4142,-51.70833 c -12.1689,-38.1349 2.1546,-81.76373 42.3221,-94.90624 3.122,-1.07803 6.3532,-1.83136 9.583,-2.26229 h 1.2936 c 3.0156,-0.43121 6.0312,-0.64682 9.0469,-0.64682 h 1.1786 c 6.7844,0.21561 13.3532,1.40001 19.7064,3.55507 h 0.6469 c 0.4312,0.2156 0.7474,0.43121 0.963,0.64682 2.3688,0.75462 4.6312,1.61589 6.7844,2.80087 l 4.0922,1.83136 c 0.9918,0.53902 2.1,1.34682 3.0588,2.04682 0.6037,0.43122 1.1499,0.82937 1.571,1.0766 l 0.5318,0.32341 c 0.92,0.53902 1.8844,1.09815 2.6923,1.72356 a 67.444662,67.468551 0 0 1 41.4596,-14.00436 z m 28.644,77.56257 c 4.4157,-0.10062 8.1845,-3.66272 8.5079,-8.18715 v -1.2922 a 35.536865,35.549454 0 0 0 -22.7221,-34.04125 8.6149975,8.6180489 0 0 0 -10.8766,5.38628 c -1.5078,4.52443 0.8624,9.47979 5.3844,11.09569 6.8922,2.5854 11.5234,9.37212 11.5234,16.91289 v 0.32341 a 9.2611223,9.2644025 0 0 0 2.0454,6.67891 c 1.5078,1.83136 3.7688,2.90868 6.1376,3.12414 z"
       fill="#d81e06"
       p-id="1197"
       id="path6-4"
       style="stroke-width:0.252436" />
  </g>
</svg>
