<?xml version="1.0" encoding="UTF-8" standalone="no"?>
<svg
   xmlns:dc="http://purl.org/dc/elements/1.1/"
   xmlns:cc="http://creativecommons.org/ns#"
   xmlns:rdf="http://www.w3.org/1999/02/22-rdf-syntax-ns#"
   xmlns:svg="http://www.w3.org/2000/svg"
   xmlns="http://www.w3.org/2000/svg"
   xmlns:xlink="http://www.w3.org/1999/xlink"
   xmlns:sodipodi="http://sodipodi.sourceforge.net/DTD/sodipodi-0.dtd"
   xmlns:inkscape="http://www.inkscape.org/namespaces/inkscape"
   viewBox="0 0 250 250"
   version="1.1"
   id="svg27"
   sodipodi:docname="icon_transmission.svg"
   inkscape:version="1.0.2-2 (e86c870879, 2021-01-15)"
   width="250"
   height="250">
  <metadata
     id="metadata31">
    <rdf:RDF>
      <cc:Work
         rdf:about="">
        <dc:format>image/svg+xml</dc:format>
        <dc:type
           rdf:resource="http://purl.org/dc/dcmitype/StillImage" />
        <dc:title />
      </cc:Work>
    </rdf:RDF>
  </metadata>
  <sodipodi:namedview
     pagecolor="#ffffff"
     bordercolor="#666666"
     borderopacity="1"
     objecttolerance="10"
     gridtolerance="10000"
     guidetolerance="10000"
     inkscape:pageopacity="0"
     inkscape:pageshadow="2"
     inkscape:window-width="1918"
     inkscape:window-height="1004"
     id="namedview29"
     showgrid="false"
     inkscape:zoom="0.91420697"
     inkscape:cx="157.43353"
     inkscape:cy="50.627475"
     inkscape:window-x="1900"
     inkscape:window-y="0"
     inkscape:window-maximized="0"
     inkscape:current-layer="g824"
     inkscape:snap-path-clip="true"
     inkscape:snap-path-mask="true"
     inkscape:snap-perpendicular="true"
     inkscape:snap-tangential="true"
     showborder="true"
     borderlayer="true"
     inkscape:pagecheckerboard="true"
     inkscape:document-rotation="0" />
  <defs
     id="defs13">
    <clipPath
       id="a"
       transform="translate(178.38 178.11)">
      <circle
         cx="489.29999"
         cy="489.29999"
         r="475.29999"
         style="fill:none"
         id="circle2" />
    </clipPath>
    <radialGradient
       id="b"
       cx="466.56"
       cy="509.06"
       r="269.37"
       gradientUnits="userSpaceOnUse">
      <stop
         offset="0"
         stop-color="#fff"
         id="stop5" />
      <stop
         offset="0.43"
         stop-color="#eaeaea"
         id="stop7" />
      <stop
         offset="1"
         stop-color="#c8c8c8"
         id="stop9" />
    </radialGradient>
    <radialGradient
       id="c"
       cx="557.79999"
       cy="414.69"
       r="215.24001"
       xlink:href="#b" />
  </defs>
  <g
     id="g824"
     transform="matrix(0.49999225,0,0,0.4999904,0,0.0048)">
    <ellipse
       style="fill:#aaaea8;fill-opacity:1;fill-rule:nonzero;stroke:none;stroke-width:0;stroke-miterlimit:4;stroke-dasharray:none;stroke-opacity:1"
       id="path5119"
       cx="250.00388"
       cy="249.99519"
       rx="219.78214"
       ry="219.78499" />
    <path
       d="M 249.95733,499.99953 A 250.12766,250.05617 0 0 1 152.62102,19.669719 250.12478,250.05331 0 0 1 347.29365,480.35489 248.5025,248.43148 0 0 1 249.95733,499.99953 Z m 0,-485.673963 A 235.81799,235.7506 0 0 0 158.19669,467.17842 235.81475,235.74736 0 0 0 341.72309,32.846178 234.26948,234.20255 0 0 0 249.95733,14.325567 Z"
       style="fill:#3b4040;stroke-width:0.510986;fill-opacity:1"
       id="path21"
       inkscape:connector-curvature="0" />
    <g
       id="g865"
       transform="matrix(0.29331039,0,0,0.29331148,99.82896,99.819722)">
      <path
         d="M 814.22933,917.33333 H 209.77067 A 60.458667,60.458667 0 0 1 149.33333,856.896 v -30.22933 l 50.51734,-405.01334 c 5.67466,-45.376 44.24533,-80.32 89.96266,-80.32 h 444.37334 c 45.71733,0 84.288,34.944 89.96266,80.32 l 50.51734,405.01334 V 856.896 a 60.458667,60.458667 0 0 1 -60.43734,60.43733 z"
         fill="#acaeaa"
         p-id="76988"
         id="path6-8" />
      <path
         d="M 718.72,768 H 305.28 c -35.2,0 -62.976,-30.86933 -60.26667,-65.96267 l 20.928,-267.11466 C 268.352,403.43467 294.61333,384 326.18667,384 H 697.81333 C 729.408,384 755.648,402.98667 758.08,434.47467 L 779.008,704.704 C 781.696,739.79733 753.94133,768 718.72,768 Z"
         fill="#f0f2ef"
         p-id="76989"
         id="path8-9" />
      <path
         d="M 829.33333,917.33333 H 194.66667 a 45.333333,45.333333 0 1 1 0,-90.66666 h 634.66666 a 45.333333,45.333333 0 1 1 0,90.66666 z"
         fill="#787b76"
         p-id="76990"
         id="path10-8" />
      <path
         d="M 620.352,618.66667 576,448 H 448 L 406.016,618.66667 H 330.66667 L 512,739.56267 693.33333,618.66667 Z"
         fill="#555958"
         p-id="76991"
         id="path12-4" />
      <path
         d="m 405.65333,640 h 21.71734 L 475.264,426.66667 h 72.512 L 596.77867,640 h 22.848 L 512,707.66933 Z"
         fill="#3b4040"
         p-id="76992"
         id="path14" />
      <path
         d="M 751.936,235.008 H 272.064 a 62.293333,62.293333 0 0 1 -62.272,-62.272 v -3.79733 a 62.250667,62.250667 0 0 1 62.272,-62.272 h 479.89333 a 62.293333,62.293333 0 0 1 62.272,62.272 v 3.776 A 62.293333,62.293333 0 0 1 751.936,235.008 Z"
         fill="#e80000"
         p-id="76993"
         id="path16" />
      <path
         d="M 270.22933,170.83733 C 253.568,170.83733 240,156.43733 240,138.752 c 0,-17.68533 13.568,-32.08533 30.22933,-32.08533 H 753.792 c 16.66133,0 30.22933,14.4 30.22933,32.08533 0,17.68533 -13.568,32.08533 -30.22933,32.08533 z"
         fill="#e58484"
         p-id="76994"
         id="path18" />
      <path
         d="m 448,106.66667 h 128 v 448 H 448 Z"
         fill="#939692"
         p-id="76995"
         id="path20" />
      <path
         d="m 469.33333,106.66667 h 85.33334 v 448 h -85.33334 z"
         fill="#aaaea8"
         p-id="76996"
         id="path22" />
      <path
         d="M 554.66667,640 H 469.33333 A 21.333333,21.333333 0 0 1 448,618.66667 V 597.33333 A 21.333333,21.333333 0 0 1 469.33333,576 h 85.33334 A 21.333333,21.333333 0 0 1 576,597.33333 v 21.33334 A 21.333333,21.333333 0 0 1 554.66667,640 Z"
         fill="#555958"
         p-id="76997"
         id="path24" />
    </g>
  </g>
</svg>
