<?xml version="1.0" encoding="UTF-8" standalone="no"?>
<svg
   xmlns:dc="http://purl.org/dc/elements/1.1/"
   xmlns:cc="http://creativecommons.org/ns#"
   xmlns:rdf="http://www.w3.org/1999/02/22-rdf-syntax-ns#"
   xmlns:svg="http://www.w3.org/2000/svg"
   xmlns="http://www.w3.org/2000/svg"
   xmlns:xlink="http://www.w3.org/1999/xlink"
   xmlns:sodipodi="http://sodipodi.sourceforge.net/DTD/sodipodi-0.dtd"
   xmlns:inkscape="http://www.inkscape.org/namespaces/inkscape"
   viewBox="0 0 250 250"
   version="1.1"
   id="svg27"
   sodipodi:docname="icon_mosquitto2.svg"
   inkscape:version="0.92.4 (5da689c313, 2019-01-14)"
   width="250"
   height="250">
  <metadata
     id="metadata31">
    <rdf:RDF>
      <cc:Work
         rdf:about="">
        <dc:format>image/svg+xml</dc:format>
        <dc:type
           rdf:resource="http://purl.org/dc/dcmitype/StillImage" />
        <dc:title></dc:title>
      </cc:Work>
    </rdf:RDF>
  </metadata>
  <sodipodi:namedview
     pagecolor="#ffffff"
     bordercolor="#666666"
     borderopacity="1"
     objecttolerance="10"
     gridtolerance="10000"
     guidetolerance="10000"
     inkscape:pageopacity="0"
     inkscape:pageshadow="2"
     inkscape:window-width="1920"
     inkscape:window-height="1026"
     id="namedview29"
     showgrid="false"
     inkscape:zoom="1.8284139"
     inkscape:cx="171.03264"
     inkscape:cy="111.37958"
     inkscape:window-x="-8"
     inkscape:window-y="1072"
     inkscape:window-maximized="1"
     inkscape:current-layer="svg27"
     inkscape:snap-path-clip="true"
     inkscape:snap-path-mask="true"
     inkscape:snap-perpendicular="true"
     inkscape:snap-tangential="true"
     showborder="true"
     borderlayer="true"
     inkscape:pagecheckerboard="true" />
  <defs
     id="defs13">
    <clipPath
       id="a"
       transform="translate(178.38 178.11)">
      <circle
         cx="489.29999"
         cy="489.29999"
         r="475.29999"
         style="fill:none"
         id="circle2" />
    </clipPath>
    <radialGradient
       id="b"
       cx="466.56"
       cy="509.06"
       r="269.37"
       gradientUnits="userSpaceOnUse">
      <stop
         offset="0"
         stop-color="#fff"
         id="stop5" />
      <stop
         offset="0.43"
         stop-color="#eaeaea"
         id="stop7" />
      <stop
         offset="1"
         stop-color="#c8c8c8"
         id="stop9" />
    </radialGradient>
    <radialGradient
       id="c"
       cx="557.79999"
       cy="414.69"
       r="215.24001"
       xlink:href="#b" />
    <radialGradient
       gradientTransform="matrix(0.20624254,0,0,0.19741436,289.26635,3.5409533)"
       id="c-0"
       cx="557.79999"
       cy="414.69"
       r="215.24001"
       xlink:href="#b-9" />
    <radialGradient
       id="b-9"
       cx="466.56"
       cy="509.06"
       r="269.37"
       gradientUnits="userSpaceOnUse">
      <stop
         offset="0"
         stop-color="#fff"
         id="stop5-7" />
      <stop
         offset="0.43"
         stop-color="#eaeaea"
         id="stop7-8" />
      <stop
         offset="1"
         stop-color="#c8c8c8"
         id="stop9-2" />
    </radialGradient>
    <radialGradient
       id="radialGradient853"
       cx="466.56"
       cy="509.06"
       r="269.37"
       gradientUnits="userSpaceOnUse">
      <stop
         offset="0"
         stop-color="#fff"
         id="stop847" />
      <stop
         offset="0.43"
         stop-color="#eaeaea"
         id="stop849" />
      <stop
         offset="1"
         stop-color="#c8c8c8"
         id="stop851" />
    </radialGradient>
  </defs>
  <ellipse
     style="opacity:1;fill:#3c5280;fill-opacity:1;fill-rule:nonzero;stroke:none;stroke-width:0;stroke-miterlimit:4;stroke-dasharray:none;stroke-opacity:1"
     id="path5119"
     cx="125.00389"
     cy="124.99835"
     rx="109.88937"
     ry="109.89038" />
  <path
     d="M 124.97673,249.99976 A 125.06189,125.02568 0 0 1 76.309325,9.83947 a 125.06045,125.02425 0 0 1 97.334805,230.33816 124.24932,124.21336 0 0 1 -48.6674,9.82213 z m 0,-242.8323147 A 117.90717,117.87304 0 0 0 79.097117,233.58952 117.90555,117.87142 0 0 0 170.85889,16.427573 117.13292,117.09903 0 0 0 124.97673,7.1674453 Z"
     style="fill:#3c5280;fill-opacity:1;stroke-width:0.25548857"
     id="path21"
     inkscape:connector-curvature="0" />
  <g
     id="g981"
     transform="matrix(0.79049477,0,0,0.79049477,-159.90754,15.92134)">
    <path
       style="fill:#f3771c;stroke-width:0.91940093"
       inkscape:connector-curvature="0"
       d="m 369.24792,212.73304 -2.48238,-3.12596 c 3.95342,-4.41312 3.49372,-11.12475 -0.9194,-15.07818 -4.41313,-3.95342 -11.12475,-3.49372 -15.07818,0.91941 -3.95342,4.41312 -3.49372,11.12475 0.9194,15.07817 3.76955,3.30984 9.28595,3.58566 13.33132,0.64358 l 2.85014,2.7582 10.48117,10.20536 z m -5.70029,-7.17132 -1.65492,-2.11463 c 0.55164,-1.65492 -0.4597,-3.49372 -2.11462,-4.04536 -1.65492,-0.55164 -3.49372,0.4597 -4.04536,2.11462 -0.55164,1.65492 0.4597,3.49373 2.11462,4.04537 0.55164,0.18388 1.10328,0.18388 1.56298,0.0919 l 1.93074,1.93074 c -2.7582,1.47104 -6.15998,0.36776 -7.63103,-2.48238 -1.47104,-2.75821 -0.36776,-6.15999 2.48239,-7.63103 2.7582,-1.47104 6.15998,-0.36776 7.63103,2.48238 0.9194,1.74686 0.82746,3.86148 -0.27583,5.60835 z"
       class="st0"
       id="path4156" />
    <path
       style="fill:#ffffff;stroke-width:0.91940093"
       inkscape:connector-curvature="0"
       d="m 317.94535,191.95458 c 1.8388,0 3.6776,0.4597 5.33252,1.3791 3.30985,1.83881 5.33253,5.33253 5.33253,9.10207 0,1.8388 -0.4597,3.67761 -1.3791,5.33253 -0.9194,1.65492 -2.20656,2.94208 -3.86149,3.86148 -1.65492,0.9194 -3.49372,1.3791 -5.33252,1.3791 -2.7582,0 -5.42447,-1.10328 -7.35521,-3.03402 -4.1373,-4.1373 -4.04536,-10.94087 0.0919,-14.98624 0.0919,-0.0919 0.18388,-0.18388 0.27582,-0.27582 1.8388,-1.74686 4.32119,-2.7582 6.89551,-2.7582 z m 55.43988,0.55164 h 5.0567 v 9.65371 c -0.0919,1.28716 0.0919,2.66627 0.36776,3.95343 0.18388,0.64358 0.64358,1.28716 1.28716,1.74686 0.64358,0.4597 1.3791,0.64358 2.11462,0.64358 0.73553,0 1.47105,-0.18388 2.11463,-0.55164 0.64358,-0.4597 1.10328,-1.01134 1.28716,-1.74686 0.27582,-1.19522 0.36776,-2.48239 0.27582,-3.67761 v -9.83759 h 5.0567 v 8.45849 c 0,3.49372 -0.27582,5.88417 -0.82746,7.17133 -0.64358,1.47104 -1.65492,2.7582 -2.94208,3.58566 -1.47104,0.9194 -3.2179,1.28716 -4.96477,1.28716 -1.93074,0.0919 -3.76954,-0.4597 -5.33252,-1.47104 -1.3791,-1.01134 -2.39044,-2.48238 -2.85014,-4.1373 -0.4597,-2.20656 -0.73552,-4.41313 -0.55164,-6.61969 z m 63.71448,-0.55164 c 1.8388,0 3.6776,0.4597 5.33253,1.3791 3.30984,1.83881 5.33252,5.33253 5.33252,9.10207 0,1.8388 -0.4597,3.67761 -1.3791,5.33253 -0.9194,1.65492 -2.20656,2.94208 -3.86148,3.86148 -1.65493,0.9194 -3.49373,1.3791 -5.33253,1.3791 -2.7582,0 -5.42446,-1.10328 -7.35521,-3.03402 -4.1373,-4.1373 -4.04536,-10.94087 0.0919,-14.98624 0.0919,-0.0919 0.18388,-0.18388 0.27582,-0.27582 1.83881,-1.74686 4.32119,-2.7582 6.89551,-2.7582 z m 0.0919,4.78089 c -1.47104,0 -2.85014,0.55164 -3.86148,1.65492 -1.01134,1.10328 -1.65492,2.66626 -1.56298,4.1373 -0.0919,1.56298 0.4597,3.12597 1.56298,4.22925 1.01134,1.10328 2.39044,1.65492 3.86148,1.65492 1.47104,0 2.94208,-0.55164 3.95343,-1.65492 2.11462,-2.39045 2.11462,-5.97611 0,-8.36655 -1.01135,-1.10328 -2.48239,-1.74686 -3.95343,-1.65492 z m -20.13488,-11.58446 h 4.96477 v 7.35521 h 2.94208 v 4.32119 h -2.94208 v 15.72175 h -4.96477 v -15.72175 h -2.57432 v -4.32119 h 2.57432 z m -11.30863,0 h 4.96476 v 7.35521 h 2.94209 v 4.32119 h -2.94209 v 15.72175 h -4.96476 v -15.72175 h -2.57432 v -4.32119 h 2.57432 z m -7.72297,-0.9194 c 0.82746,0 1.65492,0.36776 2.2985,0.9194 0.64358,0.64359 0.9194,1.47105 0.9194,2.29851 0,0.82746 -0.27582,1.65492 -0.9194,2.2985 -0.55164,0.64358 -1.3791,0.9194 -2.20656,0.9194 -0.82746,0 -1.65492,-0.36776 -2.2985,-1.01134 -0.64358,-0.64358 -1.01134,-1.47104 -0.9194,-2.2985 -0.0919,-1.65492 1.3791,-3.12597 3.12596,-3.12597 0,0 0,0 0,0 z m -2.48238,8.27461 h 5.0567 v 20.04294 h -5.0567 z m -122.46421,0 h 5.05671 v 2.2985 c 0.82746,-0.9194 1.74686,-1.65492 2.85014,-2.11462 1.10328,-0.4597 2.20656,-0.73552 3.40178,-0.73552 1.19522,0 2.39045,0.27582 3.40179,0.9194 1.01134,0.64358 1.93074,1.56298 2.39044,2.66627 0.73552,-1.10329 1.74686,-2.02269 2.94208,-2.66627 1.19522,-0.64358 2.48238,-0.9194 3.76955,-0.9194 1.28716,0 2.66626,0.27582 3.76954,1.01134 1.01134,0.64358 1.8388,1.47104 2.2985,2.57433 0.55164,1.65492 0.82746,3.40178 0.73552,5.24058 v 11.76833 h -5.0567 v -10.20535 c 0,-2.2985 -0.27582,-3.76954 -0.82746,-4.597 -0.55164,-0.82746 -1.56298,-1.28716 -2.57433,-1.19522 -0.82746,0 -1.65492,0.27582 -2.2985,0.73552 -0.73552,0.55164 -1.19522,1.19522 -1.56298,2.02268 -0.36776,1.3791 -0.55164,2.7582 -0.4597,4.1373 v 9.01013 h -4.96477 v -9.74565 c 0.0919,-1.28716 -0.0919,-2.66626 -0.36776,-3.86148 -0.18388,-0.73552 -0.64358,-1.3791 -1.19522,-1.74686 -0.55164,-0.36776 -1.19522,-0.64358 -1.93074,-0.55164 -0.82746,0 -1.65492,0.27582 -2.2985,0.73552 -0.73552,0.55164 -1.19522,1.28716 -1.56298,2.11462 -0.36776,1.3791 -0.55164,2.85014 -0.55164,4.22924 v 8.91819 h -4.96477 z m 71.89716,2.75821 -3.12597,3.12596 c -1.28716,-1.28716 -2.39044,-1.8388 -3.40178,-1.8388 -0.4597,0 -0.9194,0.0919 -1.28716,0.36776 -0.27582,0.18388 -0.4597,0.55164 -0.4597,0.9194 0,0.27582 0.0919,0.55164 0.27582,0.73552 0.4597,0.36776 0.9194,0.73552 1.47104,0.9194 l 1.8388,0.9194 c 1.56298,0.64358 2.94208,1.65492 3.95343,2.94208 1.74686,2.48239 1.3791,5.88417 -0.82747,7.99879 -1.47104,1.28716 -3.30984,1.8388 -5.24058,1.74686 -2.7582,0.0919 -5.33253,-1.19522 -6.98745,-3.40178 l 3.12596,-3.40178 c 0.55165,0.64358 1.28717,1.28716 2.02269,1.65492 0.64358,0.36776 1.3791,0.55164 2.11462,0.64358 0.55164,0 1.10328,-0.18388 1.56298,-0.4597 0.36776,-0.27582 0.55164,-0.64358 0.64358,-1.10328 0,-0.73552 -0.73552,-1.56298 -2.20656,-2.2985 l -1.65492,-0.82747 c -3.21791,-1.65492 -4.87283,-3.6776 -4.87283,-6.15998 0,-1.56298 0.64358,-3.03403 1.8388,-4.04537 1.28717,-1.19522 2.94209,-1.74686 4.68895,-1.65492 2.57432,-0.0919 4.96476,1.19522 6.52775,3.21791 z m -26.93845,1.47104 c -1.47104,0 -2.85014,0.55164 -3.86149,1.65492 -1.01134,1.10328 -1.65492,2.66626 -1.56298,4.1373 -0.0919,1.56298 0.4597,3.12597 1.56298,4.22925 1.01135,1.10328 2.39045,1.65492 3.86149,1.65492 1.47104,0 2.94208,-0.55164 3.95342,-1.65492 2.11462,-2.39045 2.11462,-5.97611 0,-8.36655 -1.01134,-1.10328 -2.48238,-1.74686 -3.95342,-1.65492 z"
       class="st1"
       id="path4158" />
    <path
       style="fill:#f3771c;stroke-width:0.91940093"
       inkscape:connector-curvature="0"
       d="m 360.42167,184.69131 2.39044,-33.19037 1.93075,-26.93845 c 5.79222,-2.39044 8.45848,-9.10207 6.06804,-14.80235 -2.39044,-5.79223 -9.10207,-8.45849 -14.80235,-6.06805 -5.79223,2.39044 -8.45849,9.10207 -6.06805,14.80236 1.10328,2.7582 3.30984,4.87282 6.06805,6.06804 l 1.93074,26.93845 z"
       class="st0"
       id="path4160" />
    <path
       style="fill:#ffffff;stroke-width:0.91940093"
       inkscape:connector-curvature="0"
       d="m 283.10005,114.08132 c 0,18.75578 6.80357,36.86798 19.12354,50.93481 l -7.35521,6.52775 C 264.34427,136.79052 266.36695,84.20079 299.37345,51.837877 l 0.36776,0.36776 21.60592,19.39936 c -20.22682,18.5719 -24.63994,48.820193 -10.38923,72.356853 l 7.44715,-6.71162 C 307.55612,117.57504 311.8773,93.02704 328.70234,78.224684 l 7.44715,6.619687 6.61968,5.884166 6.80357,6.159987 c -2.57432,1.562981 -4.68894,3.769546 -6.34387,6.343866 -5.9761,9.46983 -3.2179,21.97368 6.25193,27.94979 1.3791,0.82746 2.85014,1.56298 4.41313,2.11462 l 0.73552,9.37789 c -15.8137,-3.2179 -26.01905,-18.5719 -22.80115,-34.38559 0.82746,-3.95343 2.48238,-7.81491 4.78089,-11.124756 l -6.52775,-5.884166 v 0 c -10.66505,14.250712 -10.11341,34.017832 1.47104,47.533032 L 309.5788,158.48839 C 287.97288,133.7565 287.3293,97.072404 308.01582,71.604997 l -7.35521,-6.527746 C 290.27138,77.673044 284.11139,93.30286 283.19199,109.6682 v 0.0919 0 c 0,1.3791 -0.0919,2.85014 -0.0919,4.32118 z m 83.84937,19.12354 c 10.57311,-3.58566 16.2734,-15.07817 12.68773,-25.65129 -1.47104,-4.41312 -4.50506,-8.182664 -8.45849,-10.665046 l 6.80357,-6.159987 6.61969,-5.884166 v 0 l 7.44714,-6.619687 c 16.82504,14.802356 21.14623,39.350356 10.2973,59.025546 l 7.44714,6.71162 c 14.15878,-23.53666 9.83759,-53.784953 -10.38923,-72.356853 l 21.60592,-19.39936 0.36776,-0.36776 c 33.09844,32.362913 35.02918,84.952643 4.50507,119.706003 l -7.35521,-6.52775 c 12.31997,-14.06683 19.12354,-32.17903 19.12354,-50.93481 0,-1.47104 0,-2.94208 -0.0919,-4.41312 v 0 -0.0919 c -0.9194,-16.36534 -7.07939,-31.995156 -17.46862,-44.590949 l -7.3552,6.527746 c 20.68652,25.467407 20.04294,62.151503 -1.56299,86.883393 l -21.97368,-19.67518 c 11.67639,-13.5152 12.31997,-33.28232 1.56298,-47.533032 v 0 l -6.52774,5.884166 c 9.28595,13.147436 6.25192,31.351576 -6.89551,40.729466 -3.30984,2.39044 -7.07939,3.95342 -11.12475,4.78088 z"
       class="st1"
       id="path4162" />
  </g>
</svg>
