<?xml version="1.0" encoding="UTF-8" standalone="no"?>
<svg
   xmlns:dc="http://purl.org/dc/elements/1.1/"
   xmlns:cc="http://creativecommons.org/ns#"
   xmlns:rdf="http://www.w3.org/1999/02/22-rdf-syntax-ns#"
   xmlns:svg="http://www.w3.org/2000/svg"
   xmlns="http://www.w3.org/2000/svg"
   xmlns:xlink="http://www.w3.org/1999/xlink"
   xmlns:sodipodi="http://sodipodi.sourceforge.net/DTD/sodipodi-0.dtd"
   xmlns:inkscape="http://www.inkscape.org/namespaces/inkscape"
   viewBox="0 0 250 250"
   version="1.1"
   id="svg27"
   sodipodi:docname="icon_homeassistant.svg"
   inkscape:version="0.92.4 (5da689c313, 2019-01-14)"
   width="250"
   height="250">
  <metadata
     id="metadata31">
    <rdf:RDF>
      <cc:Work
         rdf:about="">
        <dc:format>image/svg+xml</dc:format>
        <dc:type
           rdf:resource="http://purl.org/dc/dcmitype/StillImage" />
        <dc:title></dc:title>
      </cc:Work>
    </rdf:RDF>
  </metadata>
  <sodipodi:namedview
     pagecolor="#ffffff"
     bordercolor="#666666"
     borderopacity="1"
     objecttolerance="10"
     gridtolerance="10000"
     guidetolerance="10000"
     inkscape:pageopacity="0"
     inkscape:pageshadow="2"
     inkscape:window-width="1858"
     inkscape:window-height="1057"
     id="namedview29"
     showgrid="false"
     inkscape:zoom="0.91420695"
     inkscape:cx="133.63975"
     inkscape:cy="166.57011"
     inkscape:window-x="-6"
     inkscape:window-y="-8"
     inkscape:window-maximized="1"
     inkscape:current-layer="g830"
     inkscape:snap-path-clip="true"
     inkscape:snap-path-mask="true"
     inkscape:snap-perpendicular="true"
     inkscape:snap-tangential="true"
     showborder="true"
     borderlayer="true"
     inkscape:pagecheckerboard="true" />
  <defs
     id="defs13">
    <clipPath
       id="a"
       transform="translate(178.38 178.11)">
      <circle
         cx="489.29999"
         cy="489.29999"
         r="475.29999"
         style="fill:none"
         id="circle2" />
    </clipPath>
    <radialGradient
       id="b"
       cx="466.56"
       cy="509.06"
       r="269.37"
       gradientUnits="userSpaceOnUse">
      <stop
         offset="0"
         stop-color="#fff"
         id="stop5" />
      <stop
         offset="0.43"
         stop-color="#eaeaea"
         id="stop7" />
      <stop
         offset="1"
         stop-color="#c8c8c8"
         id="stop9" />
    </radialGradient>
    <radialGradient
       id="c"
       cx="557.79999"
       cy="414.69"
       r="215.24001"
       xlink:href="#b" />
    <linearGradient
       x1="133.42035"
       y1="326.78146"
       x2="133.42035"
       y2="83.10022"
       id="linearGradient-1"
       gradientTransform="scale(0.95927378,1.0424553)"
       gradientUnits="userSpaceOnUse">
      <stop
         stop-color="#FFF100"
         offset="0%"
         id="stop2" />
      <stop
         stop-color="#F05A28"
         offset="100%"
         id="stop4" />
    </linearGradient>
  </defs>
  <g
     id="g830"
     transform="translate(5.5283648e-6,-250)">
    <ellipse
       ry="109.88975"
       rx="109.88937"
       cy="375.00217"
       cx="124.99658"
       id="path5119"
       style="opacity:1;fill:#51c0f2;fill-opacity:1;fill-rule:nonzero;stroke:none;stroke-width:0;stroke-miterlimit:4;stroke-dasharray:none;stroke-opacity:1" />
    <path
       inkscape:connector-curvature="0"
       id="path21"
       style="fill:#51c0f2;fill-opacity:1;stroke-width:0.25548783"
       d="m 124.97672,499.99977 a 125.06189,125.02496 0 0 1 -48.667401,-240.1589 125.06045,125.02353 0 0 1 97.334811,230.33682 124.24932,124.21263 0 0 1 -48.66741,9.82208 z m 0,-242.83091 A 117.90717,117.87235 0 0 0 79.097111,483.58962 117.90555,117.87073 0 0 0 170.85889,266.42893 117.13292,117.09835 0 0 0 124.97672,257.16886 Z" />
    <g
       id="g24"
       transform="matrix(0.84005734,0,0,0.84005734,-163.41455,227.06574)"
       style="fill:#ffffff">
      <path
         inkscape:connector-curvature="0"
         style="fill:#ffffff;stroke-width:0.1953125"
         d="m 343.25343,72.105594 a 5.8625,5.8625 0 0 0 -4.15,1.75625 L 244.67218,169.6306 a 4.675,4.675 0 0 0 -1.35,3.29375 v 0.006 c 0,2.60625 2.1125,4.71875 4.71875,4.71875 h 17.53125 v 67.2875 c 0,2.16875 1.75625,3.925 3.925,3.925 h 66.225 v -30.6935 l -25.425,-25.45625 a 20.2,20.2 0 0 1 -28.075,-18.6 20.1875,20.1875 0 1 1 38.76875,7.89375 l 14.73125,14.73125 V 151.9431 a 20.2125,20.2125 0 0 1 7.56875,-38.94375 20.2,20.2 0 0 1 20.18125,20.2125 20.2,20.2 0 0 1 -12.6125,18.73125 v 44.79375 l 14.7125,-14.73125 a 19.88125,19.88125 0 0 1 -1.59375,-7.8625 v -0.0312 a 20.190625,20.190625 0 1 1 40.38125,0 20.2,20.2 0 0 1 -28.20625,18.55 l 0.13125,0.05 -25.425,25.45625 v 30.69375 h 66.23125 a 3.91875,3.91875 0 0 0 3.91875,-3.91875 V 177.6494 h 17.59375 a 4.71875,4.71875 0 0 0 3.36875,-8.025 l -20.9625,-21.4375 v -33.7875 a 3.9375,3.9375 0 0 0 -3.925,-3.9375 h -16.375 a 3.9375,3.9375 0 0 0 -3.925,3.9375 v 9.1937 l -49.3,-49.756256 a 5.875,5.875 0 0 0 -4.175,-1.74375 h -0.0562 z m 0.0312,53.012506 a 8.08125,8.08125 0 0 0 0,16.1625 h 0.006 c 4.45625,0 8.06875,-3.6125 8.06875,-8.06875 v -0.006 c 0,-4.4625 -3.6125,-8.0875 -8.075,-8.0875 z m -40.8875,40.91875 h -0.006 c -4.45625,0 -8.06875,3.6125 -8.06875,8.06875 v 0.006 a 8.08125,8.08125 0 1 0 16.15,0 v -0.006 c 0,-4.45625 -3.6125,-8.06875 -8.06875,-8.06875 z m 81.76875,0 a 8.0875,8.0875 0 1 0 8.075,8.075 v -0.006 c 0,-4.45625 -3.6125,-8.06875 -8.06875,-8.06875 z"
         p-id="21476"
         id="path6" />
    </g>
  </g>
</svg>
