<?xml version="1.0" encoding="UTF-8" standalone="no"?>
<svg
   xmlns:dc="http://purl.org/dc/elements/1.1/"
   xmlns:cc="http://creativecommons.org/ns#"
   xmlns:rdf="http://www.w3.org/1999/02/22-rdf-syntax-ns#"
   xmlns:svg="http://www.w3.org/2000/svg"
   xmlns="http://www.w3.org/2000/svg"
   xmlns:xlink="http://www.w3.org/1999/xlink"
   xmlns:sodipodi="http://sodipodi.sourceforge.net/DTD/sodipodi-0.dtd"
   xmlns:inkscape="http://www.inkscape.org/namespaces/inkscape"
   viewBox="0 0 250 250"
   version="1.1"
   id="svg27"
   sodipodi:docname="icon_VMwareESXi.svg"
   inkscape:version="1.0.2-2 (e86c870879, 2021-01-15)"
   width="250"
   height="250">
  <metadata
     id="metadata31">
    <rdf:RDF>
      <cc:Work
         rdf:about="">
        <dc:format>image/svg+xml</dc:format>
        <dc:type
           rdf:resource="http://purl.org/dc/dcmitype/StillImage" />
        <dc:title></dc:title>
      </cc:Work>
    </rdf:RDF>
  </metadata>
  <sodipodi:namedview
     pagecolor="#ffffff"
     bordercolor="#666666"
     borderopacity="1"
     objecttolerance="10"
     gridtolerance="10000"
     guidetolerance="10000"
     inkscape:pageopacity="0"
     inkscape:pageshadow="2"
     inkscape:window-width="1918"
     inkscape:window-height="1004"
     id="namedview29"
     showgrid="false"
     inkscape:zoom="1.8284139"
     inkscape:cx="223.55979"
     inkscape:cy="56.972898"
     inkscape:window-x="1910"
     inkscape:window-y="0"
     inkscape:window-maximized="0"
     inkscape:current-layer="g824"
     inkscape:snap-path-clip="true"
     inkscape:snap-path-mask="true"
     inkscape:snap-perpendicular="true"
     inkscape:snap-tangential="true"
     showborder="true"
     borderlayer="true"
     inkscape:pagecheckerboard="true"
     inkscape:document-rotation="0" />
  <defs
     id="defs13">
    <clipPath
       id="a"
       transform="translate(178.38 178.11)">
      <circle
         cx="489.29999"
         cy="489.29999"
         r="475.29999"
         style="fill:none"
         id="circle2" />
    </clipPath>
    <radialGradient
       id="b"
       cx="466.56"
       cy="509.06"
       r="269.37"
       gradientUnits="userSpaceOnUse">
      <stop
         offset="0"
         stop-color="#fff"
         id="stop5" />
      <stop
         offset="0.43"
         stop-color="#eaeaea"
         id="stop7" />
      <stop
         offset="1"
         stop-color="#c8c8c8"
         id="stop9" />
    </radialGradient>
    <radialGradient
       id="c"
       cx="557.79999"
       cy="414.69"
       r="215.24001"
       xlink:href="#b" />
  </defs>
  <g
     id="g824"
     transform="matrix(0.49999225,0,0,0.4999904,0,0.0048)">
    <ellipse
       style="fill:#85b24b;fill-opacity:1;fill-rule:nonzero;stroke:none;stroke-width:0;stroke-miterlimit:4;stroke-dasharray:none;stroke-opacity:1"
       id="path5119"
       cx="250.00388"
       cy="249.99519"
       rx="219.78214"
       ry="219.78499" />
    <path
       d="M 249.95733,499.99953 A 250.12766,250.05617 0 0 1 152.62102,19.669719 250.12478,250.05331 0 0 1 347.29365,480.35489 248.5025,248.43148 0 0 1 249.95733,499.99953 Z m 0,-485.673963 A 235.81799,235.7506 0 0 0 158.19669,467.17842 235.81475,235.74736 0 0 0 341.72309,32.846178 234.26948,234.20255 0 0 0 249.95733,14.325567 Z"
       style="fill:#85b24b;stroke-width:0.510986;fill-opacity:1"
       id="path21"
       inkscape:connector-curvature="0" />
    <ellipse
       style="fill:#ffffff;fill-opacity:1;fill-rule:nonzero;stroke:none;stroke-width:0;stroke-miterlimit:4;stroke-dasharray:none;stroke-opacity:1"
       id="path5119-0"
       cx="250.00388"
       cy="249.99519"
       rx="190.24788"
       ry="190.25035" />
    <g
       id="g852"
       transform="matrix(0.29993019,0,0,0.29993131,96.439623,96.430369)">
      <path
         d="M 717.33,272.42 H 539.71 a 41.79,41.79 0 0 0 -41.66,41.66 v 177.61 a 41.29,41.29 0 0 0 2.33,13.66 41.32,41.32 0 0 0 -10.9,-1.47 H 311.87 a 41.79,41.79 0 0 0 -41.66,41.67 v 177.61 a 41.79,41.79 0 0 0 41.66,41.66 h 177.61 a 41.78,41.78 0 0 0 41.66,-41.66 V 545.55 a 41.24,41.24 0 0 0 -2.32,-13.66 41.29,41.29 0 0 0 10.89,1.46 H 717.33 A 41.78,41.78 0 0 0 759,491.69 V 314.08 a 41.79,41.79 0 0 0 -41.67,-41.66 z"
         fill="#f7c341"
         p-id="87933"
         id="path6" />
      <path
         d="M 849.38,64.22 H 396.17 c -58.47,0 -106.31,47.84 -106.31,106.31 V 293.94 H 174.62 c -58.47,0 -106.31,47.84 -106.31,106.31 v 453.22 c 0,58.47 47.84,106.31 106.31,106.31 h 453.21 c 58.47,0 106.31,-47.84 106.31,-106.31 V 730.06 h 115.24 c 58.47,0 106.31,-47.84 106.31,-106.31 V 170.53 c 0,-58.47 -47.84,-106.31 -106.31,-106.31 z m 0.23,489.69 A 70.27,70.27 0 0 1 779.55,624 H 623.61 v 162.05 a 70.27,70.27 0 0 1 -70.06,70.07 H 254.86 A 70.27,70.27 0 0 1 184.79,786.05 V 487.36 a 70.27,70.27 0 0 1 70.07,-70.07 H 410.79 V 255.22 a 70.27,70.27 0 0 1 70.06,-70.06 h 298.7 a 70.27,70.27 0 0 1 70.06,70.06 z"
         fill="#85b24b"
         p-id="87934"
         id="path8" />
    </g>
  </g>
</svg>
