<?xml version="1.0" encoding="UTF-8" standalone="no"?>
<svg
   xmlns:dc="http://purl.org/dc/elements/1.1/"
   xmlns:cc="http://creativecommons.org/ns#"
   xmlns:rdf="http://www.w3.org/1999/02/22-rdf-syntax-ns#"
   xmlns:svg="http://www.w3.org/2000/svg"
   xmlns="http://www.w3.org/2000/svg"
   xmlns:xlink="http://www.w3.org/1999/xlink"
   xmlns:sodipodi="http://sodipodi.sourceforge.net/DTD/sodipodi-0.dtd"
   xmlns:inkscape="http://www.inkscape.org/namespaces/inkscape"
   viewBox="0 0 250 250"
   version="1.1"
   id="svg27"
   sodipodi:docname="icon_mikrotik1.svg"
   inkscape:version="0.92.4 (5da689c313, 2019-01-14)"
   width="250"
   height="250">
  <metadata
     id="metadata31">
    <rdf:RDF>
      <cc:Work
         rdf:about="">
        <dc:format>image/svg+xml</dc:format>
        <dc:type
           rdf:resource="http://purl.org/dc/dcmitype/StillImage" />
        <dc:title></dc:title>
      </cc:Work>
    </rdf:RDF>
  </metadata>
  <sodipodi:namedview
     pagecolor="#ffffff"
     bordercolor="#666666"
     borderopacity="1"
     objecttolerance="10"
     gridtolerance="10000"
     guidetolerance="10000"
     inkscape:pageopacity="0"
     inkscape:pageshadow="2"
     inkscape:window-width="1920"
     inkscape:window-height="1026"
     id="namedview29"
     showgrid="false"
     inkscape:zoom="1.8284139"
     inkscape:cx="171.03264"
     inkscape:cy="111.37958"
     inkscape:window-x="-8"
     inkscape:window-y="1072"
     inkscape:window-maximized="1"
     inkscape:current-layer="svg27"
     inkscape:snap-path-clip="true"
     inkscape:snap-path-mask="true"
     inkscape:snap-perpendicular="true"
     inkscape:snap-tangential="true"
     showborder="true"
     borderlayer="true"
     inkscape:pagecheckerboard="true" />
  <defs
     id="defs13">
    <clipPath
       id="a"
       transform="translate(178.38 178.11)">
      <circle
         cx="489.29999"
         cy="489.29999"
         r="475.29999"
         style="fill:none"
         id="circle2" />
    </clipPath>
    <radialGradient
       id="b"
       cx="466.56"
       cy="509.06"
       r="269.37"
       gradientUnits="userSpaceOnUse">
      <stop
         offset="0"
         stop-color="#fff"
         id="stop5" />
      <stop
         offset="0.43"
         stop-color="#eaeaea"
         id="stop7" />
      <stop
         offset="1"
         stop-color="#c8c8c8"
         id="stop9" />
    </radialGradient>
    <radialGradient
       id="c"
       cx="557.79999"
       cy="414.69"
       r="215.24001"
       xlink:href="#b" />
    <radialGradient
       gradientTransform="matrix(0.20624254,0,0,0.19741436,289.26635,3.5409533)"
       id="c-0"
       cx="557.79999"
       cy="414.69"
       r="215.24001"
       xlink:href="#b-9" />
    <radialGradient
       id="b-9"
       cx="466.56"
       cy="509.06"
       r="269.37"
       gradientUnits="userSpaceOnUse">
      <stop
         offset="0"
         stop-color="#fff"
         id="stop5-7" />
      <stop
         offset="0.43"
         stop-color="#eaeaea"
         id="stop7-8" />
      <stop
         offset="1"
         stop-color="#c8c8c8"
         id="stop9-2" />
    </radialGradient>
    <radialGradient
       id="radialGradient853"
       cx="466.56"
       cy="509.06"
       r="269.37"
       gradientUnits="userSpaceOnUse">
      <stop
         offset="0"
         stop-color="#fff"
         id="stop847" />
      <stop
         offset="0.43"
         stop-color="#eaeaea"
         id="stop849" />
      <stop
         offset="1"
         stop-color="#c8c8c8"
         id="stop851" />
    </radialGradient>
  </defs>
  <ellipse
     style="opacity:1;fill:#676867;fill-opacity:1;fill-rule:nonzero;stroke:none;stroke-width:0;stroke-miterlimit:4;stroke-dasharray:none;stroke-opacity:1"
     id="path5119"
     cx="125.00389"
     cy="124.99835"
     rx="109.88937"
     ry="109.89038" />
  <path
     d="M 124.97673,249.99976 A 125.06189,125.02568 0 0 1 76.309325,9.83947 a 125.06045,125.02425 0 0 1 97.334805,230.33816 124.24932,124.21336 0 0 1 -48.6674,9.82213 z m 0,-242.8323147 A 117.90717,117.87304 0 0 0 79.097117,233.58952 117.90555,117.87142 0 0 0 170.85889,16.427573 117.13292,117.09903 0 0 0 124.97673,7.1674453 Z"
     style="fill:#676867;fill-opacity:1;stroke-width:0.25548857"
     id="path21"
     inkscape:connector-curvature="0" />
  <g
     id="g926"
     transform="matrix(0.40160539,0,0,0.40160539,-8.9806968,65.012029)"
     style="fill:#ffffff">
    <polygon
       transform="translate(93.432488,91.011332)"
       id="polygon4"
       style="fill:#ffffff"
       points="98.49,37.66 47.49,107.16 33.05,37.66 20.17,37.66 0,115.08 8.59,115.08 26.15,43.95 26.41,43.95 41.37,115.08 50.22,115.08 101.61,45.04 101.87,45.04 82.75,115.08 91.47,115.08 111.37,37.66 " />
    <polygon
       transform="translate(93.432488,91.011332)"
       id="polygon6"
       style="fill:#ffffff"
       points="119.73,59.13 105.28,115.08 113.48,115.08 127.92,59.13 " />
    <polygon
       transform="translate(93.432488,91.011332)"
       id="polygon8"
       style="fill:#ffffff"
       points="147.91,59.12 139.7,59.12 125.43,115.08 133.62,115.08 138.83,94.8 153.14,84.83 170.97,115.08 179.94,115.08 159.65,80.71 191.39,59.13 180.46,59.13 141.17,86.45 140.91,86.24 " />
    <path
       inkscape:connector-curvature="0"
       id="path10"
       style="fill:#ffffff;fill-rule:evenodd"
       d="m 289.65249,150.14133 -14.44,55.95 h 8.22 l 7.55,-29.27 c 2.73,-10.52 10.54,-20.38 25.24,-20.6 1.56,0 3.12,0.11 4.68,0.11 l 1.82,-6.83 c -1.43,-0.11 -3,-0.11 -4.42,-0.11 -12,-0.11 -19.13,5.64 -24.33,13.66 h -0.26 l 3.38,-12.9 z" />
    <path
       inkscape:connector-curvature="0"
       id="path12"
       style="fill:#ffffff;fill-rule:evenodd"
       d="m 379.57249,170.42133 c 0,-13.77 -10.93,-21.9 -26.54,-21.9 -23.94,0 -37.47,17.57 -37.47,35.89 0,14 9.5,23.31 26.8,23.31 24.85,0 37.21,-18.43 37.21,-37.3 m -8.2,1.41 c 0,13 -9.5,30.14 -27.45,30.14 -13.66,0 -20.17,-7.37 -20.17,-18.21 0,-13.12 9.89,-29.49 27.84,-29.49 13.14,0 19.78,7.16 19.78,17.56" />
    <polygon
       transform="translate(93.432488,91.011332)"
       id="polygon14"
       style="fill:#ffffff;fill-rule:evenodd"
       points="310.39,59.12 310.39,59.13 339.06,59.13 339.06,59.12 364.8,59.09 370.13,37.65 289.98,37.65 284.68,59.12 " />
    <polygon
       transform="translate(93.432488,91.011332)"
       id="polygon16"
       style="fill:#ffffff;fill-rule:evenodd"
       points="307.85,69.38 296.49,115.06 325.11,115.06 336.5,69.39 336.5,69.37 307.85,69.37 " />
    <path
       inkscape:connector-curvature="0"
       id="path18"
       style="fill:#ffffff;fill-rule:evenodd"
       d="m 462.83249,160.39133 -11.31,45.68 h 25.76 l 11.31,-45.68 z m 28.35,-10.29 5.35,-21.44 h -25.76 l -5.39,21.47 z" />
    <polygon
       transform="translate(93.432488,91.011332)"
       id="polygon20"
       style="fill:#ffffff;fill-rule:evenodd"
       points="439.53,37.65 413.77,37.65 394.51,115.06 420.27,115.06 424.3,99.02 430.16,94.68 439.27,115.06 467.24,115.06 450.06,81.45 480.38,58.79 449.55,58.79 430.55,75.27 430.29,75.27 " />
    <path
       inkscape:connector-curvature="0"
       id="path22"
       style="fill:#ffffff;fill-rule:evenodd"
       d="m 224.23249,91.011332 c 3.15,21.859998 14.88,35.129998 38.79,36.219998 -22.53,8.62 -45.75,-11.64 -38.79,-36.219998" />
    <path
       inkscape:connector-curvature="0"
       id="path24"
       style="fill:#ffffff;fill-rule:evenodd"
       d="m 211.73249,94.861332 c 0.27,-0.06 0.3,0.12 0.32,0.32 0.76,13.939998 6.64,24.509998 14.43,31.739998 7.79,7.23 18.25,13.08 33,12.82 -27.62,11 -56.65,-15.43 -47.76,-44.879998" />
  </g>
</svg>
